<svg xmlns="http://www.w3.org/2000/svg" width="240" height="239" viewBox="0 0 240 239"><g fill="none" fill-rule="evenodd" stroke="#000" transform="translate(5.498 5.152)"><path fill="#000" fill-rule="nonzero" stroke-width="2" d="M104.267469 112.88585C114.094868 140.526657 123.015489 168.469723 132.186668 196.32927 134.803595 204.275505 137.420523 212.22174 140.02552 220.171952 141.166946 223.659863 146.699083 222.164476 145.549703 218.648724 136.418296 190.781223 127.398247 162.869974 117.948672 135.113831 115.252202 127.187482 112.595503 119.249202 109.791652 111.362623 108.56273 107.914482 103.030593 109.401916 104.267469 112.88585L104.267469 112.88585ZM128.491947 78.9294175C129.374862 80.3651486 129.740755 81.9997344 130.385044 83.5428471 131.18444 85.4598066 132.508812 86.9870109 133.693986 88.6693219 136.020586 91.9742874 138.076744 95.4621993 139.977794 99.025676 143.946934 106.470797 147.772898 113.991483 151.805672 121.408764 159.92292 136.330822 168.417992 151.050049 177.529514 165.387475 182.624172 173.40132 187.913706 181.291876 193.41005 189.035279 195.525864 192.0181 200.493254 189.158569 198.353578 186.143931 178.674917 158.419605 161.712612 128.80616 146.197969 98.5762643 144.201468 94.690643 142.081677 90.8646781 139.643719 87.2335908 138.386957 85.3643564 136.664875 83.5905722 135.718327 81.5463456 134.875183 79.7248364 134.505313 77.7681059 133.435475 76.0340927 131.506585 72.9080964 126.551126 75.7795586 128.491947 78.9294175L128.491947 78.9294175ZM94.2809864 47.5899128C96.4405483 43.2787424 97.6495848 38.6653127 98.842713 34.0081351 99.4353 31.7014203 100.019933 29.3907284 100.608543 27.0800365 100.811374 26.2846176 101.292603 25.9028165 100.3381 26.2090528 98.9143007 26.6664186 100.823306 26.7340292 101.272717 26.8374337 102.521525 27.1277616 103.774309 27.4141124 105.023117 27.7044403 104.362919 26.8334566 103.698745 25.96645 103.038547 25.0954663 103.392508 31.7769851 103.336829 38.4704351 102.843669 45.1439997 102.585158 48.6239574 107.990029 48.6000948 108.256494 45.1439997 108.773516 38.466458 108.849081 31.7849392 108.443417 25.0954663 108.375807 23.9500631 107.655953 22.7569347 106.458848 22.4864923 104.096454 21.9575387 100.688085 20.493968 98.2978511 21.3689288 95.5854731 22.3632024 95.3905955 25.9505416 94.7940315 28.3566838 93.2986442 34.4098216 91.4930436 40.5226159 91.3260056 46.7825626 91.2782805 48.3216982 93.5651095 49.0137126 94.2809864 47.5899128L94.2809864 47.5899128Z"/><path fill="#000" fill-rule="nonzero" stroke-width="2" d="M92.1532412,42.5429799 C91.5765626,44.6309545 90.025496,45.5695488 88.2556892,46.5916621 C86.2273714,47.7609279 84.1075803,48.7273618 82.0553999,49.8449254 C77.9271765,52.0919838 74.3676775,55.4208119 71.2695215,58.920655 C65.0493467,65.9362497 60.3484218,74.152927 54.0248426,81.0810256 C50.5488626,84.887105 46.4445018,87.7307276 42.4952476,90.987968 C38.5817873,94.2173687 35.4478373,98.1944632 34.8154794,103.356732 C34.2944801,107.620177 35.7023713,112.158042 39.4527708,114.560207 C44.1536957,117.566891 50.8869156,116.477167 56.077023,115.717542 C69.3644935,113.776719 82.2622088,108.021864 94.094063,101.865321 C97.5223178,100.079606 94.5116578,95.2474362 91.1112426,96.7666863 C80.8145466,101.36023 70.8598808,106.474774 59.7757203,108.972389 C57.1150445,109.572931 54.4305062,110.030296 51.7141511,110.260968 C49.2483529,110.471754 46.3848454,110.837647 43.9747265,110.097907 C40.3038689,108.972389 40.1129684,104.764623 41.2901882,101.674421 C42.892957,97.470632 47.2995769,94.7304139 50.7119234,92.1134857 C54.3430101,89.3295196 57.5644561,86.2234088 60.4637575,82.6877718 C66.035666,75.8948944 70.5098965,68.2230791 76.4914457,61.7642776 C79.7844793,58.2087551 83.4911308,55.468537 87.6591251,53.026601 C91.3578224,50.8551074 95.4661603,47.7569508 95.0127716,42.9327351 C94.8616421,41.369737 92.614584,40.8686231 92.1532412,42.5429799 L92.1532412,42.5429799 Z"/><path fill="#000" fill-rule="nonzero" stroke-width="2" d="M83.3479554 68.2350103C82.480949 72.9916154 84.1075803 79.5577984 89.9976563 79.8521034 95.8280759 80.1464084 98.4768204 74.4591632 99.7733529 69.7303979 100.688085 66.3936156 95.454229 64.9539074 94.5951768 68.302621 94.0662233 70.3707101 93.3622777 74.152927 90.7572812 74.6341554 87.8102547 75.1750403 87.6710564 70.6530838 87.6114 68.8156661 87.5358352 66.4811117 83.8053212 65.7294408 83.3479554 68.2350103L83.3479554 68.2350103ZM107.540617 51.4795112C108.634318 54.1879126 109.310424 56.8088178 109.139409 59.7359594 108.996234 62.1977809 112.508007 63.717031 114.150547 61.8120027 121.261591 53.5674858 128.579444 45.072412 138.327301 39.8902578 136.796119 39.01132 135.268915 38.1363592 133.737734 37.2574213 134.0042 48.8307663 129.987335 59.7439136 122.749024 68.724193 120.41447 71.6195178 124.331907 75.7716044 126.924973 72.9001422 135.599014 63.2914819 140.109039 50.1352533 139.834619 37.2574213 139.782917 34.887073 137.297233 33.5348608 135.245053 34.6245847 124.964265 40.06525 117.344153 48.8745143 109.994484 57.6638932 111.664863 58.3559076 113.335243 59.0479221 115.005622 59.7399365 115.176637 55.8702235 113.987486 52.099938 111.310902 49.2841551 109.851309 47.7370653 106.673611 49.3279031 107.540617 51.4795112L107.540617 51.4795112ZM136.660898 67.463454C152.16361 98.22628 169.102053 128.253343 187.090448 157.628163 192.161243 165.904497 197.315556 174.133106 202.541458 182.310012 204.52205 185.408169 209.477509 182.536706 207.484985 179.418664 188.90798 150.354058 171.277523 120.680956 154.975415 90.2800452 150.409712 81.7650858 145.951389 73.1944472 141.604426 64.5681292 139.945978 61.2790721 135.00245 64.1743969 136.660898 67.463454L136.660898 67.463454Z"/><path fill="#000" fill-rule="nonzero" stroke-width="2" d="M122.053033 70.4462749C119.432128 73.0870656 115.820927 75.7039938 114.930058 79.5140504 114.540302 81.1685217 114.592005 83.0019622 115.399355 84.5291665 115.828881 85.3444709 116.453284 86.0603479 117.232795 86.5574847 117.857199 86.9551942 118.942945 87.0347361 119.348609 87.5994835 119.710524 88.1045745 119.706547 89.2261151 119.857677 89.8266564 120.07244 90.6698004 120.378676 91.5089674 120.855927 92.2407528 121.846224 93.7639799 123.552397 94.7184826 125.31425 95.0247189 129.537923 95.7644585 133.94852 92.8890192 135.948998 89.2460006 137.309165 86.7722478 134.242825 84.6842732 132.21053 86.35863 130.651509 87.6432315 127.911292 91.7197534 125.350043 89.8147251 124.554625 89.222138 124.570533 87.9136739 124.347816 87.0267819 124.033625 85.7620658 123.524557 84.5967771 122.542215 83.7178392 121.746796 83.0019622 120.163913 82.906512 119.662799 82.0275741 119.23725 81.2798803 119.73041 79.9952788 120.084371 79.3390582 121.504194 76.7101987 124.359747 75.290376 125.047784 72.1882423 125.417654 70.4900229 123.357519 69.1298566 122.053033 70.4462749L122.053033 70.4462749ZM122.204162 120.979238C121.007057 118.350378 120.092325 115.375511 120.064486 112.472232 120.052554 111.346715 119.801997 110.344487 120.875813 110.054159 122.228025 109.688266 124.045557 109.831442 125.445494 109.735991 127.008491 109.62861 129.052718 109.155336 130.591853 109.38203 131.43102 109.50532 130.961723 109.111588 131.546356 109.696221 131.940088 110.09393 132.162805 110.921166 132.397454 111.410348 133.586605 113.919895 134.652466 116.532846 135.443908 119.197499 136.42625 122.514396 136.656921 128.571511 131.395226 126.439788 129.048741 125.489263 127.231209 123.572303 125.544921 121.750794 123.52058 119.563392 121.798499 116.437396 118.962831 115.303924 116.739635 114.417032 115.097095 118.254928 117.320291 119.201476 117.451535 119.257156 117.260635 119.165683 117.543008 119.487827 117.881061 119.869628 118.203206 120.263361 118.533305 120.653116 118.831587 121.0031 119.129869 121.357062 119.428151 121.707046 119.551441 121.854198 120.07244 122.52235 119.941196 122.291679 120.621279 123.496738 122.474605 122.414969 121.794521 121.205932 121.957582 121.492283 121.699071 120.851971 121.6593 120.736635 121.500217 120.263361 121.34511 119.786109 121.186026 119.312835 121.038874 118.871378 120.919561 118.40208 120.740592 117.972554 120.482081 117.356105 120.557645 117.161227 120.450264 117.924829 119.078166 117.924829 117.706069 117.924829 116.333972 117.924829 116.600437 119.583277 117.809473 120.875833 118.851472 122.136572 119.957104 123.472876 121.090576 124.793271 122.287681 126.050033 124.35577 128.221527 126.630668 130.186211 129.434519 131.331615 134.910977 133.574696 140.58629 130.723119 141.310121 124.697821 141.998158 118.962851 138.975567 112.758583 136.485906 107.779261 135.90525 106.613972 135.205282 105.488455 134.051925 104.812348 132.469041 103.885685 130.727074 104.199876 129.004993 104.402708 127.290865 104.601562 125.572761 104.800417 123.858633 104.999272 122.267796 105.182218 120.454241 105.186195 118.92306 105.719126 115.725476 106.832712 115.435148 110.225174 115.713545 113.148339 116.067506 116.851014 117.296428 120.052575 119.774158 122.844495 121.022965 124.256363 122.880268 122.466671 122.204162 120.979238ZM123.468878 154.458419C124.833021 153.535733 126.924973 148.906395 128.837955 150.608592 129.91177 151.567071 130.71912 153.424375 131.434997 154.673182 132.246324 156.085051 133.049697 157.548622 133.686032 159.047986 134.855298 161.812067 135.435953 164.898292 133.220712 167.280572 131.387272 169.249234 128.706711 169.8975 126.785774 171.671284 124.797227 173.504725 126.940881 176.272782 129.223733 175.859165 131.168532 175.50918 133.204804 174.04561 134.767802 172.880321 136.287051 171.750826 137.69892 170.414522 138.62956 168.744143 141.166946 164.206278 139.595993 159.151391 137.35689 154.852151 136.227395 152.684635 134.950748 150.580752 133.522971 148.596182 132.242347 146.814443 130.69128 145.303148 128.360703 145.247468 124.208617 145.148041 120.44231 149.411486 121.201935 153.531756 121.37295 154.482282 122.689368 154.983396 123.468878 154.458419L123.468878 154.458419ZM162.655184 161.454128C160.042233 161.159823 157.051458 160.853587 154.573729 159.950787 152.430075 159.171276 151.431825 157.492942 150.715948 155.42883 150.027911 153.456191 149.566568 151.415942 148.767172 149.479097 147.995616 147.613839 146.042863 145.247468 146.225809 143.147562 146.261603 142.737922 146.488297 141.751602 147.025205 141.648198 147.164403 141.620358 148.218333 142.920868 148.500707 143.298692 150.262559 145.645178 151.984641 148.02348 153.722631 150.385874 155.389033 152.644864 157.051458 154.907831 158.717861 157.16682 159.358173 158.037804 160.400171 159.079803 160.618911 160.177481 160.75811 160.869495 161.044461 159.509329 160.364377 160.797908 160.121775 161.255274 159.966668 161.768319 160.014393 162.285341 160.328584 165.705642 164.953944 165.673826 165.311882 162.285341 165.315859 162.237616 165.323813 162.189891 165.327791 162.142166 165.069279 162.770547 164.806791 163.398928 164.54828 164.027308 169.269091 159.938855 162.360879 153.07439 159.958714 149.829081 158.057663 147.263855 156.160589 144.702606 154.259538 142.13738 152.740289 140.089177 151.272741 137.55179 148.731378 136.668875 143.278782 134.779756 139.981772 141.170946 141.282281 145.72472 141.986227 148.190518 143.549225 150.306332 144.352598 152.736337 145.104268 155.007258 145.633222 157.365675 146.746808 159.505352 149.789285 165.355658 157.302015 166.739687 163.092664 164.615918 164.842585 163.971629 164.464761 161.65696 162.655184 161.454128ZM154.14818 194.5356C152.016458 191.882878 144.654857 191.886855 145.641176 186.8439 146.015023 184.934894 149.288171 184.600818 150.73981 183.690064 152.430075 182.628179 154.152157 180.647586 156.216269 180.373167 158.367876 180.082839 160.996735 181.586181 162.782451 182.659996 164.862471 183.908804 165.124959 185.07807 163.569915 187.006961 162.181909 188.725065 160.376309 190.085232 158.407647 191.067574 156.168543 192.185138 153.810127 192.18116 151.499435 192.940786 148.325714 193.986761 149.650087 198.974038 152.887441 197.979764 152.931189 197.967833 152.978914 197.951925 153.022662 197.939993 154.987347 197.339452 155.699246 194.281066 153.635135 193.266907 153.595364 193.247022 153.555593 193.227136 153.511845 193.207251 152.839716 194.798089 152.167587 196.392904 151.499435 197.983741 156.741245 199.153007 163.164252 195.49408 166.668071 191.835153 168.581053 189.834675 170.382677 187.30922 170.195753 184.413895 170.020761 181.697539 168.179367 179.68513 166.003897 178.257353 163.677297 176.734125 160.706408 175.437593 157.946304 175.091585 154.98337 174.721716 152.509617 175.85121 150.183017 177.577269 149.184767 178.320986 148.206402 179.136291 147.080884 179.681152 145.70481 180.345327 144.241239 180.671449 143.012317 181.629929 141.019793 183.177019 140.172672 185.702474 140.466977 188.164295 140.83287 191.218704 142.670287 193.708365 145.279261 195.27534 147.486548 196.599712 151.407962 197.880337 153.861829 196.762773 154.768606 196.337224 154.653271 195.167958 154.14818 194.5356ZM156.478757 217.618657C157.480984 216.21872 158.876944 215.140927 160.121775 213.975638 161.378536 212.802395 162.579619 211.573473 163.816495 210.384322 164.57612 209.656514 165.693683 208.117378 166.906697 208.157149 168.243 208.200897 169.292953 209.835483 169.909403 210.813848 171.866133 213.927913 176.825569 211.056451 174.85293 207.9225 172.311567 203.877795 167.761772 200.79157 163.068801 203.527811 160.797881 204.848206 158.940578 207.150944 157.075321 208.964499 155.138476 210.841688 153.110158 212.520022 151.531252 214.727309 149.383621 217.730016 154.347034 220.593524 156.478757 217.618657L156.478757 217.618657ZM185.479725 201.8455C185.014405 200.883043 184.386024 199.156984 185.229168 198.242252 186.58138 196.774705 189.381254 198.643939 190.542565 199.435381 193.600951 201.511424 196.468435 196.551987 193.433913 194.491852 189.854528 192.061848 184.771802 190.777246 181.275937 194.114028 178.281185 196.973559 178.897635 201.364272 180.53222 204.740825 182.142943 208.049768 187.082494 205.150466 185.479725 201.8455L185.479725 201.8455Z"/><circle cx="114.341" cy="114.341" r="114.341" stroke-width="10"/></g></svg>