<svg xmlns="http://www.w3.org/2000/svg" width="239" height="239" viewBox="0 0 239 239"><g fill="none" fill-rule="evenodd" stroke="#000" transform="translate(5.132 5.152)"><path fill="#000" fill-rule="nonzero" stroke-width="2" d="M227.624988,108.984321 C225.886998,111.203539 223.942199,113.231858 221.981492,115.252222 C221.15028,116.107297 220.319067,116.958395 219.499786,117.825402 C218.314612,119.090118 217.014102,119.603163 215.657913,120.605391 C213.788679,121.98942 212.110345,123.647868 210.241111,125.039851 C208.212793,126.555124 206.104934,127.966993 203.909578,129.227732 C199.610339,131.69353 194.869644,133.578673 189.910208,134.107627 C185.225191,134.60874 180.396999,133.896841 175.87902,132.636102 C171.444561,131.403202 167.252704,129.319205 164.007395,125.998331 C160.209271,122.11271 158.693998,116.974303 157.8429,111.724539 C157.425305,109.159313 157.258267,106.566247 156.892375,103.993067 C156.454894,100.902865 155.707201,97.8086851 154.943599,94.7821161 C153.718654,89.9141525 151.475573,85.6507072 148.178562,81.8605361 C146.770671,80.2378816 145.187787,78.7981733 143.493545,77.4857322 C141.851006,76.2130619 139.603948,74.1728124 137.444386,73.9898661 C136.326822,73.8983929 138.271621,74.6540409 136.804074,73.7512404 C136.223418,73.3933019 135.56322,73.1188824 134.938817,72.8365087 C133.721826,72.2876696 132.469041,71.798487 131.192394,71.4047547 C128.651031,70.61729 126.014218,70.1718554 123.365474,69.9173213 C118.310587,69.4321158 113.223884,69.8536878 108.180929,70.283214 C102.704471,70.7485341 97.4189134,72.1246088 92.443569,74.4790487 C87.5994687,76.7738322 83.7218022,80.0668665 80.0827614,83.9524878 C78.328863,85.8256993 77.0402846,87.9932158 75.827271,90.2402742 C74.3159753,93.0401487 72.6535501,95.7207104 71.4922387,98.6955771 C67.3361757,109.306465 65.9322615,120.792314 61.5534812,131.355477 C53.320897,151.21311 34.2149382,164.778979 14.9697812,172.768962 C12.1738842,173.930274 13.3988291,178.547681 16.2384741,177.370461 C33.8212059,170.072492 50.3619392,159.044009 60.821696,142.801555 C66.7873367,133.538902 69.682661,122.943922 72.3433368,112.360874 C73.7631593,106.721354 75.278432,100.867071 78.2055731,95.8082065 C79.5060828,93.557171 80.5997836,91.155006 82.0832396,89.011352 C83.6979397,86.6767975 86.0324938,84.5132581 88.1960328,82.6798176 C96.4803193,75.6522916 108.296265,74.4273465 118.728182,74.4671174 C123.874542,74.4870029 129.13226,75.1949257 133.777505,77.5453886 C134.938817,78.1339986 135.777983,78.4243265 137.006905,78.7305627 C135.857525,78.4442119 137.488134,79.120318 137.64324,79.2157683 C138.156286,79.5259816 138.661376,79.8521034 139.154536,80.1861793 C141.087404,81.5025976 142.849256,83.0576416 144.416231,84.7916548 C145.851962,86.3785155 147.068953,88.1363912 148.102997,90.0096027 C149.602362,92.7219812 150.282445,95.6451456 150.958551,98.6518291 C152.183495,104.080563 152.509617,109.608724 153.611272,115.053367 C154.697019,120.41449 156.769085,125.417675 160.630843,129.358976 C163.896037,132.691781 168.012329,135.022358 172.399063,136.537631 C183.017904,140.204512 194.09411,139.623857 204.108433,134.529199 C208.988327,132.047492 213.43074,128.746503 217.594758,125.206889 C218.779932,124.200684 220.239525,123.739341 221.416745,122.772907 C222.478629,121.901924 223.401315,120.625276 224.355817,119.63498 C226.646623,117.268608 228.961292,114.938031 230.997564,112.344965 C232.874752,109.97064 229.522062,106.570224 227.624988,108.984321 L227.624988,108.984321 Z"/><path fill="#000" fill-rule="nonzero" stroke-width="2" d="M108.423532 109.222946C108.165021 109.879167 107.978098 110.702425 108.053662 111.414325 108.168998 112.488141 108.785448 113.371056 109.914942 113.522185 110.937055 113.661384 112.010871 113.029026 112.269382 111.98305 112.496076 111.068318 112.424488 110.12177 112.205748 109.218969 112.010871 108.415596 111.151818 107.743467 110.316629 107.779261 109.385989 107.823009 108.757608 108.379802 108.423532 109.222946L108.423532 109.222946ZM118.052076 107.882665C116.878834 107.763353 116.079438 108.88887 115.848766 109.899052 115.657866 110.750151 115.697637 111.617157 116.011827 112.432462 116.457262 113.593773 117.590733 114.30965 118.831587 113.784674 119.352586 113.565933 119.714501 113.204018 119.933242 112.679041 120.211638 112.014867 120.104257 111.46205 119.829837 110.821738 119.941196 111.080249 119.905402 110.992753 119.849723 110.77799 119.821883 110.670609 119.805975 110.563227 119.786089 110.455846 119.774158 110.376304 119.762227 110.296762 119.738364 110.21722 119.746318 110.288808 119.758249 110.360395 119.766204 110.431983 119.714501 110.324601 119.762227 110.137678 119.758249 110.022342 119.722456 108.968412 119.189525 107.998001 118.052076 107.882665L118.052076 107.882665ZM98.2342176 120.482101C100.035841 122.939945 102.561296 124.502943 105.591841 124.984172 107.274152 125.250637 108.916692 125.179049 110.587071 124.844973 112.321084 124.498966 114.011349 123.75525 115.801041 123.787066 119.002602 123.838769 121.822361 125.564828 125.111418 124.976218 127.565285 124.538737 130.898089 122.593938 129.967449 119.623048 129.677121 118.692408 128.559558 117.833356 127.537445 118.242997 125.680142 118.99069 124.920517 120.402559 122.689368 120.187796 120.108234 119.937239 117.765725 118.740133 115.109027 118.919103 112.456305 119.098072 110.074026 120.557666 107.421304 120.641185 104.875964 120.720726 102.4738 119.690659 100.373894 118.338447 99.1171325 117.523142 97.2996006 119.197499 98.2342176 120.482101L98.2342176 120.482101ZM86.8716606 122.363267C85.4717235 120.148025 85.1217393 117.749837 85.1813957 115.164725 85.2569605 111.871691 85.6268302 108.530932 86.7404165 105.416867 88.458521 100.60856 94.137811 94.861658 99.562567 98.5126308 101.626679 99.9046139 102.390281 102.736305 101.574976 105.054951 100.660245 107.655971 97.8484395 108.769557 95.704786 110.161541 93.2350107 111.76431 91.5686084 113.697178 90.2959383 116.353877 89.1187186 118.819675 88.4943148 121.317291 85.5711509 122.188274 84.8234572 122.410992 84.8115259 123.301861 85.3722962 123.723433 91.1669219 128.078351 93.6168117 117.169181 96.6791739 114.727245 98.9540716 112.91369 101.817579 111.951233 103.798172 109.739969 105.699223 107.612223 106.566229 104.784509 106.23613 101.952818 105.524231 95.784344 99.77733 92.2884779 93.8673686 93.2668431 87.6114 94.3008877 83.3956805 100.107446 81.9877893 105.94582 81.1287371 109.50532 80.7946612 113.454575 81.1327142 117.109525 81.4111107 120.112231 82.4570864 123.063235 85.4677464 124.204661 86.4938366 124.590439 87.4284537 123.238227 86.8716606 122.363267ZM130.285617 94.1219185C124.308045 94.4719028 121.285453 101.451704 122.498467 106.741239 123.154688 109.588839 124.984151 112.110317 127.39427 113.736949 128.746482 114.647703 130.420838 114.985756 131.729302 115.944236 132.982086 116.858968 133.741711 118.286745 134.549061 119.571346 136.072288 121.98942 137.993225 124.387608 140.888549 125.147233 143.736148 125.894926 146.555908 124.427379 147.920051 121.893969 149.582476 118.807744 148.922279 114.914169 148.361508 111.621134 147.788807 108.276398 146.7309 104.951547 145.000864 102.012474 143.302645 99.1290804 140.932297 96.5757858 138.036973 94.8735893 136.525677 93.9866972 134.791664 93.3901331 133.01788 93.5094459 131.944065 93.5810336 130.758891 94.2412313 130.015174 94.4559944 128.774321 94.8139329 129.303275 96.7587321 130.552082 96.3968165 129.875976 96.5916941 130.715143 96.4564729 131.077058 96.5399919 131.586126 96.6553277 132.059401 96.8462282 132.540629 97.0450829 133.908749 97.6058532 135.324595 98.3376386 136.557494 99.1728285 138.919888 100.767643 140.705603 103.106175 141.950433 105.647538 143.314576 108.431504 144.046361 111.577386 144.388392 114.643726 144.62304 116.747609 144.770193 122.721205 141.02377 120.478124 138.788643 119.14182 137.79437 116.250472 136.199555 114.289765 135.400159 113.307422 134.457588 112.47621 133.351956 111.847829 132.035538 111.100135 130.524242 110.734242 129.307252 109.803602 127.131781 108.137199 125.994333 105.118585 126.638622 102.449954 127.251094 99.8966597 129.347023 98.0512878 131.204325 96.3490914 132.01963 95.6053747 131.407157 94.0543078 130.285617 94.1219185Z"/><path fill="#000" fill-rule="nonzero" stroke-width="2" d="M132.815048 106.876461C133.375819 106.896346 133.900795 106.78101 134.389978 106.526476 134.895069 106.363415 135.332549 106.081042 135.702419 105.683332 136.100128 105.313462 136.382502 104.875982 136.545563 104.370891 136.800097 103.885685 136.919409 103.360709 136.895547 102.795962 136.847822 102.434046 136.800097 102.07213 136.748394 101.710215 136.553517 101.0182 136.203532 100.417659 135.698442 99.908591 135.424022 99.6938278 135.145625 99.4830418 134.871206 99.2682787 134.234871 98.8984089 133.546834 98.7114855 132.811071 98.7114855 132.250301 98.6916 131.725325 98.8069358 131.236142 99.0614698 130.731051 99.2245307 130.293571 99.5069044 129.923701 99.9046139 129.525992 100.274484 129.243618 100.711964 129.080557 101.217055 128.826023 101.702261 128.706711 102.227237 128.730573 102.791984 128.778298 103.1539 128.826023 103.515816 128.877726 103.877731 129.072603 104.569746 129.422587 105.170287 129.927678 105.679355 130.202098 105.890141 130.480494 106.104904 130.754914 106.31569 131.391249 106.68556 132.079286 106.872483 132.815048 106.876461L132.815048 106.876461ZM94.6667645 107.600292C99.9920931 107.600292 100.000047 99.3239566 94.6667645 99.3239566 89.3414358 99.319981 89.3334816 107.600292 94.6667645 107.600292L94.6667645 107.600292ZM91.6163335 148.162679C93.7957809 151.686384 98.1029735 153.527779 101.889167 154.748747 106.021367 156.081074 110.527415 156.446966 114.838584 156.745248 119.026464 157.035576 123.262069 156.97592 127.390293 156.124822 131.065127 155.365197 136.489883 153.655046 138.044927 149.904646 138.713079 148.293923 136.816005 146.890008 135.384251 147.24397 133.693986 147.661565 132.341774 149.029685 130.778776 149.781356 129.203847 150.537004 127.473811 151.006301 125.759684 151.332423 122.184277 152.012506 118.461717 151.917056 114.842561 151.734109 111.203521 151.551163 107.620159 151.173339 104.052706 150.417691 102.243128 150.03589 100.441505 149.566593 98.7353315 148.842762 96.9535934 148.087114 95.3309391 147.021252 93.5810178 146.197994 92.36005 145.625292 90.8010293 146.84626 91.6163335 148.162679L91.6163335 148.162679Z"/><circle cx="114.341" cy="114.341" r="114.341" stroke-width="10"/></g></svg>