<svg xmlns="http://www.w3.org/2000/svg" width="239" height="239" viewBox="0 0 239 239"><g fill="none" fill-rule="evenodd" stroke="#000" transform="translate(5.196 5)"><path fill="#000" fill-rule="nonzero" stroke-width="2" d="M105.516276 134.354206C106.48271 136.422296 107.775266 138.255736 108.113319 140.582336 108.443417 142.881097 108.149113 145.350873 107.524709 147.574069 106.005459 152.97894 101.972686 157.150912 98.1745612 161.092213 94.1338339 165.28407 90.0891295 169.479905 87.3449347 174.67399 84.7518695 179.585702 83.1570549 184.982619 82.7672997 190.526689 82.3894758 195.947469 83.3837493 201.431882 85.7938681 206.311777 88.164216 211.108153 92.8412784 216.353941 98.7949879 214.600042 104.001004 213.064884 107.373579 207.36173 109.37008 202.696598 111.481917 197.761024 112.651183 192.435695 114.98176 187.595571 117.463466 182.441256 121.4684 178.396551 126.535217 175.751783 131.816798 172.995657 137.504042 172.514428 143.358324 172.900206 146.408755 173.099061 146.905892 168.461769 144.066247 167.662373 134.135444 164.862498 122.629711 169.360592 115.566393 176.475614 111.700657 180.36919 109.318378 185.141703 107.488915 190.256247 105.758879 195.096371 104.49814 200.210914 101.642587 204.549924 100.564795 206.188487 98.5126142 209.087789 96.2615791 208.924728 94.0662233 208.765645 92.4793629 205.99361 91.5447458 204.311299 89.0749705 199.848999 88.3789791 194.666845 88.8442991 189.63582 89.3295045 184.374124 91.2902118 179.231741 94.1258797 174.79728 97.2478984 169.92534 101.698266 166.107329 105.492414 161.784227 109.529164 157.182729 112.643229 152.040346 113.382968 145.871872 113.975555 140.920389 112.496076 133.928657 107.301992 132.027606 105.882169 131.50263 104.987323 133.224712 105.516276 134.354206L105.516276 134.354206ZM98.5802248 128.014718C93.3702319 131.017424 86.7364394 132.735529 80.8065925 133.546856 74.7057305 134.382046 68.3901055 134.167283 62.3290145 133.101422 56.4667782 132.067377 50.6443128 129.048762 46.4047308 124.852928 43.0162469 121.500237 41.2941652 116.807265 40.9799748 112.102363 40.224327 100.672193 46.1740594 91.0197847 53.957232 83.1769544 63.0369372 74.0256599 73.6120297 66.5447452 82.5883305 57.2542524 92.9645683 46.5081431 101.988594 34.4456155 109.393943 21.4763103 107.651976 21.6990276 105.913986 21.925722 104.172019 22.1484393 110.332537 29.9594529 115.284019 38.6374731 119.587234 47.5859357 120.991149 50.5051231 125.990355 48.4449881 124.868815 45.3587628 121.162164 35.1614925 115.594232 25.9266791 108.872944 17.4435365 107.528686 15.7453171 104.613476 16.4214232 103.651019 18.1156655 96.6553114 30.4406813 88.2198954 41.8708509 78.4362445 52.1277776 73.6716861 57.1190312 68.5929373 61.7682547 63.3272651 66.2265776 58.1729515 70.5894503 52.9231876 74.8727811 48.2699878 79.7805157 39.8902511 88.6215968 33.6939389 99.8290491 34.6683269 112.364851 35.1137614 118.079936 36.9989039 123.532532 40.7254408 127.947107 44.7900307 132.767346 51.1931518 136.442181 57.1667467 138.26369 64.3056302 140.439161 72.3990161 140.395413 79.7327771 139.405116 83.3877264 138.911957 86.9710879 138.112561 90.4430908 136.859776 94.1616735 135.519495 97.2717609 133.530948 100.497184 131.299798 102.485731 129.923723 100.731833 126.773864 98.5802248 128.014718L98.5802248 128.014718ZM131.08899 62.3886814C137.197806 72.6853791 148.970004 75.3301469 160.109843 76.0420469 166.302179 76.4357792 172.510422 76.3283977 178.686849 77.0283663 186.473998 77.9112813 194.169675 79.8004012 201.515367 82.5127796 209.998508 85.6467301 217.98849 90.0096027 225.346114 95.2514133 227.851683 97.0371287 230.237939 92.9009504 227.756232 91.1311434 215.260204 82.2304059 200.871078 75.9943217 185.750167 73.2819433 179.116375 72.092792 172.466674 71.7348535 165.745385 71.5240675 160.296767 71.3530524 154.788492 71.1064726 149.479072 69.7661917 143.588996 68.2787584 138.375026 65.315823 135.213236 59.9865164 133.642284 57.3417485 129.514061 59.7359594 131.08899 62.3886814L131.08899 62.3886814Z"/><path fill="#000" fill-rule="nonzero" stroke-width="2" d="M77.143689 83.6104577C76.2369116 84.5808687 75.3221801 85.519463 74.4432423 86.5216909 74.0017849 87.0267819 73.6597548 87.7983382 73.9262201 88.4784214 74.5426697 90.0493737 75.0557148 92.2129131 76.7221171 92.9089046 77.9947871 93.4418353 79.4981286 93.4020643 80.7986383 92.9765152 83.4791995 92.0975774 85.6785324 89.5204201 85.6865104 86.6330495 85.702395 80.9179647 77.7482073 78.2652427 74.0733726 82.4213064 69.8974241 87.1460947 74.7932266 95.1360776 80.913974 92.8969733 83.7774816 91.8470204 85.9012497 88.8284057 85.237075 85.726272 84.6365338 82.9104891 82.015629 80.9855753 79.2157549 80.7668351 75.9863547 80.5123011 73.369427 82.9303745 73.071145 86.0842105 72.77684 89.1585045 74.7455015 92.5748287 78.0981916 92.5151723 80.3134328 92.4754013 80.8940885 89.6954123 79.1799611 88.5181923 78.4879468 88.040941 77.8675201 87.1739344 77.9868329 86.4262406 78.118077 85.602982 78.8220226 85.4717379 79.5538079 85.7859284 81.9241558 86.8000875 79.0964421 89.6278017 77.7203676 88.0767348 76.1136217 86.2631797 78.0942145 84.338266 80.0429904 85.2092497 82.6400327 86.3705613 80.0708301 89.4806492 77.8993369 88.6613677 78.3368172 88.9994207 78.7782746 89.3374738 79.2157549 89.6715497 78.7027098 88.7448867 78.1737563 87.8222008 77.6050319 86.9273545 77.6050319 87.6034606 77.6050319 88.2795666 77.6050319 88.9556727 78.2811379 87.7943611 78.881679 86.6211182 79.5180141 85.4399212 80.3054786 83.9723733 78.3527256 82.3139249 77.143689 83.6104577L77.143689 83.6104577ZM202.390328 158.435514C189.063087 154.263541 174.514877 158.121323 163.665365 166.524924 153.440257 174.443319 147.013273 186.215519 145.557657 199.033694 144.583269 207.612287 145.915596 216.397689 148.763195 224.510962 149.773377 227.390378 154.386805 226.149525 153.364692 223.242269 149.133064 211.16781 148.516615 197.590009 154.104432 185.825763 159.234883 175.019998 168.855473 166.596512 180.333366 163.124508 187.150104 161.060396 194.304896 160.901312 201.121635 163.037012 204.060707 163.955721 205.317469 159.350245 202.390328 158.435514L202.390328 158.435514Z"/><path fill="#000" fill-rule="nonzero" stroke-width="2" d="M81.8167743,88.3193376 C81.8287056,88.295475 81.844614,88.2755895 81.8605223,88.251727 C81.6934844,88.4704672 81.5224694,88.6852303 81.3554314,88.9039705 C81.3633856,88.8960163 81.3713398,88.884085 81.3753169,88.8761308 C79.5219912,88.1085516 77.6686654,87.3409723 75.8113626,86.5733931 C75.8034084,86.6608892 75.7994313,86.7483852 75.7914771,86.8358813 C75.8312481,87.1421176 75.8749961,87.452331 75.914767,87.7585673 C76.0301028,88.0369639 76.1494156,88.3113834 76.2647513,88.58978 C76.4476976,88.8244286 76.6266668,89.0590772 76.8096132,89.2937257 C77.0442617,89.4766721 77.2789102,89.6556413 77.5135588,89.8385877 C77.7919553,89.9539234 78.0663748,90.0732363 78.3447714,90.188572 C78.6510076,90.2283429 78.9612209,90.272091 79.2674571,90.3118619 C79.5736934,90.272091 79.8839067,90.2283429 80.1901429,90.188572 C80.6435316,90.0811904 81.0372639,89.8743815 81.3713398,89.5681453 C81.633828,89.4130386 81.8406369,89.2062297 81.9957435,88.9437414 C82.2105066,88.7250012 82.3616361,88.4704672 82.441178,88.1761622 C82.6002618,87.9057197 82.6758266,87.6114148 82.6798037,87.2972243 C82.7633226,86.990988 82.7633226,86.6807746 82.6798037,86.3745384 C82.6798037,86.0603479 82.6002618,85.77002 82.441178,85.4956005 C82.3576591,85.2012955 82.2105066,84.9467614 81.9957435,84.7280212 C81.8406369,84.465533 81.633828,84.2587241 81.3713398,84.1036174 C81.0372639,83.7973811 80.6395545,83.5905722 80.1901429,83.4831907 C80.1066239,83.4672823 80.0191279,83.4473968 79.9356089,83.4314884 C79.6452811,83.3917175 79.3589303,83.3519465 79.0686025,83.3161527 C78.6191909,83.3002443 78.201596,83.3917175 77.8118408,83.5985264 C77.5374213,83.6740912 77.2948186,83.8172666 77.0919868,84.0161213 C76.7380255,84.2467928 76.4556518,84.549052 76.25282,84.9308531 C76.1414614,85.1893642 76.0340799,85.4478753 75.9227212,85.7103636 C75.8829503,86.0006915 75.8431794,86.2870423 75.8073855,86.5773702 C75.7914771,87.0267819 75.8829503,87.4443768 76.0897592,87.834132 C76.2210033,88.2397957 76.4476976,88.5858029 76.761888,88.884085 C76.7897277,88.9119247 76.8215444,88.9397643 76.8493841,88.9636269 C77.2431164,89.3533821 77.7084364,89.6238246 78.2413669,89.7749542 C78.6629389,89.9061983 79.0805337,89.9260838 79.5021057,89.8306335 C79.9236776,89.810748 80.3134328,89.6874581 80.6753484,89.4567866 C81.1605538,89.1704358 81.5383777,88.7965889 81.8167743,88.3193376 L81.8167743,88.3193376 Z"/><circle cx="114.341" cy="114.341" r="114.341" stroke-width="10"/></g></svg>