<svg xmlns="http://www.w3.org/2000/svg" width="240" height="239" viewBox="0 0 240 239"><g fill="none" fill-rule="evenodd" stroke="#000" transform="translate(5.114 5.113)"><path fill="#000" fill-rule="nonzero" stroke-width="2" d="M76.6858322 130.595852C61.7677532 114.30965 42.3953292 102.151672 21.0025415 96.4723813 14.8698628 94.8457497 8.6019629 93.7878425 2.2863379 93.2230951-.77204726 92.9486756-.75216179 97.721189 2.2863379 97.9956085 23.3689123 99.8887055 43.6799305 108.336054 60.1530531 121.59171 64.853978 125.373927 69.2367355 129.522037 73.3092795 133.968428 75.3892996 136.239349 78.7578981 132.858819 76.6858322 130.595852L76.6858322 130.595852ZM108.415087 227.342653C110.630328 221.416782 113.116012 215.590339 115.068765 209.569018 116.01929 206.641876 111.409838 205.385114 110.467267 208.300324 108.514514 214.321646 106.02883 220.148089 103.813589 226.07396 102.735797 228.953376 107.349226 230.198207 108.415087 227.342653L108.415087 227.342653ZM156.028854 107.349735C157.460608 109.580885 159.393476 111.259219 161.159305 113.219926 162.87741 115.128932 164.448362 117.153273 165.868184 119.29295 168.787371 123.695593 171.237261 128.348794 172.919572 133.367887 176.196697 143.139608 176.896665 153.857878 174.104746 163.836408 168.739646 182.994072 149.808679 197.550238 129.847645 197.494559 123.619516 197.47865 117.490815 195.883835 111.835387 193.310655 108.621896 191.847085 105.535671 190.121026 102.544896 188.247814 99.5262821 186.354717 96.7900415 184.151407 93.421443 182.91453 90.7209963 181.920257 89.5278682 185.439985 90.919851 187.213769 93.0555504 189.942056 96.1377981 191.739703 99.0370995 193.569166 101.829019 195.331019 104.708435 196.965605 107.695233 198.381451 113.565423 201.165417 119.745827 203.130102 126.236444 203.698826 137.332536 204.677191 148.718956 201.308592 157.97763 195.239546 167.391411 189.071073 174.860393 180.174312 178.873281 169.631035 182.981619 158.833223 183.092978 146.699108 180.074363 135.614945 178.380121 129.390792 175.695583 123.373449 172.167901 117.972554 170.394117 115.260176 168.322051 112.69495 166.110787 110.328579 163.827935 107.886643 161.509289 105.552088 158.367385 104.315212 156.669166 103.639106 155.106168 105.914004 156.028854 107.349735L156.028854 107.349735ZM155.99306 99.6818966C154.74823 94.1139643 152.369928 88.8880621 150.035374 83.6979538 147.692865 78.4839829 145.179342 73.353531 142.323789 68.4020483 139.468235 63.4465886 136.290537 58.6581668 132.675359 54.2197293 129.270967 50.0437801 125.222285 45.5178466 119.793552 44.1139322 114.336979 42.7020637 108.920178 45.4383047 106.537898 50.4931918 104.064146 55.7310252 104.955015 61.8796133 106.67312 67.2208513 109.150849 74.9364146 113.664851 82.0395054 118.170898 88.7130699 121.392344 93.4816062 124.800713 98.1507152 128.415892 102.624946 128.928937 100.67617 129.445959 98.7234168 129.959004 96.7746405 122.104244 98.0194711 114.006881 99.4035 106.748684 102.78403 108.35543 103.205602 109.966153 103.627174 111.572899 104.048746 104.366405 92.8691337 97.3150179 81.5702082 89.901715 70.5297939 86.5291394 65.5107006 82.9418008 60.5830805 78.797669 56.1685056 75.0751092 52.1993653 70.5213368 48.3535149 65.0727182 47.136524 59.7593209 45.9513499 54.3783129 47.7132027 51.2801568 52.2908385 48.5359621 56.3474749 48.5558475 61.6330335 49.2478619 66.286234 50.015441 71.4564569 51.9801253 76.4715731 53.8612907 81.3196513 55.9969901 86.82395 58.4071089 92.2248444 61.1035786 97.4746091 67.2004634 109.334305 74.768873 120.386651 83.4110979 130.532219 84.6837679 132.027606 87.2410392 131.840683 88.5534802 130.532219 90.0369362 129.052739 89.8301273 126.8892 88.5534802 125.389835 74.9080713 109.38203 64.1858263 90.737411 57.7588427 70.6809235 56.2276615 65.8964788 53.5431232 52.7044563 62.690439 53.9890578 67.1288757 54.6134617 70.7917791 58.1331903 73.7189202 61.2432782 77.3818236 65.1288995 80.5436132 69.4241616 83.5343878 73.8387365 91.0590493 84.9467614 98.1860014 96.3451143 105.479992 107.604269 106.585624 109.310442 108.50656 109.712129 110.304206 108.868985 116.918113 105.770828 124.661515 104.669173 131.816307 103.519793 134.687769 103.05845 134.82299 99.4711106 133.359419 97.6694867 133.184427 97.4547236 133.013412 97.2399605 132.842397 97.0212203 132.639565 96.7627092 132.432756 96.5041981 132.229925 96.2456869 132.114589 96.0985344 131.999253 95.9513819 131.883917 95.8042294 131.287353 95.0446044 132.027093 95.99513 131.625406 95.4701535 129.947073 93.2867286 128.30851 91.0754641 126.709718 88.8323828 122.446274 82.8587868 118.322028 76.6823591 115.140352 70.0525425 113.617126 66.8788211 112.455814 63.5181763 111.934815 60.0223102 111.409838 56.5065587 112.149578 49.9523069 117.148785 50.377856 121.523588 50.7477258 124.995591 55.2418426 127.588656 58.3360221 130.766354 62.1301703 133.637816 66.158967 136.266675 70.3508246 139.293243 75.1790173 142.017553 80.2020877 144.594709 85.2808374 147.271294 90.5624189 149.578008 96.0746719 152.954561 100.95059 154.020422 102.489725 156.414632 101.571016 155.99306 99.6818966L155.99306 99.6818966ZM105.762292 140.343711C105.746457 143.099837 108.311682 145.430415 110.622374 146.551955 113.310889 147.852465 116.440862 148.015526 119.137332 146.663314 121.646878 145.406552 123.567814 142.84928 124.196195 140.124971 124.776851 137.603493 124.693332 133.578673 121.94516 132.477018 121.078154 132.131011 120.063995 132.862796 119.833323 133.674123 119.368003 135.32064 120.421933 136.955226 120.048086 138.717079 119.694125 140.383482 118.739622 142.01409 117.176624 142.809509 115.724985 143.549249 113.927339 143.497547 112.435929 142.893028 110.542832 142.125449 109.822978 140.606199 108.526445 139.198308 107.563989 138.1404 105.770319 138.979567 105.762292 140.343711L105.762292 140.343711Z"/><path fill="#000" fill-rule="nonzero" stroke-width="2" d="M140.231837,126.972719 C139.197793,132.504857 145.052075,137.197829 150.285931,136.470021 C155.647053,135.722327 159.751414,129.514082 157.806615,124.304089 C156.891883,121.850221 153.292614,122.780861 153.853384,125.393813 C154.485742,128.356748 152.950584,131.880454 149.753,132.584399 C146.090097,133.387772 143.425444,130.082807 142.498781,126.972719 C142.188568,125.93072 140.454555,125.779591 140.231837,126.972719 L140.231837,126.972719 Z"/><circle cx="114.977" cy="114.341" r="114.341" stroke-width="10"/></g></svg>