<svg xmlns="http://www.w3.org/2000/svg" width="239" height="239" viewBox="0 0 239 239"><g fill="none" fill-rule="evenodd" transform="translate(5.025 5.295)"><path fill="#000" fill-rule="nonzero" stroke="#000" stroke-width="2" d="M119.988921,56.0770325 C124.141007,56.1565743 128.320932,56.4309939 132.349729,57.5167407 C134.350207,58.0576255 136.326822,58.7178232 138.144354,59.7280052 C140.097107,60.813752 141.636243,62.3847043 143.191286,63.9675879 C150.676177,71.5837239 157.87074,80.7071787 169.463968,81.3037429 C172.11669,81.4389641 174.725663,80.9179647 177.167599,79.9077827 C178.746505,79.2555392 181.248097,77.5772053 182.759393,79.0049823 C184.040017,80.2179961 184.366139,82.5207338 184.660444,84.1632738 C185.030313,86.2353401 185.201328,88.335246 185.233145,90.443106 C185.372343,99.1608972 182.878706,107.76733 178.420383,115.232336 C175.886975,119.475896 172.832567,123.317769 169.169663,126.646597 C165.47892,130.003265 161.275132,132.40543 156.81681,134.592832 C153.746493,136.100151 155.894124,141.26242 159.159318,140.148833 C168.61287,136.911478 176.654554,129.788502 182.385546,121.754771 C188.120515,113.717063 191.473205,103.889663 192.097609,94.0543078 C192.634517,85.6149133 190.824939,67.5946981 177.895407,72.2797155 C175.254617,73.2381952 172.983696,74.618247 170.088372,74.6142699 C167.49133,74.6063157 164.910196,73.8228281 162.607458,72.6495852 C157.437236,70.0167487 153.468097,65.6459218 149.395553,61.6250793 C145.223581,57.5048094 141.182854,54.1799584 135.420045,52.6686625 C130.456632,51.3641755 124.391564,50.6562527 119.523601,52.6368457 C117.781634,53.3447685 117.873107,56.0372615 119.988921,56.0770325 L119.988921,56.0770325 Z"/><path fill="#000" fill-rule="nonzero" d="M175.974471,78.5396622 C175.910837,82.4849399 178.806162,85.9131954 182.616217,86.7921333 C184.163307,87.1500718 185.439954,86.0921647 185.551313,84.5570062 C185.813801,80.9617128 182.771324,74.9284604 178.313002,76.1772681 C175.608578,76.932916 175.680166,79.8719889 176.746027,81.9162154 C177.752232,83.8371521 179.673168,85.2291351 181.761142,85.7302491 C183.109377,86.0523937 184.489429,85.3126541 184.883161,83.9564649 C186.076289,79.836195 182.922454,75.795467 178.766391,75.5170704 C177.386339,75.4255972 176.077875,76.7976948 176.133555,78.1499069 C176.213096,80.1543626 176.944882,81.9639406 178.324933,83.4314884 C179.828275,85.0302804 181.649784,85.7103636 183.801391,85.3683335 C185.809824,85.0501659 186.056404,81.9599635 184.362162,81.0730714 C183.097446,80.4128737 181.482746,79.7685844 181.399227,78.1459298 C180.520289,79.0248677 179.645328,79.8998285 178.766391,80.7787664 C179.522038,80.8225144 180.194167,81.8207652 179.991336,82.6042528 C181.033334,82.0116657 182.071356,81.4230557 183.113354,80.8304686 C182.564515,80.7151329 182.07931,80.5679804 181.641829,80.1941335 C181.423089,80.0072101 181.303776,79.7646073 181.104922,79.5737068 C180.595854,79.0845241 181.399227,78.9174862 180.743006,79.9395995 C180.452678,80.2299274 180.158373,80.5242324 179.868046,80.8145603 C179.529993,81.0651172 179.291367,80.7230871 179.366932,80.9776211 C179.462382,81.2838574 180.110648,81.7173607 180.309503,82.0315512 C180.80664,82.8110617 180.949815,83.6422744 180.910044,84.5530291 C181.888409,83.8093124 182.866774,83.0616186 183.845139,82.317902 C181.621944,81.8724674 179.919748,80.2736754 179.263527,78.0942276 C178.72662,76.2846496 176.006287,76.6227027 175.974471,78.5396622 L175.974471,78.5396622 Z"/><path fill="#000" fill-rule="nonzero" stroke="#000" stroke-width="2" d="M150.365964 146.782627C154.152157 170.191805 154.482256 194.030509 153.046525 217.658428 152.859601 220.724768 157.632114 220.716814 157.819037 217.658428 159.282608 193.581098 158.825242 169.360592 154.967461 145.513934 154.478279 142.491342 149.876781 143.771966 150.365964 146.782627L150.365964 146.782627ZM114.094868 57.9343356C111.481917 55.3333158 108.582616 53.0504635 105.711154 50.7477258 103.137974 48.6836138 100.493207 45.8877163 96.9456392 47.6177525 95.5735419 48.2859043 94.5156349 49.4750556 93.4298883 50.5210314 92.1293786 51.7777933 90.8288689 53.0345552 89.5363134 54.2992712 87.1063091 56.6775737 84.7001673 59.0757617 82.3457278 61.529629 73.1029617 71.1581748 64.4647139 81.9162154 59.3302858 94.3486128 56.9400524 100.135285 55.4367109 106.9043 57.3099221 113.060842 59.0160954 118.660592 63.2795399 122.74109 68.7639523 124.618279 73.7790677 126.336384 79.6572123 126.069919 84.5689232 124.137051 90.2879842 121.889992 94.8059627 117.658364 98.3853472 112.750629 102.744242 106.78101 105.619681 99.7216675 108.033777 92.7776605 110.829674 84.7319983 112.651183 76.4318021 113.736929 67.9924076 113.967601 66.2027151 112.03871 64.6556253 110.400148 64.6556253 108.411601 64.6556253 107.286083 66.1947609 107.063366 67.9924076 105.556047 80.1106145 102.207334 92.5549432 96.5081589 103.404457 92.1174473 111.760333 85.0779912 119.782132 74.8409517 119.284995 71.0149874 119.098072 66.9782372 117.49928 64.8186753 114.194314 61.8557404 109.664404 62.730701 103.925456 64.3294927 99.069424 67.8969459 88.2397957 75.3738823 78.6032957 82.8667271 70.199695 87.2375532 65.2959375 91.8350737 60.6069431 96.4962276 55.9815822 97.0569979 55.424789 97.6177681 54.8679957 98.1785383 54.3151796 98.5802248 53.9174701 99.5864295 53.2652266 99.7972155 52.7521815 100.035841 52.1755028 99.4432542 52.6010519 99.4631396 52.7720669 99.4750709 52.8913798 100.274467 53.3487456 100.373894 53.4243104 101.073863 53.9333785 101.765877 54.4424466 102.469823 54.9475376 105.460597 57.0991457 108.511028 59.1791662 111.676795 61.0682861 113.625571 62.2295977 115.705591 59.5371047 114.094868 57.9343356L114.094868 57.9343356ZM68.2747698 131.808866C68.8275858 137.273394 66.9146037 142.181128 64.0829129 146.762741 61.119978 151.559117 57.5207081 156.025394 53.957232 160.380313 46.0547466 170.036698 37.3568424 179.028909 30.3412488 189.385263 28.6151901 191.934581 32.7473906 194.324814 34.461518 191.795382 41.8111874 180.949846 51.0897474 171.643444 59.2268813 161.41038 65.9123761 153.002803 74.2125709 143.302669 73.0472824 131.808866 72.7410462 128.782297 67.9645565 128.75048 68.2747698 131.808866L68.2747698 131.808866ZM144.682696 89.5800765C145.259375 89.3931531 145.760489 89.0710084 146.182061 88.6176197 146.63545 88.1960476 146.957594 87.6949337 147.144518 87.118255 147.434845 86.5614618 147.570067 85.9648976 147.546204 85.3245854 147.490525 84.9109676 147.434845 84.4973498 147.379166 84.0837319 147.156449 83.2922901 146.758739 82.6082299 146.182061 82.0275741 145.86787 81.7849713 145.55368 81.5423685 145.23949 81.2997658 144.511681 80.8781938 143.728194 80.6674078 142.889027 80.6634307 142.248715 80.6395681 141.648174 80.7747893 141.091381 81.0651172 140.514702 81.2520406 140.013588 81.5741853 139.592016 82.0275741 139.138628 82.4491461 138.816483 82.95026 138.62956 83.5269387 138.339232 84.0837319 138.204011 84.6802961 138.227873 85.3206083 138.283553 85.7342262 138.339232 86.147844 138.394911 86.5614618 138.617628 87.3529036 139.015338 88.0369639 139.592016 88.6176197 139.906207 88.8602224 140.220397 89.1028252 140.534588 89.345428 141.258419 89.767 142.041906 89.9817631 142.88505 89.9817631 143.525362 90.0056256 144.125903 89.8704044 144.682696 89.5800765Z"/><circle cx="114.341" cy="114.341" r="114.341" stroke="#000" stroke-width="10"/></g></svg>