<svg xmlns="http://www.w3.org/2000/svg" xmlns:xlink="http://www.w3.org/1999/xlink" width="193" height="48" viewBox="0 0 193 48">
  <defs>
    <rect id="google-button-b" width="185" height="40" rx="2"/>
    <filter id="google-button-a" width="102.2%" height="112.5%" x="-1.1%" y="-5%" filterUnits="objectBoundingBox">
      <feOffset dy="1" in="SourceAlpha" result="shadowOffsetOuter1"/>
      <feGaussianBlur in="shadowOffsetOuter1" result="shadowBlurOuter1" stdDeviation=".5"/>
      <feColorMatrix in="shadowBlurOuter1" result="shadowMatrixOuter1" values="0 0 0 0 0   0 0 0 0 0   0 0 0 0 0  0 0 0 0.24 0"/>
      <feOffset in="SourceAlpha" result="shadowOffsetOuter2"/>
      <feGaussianBlur in="shadowOffsetOuter2" result="shadowBlurOuter2" stdDeviation=".5"/>
      <feColorMatrix in="shadowBlurOuter2" result="shadowMatrixOuter2" values="0 0 0 0 0   0 0 0 0 0   0 0 0 0 0  0 0 0 0.12 0"/>
      <feMerge>
        <feMergeNode in="shadowMatrixOuter1"/>
        <feMergeNode in="shadowMatrixOuter2"/>
      </feMerge>
    </filter>
  </defs>
  <g fill="none" fill-rule="evenodd">
    <g transform="translate(4 4)">
      <use fill="#000" filter="url(#google-button-a)" xlink:href="#google-button-b"/>
      <use fill="#FFF" xlink:href="#google-button-b"/>
    </g>
    <g transform="translate(15 15)">
      <path fill="#4285F4" d="M17.64,9.20454545 C17.64,8.56636364 17.5827273,7.95272727 17.4763636,7.36363636 L9,7.36363636 L9,10.845 L13.8436364,10.845 C13.635,11.97 13.0009091,12.9231818 12.0477273,13.5613636 L12.0477273,15.8195455 L14.9563636,15.8195455 C16.6581818,14.2527273 17.64,11.9454545 17.64,9.20454545 L17.64,9.20454545 Z"/>
      <path fill="#34A853" d="M9,18 C11.43,18 13.4672727,17.1940909 14.9563636,15.8195455 L12.0477273,13.5613636 C11.2418182,14.1013636 10.2109091,14.4204545 9,14.4204545 C6.65590909,14.4204545 4.67181818,12.8372727 3.96409091,10.71 L0.957272727,10.71 L0.957272727,13.0418182 C2.43818182,15.9831818 5.48181818,18 9,18 L9,18 Z"/>
      <path fill="#FBBC05" d="M3.96409091,10.71 C3.78409091,10.17 3.68181818,9.59318182 3.68181818,9 C3.68181818,8.40681818 3.78409091,7.83 3.96409091,7.29 L3.96409091,4.95818182 L0.957272727,4.95818182 C0.347727273,6.17318182 0,7.54772727 0,9 C0,10.4522727 0.347727273,11.8268182 0.957272727,13.0418182 L3.96409091,10.71 L3.96409091,10.71 Z"/>
      <path fill="#EA4335" d="M9,3.57954545 C10.3213636,3.57954545 11.5077273,4.03363636 12.4404545,4.92545455 L15.0218182,2.34409091 C13.4631818,0.891818182 11.4259091,0 9,0 C5.48181818,0 2.43818182,2.01681818 0.957272727,4.95818182 L3.96409091,7.29 C4.67181818,5.16272727 6.65590909,3.57954545 9,3.57954545 L9,3.57954545 Z"/>
      <polygon points="0 0 18 0 18 18 0 18"/>
    </g>
    <path fill="#000" fill-opacity=".54" fill-rule="nonzero" d="M58.4023438,29.1367188 C59.4915365,29.1367188 60.3540039,28.8917643 60.9897461,28.4018555 C61.6254883,27.9119466 61.9433594,27.2522786 61.9433594,26.4228516 C61.9433594,25.9124349 61.8339844,25.4669596 61.6152344,25.0864258 C61.3964844,24.7058919 61.0524089,24.3686523 60.5830078,24.074707 C60.1136068,23.7807617 59.4915365,23.5187174 58.7167969,23.2885742 C57.9420573,23.058431 57.3860677,22.8214518 57.0488281,22.5776367 C56.7115885,22.3338216 56.5429688,22.0296224 56.5429688,21.6650391 C56.5429688,21.2320964 56.699056,20.8948568 57.0112305,20.6533203 C57.3234049,20.4117839 57.7620443,20.2910156 58.3271484,20.2910156 C58.9332682,20.2910156 59.3992513,20.4379883 59.7250977,20.7319336 C60.050944,21.0258789 60.2138672,21.4326172 60.2138672,21.9521484 L60.2138672,21.9521484 L61.9365234,21.9521484 C61.9365234,21.3779297 61.7815755,20.8549805 61.4716797,20.3833008 C61.1617839,19.9116211 60.7356771,19.5481771 60.1933594,19.2929688 C59.6510417,19.0377604 59.0335286,18.9101562 58.3408203,18.9101562 C57.2972005,18.9101562 56.4484049,19.1699219 55.7944336,19.6894531 C55.1404622,20.2089844 54.8134766,20.8697917 54.8134766,21.671875 C54.8134766,22.5878906 55.2669271,23.3307292 56.1738281,23.9003906 C56.6477865,24.1966146 57.2858073,24.4654948 58.0878906,24.7070312 C58.889974,24.9485677 59.4448242,25.1878255 59.7524414,25.4248047 C60.0600586,25.6617839 60.2138672,25.9990234 60.2138672,26.4365234 C60.2138672,26.8375651 60.0623372,27.1599935 59.7592773,27.4038086 C59.4562174,27.6476237 59.0039062,27.7695312 58.4023438,27.7695312 C57.7050781,27.7695312 57.1695964,27.6145833 56.7958984,27.3046875 C56.4222005,26.9947917 56.2353516,26.5572917 56.2353516,25.9921875 L56.2353516,25.9921875 L54.5058594,25.9921875 C54.5058594,26.6165365 54.6733398,27.1634115 55.0083008,27.6328125 C55.3432617,28.1022135 55.8126628,28.4702148 56.4165039,28.7368164 C57.0203451,29.003418 57.6822917,29.1367188 58.4023438,29.1367188 Z M64.4589844,20.5576172 C64.7597656,20.5576172 64.9921875,20.4744466 65.15625,20.3081055 C65.3203125,20.1417643 65.4023438,19.9332682 65.4023438,19.6826172 C65.4023438,19.4274089 65.3203125,19.2154948 65.15625,19.046875 C64.9921875,18.8782552 64.7597656,18.7939453 64.4589844,18.7939453 C64.1582031,18.7939453 63.9269206,18.8782552 63.7651367,19.046875 C63.6033529,19.2154948 63.5224609,19.4274089 63.5224609,19.6826172 C63.5224609,19.9332682 63.6033529,20.1417643 63.7651367,20.3081055 C63.9269206,20.4744466 64.1582031,20.5576172 64.4589844,20.5576172 Z M65.2861328,29 L65.2861328,21.6035156 L63.625,21.6035156 L63.625,29 L65.2861328,29 Z M70.1943359,31.9121094 C71.2197266,31.9121094 72.0343424,31.6318359 72.6381836,31.0712891 C73.2420247,30.5107422 73.5439453,29.7451172 73.5439453,28.7744141 L73.5439453,28.7744141 L73.5439453,21.6035156 L72.046875,21.6035156 L71.9716797,22.3486328 C71.4886068,21.7607422 70.8255208,21.4667969 69.9824219,21.4667969 C69.0891927,21.4667969 68.3725586,21.8097331 67.8325195,22.4956055 C67.2924805,23.1814779 67.0224609,24.0986328 67.0224609,25.2470703 C67.0224609,26.4638672 67.2970378,27.4163411 67.8461914,28.1044922 C68.3953451,28.7926432 69.1028646,29.1367188 69.96875,29.1367188 C70.766276,29.1367188 71.4042969,28.8701172 71.8828125,28.3369141 L71.8828125,28.3369141 L71.8828125,28.8359375 C71.8828125,29.4147135 71.7233073,29.8533529 71.4042969,30.1518555 C71.0852865,30.4503581 70.6500651,30.5996094 70.0986328,30.5996094 C69.351237,30.5996094 68.7223307,30.2965495 68.2119141,29.6904297 L68.2119141,29.6904297 L67.4257812,30.6884766 C67.6946615,31.0530599 68.0877279,31.3481445 68.6049805,31.5737305 C69.1222331,31.7993164 69.6520182,31.9121094 70.1943359,31.9121094 Z M70.3925781,27.7832031 C69.8548177,27.7832031 69.4344076,27.5701497 69.1313477,27.144043 C68.8282878,26.7179362 68.6767578,26.1334635 68.6767578,25.390625 C68.6767578,24.547526 68.8282878,23.9095052 69.1313477,23.4765625 C69.4344076,23.0436198 69.859375,22.8271484 70.40625,22.8271484 C71.0761719,22.8271484 71.5683594,23.1074219 71.8828125,23.6679688 L71.8828125,23.6679688 L71.8828125,26.921875 C71.5592448,27.4960938 71.0625,27.7832031 70.3925781,27.7832031 Z M77.1054688,29 L77.1054688,23.7363281 C77.4335938,23.1302083 77.9326172,22.8271484 78.6025391,22.8271484 C79.0628255,22.8271484 79.3943685,22.9399414 79.597168,23.1655273 C79.7999674,23.3911133 79.9013672,23.7386068 79.9013672,24.2080078 L79.9013672,24.2080078 L79.9013672,29 L81.5625,29 L81.5625,24.1123047 C81.5351562,22.3486328 80.7513021,21.4667969 79.2109375,21.4667969 C78.3222656,21.4667969 77.6044922,21.7972005 77.0576172,22.4580078 L77.0576172,22.4580078 L77.0097656,21.6035156 L75.4443359,21.6035156 L75.4443359,29 L77.1054688,29 Z M88.1181641,20.5576172 C88.4189453,20.5576172 88.6513672,20.4744466 88.8154297,20.3081055 C88.9794922,20.1417643 89.0615234,19.9332682 89.0615234,19.6826172 C89.0615234,19.4274089 88.9794922,19.2154948 88.8154297,19.046875 C88.6513672,18.8782552 88.4189453,18.7939453 88.1181641,18.7939453 C87.8173828,18.7939453 87.5861003,18.8782552 87.4243164,19.046875 C87.2625326,19.2154948 87.1816406,19.4274089 87.1816406,19.6826172 C87.1816406,19.9332682 87.2625326,20.1417643 87.4243164,20.3081055 C87.5861003,20.4744466 87.8173828,20.5576172 88.1181641,20.5576172 Z M88.9453125,29 L88.9453125,21.6035156 L87.2841797,21.6035156 L87.2841797,29 L88.9453125,29 Z M92.609375,29 L92.609375,23.7363281 C92.9375,23.1302083 93.4365234,22.8271484 94.1064453,22.8271484 C94.5667318,22.8271484 94.8982747,22.9399414 95.1010742,23.1655273 C95.3038737,23.3911133 95.4052734,23.7386068 95.4052734,24.2080078 L95.4052734,24.2080078 L95.4052734,29 L97.0664062,29 L97.0664062,24.1123047 C97.0390625,22.3486328 96.2552083,21.4667969 94.7148438,21.4667969 C93.8261719,21.4667969 93.1083984,21.7972005 92.5615234,22.4580078 L92.5615234,22.4580078 L92.5136719,21.6035156 L90.9482422,21.6035156 L90.9482422,29 L92.609375,29 Z M105.447266,29 L107.005859,23.9208984 L108.591797,29 L109.958984,29 L111.975586,21.6035156 L110.355469,21.6035156 L109.179688,26.7099609 L107.641602,21.6035156 L106.390625,21.6035156 L104.873047,26.6552734 L103.676758,21.6035156 L102.056641,21.6035156 L104.080078,29 L105.447266,29 Z M114.245117,20.5576172 C114.545898,20.5576172 114.77832,20.4744466 114.942383,20.3081055 C115.106445,20.1417643 115.188477,19.9332682 115.188477,19.6826172 C115.188477,19.4274089 115.106445,19.2154948 114.942383,19.046875 C114.77832,18.8782552 114.545898,18.7939453 114.245117,18.7939453 C113.944336,18.7939453 113.713053,18.8782552 113.55127,19.046875 C113.389486,19.2154948 113.308594,19.4274089 113.308594,19.6826172 C113.308594,19.9332682 113.389486,20.1417643 113.55127,20.3081055 C113.713053,20.4744466 113.944336,20.5576172 114.245117,20.5576172 Z M115.072266,29 L115.072266,21.6035156 L113.411133,21.6035156 L113.411133,29 L115.072266,29 Z M119.433594,29.1367188 C119.784505,29.1367188 120.149089,29.0843099 120.527344,28.9794922 L120.527344,28.9794922 L120.527344,27.6943359 C120.33138,27.7399089 120.137695,27.7626953 119.946289,27.7626953 C119.65918,27.7626953 119.459798,27.7000326 119.348145,27.574707 C119.236491,27.4493815 119.180664,27.2454427 119.180664,26.9628906 L119.180664,26.9628906 L119.180664,22.8339844 L120.486328,22.8339844 L120.486328,21.6035156 L119.180664,21.6035156 L119.180664,19.8056641 L117.519531,19.8056641 L117.519531,21.6035156 L116.302734,21.6035156 L116.302734,22.8339844 L117.519531,22.8339844 L117.519531,27.0244141 C117.519531,28.4326172 118.157552,29.1367188 119.433594,29.1367188 Z M123.610352,29 L123.610352,23.7158203 C123.938477,23.1233724 124.435221,22.8271484 125.100586,22.8271484 C125.528971,22.8271484 125.853678,22.9331055 126.074707,23.1450195 C126.295736,23.3569336 126.40625,23.718099 126.40625,24.2285156 L126.40625,24.2285156 L126.40625,29 L128.067383,29 L128.067383,24.1669922 C128.044596,22.366862 127.244792,21.4667969 125.667969,21.4667969 C124.838542,21.4667969 124.152669,21.78125 123.610352,22.4101562 L123.610352,22.4101562 L123.610352,18.5 L121.949219,18.5 L121.949219,29 L123.610352,29 Z M137.788086,29.1367188 C138.599284,29.1367188 139.323893,29.0159505 139.961914,28.7744141 C140.599935,28.5328776 141.098958,28.1774089 141.458984,27.7080078 L141.458984,27.7080078 L141.458984,23.8935547 L137.685547,23.8935547 L137.685547,25.2060547 L139.736328,25.2060547 L139.736328,27.1542969 C139.36263,27.5553385 138.733724,27.7558594 137.849609,27.7558594 C137.042969,27.7558594 136.412923,27.4584961 135.959473,26.8637695 C135.506022,26.269043 135.279297,25.4339193 135.279297,24.3583984 L135.279297,24.3583984 L135.279297,23.5927734 C135.292969,22.5126953 135.501465,21.6935221 135.904785,21.1352539 C136.308105,20.5769857 136.897135,20.2978516 137.671875,20.2978516 C138.870443,20.2978516 139.56543,20.8971354 139.756836,22.0957031 L139.756836,22.0957031 L141.452148,22.0957031 C141.319987,21.0657552 140.92806,20.2773438 140.276367,19.7304688 C139.624674,19.1835938 138.745117,18.9101562 137.637695,18.9101562 C136.347982,18.9101562 135.343099,19.3328451 134.623047,20.1782227 C133.902995,21.0236003 133.542969,22.1982422 133.542969,23.7021484 L133.542969,23.7021484 L133.542969,24.4814453 C133.556641,25.4202474 133.737793,26.2416992 134.086426,26.9458008 C134.435059,27.6499023 134.930664,28.1910807 135.573242,28.5693359 C136.21582,28.9475911 136.954102,29.1367188 137.788086,29.1367188 Z M146.551758,29.1367188 C147.235352,29.1367188 147.838053,28.9794922 148.359863,28.6650391 C148.881673,28.3505859 149.282715,27.90625 149.562988,27.3320312 C149.843262,26.7578125 149.983398,26.1061198 149.983398,25.3769531 L149.983398,25.3769531 L149.976562,24.9873047 C149.926432,23.9254557 149.590332,23.0732422 148.968262,22.4306641 C148.346191,21.7880859 147.536133,21.4667969 146.538086,21.4667969 C145.863607,21.4667969 145.266602,21.6228841 144.74707,21.9350586 C144.227539,22.2472331 143.824219,22.6938477 143.537109,23.2749023 C143.25,23.855957 143.106445,24.5087891 143.106445,25.2333984 L143.106445,25.2333984 L143.106445,25.3154297 C143.106445,26.4729818 143.419759,27.3992513 144.046387,28.0942383 C144.673014,28.7892253 145.508138,29.1367188 146.551758,29.1367188 Z M146.551758,27.8105469 C145.991211,27.8105469 145.553711,27.5952148 145.239258,27.1645508 C144.924805,26.7338867 144.767578,26.1380208 144.767578,25.3769531 C144.767578,24.5201823 144.927083,23.8764648 145.246094,23.4458008 C145.565104,23.0151367 145.995768,22.7998047 146.538086,22.7998047 C147.089518,22.7998047 147.525879,23.0185547 147.847168,23.4560547 C148.168457,23.8935547 148.329102,24.4860026 148.329102,25.2333984 C148.329102,26.0764974 148.173014,26.7167969 147.86084,27.1542969 C147.548665,27.5917969 147.112305,27.8105469 146.551758,27.8105469 Z M154.741211,29.1367188 C155.424805,29.1367188 156.027507,28.9794922 156.549316,28.6650391 C157.071126,28.3505859 157.472168,27.90625 157.752441,27.3320312 C158.032715,26.7578125 158.172852,26.1061198 158.172852,25.3769531 L158.172852,25.3769531 L158.166016,24.9873047 C158.115885,23.9254557 157.779785,23.0732422 157.157715,22.4306641 C156.535645,21.7880859 155.725586,21.4667969 154.727539,21.4667969 C154.05306,21.4667969 153.456055,21.6228841 152.936523,21.9350586 C152.416992,22.2472331 152.013672,22.6938477 151.726562,23.2749023 C151.439453,23.855957 151.295898,24.5087891 151.295898,25.2333984 L151.295898,25.2333984 L151.295898,25.3154297 C151.295898,26.4729818 151.609212,27.3992513 152.23584,28.0942383 C152.862467,28.7892253 153.697591,29.1367188 154.741211,29.1367188 Z M154.741211,27.8105469 C154.180664,27.8105469 153.743164,27.5952148 153.428711,27.1645508 C153.114258,26.7338867 152.957031,26.1380208 152.957031,25.3769531 C152.957031,24.5201823 153.116536,23.8764648 153.435547,23.4458008 C153.754557,23.0151367 154.185221,22.7998047 154.727539,22.7998047 C155.278971,22.7998047 155.715332,23.0185547 156.036621,23.4560547 C156.35791,23.8935547 156.518555,24.4860026 156.518555,25.2333984 C156.518555,26.0764974 156.362467,26.7167969 156.050293,27.1542969 C155.738118,27.5917969 155.301758,27.8105469 154.741211,27.8105469 Z M162.677734,31.9121094 C163.703125,31.9121094 164.517741,31.6318359 165.121582,31.0712891 C165.725423,30.5107422 166.027344,29.7451172 166.027344,28.7744141 L166.027344,28.7744141 L166.027344,21.6035156 L164.530273,21.6035156 L164.455078,22.3486328 C163.972005,21.7607422 163.308919,21.4667969 162.46582,21.4667969 C161.572591,21.4667969 160.855957,21.8097331 160.315918,22.4956055 C159.775879,23.1814779 159.505859,24.0986328 159.505859,25.2470703 C159.505859,26.4638672 159.780436,27.4163411 160.32959,28.1044922 C160.878743,28.7926432 161.586263,29.1367188 162.452148,29.1367188 C163.249674,29.1367188 163.887695,28.8701172 164.366211,28.3369141 L164.366211,28.3369141 L164.366211,28.8359375 C164.366211,29.4147135 164.206706,29.8533529 163.887695,30.1518555 C163.568685,30.4503581 163.133464,30.5996094 162.582031,30.5996094 C161.834635,30.5996094 161.205729,30.2965495 160.695312,29.6904297 L160.695312,29.6904297 L159.90918,30.6884766 C160.17806,31.0530599 160.571126,31.3481445 161.088379,31.5737305 C161.605632,31.7993164 162.135417,31.9121094 162.677734,31.9121094 Z M162.875977,27.7832031 C162.338216,27.7832031 161.917806,27.5701497 161.614746,27.144043 C161.311686,26.7179362 161.160156,26.1334635 161.160156,25.390625 C161.160156,24.547526 161.311686,23.9095052 161.614746,23.4765625 C161.917806,23.0436198 162.342773,22.8271484 162.889648,22.8271484 C163.55957,22.8271484 164.051758,23.1074219 164.366211,23.6679688 L164.366211,23.6679688 L164.366211,26.921875 C164.042643,27.4960938 163.545898,27.7832031 162.875977,27.7832031 Z M169.71875,29 L169.71875,18.5 L168.057617,18.5 L168.057617,29 L169.71875,29 Z M175.00293,29.1367188 C175.618164,29.1367188 176.173014,29.0148112 176.66748,28.7709961 C177.161947,28.527181 177.557292,28.1842448 177.853516,27.7421875 L177.853516,27.7421875 L176.958008,26.8876953 C176.479492,27.5029297 175.859701,27.8105469 175.098633,27.8105469 C174.556315,27.8105469 174.106283,27.6328125 173.748535,27.2773438 C173.390788,26.921875 173.186849,26.4388021 173.136719,25.828125 L173.136719,25.828125 L177.969727,25.828125 L177.969727,25.1582031 C177.969727,23.9824219 177.69515,23.0732422 177.145996,22.4306641 C176.596842,21.7880859 175.818685,21.4667969 174.811523,21.4667969 C174.17806,21.4667969 173.603841,21.6285807 173.088867,21.9521484 C172.573893,22.2757161 172.173991,22.7280273 171.88916,23.309082 C171.604329,23.8901367 171.461914,24.5498047 171.461914,25.2880859 L171.461914,25.2880859 L171.461914,25.4931641 C171.461914,26.5960286 171.7889,27.4790039 172.442871,28.1420898 C173.096842,28.8051758 173.950195,29.1367188 175.00293,29.1367188 Z M176.329102,24.6113281 L173.164062,24.6113281 C173.241536,24.0416667 173.42041,23.5973307 173.700684,23.2783203 C173.980957,22.9593099 174.348958,22.7998047 174.804688,22.7998047 C175.264974,22.7998047 175.625,22.9422201 175.884766,23.2270508 C176.144531,23.5118815 176.292643,23.9322917 176.329102,24.4882812 L176.329102,24.4882812 L176.329102,24.6113281 Z"/>
  </g>
</svg>
