<svg xmlns="http://www.w3.org/2000/svg" width="239" height="239" viewBox="0 0 239 239"><g fill="none" fill-rule="evenodd" stroke="#000" transform="translate(5.219 5.152)"><path fill="#000" fill-rule="nonzero" stroke-width="2" d="M200.906872 188.585867C195.776421 180.484526 190.936298 172.172398 186.728532 163.550057 182.998018 155.906082 179.697031 146.953642 172.454743 141.91864 169.925311 140.160764 167.539055 144.296943 170.044624 146.03891 173.341635 148.329716 175.401769 151.785812 177.271003 155.253838 179.398749 159.203093 181.279914 163.279615 183.264484 167.300457 187.29328 175.449524 191.926594 183.316217 196.786603 190.995986 198.425165 193.581098 202.553389 191.190864 200.906872 188.585867L200.906872 188.585867ZM86.1557837 188.971645C75.7636375 185.038299 66.0555514 179.494229 58.6263402 171.110514 51.0420222 162.551806 46.5638146 151.11766 47.0728826 139.635788 47.3473021 133.411635 49.2682384 127.402245 51.2647395 121.547962 53.3805534 115.351649 55.484436 109.199084 56.8923273 102.788007 58.2882872 96.4286333 59.2030188 89.9698318 59.9069644 83.5030761 60.4796659 78.237403 60.5194368 72.7688981 62.1420911 67.6821942 63.6056616 63.0886501 67.2486796 59.4098377 72.3473139 61.6012167 78.3089775 64.1624656 80.1185552 71.2138541 81.6895073 76.8772367 82.7235517 80.5958201 88.5181774 79.0129364 87.4761788 75.2824218 85.7978452 69.2650778 83.8252067 62.7307116 78.7742975 58.6422584 74.1290519 54.8878812 67.4952594 53.4958981 62.3528771 57.1468709 57.9661426 60.2609359 56.1486107 65.6856928 55.3253523 70.7843279 54.251537 77.4419841 54.0327968 84.2189531 53.0544317 90.8964948 52.008456 98.0433336 50.5130687 105.118585 48.2978275 111.998958 46.1024717 118.827629 43.3662311 125.52108 42.0498131 132.600308 39.6198087 145.665063 42.8253464 159.20707 50.4454582 170.064538 58.5547525 181.617997 71.2456589 190.061369 85.0302661 193.068053 87.7307128 193.66064 88.6891924 189.930125 86.1557837 188.971645L86.1557837 188.971645Z"/><path fill="#000" fill-rule="nonzero" stroke-width="2" d="M95.7843278,75.7159251 C102.859578,76.0698865 109.970622,75.755696 116.994169,76.8533741 C123.997831,77.9470751 130.874227,79.836195 137.368821,82.695726 C138.732964,83.2962672 140.455046,83.1491147 141.250465,81.6775898 C143.330485,77.8317394 145.740603,73.7790801 149.622247,71.5081591 C152.38235,69.8934588 156.423077,69.2809862 159.159318,71.2973731 C162.44042,73.7114695 162.22168,78.571479 161.466032,82.1031389 C160.3604,87.2654075 158.725815,92.1373483 158.272426,97.4427924 C156.514551,117.920852 166.465239,137.440432 164.580097,157.890652 C163.76877,166.695939 160.209271,176.085859 153.010731,181.625952 C151.749992,182.596363 151.10968,184.131521 151.960778,185.630886 C152.676655,186.887648 154.700996,187.62341 155.965712,186.680839 C163.760816,180.870304 168.302657,172.104787 169.969059,162.627371 C171.937721,151.404011 170.000876,140.097131 167.809497,129.056717 C165.566416,117.777677 162.850061,106.045248 164.703387,94.5037195 C165.582325,89.0352146 167.972558,83.7774957 167.920856,78.1697924 C167.877108,73.3773935 165.980034,68.4418193 161.680796,65.9362497 C157.28213,63.3750009 151.54716,63.8522522 147.184289,66.2345318 C142.208944,68.9508874 138.923865,73.9222555 136.358639,78.8101046 C137.651195,78.4720516 138.947727,78.1300215 140.240283,77.7919684 C133.129239,74.7733537 125.743776,72.6217456 118.071962,71.6155407 C110.539346,70.6292212 102.696517,70.2712827 95.3587788,72.5262953 C93.5810178,73.0751344 93.9548647,75.6244519 95.7843278,75.7159251 L95.7843278,75.7159251 Z"/><path fill="#000" fill-rule="nonzero" stroke-width="2" d="M78.118077,149.459211 C75.4534242,146.989436 74.3159753,143.135631 74.9045852,139.568177 C75.6323934,135.145648 79.1163276,133.447429 82.568445,131.220256 C87.1063091,128.297091 89.2181459,124.06944 92.1691495,119.750315 C94.1417881,116.858968 97.9001417,114.023299 100.787512,117.49928 C103.762378,121.082642 101.813602,126.511376 99.9801618,130.166326 C98.0234317,134.063879 95.4621832,137.60747 93.0282018,141.210717 C88.2198954,148.325739 83.8212296,156.411173 85.8932955,165.280093 C88.0687658,174.60638 96.4047545,180.981662 105.281628,183.383827 C114.727226,185.941099 127.05224,185.340558 134.656443,178.551658 C138.38298,175.226807 141.143083,170.163965 141.3658,165.132941 C141.600449,159.867268 140.220397,154.255587 138.215942,149.427395 C136.191601,144.559431 133.065605,140.124971 131.482722,135.082015 C130.321411,131.383317 129.740755,126.133552 132.982086,123.254136 C135.602991,120.923558 139.647696,120.8122 141.019793,124.443287 C142.586768,128.595374 141.839074,133.224712 143.672515,137.352936 C144.726445,139.727261 146.48432,141.437412 148.516615,142.988479 C150.091544,144.189561 152.147702,145.323033 153.078342,147.140565 C155.309491,151.499461 150.771627,155.21009 146.631472,153.973214 C143.612858,153.070413 141.429434,157.842927 144.43214,159.187184 C149.296125,161.362655 154.951553,160.078054 158.08948,155.623708 C161.135934,151.296629 160.260973,145.255422 156.717382,141.536839 C155.162339,139.902253 153.161861,138.796621 151.455687,137.344981 C149.876781,136.000724 149.089316,134.497382 148.647859,132.50088 C147.709265,128.277206 148.122883,123.659799 145.629245,119.897468 C142.948684,115.852763 137.961408,114.440894 133.431498,115.995938 C128.810115,117.582799 125.616509,121.500237 124.72564,126.276727 C123.67171,131.94011 125.441517,137.440432 127.887429,142.491342 C130.492426,147.868374 133.395704,152.819856 134.53713,158.773567 C135.026313,161.326861 135.49561,164.289797 134.819504,166.843091 C134.1951,169.193554 132.807094,171.484361 131.120807,173.226328 C127.211323,177.267056 121.388858,178.241444 115.987964,178.348826 C106.446916,178.539726 94.9053901,174.308098 92.2049434,164.130713 C89.7828932,155.007258 97.2359671,146.671268 101.849396,139.61988 C107.051435,131.673645 113.267632,118.517416 103.400463,111.398417 C98.2660344,107.691765 92.0060887,110.042228 88.287506,114.532367 C86.4739512,116.719769 85.2609376,119.245224 83.7814586,121.651367 C82.142896,124.319997 80.0310592,125.879018 77.4618565,127.577237 C72.860359,130.623692 69.6190275,134.596809 69.4678979,140.327802 C69.3406309,145.191789 71.714956,149.821127 75.9028358,152.322719 C77.6607112,153.376649 79.6611894,150.890965 78.118077,149.459211 L78.118077,149.459211 Z"/><path fill="#000" fill-rule="nonzero" stroke-width="2" d="M93.3980715 135.117809C93.4298883 135.1019 94.2451925 134.473519 94.2730322 134.44568 94.2809864 134.437725 94.2889405 134.429771 94.2968947 134.421817 94.308826 134.409886 94.3207573 134.393977 94.3326886 134.378069 94.4599556 134.226939 94.8974359 133.666169 95.0048174 133.507085 95.0087945 133.499131 95.0127716 133.495154 95.0207258 133.4872 95.0247029 133.479246 95.0326571 133.471291 95.0366342 133.45936 95.0684509 133.403681 95.454229 132.484972 95.4701374 132.425316 95.5218396 132.047492 95.5695648 131.673645 95.621267 131.295821 95.6451295 130.711188 95.5218396 130.166326 95.2553744 129.657258 95.155947 129.299319 94.9730007 128.985129 94.7105125 128.718664 94.4122305 128.257321 94.0145211 127.891428 93.5173843 127.624963 93.1793314 127.481787 92.8412784 127.338612 92.5032254 127.195436 92.1254015 127.143734 91.7515547 127.096009 91.3737308 127.044307 90.789098 127.020444 90.2442361 127.143734 89.7351681 127.410199 89.2101917 127.581214 88.7528259 127.875519 88.3670478 128.289137 88.3392082 128.313 88.3153456 128.344817 88.287506 128.368679 88.5738567 128.145962 88.8641846 127.923245 89.1505353 127.700527 88.840322 127.935176 88.4903377 128.118122 88.2278496 128.412427 87.8102547 128.798205 87.5159498 129.255571 87.3449347 129.784525 87.0784694 130.293593 86.9551795 130.842432 86.9790421 131.427065 87.0307443 131.804889 87.0824465 132.182713 87.1301717 132.560537 87.2614157 133.11733 87.5159498 133.598558 87.8937737 134.012176 88.0846742 134.334321 88.3392082 134.588855 88.6573757 134.775778 89.0709934 135.153602 89.5522218 135.408136 90.1090149 135.539381 90.4868388 135.591083 90.8646628 135.642785 91.2424867 135.69051 92.01802 135.698464 92.7338969 135.503587 93.3980715 135.117809L93.3980715 135.117809ZM136.851799 138.748896C137.464271 138.772758 138.032996 138.645491 138.561949 138.367095 139.110788 138.188126 139.588039 137.881889 139.989726 137.448386 140.423229 137.046699 140.729465 136.569448 140.908434 136.020609 141.186831 135.491655 141.314098 134.922931 141.290235 134.310458 141.238533 133.916726 141.182854 133.522994 141.131152 133.129261 140.920366 132.37759 140.538565 131.725347 139.989726 131.172531 139.691444 130.941859 139.389185 130.711188 139.090903 130.480516 138.398888 130.07883 137.651195 129.875998 136.851799 129.875998 136.239326 129.852135 135.670602 129.979402 135.141648 130.257799 134.592809 130.436768 134.115558 130.743005 133.713872 131.176508 133.280368 131.578194 132.974132 132.055446 132.795163 132.604285 132.516766 133.133238 132.389499 133.701963 132.413362 134.314435 132.465064 134.708168 132.520744 135.1019 132.572446 135.495633 132.783232 136.247303 133.165033 136.899547 133.713872 137.452363 134.012154 137.683035 134.310436 137.913706 134.612695 138.144377 135.304709 138.546064 136.052403 138.748896 136.851799 138.748896L136.851799 138.748896ZM111.481917 170.358843C113.168205 170.48611 114.73518 170.63724 116.393628 170.927567 118.127641 171.233804 119.909379 170.462247 120.406516 168.648692 120.883767 166.906725 119.821883 165.148849 118.127641 164.635804 115.812972 163.935835 113.021052 163.856293 110.67059 164.385247 109.210997 164.715346 108.280357 166.302207 108.491143 167.722029 108.729768 169.285027 109.930851 170.243507 111.481917 170.358843L111.481917 170.358843ZM57.8945549 186.231427C56.6298391 195.386699 55.993504 204.589695 55.8463516 213.828486 55.7986265 216.898803 60.567162 216.90278 60.6188642 213.828486 60.7620396 205.027176 61.290993 196.221888 62.5000296 187.50012 62.6789988 186.215519 62.1858391 184.95478 60.8336272 184.565024 59.720041 184.246857 58.0735241 184.958757 57.8945549 186.231427L57.8945549 186.231427Z"/><circle cx="114.341" cy="114.341" r="114.341" stroke-width="10"/></g></svg>