<svg xmlns="http://www.w3.org/2000/svg" width="240" height="239" viewBox="0 0 240 239"><g fill="none" fill-rule="evenodd" stroke="#000" transform="translate(5.769 5.06)"><path fill="#000" fill-rule="nonzero" stroke-width="2" d="M119.762227 58.033763C116.727704 66.3299821 110.587071 73.9500951 102.652769 77.9550293 95.7684195 81.4310099 85.746143 82.8428784 83.6144207 91.6720282 82.4650406 96.4365875 84.389954 101.061948 84.13542 105.830485 83.880886 110.610952 80.0032195 115.128932 77.1953913 118.77195 74.0813268 122.808701 70.5417133 125.485286 65.7771549 127.298841 61.1796344 129.048762 56.8923273 130.842432 53.1976071 134.187168 46.6910816 140.081223 42.8412547 149.208654 43.6923528 158.005987 44.5514051 166.894794 49.5347037 175.123402 57.051411 179.975457 65.9680554 185.730313 76.9249489 184.382078 86.6608746 187.619433 95.9632971 190.713613 103.635111 197.72523 113.486372 199.363793 118.386152 200.179098 123.516603 199.948426 128.010719 197.653642 132.130988 195.54976 134.990519 191.600505 136.816005 187.448418 140.550496 178.961298 140.856732 169.217417 139.615879 160.145664 139.40907 158.622437 137.476202 157.823041 136.139899 158.173025 134.50929 158.602552 133.956474 160.145664 134.16726 161.649006 135.181419 168.923112 134.867229 176.833553 132.325866 183.773583 131.132738 187.0348 129.179985 190.490895 126.141485 192.352176 122.947879 194.308906 118.982716 194.603211 115.339698 194.121983 106.228176 192.9209 98.6677209 186.656976 90.2840071 183.371896 81.1128287 179.776603 70.446263 181.307784 61.6370002 176.738103 54.5020939 173.039405 49.3159635 165.486902 48.7193994 157.421355 48.1109041 149.176838 52.1476543 140.669832 59.000187 135.992769 62.8341054 133.375841 67.3719695 132.361682 71.4882616 130.321433 75.6284163 128.269252 78.7782746 124.952355 81.5383777 121.313314 84.2030306 117.793585 87.2216448 113.943757 88.5301087 109.668381 89.9539083 105.027112 88.3590936 100.465384 88.2278496 95.788321 88.0926284 91.0675099 90.8288689 88.4505817 94.8258482 86.5057825 98.7949879 84.5729146 103.06241 83.4036488 106.840649 81.0690943 114.945966 76.0659094 120.732637 68.179331 122.295635 58.7377087 122.574032 57.067329 120.350836 56.4270168 119.762227 58.033763L119.762227 58.033763ZM142.988455 161.318907C143.974774 163.756866 147.892211 163.935835 150.17904 164.333545 153.372647 164.890338 156.594093 165.351681 159.82747 165.58633 165.82095 166.019833 172.108736 165.522696 177.720415 163.239844 182.409409 161.330838 186.656945 158.407674 189.798849 154.406717 192.650425 150.77563 195.704833 145.23156 193.65663 140.630062 193.008364 139.170468 190.76926 139.3733 190.05736 140.630062 188.987522 142.519181 188.808553 144.646927 188.013134 146.647406 187.305211 148.429144 186.23935 150.123386 184.982588 151.571049 182.238394 154.74477 178.631169 157.254317 174.685892 158.690048 169.706571 160.503603 164.321586 160.829725 159.067845 160.626893 156.291833 160.519511 153.527753 160.245092 150.771627 159.89113 148.699561 159.624665 144.84178 158.46733 143.262874 160.249069 143.028225 160.527465 142.841302 160.953014 142.988455 161.318907L142.988455 161.318907Z"/><path fill="#000" fill-rule="nonzero" stroke-width="2" d="M97.359257 95.6849166C94.9690236 97.0530371 94.7781231 99.9165451 95.7644424 102.286893 96.7626929 104.689059 99.0694073 106.506591 101.586908 107.115086 107.039503 108.439459 112.006894 103.722625 112.973327 98.6359207 113.581823 95.4462909 108.670112 94.0940788 108.093433 97.2916628 107.647999 99.7495072 105.802627 102.704488 102.899349 102.358481 101.563045 102.199397 100.302306 101.252849 99.7057423 100.055743 99.0813386 98.8029587 99.3159872 97.3632505 98.7393085 96.0428551 98.5165913 95.5457183 97.7887831 95.4423138 97.359257 95.6849166L97.359257 95.6849166ZM141.314098 110.256991C138.275598 114.719291 141.608403 121.599664 146.508183 122.975739 152.107931 124.546691 158.161067 119.408285 157.218496 113.637521 156.81681 111.179677 152.911304 111.808058 152.935166 114.218177 152.963006 117.193044 150.047796 120.096323 146.961571 118.684454 143.899209 117.28054 143.525362 113.864216 143.81569 110.933097 143.958865 109.497366 141.986227 109.266694 141.314098 110.256991L141.314098 110.256991ZM146.48432 174.013793C148.763195 189.011416 158.081526 201.419951 166.103324 213.83644 167.348154 215.765331 170.450287 213.971661 169.193526 212.030839 161.330811 199.86093 152.167587 187.766586 149.936437 173.063267 149.59043 170.792346 146.14229 171.75878 146.48432 174.013793L146.48432 174.013793ZM122.24791 53.0146697C120.629233 50.3619477 117.761748 48.4370339 116.918604 45.3229689 116.441353 43.557139 116.831108 40.4390969 119.04635 40.0095707 121.862132 39.4607316 125.027899 43.4258949 126.471584 45.3150147 128.189688 47.5620731 129.116351 50.334108 131.025356 52.2987927 130.822524 51.8096101 130.619693 51.3204274 130.416861 50.8312448 130.416861 50.8909012 130.420838 50.9465806 130.420838 51.006237 130.444701 51.9607397 131.283867 53.026601 132.337797 52.9231965 137.869935 52.3624262 132.230416 44.3883517 130.74696 42.4395754 127.915269 38.7209921 123.496718 34.2746004 118.350358 35.1654696 114.24202 35.8773695 111.911443 40.06525 112.090413 43.9985965 112.297221 48.5921406 116.067506 53.2612496 120.203684 55.0628734 121.4684 55.6156895 123.102985 54.414607 122.24791 53.0146697L122.24791 53.0146697ZM188.41482 85.8813786C191.878869 85.1336849 194.774193 82.4968712 198.445051 82.36165 200.568819 82.2821081 203.611296 83.371832 204.009005 85.7739971 204.438531 88.3750169 201.658543 91.6362344 199.928507 93.3185454 198.822875 94.396338 197.589976 95.2911842 196.233787 96.0309238 194.798056 96.8104343 193.358348 97.1922354 192.897005 98.9501112 192.650425 99.8966597 193.079951 100.751735 193.84753 101.288643 195.756535 102.616992 198.222334 101.077857 199.92453 100.027904 201.769901 98.8904548 203.499937 97.4666549 204.923737 95.828092 207.771336 92.5509661 210.523485 87.830155 208.797426 83.4155801 207.298062 79.5776839 203.010755 77.1794959 198.974004 77.266992 194.380461 77.3624422 189.317621 80.0350497 186.839891 83.833175 186.127991 84.9109676 187.29328 86.1200043 188.41482 85.8813786L188.41482 85.8813786ZM154.728836 50.922718C171.834316 55.4645599 189.635788 56.605986 207.142955 53.9294014 210.169524 53.4680585 208.884922 48.8665601 205.874262 49.3279031 189.246033 51.8692665 172.224071 50.628413 155.997528 46.3212196 153.026639 45.5337549 151.757946 50.1352533 154.728836 50.922718L154.728836 50.922718Z"/><circle cx="114.341" cy="114.341" r="114.341" stroke-width="10"/></g></svg>