<svg xmlns="http://www.w3.org/2000/svg" width="240" height="239" viewBox="0 0 240 239"><g fill="none" fill-rule="evenodd" stroke="#000" transform="translate(5.988 5.06)"><path fill="#000" fill-rule="nonzero" stroke-width="2" d="M68.748044 103.456159C76.5391708 99.407477 82.1945982 92.0379209 87.7863921 85.4717379 93.4378425 78.8379443 99.1966743 72.430845 106.156589 67.125401 119.066235 57.2860692 135.229144 50.7517029 151.67045 52.8277463 166.337972 54.6810723 180.782777 63.2437567 186.557517 77.3186942 190.053383 85.8376306 190.558474 95.3508407 189.723284 104.42657 188.931842 113.017094 186.593311 121.631481 183.057675 129.494197 178.985131 138.550041 173.365497 147.21613 166.09537 154.036847 158.590594 161.076304 149.240446 164.703415 138.991475 162.285341 135.841617 161.541624 133.610467 166.099375 136.708623 167.702144 145.987183 172.514428 157.477007 169.475928 165.653912 163.729026 173.556398 158.177002 179.808389 150.262584 184.736008 142.033976 194.786125 125.24666 199.725675 104.295326 195.951413 84.8910821 194.201492 75.9068256 190.045429 67.5310646 183.499132 61.0841944 177.529514 55.2060488 169.937242 51.0221453 161.93533 48.6398657 144.845757 43.5491848 126.757935 47.3552642 111.688726 56.3952 102.696517 61.7881402 94.7224438 68.8594142 87.9295675 76.8255345 84.5052897 80.8384228 81.4111107 85.1137994 78.0504664 89.1744129 74.5824406 93.3662705 70.7365909 97.1524645 66.6202988 100.70401 65.0573009 102.056222 67.053802 104.335097 68.748044 103.456159L68.748044 103.456159ZM41.4930199 131.021401C42.5071789 126.924994 41.4293864 123.063235 41.5606305 118.950919 41.6521037 116.055595 43.1633993 113.251743 45.1519463 111.203539 48.9341625 107.305987 55.0787725 105.464592 60.1853609 107.771307 62.9613724 109.028069 65.3913768 104.915753 62.5954798 103.651037 55.9258935 100.632422 48.3495297 102.068153 42.853186 106.816804 40.2362583 109.079771 38.2516885 112.158042 37.3170714 115.490847 35.9926992 120.22359 38.060788 125.035874 36.8915224 129.752708 36.1517829 132.735529 40.7532805 134.004222 41.4930199 131.021401L41.4930199 131.021401ZM25.7198658 178.599383C30.0230813 165.920405 34.2547092 153.221543 38.4823599 140.518703 39.4527708 137.599516 34.8472961 136.346731 33.8808623 139.25001 29.6532116 151.95285 25.4215838 164.655689 21.1183682 177.33069 20.132049 180.2459 24.7375236 181.498685 25.7198658 178.599383L25.7198658 178.599383Z"/><path fill="#000" fill-rule="nonzero" stroke-width="2" d="M213.70516 161.90354C190.323825 160.662687 174.312046 179.537977 155.945826 190.693727 148.639905 195.132165 140.14881 198.850748 131.40318 197.959879 128.372635 197.649665 125.027899 196.64346 123.051283 194.173685 120.979217 191.580619 120.366745 187.257517 122.776864 184.688314 125.393791 181.900371 130.214029 182.099226 133.395704 180.082839 137.034745 177.780101 138.951704 172.494543 135.412091 169.149806 133.180941 167.041946 129.800411 170.410545 132.035538 172.526359 133.23662 173.659831 132.047469 175.254646 130.985585 175.962569 129.585648 176.893209 127.867544 177.310804 126.268752 177.76817 122.323475 178.897665 118.807724 180.703266 117.212909 184.728085 114.222135 192.268657 119.706547 199.809228 126.865316 201.917088 134.867229 204.271528 143.588996 202.06424 150.954573 198.747343 161.19559 194.141868 169.813952 186.72061 178.818093 180.158404 189.118766 172.649649 200.509163 165.972108 213.70516 166.672076 216.775476 166.839114 216.767522 162.062624 213.70516 161.90354L213.70516 161.90354ZM48.743262 112.778469C48.6120179 112.842102 48.4847509 112.905736 48.3535068 112.965392 47.6575154 113.37901 47.1007222 113.931826 46.6871045 114.631795 46.2655325 115.355626 46.0547466 116.135137 46.0547466 116.974303 46.0547466 116.986235 46.0547466 116.998166 46.0547466 117.010097 46.2615554 116.242518 46.4683643 115.474939 46.6791503 114.70736 46.6473335 114.770993 46.6115397 114.83065 46.579723 114.894283 46.1820136 115.58232 45.9831589 116.32206 45.9791818 117.117479 45.9553192 117.721997 46.0825862 118.290722 46.3570057 118.811721 46.5359749 119.356583 46.838234 119.829857 47.2677602 120.227567 47.8165991 120.772429 48.4648654 121.150253 49.208582 121.361039 49.2722155 121.376947 49.3398261 121.396833 49.4034596 121.412741 48.7313307 121.022986 48.0592019 120.629253 47.3910501 120.239498 47.3990043 120.247452 47.4069585 120.255406 47.4149127 120.259384 47.9955684 120.836062 48.6756514 121.233772 49.463116 121.452512 50.2863744 121.675229 51.1096328 121.675229 51.9328912 121.452512 52.0681124 121.40081 52.2033336 121.349107 52.3385548 121.297405 53.1260194 121.074688 53.8140566 120.676978 54.3947123 120.1003 54.6373151 119.786109 54.8799178 119.471919 55.1225205 119.157728 55.5440924 118.42992 55.7548784 117.646432 55.7588555 116.807265 55.7827181 116.166953 55.6474969 115.566412 55.357169 115.009619 55.1702456 114.43294 54.848101 113.931826 54.3947123 113.510254 53.9731404 113.056865 53.4720266 112.734721 52.895348 112.547797 52.3385548 112.257469 51.7419907 112.122248 51.0977015 112.146111 50.2545577 112.146111 49.4710702 112.356897 48.743262 112.778469L48.743262 112.778469ZM103.396485 145.855964C104.581659 145.855964 105.830467 145.338941 106.669634 144.499774 107.119045 144.08218 107.44119 143.585043 107.628113 143.012341 107.918441 142.459525 108.049685 141.866938 108.025823 141.230603 107.97412 140.033497 107.580388 138.792644 106.669634 137.957454 105.762856 137.126241 104.653247 136.601265 103.396485 136.601265 102.211311 136.601265 100.962504 137.118287 100.123337 137.957454 99.6739256 138.375049 99.351781 138.872186 99.1648576 139.444887 98.8745297 139.997704 98.7432856 140.590291 98.7671482 141.226626 98.8188504 142.423731 99.2125827 143.664585 100.123337 144.499774 101.034092 145.330987 102.143701 145.855964 103.396485 145.855964L103.396485 145.855964Z"/><circle cx="114.341" cy="114.341" r="114.341" stroke-width="10"/></g></svg>