<svg xmlns="http://www.w3.org/2000/svg" width="239" height="239" viewBox="0 0 239 239"><g fill="none" fill-rule="evenodd" stroke="#000" transform="translate(5.196 5.23)"><path fill="#000" fill-rule="nonzero" stroke-width="2" d="M69.7065236 121.170138C70.0326453 134.517267 65.4629645 147.168405 59.7120868 159.024124 56.6934726 165.252254 53.2214696 171.245735 49.928436 177.326713 46.5160894 183.634384 43.1594223 189.973873 39.8584344 196.341201 38.4465661 199.065511 42.5628582 201.479607 43.9787036 198.751321 47.3950272 192.157298 50.8749843 185.595092 54.4106207 179.064703 57.815013 172.784871 61.374512 166.600489 64.4448284 160.145664 70.2672938 147.916099 74.8051579 134.88316 74.471082 121.170138 74.4034714 118.103798 69.6309588 118.091867 69.7065236 121.170138L69.7065236 121.170138ZM73.6080526 102.867549C73.7194113 99.0216989 72.395039 95.0525586 71.7308643 91.2862501 71.0746439 87.53585 70.5615988 83.7417018 70.1877519 79.9515307 69.7940196 75.9426195 69.599142 71.9138228 69.6110733 67.885026 69.6190275 64.6397169 69.2769974 60.7342101 70.402515 57.6280993 72.9080841 50.7079549 82.3258423 62.9414976 84.0399697 65.1686705 86.3904322 68.2270562 88.5977193 71.3968005 90.8487544 74.5307509 92.0498367 76.1971535 93.2429649 77.8675332 94.4480243 79.5299587 95.581496 81.0929569 96.5757695 82.8786723 98.2859198 83.8530605 100.031864 84.8513112 101.841442 83.2127482 101.491457 81.391239 101.161359 79.6731341 99.944368 78.3010365 98.9540716 76.8971222 97.9200272 75.4295743 96.8740515 73.9699806 95.83603 72.5064098 93.7401016 69.5514286 91.6680357 66.5765619 89.5243821 63.6613517 85.9449977 58.8013422 81.6855302 52.6527541 75.6323934 50.7596571 72.9597863 49.9204902 70.0008285 50.29036 67.861152 52.1794798 65.781132 54.0168975 65.0692322 56.7650698 64.766973 59.4138147 63.9914397 66.2782799 64.4567597 73.4847751 65.2163846 80.3293547 65.6578421 84.3104263 66.3180396 88.2358186 67.2327712 92.1373483 68.115686 95.9076339 68.9588299 100.302323 71.2416818 103.511839 71.9575587 104.506112 73.5682817 104.187945 73.6080526 102.867549L73.6080526 102.867549ZM108.089456 80.5560491C109.827446 75.0557274 110.913193 69.4520013 111.911443 63.7727103 112.440397 60.770004 112.881854 57.7553663 113.474441 54.7645913 113.713067 53.5515775 113.764769 51.0022599 115.63798 51.260771 117.288474 51.4874654 118.728182 54.6134617 119.527578 55.8622694 120.927515 58.0456942 122.164391 60.3325236 123.293886 62.667078 125.632417 67.4992479 127.529491 72.5382266 129.402702 77.565274 130.488449 80.4725301 135.161534 79.2595163 134.111581 76.2687412 131.932134 70.0406113 129.69303 63.8204355 126.618736 57.9701294 125.155166 55.1861633 123.504672 52.5095787 121.607598 50.0000321 120.064486 47.9597826 118.298656 46.2019068 115.558438 46.1858104 108.845104 46.1422504 108.475234 53.742478 107.683793 58.6820294 106.542367 65.7692118 105.21004 72.9717299 105.194132 80.1583397 105.194132 81.8525819 107.592319 82.1230243 108.089456 80.5560491L108.089456 80.5560491Z"/><path fill="#000" fill-rule="nonzero" stroke-width="2" d="M144.022499 151.507415C150.803444 149.534776 157.365649 146.281513 163.701159 143.19131 170.215639 140.013612 176.650577 136.593311 182.890637 132.906544 188.052905 129.856113 193.378233 126.034125 195.688925 120.2912 197.057045 116.886807 198.417211 112.281332 197.041137 108.713878 195.319055 104.243624 192.324303 100.811391 187.424524 100.039835 182.274187 99.2285078 176.940905 99.5546295 171.754774 99.2563475 168.573099 99.0734011 165.423241 98.5285392 162.655184 96.8661137 160.312675 95.4621993 158.40367 93.4816062 156.594093 91.4612422 152.764151 87.1898427 149.264309 82.5684589 144.078178 79.836195 137.750622 76.5073669 130.34925 75.839215 123.317748 76.3761228 119.296907 76.6823591 115.307881 77.3385797 111.326811 77.9550293 107.04348 78.6192041 102.700494 78.8737381 98.4370494 79.5975693 95.5974044 80.0787978 96.6354259 83.9882817 99.0654302 84.2467928 102.457891 84.6087084 105.933871 83.9843046 109.294516 83.5030761 112.738679 83.0099164 116.166934 82.3974439 119.619051 81.9718948 125.509127 81.2480636 131.609989 81.0173921 137.35689 82.7156114 142.813462 84.3263347 146.591702 87.873903 150.226765 92.0737148 153.591387 95.9593361 156.999756 100.111423 161.780223 102.294848 167.570871 104.939615 173.918313 104.33112 180.098717 104.693036 183.097446 104.868028 187.19783 104.327143 189.679536 106.387278 190.900504 107.401437 192.324303 109.692243 192.539067 111.108089 192.72599 112.344965 192.177151 114.067047 191.910686 115.236313 191.397641 117.483372 190.665855 119.682705 189.182399 121.488306 187.26544 123.82286 184.847367 125.648347 182.349752 127.314749 176.296615 131.343546 169.837815 134.85532 163.430717 138.275622 156.661703 141.886823 149.554636 145.048614 142.964592 148.977983 141.632266 149.777379 142.495295 151.95285 144.022499 151.507415L144.022499 151.507415ZM142.7896 158.491193C148.130837 178.503932 147.760967 199.320045 148.118906 219.861738 148.170608 222.928078 152.94312 222.940009 152.891418 219.861738 152.529503 198.898473 152.843693 177.64488 147.395074 157.2225 146.603633 154.259564 141.998158 155.516326 142.7896 158.491193L142.7896 158.491193Z"/><path fill="#000" fill-rule="nonzero" stroke-width="2" d="M130.22596 103.806144C127.986857 104.987341 130.066877 108.077543 131.263982 109.199084 133.057651 110.877418 135.523449 111.752378 137.969362 111.493867 143.155492 110.949005 146.464435 105.341302 145.004841 100.473338 144.730422 99.5586066 143.811713 98.7393252 142.805508 98.7989816 142.113494 98.8427296 141.715784 99.0455614 141.194785 99.4671335 140.574359 99.9682474 140.423229 100.958544 140.606175 101.686352 141.286258 104.343051 139.480658 107.548589 136.446135 107.142926 135.089946 106.963957 133.984314 106.200354 133.113331 105.19415 132.397454 104.370891 131.454882 103.157877 130.22596 103.806144L130.22596 103.806144ZM192.873142 121.953626C174.335908 107.592338 149.801216 118.77195 132.803117 130.110647 128.066398 133.26846 123.552397 136.784211 119.372471 140.649947 115.284019 144.432164 112.241542 148.580273 110.952964 154.084572 108.296265 165.423269 113.108549 176.805713 110.781949 188.168272 108.081502 201.360295 102.477777 214.814805 107.874693 228.114209 109.016119 230.922038 113.633525 229.697093 112.476191 226.845516 108.049685 215.928392 111.688726 204.868092 114.345425 194.010624 115.729453 188.347241 116.516918 182.882714 116.135117 177.032408 115.793087 171.78662 114.719272 166.632305 114.846539 161.358678 114.957897 156.705478 115.952171 151.960804 118.756022 148.150747 121.830315 143.970821 126.598851 140.455069 130.731051 137.38873 138.999429 131.252073 148.401279 125.715957 158.208793 122.45474 168.525374 119.022507 180.460633 118.326516 189.504544 125.334156 190.530634 126.129575 191.874892 126.316498 192.881097 125.334156 193.704355 124.514875 193.887301 122.74109 192.873142 121.953626L192.873142 121.953626ZM190.323825 104.410662C188.104607 103.778304 186.688762 106.180469 186.633082 108.08152 186.577403 110.014388 187.492134 111.971119 189.082972 113.088682 191.023794 114.448848 193.577088 113.876147 194.706583 111.752378 195.828123 109.640541 194.933277 107.174743 193.354371 105.567996 191.218671 103.396503 187.400661 106.216263 189.078995 108.865008 189.257964 109.143404 189.444888 109.489412 189.679536 109.728037 190.335757 110.392212 189.719307 110.002457 189.894299 109.887121 189.886345 109.568953 190.005658 109.330328 190.252238 109.171244 190.586313 108.813306 191.031748 108.686039 191.588541 108.789443 191.584564 108.841145 191.45332 108.542863 191.461274 108.586611 191.405595 108.133222 191.210717 108.049703 191.282305 107.484956 191.341961 107.035544 191.505022 106.582156 191.568656 106.057179 191.668083 105.321417 190.984023 104.597585 190.323825 104.410662L190.323825 104.410662Z"/><circle cx="114.341" cy="114.341" r="114.341" stroke-width="10"/></g></svg>