<svg xmlns="http://www.w3.org/2000/svg" width="965" height="785" viewBox="0 0 965 785">
  <g fill="none" fill-rule="evenodd" transform="matrix(-1 0 0 1 965 0)">
    <g fill-rule="nonzero" transform="translate(25)">
      <g transform="translate(711)">
        <path fill="#000" d="M82,145 C48.8612479,145 22,117.911569 22,84.5 C22,51.0884311 48.8612479,24 82,24 C115.138752,24 142,51.0884311 142,84.5 C142,117.911569 115.138752,145 82,145 Z M82,142.702532 C113.869032,142.702532 139.707006,116.646029 139.707006,84.5 C139.707006,52.3539709 113.869032,26.2974684 82,26.2974684 C50.1309675,26.2974684 24.2929936,52.3539709 24.2929936,84.5 C24.2929936,116.646029 50.1309675,142.702532 82,142.702532 Z"/>
        <path fill="#8020FF" d="M68,137 C30.444637,137 0,106.331505 0,68.5 C0,30.6684946 30.444637,0 68,0 C105.555363,0 136,30.6684946 136,68.5 C136,106.331505 105.555363,137 68,137 Z M68,113.680851 C92.7705586,113.680851 112.851064,93.452695 112.851064,68.5 C112.851064,43.547305 92.7705586,23.3191489 68,23.3191489 C43.2294414,23.3191489 23.1489362,43.547305 23.1489362,68.5 C23.1489362,93.452695 43.2294414,113.680851 68,113.680851 Z"/>
      </g>
      <path fill="#000" d="M109.84945,246.328767 C108.109449,246.328767 106.698899,244.912024 106.698899,243.164384 C106.698899,241.416743 108.109449,240 109.84945,240 C111.589451,240 113,241.416743 113,243.164384 C113,244.912024 111.589451,246.328767 109.84945,246.328767 Z M109.84945,267.424658 C108.109449,267.424658 106.698899,266.007915 106.698899,264.260274 C106.698899,262.512633 108.109449,261.09589 109.84945,261.09589 C111.589451,261.09589 113,262.512633 113,264.260274 C113,266.007915 111.589451,267.424658 109.84945,267.424658 Z M88.5457272,246.328767 C86.8057262,246.328767 85.3951767,244.912024 85.3951767,243.164384 C85.3951767,241.416743 86.8057262,240 88.5457272,240 C90.2857282,240 91.6962777,241.416743 91.6962777,243.164384 C91.6962777,244.912024 90.2857282,246.328767 88.5457272,246.328767 Z M88.5457272,267.424658 C86.8057262,267.424658 85.3951767,266.007915 85.3951767,264.260274 C85.3951767,262.512633 86.8057262,261.09589 88.5457272,261.09589 C90.2857282,261.09589 91.6962777,262.512633 91.6962777,264.260274 C91.6962777,266.007915 90.2857282,267.424658 88.5457272,267.424658 Z M67.5420573,246.328767 C65.8020563,246.328767 64.3915068,244.912024 64.3915068,243.164384 C64.3915068,241.416743 65.8020563,240 67.5420573,240 C69.2820582,240 70.6926077,241.416743 70.6926077,243.164384 C70.6926077,244.912024 69.2820582,246.328767 67.5420573,246.328767 Z M67.5420573,267.424658 C65.8020563,267.424658 64.3915068,266.007915 64.3915068,264.260274 C64.3915068,262.512633 65.8020563,261.09589 67.5420573,261.09589 C69.2820582,261.09589 70.6926077,262.512633 70.6926077,264.260274 C70.6926077,266.007915 69.2820582,267.424658 67.5420573,267.424658 Z M46.2383349,246.328767 C44.4983339,246.328767 43.0877844,244.912024 43.0877844,243.164384 C43.0877844,241.416743 44.4983339,240 46.2383349,240 C47.9783359,240 49.3888854,241.416743 49.3888854,243.164384 C49.3888854,244.912024 47.9783359,246.328767 46.2383349,246.328767 Z M46.2383349,267.424658 C44.4983339,267.424658 43.0877844,266.007915 43.0877844,264.260274 C43.0877844,262.512633 44.4983339,261.09589 46.2383349,261.09589 C47.9783359,261.09589 49.3888854,262.512633 49.3888854,264.260274 C49.3888854,266.007915 47.9783359,267.424658 46.2383349,267.424658 Z M25.234665,246.328767 C23.494664,246.328767 22.0841145,244.912024 22.0841145,243.164384 C22.0841145,241.416743 23.494664,240 25.234665,240 C26.974666,240 28.3852155,241.416743 28.3852155,243.164384 C28.3852155,244.912024 26.974666,246.328767 25.234665,246.328767 Z M25.234665,267.424658 C23.494664,267.424658 22.0841145,266.007915 22.0841145,264.260274 C22.0841145,262.512633 23.494664,261.09589 25.234665,261.09589 C26.974666,261.09589 28.3852155,262.512633 28.3852155,264.260274 C28.3852155,266.007915 26.974666,267.424658 25.234665,267.424658 Z M3.93094264,246.328767 C2.19094166,246.328767 0.780392157,244.912024 0.780392157,243.164384 C0.780392157,241.416743 2.19094166,240 3.93094264,240 C5.67094363,240 7.08149313,241.416743 7.08149313,243.164384 C7.08149313,244.912024 5.67094363,246.328767 3.93094264,246.328767 Z M3.93094264,267.424658 C2.19094166,267.424658 0.780392157,266.007915 0.780392157,264.260274 C0.780392157,262.512633 2.19094166,261.09589 3.93094264,261.09589 C5.67094363,261.09589 7.08149313,262.512633 7.08149313,264.260274 C7.08149313,266.007915 5.67094363,267.424658 3.93094264,267.424658 Z M109.84945,288.520548 C108.109449,288.520548 106.698899,287.103805 106.698899,285.356164 C106.698899,283.608524 108.109449,282.191781 109.84945,282.191781 C111.589451,282.191781 113,283.608524 113,285.356164 C113,287.103805 111.589451,288.520548 109.84945,288.520548 Z M109.84945,309.616438 C108.109449,309.616438 106.698899,308.199696 106.698899,306.452055 C106.698899,304.704414 108.109449,303.287671 109.84945,303.287671 C111.589451,303.287671 113,304.704414 113,306.452055 C113,308.199696 111.589451,309.616438 109.84945,309.616438 Z M88.5457272,288.520548 C86.8057262,288.520548 85.3951767,287.103805 85.3951767,285.356164 C85.3951767,283.608524 86.8057262,282.191781 88.5457272,282.191781 C90.2857282,282.191781 91.6962777,283.608524 91.6962777,285.356164 C91.6962777,287.103805 90.2857282,288.520548 88.5457272,288.520548 Z M88.5457272,309.616438 C86.8057262,309.616438 85.3951767,308.199696 85.3951767,306.452055 C85.3951767,304.704414 86.8057262,303.287671 88.5457272,303.287671 C90.2857282,303.287671 91.6962777,304.704414 91.6962777,306.452055 C91.6962777,308.199696 90.2857282,309.616438 88.5457272,309.616438 Z M67.5420573,288.520548 C65.8020563,288.520548 64.3915068,287.103805 64.3915068,285.356164 C64.3915068,283.608524 65.8020563,282.191781 67.5420573,282.191781 C69.2820582,282.191781 70.6926077,283.608524 70.6926077,285.356164 C70.6926077,287.103805 69.2820582,288.520548 67.5420573,288.520548 Z M67.5420573,309.616438 C65.8020563,309.616438 64.3915068,308.199696 64.3915068,306.452055 C64.3915068,304.704414 65.8020563,303.287671 67.5420573,303.287671 C69.2820582,303.287671 70.6926077,304.704414 70.6926077,306.452055 C70.6926077,308.199696 69.2820582,309.616438 67.5420573,309.616438 Z M46.2383349,288.520548 C44.4983339,288.520548 43.0877844,287.103805 43.0877844,285.356164 C43.0877844,283.608524 44.4983339,282.191781 46.2383349,282.191781 C47.9783359,282.191781 49.3888854,283.608524 49.3888854,285.356164 C49.3888854,287.103805 47.9783359,288.520548 46.2383349,288.520548 Z M46.2383349,309.616438 C44.4983339,309.616438 43.0877844,308.199696 43.0877844,306.452055 C43.0877844,304.704414 44.4983339,303.287671 46.2383349,303.287671 C47.9783359,303.287671 49.3888854,304.704414 49.3888854,306.452055 C49.3888854,308.199696 47.9783359,309.616438 46.2383349,309.616438 Z M25.234665,288.520548 C23.494664,288.520548 22.0841145,287.103805 22.0841145,285.356164 C22.0841145,283.608524 23.494664,282.191781 25.234665,282.191781 C26.974666,282.191781 28.3852155,283.608524 28.3852155,285.356164 C28.3852155,287.103805 26.974666,288.520548 25.234665,288.520548 Z M25.234665,309.616438 C23.494664,309.616438 22.0841145,308.199696 22.0841145,306.452055 C22.0841145,304.704414 23.494664,303.287671 25.234665,303.287671 C26.974666,303.287671 28.3852155,304.704414 28.3852155,306.452055 C28.3852155,308.199696 26.974666,309.616438 25.234665,309.616438 Z M3.93094264,288.520548 C2.19094166,288.520548 0.780392157,287.103805 0.780392157,285.356164 C0.780392157,283.608524 2.19094166,282.191781 3.93094264,282.191781 C5.67094363,282.191781 7.08149313,283.608524 7.08149313,285.356164 C7.08149313,287.103805 5.67094363,288.520548 3.93094264,288.520548 Z M3.93094264,309.616438 C2.19094166,309.616438 0.780392157,308.199696 0.780392157,306.452055 C0.780392157,304.704414 2.19094166,303.287671 3.93094264,303.287671 C5.67094363,303.287671 7.08149313,304.704414 7.08149313,306.452055 C7.08149313,308.199696 5.67094363,309.616438 3.93094264,309.616438 Z M109.84945,330.712329 C108.109449,330.712329 106.698899,329.295586 106.698899,327.547945 C106.698899,325.800304 108.109449,324.383562 109.84945,324.383562 C111.589451,324.383562 113,325.800304 113,327.547945 C113,329.295586 111.589451,330.712329 109.84945,330.712329 Z M109.84945,351.808219 C108.109449,351.808219 106.698899,350.391476 106.698899,348.643836 C106.698899,346.896195 108.109449,345.479452 109.84945,345.479452 C111.589451,345.479452 113,346.896195 113,348.643836 C113,350.391476 111.589451,351.808219 109.84945,351.808219 Z M88.5457272,330.712329 C86.8057262,330.712329 85.3951767,329.295586 85.3951767,327.547945 C85.3951767,325.800304 86.8057262,324.383562 88.5457272,324.383562 C90.2857282,324.383562 91.6962777,325.800304 91.6962777,327.547945 C91.6962777,329.295586 90.2857282,330.712329 88.5457272,330.712329 Z M88.5457272,351.808219 C86.8057262,351.808219 85.3951767,350.391476 85.3951767,348.643836 C85.3951767,346.896195 86.8057262,345.479452 88.5457272,345.479452 C90.2857282,345.479452 91.6962777,346.896195 91.6962777,348.643836 C91.6962777,350.391476 90.2857282,351.808219 88.5457272,351.808219 Z M67.5420573,330.712329 C65.8020563,330.712329 64.3915068,329.295586 64.3915068,327.547945 C64.3915068,325.800304 65.8020563,324.383562 67.5420573,324.383562 C69.2820582,324.383562 70.6926077,325.800304 70.6926077,327.547945 C70.6926077,329.295586 69.2820582,330.712329 67.5420573,330.712329 Z M67.5420573,351.808219 C65.8020563,351.808219 64.3915068,350.391476 64.3915068,348.643836 C64.3915068,346.896195 65.8020563,345.479452 67.5420573,345.479452 C69.2820582,345.479452 70.6926077,346.896195 70.6926077,348.643836 C70.6926077,350.391476 69.2820582,351.808219 67.5420573,351.808219 Z M46.2383349,330.712329 C44.4983339,330.712329 43.0877844,329.295586 43.0877844,327.547945 C43.0877844,325.800304 44.4983339,324.383562 46.2383349,324.383562 C47.9783359,324.383562 49.3888854,325.800304 49.3888854,327.547945 C49.3888854,329.295586 47.9783359,330.712329 46.2383349,330.712329 Z M46.2383349,351.808219 C44.4983339,351.808219 43.0877844,350.391476 43.0877844,348.643836 C43.0877844,346.896195 44.4983339,345.479452 46.2383349,345.479452 C47.9783359,345.479452 49.3888854,346.896195 49.3888854,348.643836 C49.3888854,350.391476 47.9783359,351.808219 46.2383349,351.808219 Z M25.234665,330.712329 C23.494664,330.712329 22.0841145,329.295586 22.0841145,327.547945 C22.0841145,325.800304 23.494664,324.383562 25.234665,324.383562 C26.974666,324.383562 28.3852155,325.800304 28.3852155,327.547945 C28.3852155,329.295586 26.974666,330.712329 25.234665,330.712329 Z M25.234665,351.808219 C23.494664,351.808219 22.0841145,350.391476 22.0841145,348.643836 C22.0841145,346.896195 23.494664,345.479452 25.234665,345.479452 C26.974666,345.479452 28.3852155,346.896195 28.3852155,348.643836 C28.3852155,350.391476 26.974666,351.808219 25.234665,351.808219 Z M3.93094264,330.712329 C2.19094166,330.712329 0.780392157,329.295586 0.780392157,327.547945 C0.780392157,325.800304 2.19094166,324.383562 3.93094264,324.383562 C5.67094363,324.383562 7.08149313,325.800304 7.08149313,327.547945 C7.08149313,329.295586 5.67094363,330.712329 3.93094264,330.712329 Z M3.93094264,351.808219 C2.19094166,351.808219 0.780392157,350.391476 0.780392157,348.643836 C0.780392157,346.896195 2.19094166,345.479452 3.93094264,345.479452 C5.67094363,345.479452 7.08149313,346.896195 7.08149313,348.643836 C7.08149313,350.391476 5.67094363,351.808219 3.93094264,351.808219 Z M109.84945,372.90411 C108.109449,372.90411 106.698899,371.487367 106.698899,369.739726 C106.698899,367.992085 108.109449,366.575342 109.84945,366.575342 C111.589451,366.575342 113,367.992085 113,369.739726 C113,371.487367 111.589451,372.90411 109.84945,372.90411 Z M109.84945,394 C108.109449,394 106.698899,392.583257 106.698899,390.835616 C106.698899,389.087976 108.109449,387.671233 109.84945,387.671233 C111.589451,387.671233 113,389.087976 113,390.835616 C113,392.583257 111.589451,394 109.84945,394 Z M88.5457272,372.90411 C86.8057262,372.90411 85.3951767,371.487367 85.3951767,369.739726 C85.3951767,367.992085 86.8057262,366.575342 88.5457272,366.575342 C90.2857282,366.575342 91.6962777,367.992085 91.6962777,369.739726 C91.6962777,371.487367 90.2857282,372.90411 88.5457272,372.90411 Z M88.5457272,394 C86.8057262,394 85.3951767,392.583257 85.3951767,390.835616 C85.3951767,389.087976 86.8057262,387.671233 88.5457272,387.671233 C90.2857282,387.671233 91.6962777,389.087976 91.6962777,390.835616 C91.6962777,392.583257 90.2857282,394 88.5457272,394 Z M67.5420573,372.90411 C65.8020563,372.90411 64.3915068,371.487367 64.3915068,369.739726 C64.3915068,367.992085 65.8020563,366.575342 67.5420573,366.575342 C69.2820582,366.575342 70.6926077,367.992085 70.6926077,369.739726 C70.6926077,371.487367 69.2820582,372.90411 67.5420573,372.90411 Z M67.5420573,394 C65.8020563,394 64.3915068,392.583257 64.3915068,390.835616 C64.3915068,389.087976 65.8020563,387.671233 67.5420573,387.671233 C69.2820582,387.671233 70.6926077,389.087976 70.6926077,390.835616 C70.6926077,392.583257 69.2820582,394 67.5420573,394 Z M46.2383349,372.90411 C44.4983339,372.90411 43.0877844,371.487367 43.0877844,369.739726 C43.0877844,367.992085 44.4983339,366.575342 46.2383349,366.575342 C47.9783359,366.575342 49.3888854,367.992085 49.3888854,369.739726 C49.3888854,371.487367 47.9783359,372.90411 46.2383349,372.90411 Z M46.2383349,394 C44.4983339,394 43.0877844,392.583257 43.0877844,390.835616 C43.0877844,389.087976 44.4983339,387.671233 46.2383349,387.671233 C47.9783359,387.671233 49.3888854,389.087976 49.3888854,390.835616 C49.3888854,392.583257 47.9783359,394 46.2383349,394 Z M25.234665,372.90411 C23.494664,372.90411 22.0841145,371.487367 22.0841145,369.739726 C22.0841145,367.992085 23.494664,366.575342 25.234665,366.575342 C26.974666,366.575342 28.3852155,367.992085 28.3852155,369.739726 C28.3852155,371.487367 26.974666,372.90411 25.234665,372.90411 Z M25.234665,394 C23.494664,394 22.0841145,392.583257 22.0841145,390.835616 C22.0841145,389.087976 23.494664,387.671233 25.234665,387.671233 C26.974666,387.671233 28.3852155,389.087976 28.3852155,390.835616 C28.3852155,392.583257 26.974666,394 25.234665,394 Z M3.93094264,372.90411 C2.19094166,372.90411 0.780392157,371.487367 0.780392157,369.739726 C0.780392157,367.992085 2.19094166,366.575342 3.93094264,366.575342 C5.67094363,366.575342 7.08149313,367.992085 7.08149313,369.739726 C7.08149313,371.487367 5.67094363,372.90411 3.93094264,372.90411 Z M3.93094264,394 C2.19094166,394 0.780392157,392.583257 0.780392157,390.835616 C0.780392157,389.087976 2.19094166,387.671233 3.93094264,387.671233 C5.67094363,387.671233 7.08149313,389.087976 7.08149313,390.835616 C7.08149313,392.583257 5.67094363,394 3.93094264,394 Z"/>
      <g transform="translate(562 482)">
        <g transform="translate(0 28)">
          <polygon fill="#FAB250" points="0 1.533 226.47 1.533 226.47 228.467 0 228.467"/>
          <path fill="#FFF" d="M6.19488614,227.316667 L34.7270985,227.316667 C25.6907035,208.634843 27.2432824,191.566012 41.7362978,186.847308 C50.8449994,183.881653 56.1624567,177.432699 58.9581243,166.98098 C61.1588043,158.753648 61.6770446,150.813661 61.9207768,131.216127 C62.0978688,116.976868 62.304473,110.601077 63.0517688,102.526535 C64.0026866,92.2518549 65.7093964,83.2591409 68.4684058,75.0061068 C75.7452026,53.2389999 84.3922248,33.5569017 99.3065421,2.68333333 L85.8565198,2.68333333 C56.9837412,46.0118127 30.4156052,120.902785 6.19488614,227.316667 Z M3.63745804,228.211786 C28.0963392,120.379865 54.966366,44.6201007 84.2913892,0.891912591 C84.5045781,0.574014571 84.8617189,0.383333333 85.2439443,0.383333333 L101.137928,0.383333333 C101.985039,0.383333333 102.54021,1.2714499 102.170527,2.03519867 C86.8054638,33.7787199 78.0101106,53.7049116 70.6448385,75.7366751 C67.9475628,83.805045 66.2729825,92.6284675 65.3372636,102.738924 C64.5975081,110.731993 64.3922297,117.066869 64.2159006,131.244788 C63.9695486,151.052972 63.4449158,159.090898 61.1751702,167.576435 C58.1914236,178.731294 52.3564225,185.80792 42.4455851,189.034738 C29.2994952,193.314904 28.2044547,209.688358 37.604451,227.939253 C37.9986678,228.704659 37.4441821,229.616667 36.5846114,229.616667 L4.75656646,229.616667 C4.02008819,229.616667 3.47422823,228.931417 3.63745804,228.211786 Z M118.388206,227.316667 C104.86265,177.949968 118.898193,136.447929 160.410375,103.018522 C189.237839,79.80401 193.746077,59.7904413 177.86198,48.6600641 C162.910667,38.1833116 134.033929,38.7400089 110.105142,51.1076676 C98.4638514,57.1245004 91.3022616,69.7589965 87.7001707,88.7996496 C84.7591903,104.345673 84.2216156,122.951552 85.2788914,149.331459 C85.5008918,154.870553 85.7467216,159.913609 86.2118804,168.823068 C87.9515174,202.143355 88.2226519,214.770319 86.6832202,227.316667 L118.388206,227.316667 Z M84.2417776,228.315302 C85.9375343,215.517687 85.7104094,203.241488 83.9197131,168.943232 C83.4540952,160.02498 83.2079149,154.974733 82.9854382,149.423755 C81.921665,122.881733 82.4633893,104.132234 85.4450307,88.3712764 C89.1657721,68.7034366 96.6705859,55.4634237 109.052953,49.0635636 C133.682869,36.3335241 163.456947,35.7595276 179.177357,46.7752051 C187.220795,52.4114398 190.672911,60.5785409 188.510865,70.1765818 C186.159112,80.6167981 177.315617,92.3555578 161.848213,104.811327 C120.636897,137.998449 107.051346,179.040534 121.004572,228.151779 C121.213226,228.886181 120.662807,229.616667 119.900782,229.616667 L85.379444,229.616667 C84.6856092,229.616667 84.1504538,229.004508 84.2417776,228.315302 Z M160.29058,227.316667 L198.597514,219.671604 C195.002097,216.871566 193.631297,211.886607 194.585853,204.713421 C194.605958,204.562334 194.655837,204.41676 194.732589,204.285162 C207.506587,182.38307 217.703433,163.745311 225.322148,148.37474 L225.322149,99.7984922 C222.830276,101.162824 220.076799,102.853794 217.063358,104.871155 C191.655294,121.880691 174.656423,143.119582 164.493546,167.878694 C156.833771,186.539671 153.473262,205.669847 152.68959,227.316667 L160.29058,227.316667 Z M226.245628,214.153764 C226.955531,214.012085 227.61745,214.556285 227.61745,215.281612 L227.61745,217.388302 C227.61745,217.878179 227.307752,218.314281 226.845868,218.474807 C213.184342,223.222821 203.673723,223.624853 198.597514,219.671604 L226.245628,214.153764 Z M225.905529,216.566812 L226.093729,216.301798 C225.834765,216.3918 225.577564,216.480217 225.322125,216.567049 L225.322148,216.68324 L225.905529,216.566812 Z M160.627926,229.594515 C160.554108,229.609247 160.479023,229.616667 160.403755,229.616667 L151.502213,229.616667 C150.85408,229.616667 150.334531,229.079226 150.355143,228.430095 C151.066035,206.041627 154.452461,186.294673 162.370791,167.003796 C172.704158,141.82933 189.994189,120.226655 215.788278,102.958694 C219.561006,100.433025 222.946402,98.4019393 225.947512,96.8649765 C226.711135,96.4739008 227.617451,97.0296557 227.617451,97.888987 L227.61745,148.644447 C227.61745,148.821742 227.57654,148.996636 227.497918,149.155466 C219.863829,164.57743 209.642025,183.272861 196.831521,205.244632 C195.585905,215.088214 199.18491,220.056076 208.025514,220.135196 L160.627926,229.594515 Z"/>
        </g>
        <path fill="#000" d="M257,114.097217 L181.097217,190 L175.107353,190 L257,108.107353 L257,114.097217 Z M257,136.563433 L203.563433,190 L197.57357,190 L257,130.57357 L257,136.563433 L257,136.563433 Z M257,159.02965 L226.02965,190 L220.039786,190 L257,153.039786 L257,159.02965 Z M257,181.495866 L248.495866,190 L242.506002,190 L257,175.506002 L257,181.495866 Z M257,90.9891091 L157.989109,190 L151.999245,190 L257,84.9992453 L257,90.9891091 L257,90.9891091 Z M257,67.881001 L134.881001,190 L128.891137,190 L257,61.8911372 L257,67.881001 Z M257,44.7728929 L111.772893,190 L105.783029,190 L257,38.7830291 L257,44.7728929 Z M257,21.6647848 L88.6647848,190 L82.674921,190 L257,15.674921 L257,21.6647848 Z M255.556677,0 L67,188.556677 L67,182.566813 L249.566813,0 L255.556677,0 Z M232.448569,0 L67,165.448569 L67,159.458705 L226.458705,0 L232.448569,0 Z M209.34046,0 L67,142.34046 L67,136.350597 L203.350597,0 L209.34046,0 Z M186.232352,0 L67,119.232352 L67,113.242489 L180.242489,0 L186.232352,0 Z M163.124244,0 L67,96.1242442 L67,90.1343805 L157.13438,0 L163.124244,0 L163.124244,0 Z M140.016136,0 L67,73.0161361 L67,67.0262724 L134.026272,0 L140.016136,0 Z M116.908028,0 L67,49.908028 L67,43.9181643 L110.918164,0 L116.908028,0 L116.908028,0 Z M93.7999199,0 L67,26.7999199 L67,20.8100561 L87.8100561,0 L93.7999199,0 Z M70.6918118,0 L67,3.69181178 L67,0 L70.6918118,0 L70.6918118,0 Z"/>
      </g>
      <g fill="#000" transform="translate(157 102)">
        <path d="M358.502792 89.0032714C354.967542 97.5295959 351.396969 105.276821 347.822648 112.238709 350.82911 112.128034 353.929221 112.074169 357.117176 112.074169 370.648331 112.074169 377.217982 115.302311 380.335501 124.04296 382.912185 131.267261 383.13767 138.003892 382.669854 168.024645 382.52017 177.630148 382.452894 184.092925 382.452894 191.489973L382.452894 265.285525C382.452894 266.113952 381.781321 266.785525 380.952894 266.785525 380.124467 266.785525 379.452894 266.113952 379.452894 265.285525L379.452894 191.489973C379.452894 184.074066 379.520312 177.597692 379.670218 167.977901 380.129163 138.526444 379.902666 131.759562 377.509851 125.050782 374.89449 117.718044 369.513894 115.074169 357.117176 115.074169 353.340782 115.074169 349.706963 115.148685 346.223723 115.30034 334.855228 136.695563 323.496446 150.138573 313.163001 155.428737 300.891304 161.711182 291.54898 154.960343 291.54898 141.538151 291.54898 129.99615 299.42617 122.101613 313.552721 117.419698 321.94852 114.637107 332.352278 113.029146 344.364914 112.39341 348.157613 105.129311 351.96137 96.947194 355.731559 87.8542417 359.788175 78.0704846 363.870645 68.9694918 367.927252 60.6232358 367.884763 60.6254239 256.575679 60.6286811 34 60.6330074 33.1715729 60.6330074 32.5 59.9614346 32.5 59.1330074 32.5 58.3045803 33.1715729 57.6330074 34 57.6330074L367.659981 57.6349303C368.258954 57.6045729 368.85328 57.5720547 369.442962 57.5373761 380.972027 34.3133619 392.239189 17.2801075 402.050894 8.09868742 415.935178-4.89369696 426.4167-1.06395831 428.985623 18.459199 432.299902 43.6468739 412.811006 57.6140007 371.366606 60.4186946 367.095898 69.1150362 362.786119 78.6727321 358.502792 89.0032714zM294.54898 141.538151C294.54898 152.834854 301.638968 157.958137 311.795901 152.758337 321.274639 147.905737 331.927886 135.424865 342.723219 115.48189 312.512183 117.309023 294.54898 125.370333 294.54898 141.538151zM426.011262 18.8505754C423.759419 1.73715017 416.193878-1.02714733 404.10069 10.2891978 394.796694 18.9955231 384.01429 35.1892578 372.912824 57.304328 411.589412 54.3731207 428.99645 41.5372408 426.011262 18.8505754zM12 71.5C5.64872538 71.5.5 66.3512746.5 60 .5 53.6487254 5.64872538 48.5 12 48.5 18.3512746 48.5 23.5 53.6487254 23.5 60 23.5 66.3512746 18.3512746 71.5 12 71.5zM12 68.5C16.6944204 68.5 20.5 64.6944204 20.5 60 20.5 55.3055796 16.6944204 51.5 12 51.5 7.30557963 51.5 3.5 55.3055796 3.5 60 3.5 64.6944204 7.30557963 68.5 12 68.5zM380 297.5C373.648725 297.5 368.5 292.351275 368.5 286 368.5 279.648725 373.648725 274.5 380 274.5 386.351275 274.5 391.5 279.648725 391.5 286 391.5 292.351275 386.351275 297.5 380 297.5zM380 294.5C384.69442 294.5 388.5 290.69442 388.5 286 388.5 281.30558 384.69442 277.5 380 277.5 375.30558 277.5 371.5 281.30558 371.5 286 371.5 290.69442 375.30558 294.5 380 294.5z"/>
      </g>
      <g transform="translate(72 206)">
        <polygon fill="#F97259" points="0 0 126.772 0 143 15.731 15.681 140 0 126.09"/>
        <polygon fill="#FFF" points="15 16 142 16 15 143"/>
        <path fill="#000" d="M15.5,16.5 L15.5,141.792893 L140.792893,16.5 L15.5,16.5 Z M15,15.5 L142,15.5 C142.445452,15.5 142.668536,16.038571 142.353553,16.3535534 L15.3535534,143.353553 C15.038571,143.668536 14.5,143.445452 14.5,143 L14.5,16 C14.5,15.7238576 14.7238576,15.5 15,15.5 Z"/>
      </g>
    </g>
    <g transform="translate(117 194)">
      <g fill-rule="nonzero" transform="translate(0 233)">
        <polygon fill="#FFF" points="1 197.454 548.224 1.362 847.162 51.692 403.221 331.117"/>
        <path fill="#000" d="M403.154893,330.567775 L845.785551,51.9672007 L548.269655,1.87664938 L2.53191366,197.436672 L403.154893,330.567775 Z M548.055239,0.891217986 C548.108969,0.871964318 647.83878,17.6411544 847.244672,51.1987882 C847.546612,51.2496237 699.627619,144.696661 403.487693,331.5399 C403.403324,331.593004 269.188201,287.056028 0.8423231,197.928973 C0.541748931,197.829089 182.946054,132.149837 548.055239,0.891217986 Z"/>
        <polygon fill="#000" points="1.357 197.337 403.036 331.089 403.036 351.089 1.357 217.337"/>
        <polygon fill="#FFF" points="846.166 51.865 846.166 62.64 403.036 351.089 403.036 331.089"/>
        <path fill="#000" d="M845.899721,51.4417927 C846.121692,51.3019251 846.37721,55.0346317 846.666276,62.6399125 C846.666276,62.7526599 698.880583,159.042144 403.309197,351.508365 C403.087458,351.652704 402.829868,344.846356 402.536427,331.089323 C402.536427,330.974828 550.324192,237.758985 845.899721,51.4417927 Z M403.536427,331.365248 L403.536427,350.167256 L845.666276,62.3687824 L845.666276,52.7708596 L403.536427,331.365248 Z"/>
      </g>
      <g transform="translate(52 13)">
        <path fill="#000" fill-rule="nonzero" d="M359.877417,248.064043 C377.743728,264.321731 363.962974,296.451542 348.26188,297.794243 C337.794484,298.689376 335.849759,291.163435 342.427704,275.21642 L351.683144,253.706011 C357.43761,246.186765 360.169034,244.306109 359.877417,248.064043 Z"/>
        <path fill="#FFF" fill-rule="nonzero" d="M243.723684,80.8134686 C256.114741,90.505713 264.616904,100.901223 269.230173,112 C273.843442,123.098777 285.767398,155.742777 305.002041,209.932002 L359.983289,247.345061 C357.181046,250.108745 353.251557,256.457706 348.19482,266.391944 C343.138084,276.326182 344.336951,284.7523 351.791424,291.670296 C300.040108,279.915243 272.519691,272.359878 269.230173,269.004202 C265.940655,265.648526 252.064338,238.204902 227.601222,186.67333 L218.240952,112 L236.059497,80.8134686 L243.723684,80.8134686 Z"/>
        <path fill="#000" fill-rule="nonzero" d="M236.349677,81.3134686 L218.757809,112.103264 L228.08735,186.531454 C252.458819,237.868284 266.362531,265.364634 269.587229,268.654186 C272.73103,271.861215 299.799602,279.318593 350.193479,290.794109 C343.706401,283.954802 342.89212,275.707181 347.749226,266.165128 C352.583533,256.667865 356.393835,250.429733 359.2096,247.42337 L304.720754,210.345375 C285.300008,155.920754 273.376813,123.278838 268.768469,112.19191 C264.207592,101.219181 255.804927,90.9255249 243.55117,81.3134686 L236.349677,81.3134686 Z M360.264576,246.931688 C360.525001,247.108899 360.55866,247.479865 360.334384,247.701055 C357.582698,250.414879 353.673306,256.731369 348.640414,266.618761 C343.681991,276.359857 344.846263,284.54282 352.131543,291.303801 C352.506285,291.651574 352.179224,292.271119 351.680672,292.157876 C299.668884,280.343658 272.273005,272.822483 268.873117,269.354218 C265.520297,265.933967 251.682955,238.567424 227.149534,186.887756 L217.744835,112.062188 C217.73586,111.990592 223.696036,101.491671 235.625361,80.5654236 C235.714379,80.4096224 235.880058,80.3134686 236.059497,80.3134686 L243.723684,80.3134686 C256.486497,90.1617098 265.043012,100.623676 269.691877,111.80809 C274.305692,122.90818 286.212181,155.50291 305.418532,209.610631 L360.264576,246.931688 Z"/>
        <path fill="#000" fill-rule="nonzero" d="M243.723684,80.8134686 C256.483384,147.082499 264.985547,200.213578 269.230173,240.206707 C271.403413,260.68311 298.92383,277.837639 351.791424,291.670296 C300.040108,279.915243 272.519691,272.359878 269.230173,269.004202 C265.940655,265.648526 252.064338,238.204902 227.601222,186.67333 L218.240952,112 L236.059497,80.8134686 L243.723684,80.8134686 Z"/>
        <path d="M61.7574905,165.024655 C69.6155826,287.816996 64.529525,367.017031 46.4993178,402.62476"/>
        <path fill="#000" fill-rule="nonzero" d="M140.823894,33.4762936 C67.2633862,55.2453365 27.1078833,84.204418 19.9470754,120.591006 C17.5031061,133.009676 19.8993356,146.685738 26.714977,163.297843 C29.5535503,170.21644 33.1234328,177.60193 37.850967,186.524762 C39.7362014,190.082987 41.7524374,193.791474 44.3951882,198.582657 C45.1757695,199.997814 49.8585386,208.45436 51.2207421,210.929514 C63.895904,233.960563 71.03584,248.791118 76.3603875,264.827053 C83.1991182,285.423253 85.3184395,304.522911 82.0327864,323.320447 C77.6182902,348.576202 99.4831573,370.756399 131.157797,374.132338 C167.071994,377.960136 204.750831,357.601205 231.402869,313.74519 C244.197059,292.692308 252.83032,233.268359 256.839781,165.506473 C258.3453,140.062447 249.860103,106.180067 231.384348,63.9029797 L199.693141,1.5 L152.351249,1.5 L140.823894,33.4762936 Z M151.529631,0.830433374 C151.577282,0.698252145 167.734071,0.588107687 200,0.5 C200.125506,0.5 210.888276,21.4921156 232.28831,63.4763469 C250.833943,105.911233 259.354582,139.935138 257.838035,165.565539 C253.816421,233.532814 245.17582,293.007287 232.257438,314.264526 C205.411097,358.440269 167.365946,378.99713 131.051815,375.126706 C98.8529745,371.694897 76.5217742,349.041642 81.0477211,323.148266 C84.302447,304.527667 82.2012507,285.591355 75.4113362,265.142175 C70.1109772,249.179088 62.9924027,234.392904 50.344656,211.411669 C48.9832264,208.937921 44.3007713,200.481942 43.5195595,199.065642 C40.8743295,194.269965 38.8556364,190.556958 36.96733,186.992935 C32.2257827,178.043655 28.6425914,170.63063 25.7898166,163.677419 C18.9064396,146.900219 16.47795,133.040038 18.9658952,120.397912 C26.210278,83.5866501 66.5714847,54.4443199 139.969238,32.8983734 L151.529631,0.830433374 Z"/>
        <path fill="#000" fill-rule="nonzero" d="M68.6425323,108.377002 C63.1977572,100.451532 56.8807777,95.6335181 49.1741141,95.6335181 C29.0170057,95.6335181 24.0181737,187.725216 30.3173487,243.491394 C40.0319224,329.49387 19.0317121,381.518422 63.622665,389.649362 C108.213618,397.780302 249.289383,335.853431 248.844968,328.310728 C248.400553,320.768024 244.655833,313.332221 237.610809,306.003319 L97.7611058,306.003319 C103.465005,277.788722 116.769677,191.26052 91.9205962,149.098811 C76.0684072,130.188831 68.3090526,116.614894 68.6425323,108.377002 Z"/>
        <path fill="#FFF" fill-rule="nonzero" d="M221.697357,74.5910241 L200,1 L231.830154,63.6765784 C249.999613,105.454082 260.488495,145.158099 263.296801,182.788628 C266.51026,225.848097 264.556522,271.698703 261.353821,296.641112 C257.166033,329.25532 248.41887,337.56654 236.282981,337.56654 C202.362657,337.56654 249.482383,401.378958 229.085691,238.301696 C240.392733,183.329214 237.929955,128.758991 221.697357,74.5910241 Z M221.697357,74.5910241 L200,1 L231.830154,63.6765784 C249.999613,105.454082 260.488495,145.158099 263.296801,182.788628 C266.51026,225.848097 264.556522,271.698703 261.353821,296.641112 C257.166033,329.25532 248.41887,337.56654 236.282981,337.56654 C202.362657,337.56654 249.482383,401.378958 229.085691,238.301696 C240.392733,183.329214 237.929955,128.758991 221.697357,74.5910241 Z"/>
        <path fill="#000" fill-rule="nonzero" d="M229.592067,238.32154 C234.237212,275.48448 235.703353,303.361473 234.544175,322.640057 C234.195833,328.433427 233.612949,333.324338 232.843364,337.3108 C233.908446,337.150603 235.055769,337.06654 236.282981,337.06654 C249.620017,337.06654 257.047479,326.252676 260.857893,296.577433 C264.571693,267.654613 265.694535,221.636091 262.798188,182.825839 C259.994274,145.254156 249.519691,105.604271 231.384348,63.9029797 L202.019007,6.07985012 L222.176633,74.4485586 C238.424691,128.668725 240.896693,183.295553 229.592067,238.32154 Z M227.944977,349.461955 C226.572566,350.680701 225.093573,350.64722 224.097369,349.482388 C223.213971,348.449457 222.874218,346.692184 223.225838,344.893234 C223.977705,341.046551 227.294408,338.145411 232.843364,337.3108 C231.618946,343.653301 229.921928,347.706358 227.944977,349.461955 Z M224.207267,345.085063 C223.910287,346.604463 224.190233,348.052403 224.857342,348.832433 C225.475738,349.555506 226.312295,349.574444 227.280971,348.714228 C228.936022,347.244488 230.423169,343.856155 231.567456,338.568903 C227.299311,339.573606 224.810021,342.001265 224.207267,345.085063 Z M233.545978,322.580038 C234.701829,303.356777 233.235758,275.511432 228.589557,238.363749 C239.88628,183.309701 237.427289,128.823402 221.218401,74.7345537 L199.520411,1.14140066 C199.3484,0.557992272 200.170394,0.231287556 200.445805,0.773598759 L232.288667,63.4771662 C250.479535,105.303894 260.982717,145.062042 263.795415,182.751417 C266.696728,221.628216 265.572238,267.714314 261.84975,296.704791 C257.983266,326.816698 250.256355,338.06654 236.282981,338.06654 C234.526123,338.06654 232.953054,338.24274 231.567456,338.568903 C232.467404,334.410638 233.155281,329.077826 233.545978,322.580038 Z M229.592067,238.32154 C234.237212,275.48448 235.703353,303.361473 234.544175,322.640057 C234.195833,328.433427 233.612949,333.324338 232.843364,337.3108 C233.908446,337.150603 235.055769,337.06654 236.282981,337.06654 C249.620017,337.06654 257.047479,326.252676 260.857893,296.577433 C264.571693,267.654613 265.694535,221.636091 262.798188,182.825839 C259.994274,145.254156 249.519691,105.604271 231.384348,63.9029797 L202.019007,6.07985012 L222.176633,74.4485586 C238.424691,128.668725 240.896693,183.295553 229.592067,238.32154 Z M227.944977,349.461955 C226.572566,350.680701 225.093573,350.64722 224.097369,349.482388 C223.213971,348.449457 222.874218,346.692184 223.225838,344.893234 C223.977705,341.046551 227.294408,338.145411 232.843364,337.3108 C231.618946,343.653301 229.921928,347.706358 227.944977,349.461955 Z M224.207267,345.085063 C223.910287,346.604463 224.190233,348.052403 224.857342,348.832433 C225.475738,349.555506 226.312295,349.574444 227.280971,348.714228 C228.936022,347.244488 230.423169,343.856155 231.567456,338.568903 C227.299311,339.573606 224.810021,342.001265 224.207267,345.085063 Z M233.545978,322.580038 C234.701829,303.356777 233.235758,275.511432 228.589557,238.363749 C239.88628,183.309701 237.427289,128.823402 221.218401,74.7345537 L199.520411,1.14140066 C199.3484,0.557992272 200.170394,0.231287556 200.445805,0.773598759 L232.288667,63.4771662 C250.479535,105.303894 260.982717,145.062042 263.795415,182.751417 C266.696728,221.628216 265.572238,267.714314 261.84975,296.704791 C257.983266,326.816698 250.256355,338.06654 236.282981,338.06654 C234.526123,338.06654 232.953054,338.24274 231.567456,338.568903 C232.467404,334.410638 233.155281,329.077826 233.545978,322.580038 Z"/>
        <path fill="#000" fill-rule="nonzero" d="M231.458637,87.3234302 L237.532053,87.3234302 C244.921977,124.408433 247.502245,144.935269 245.272858,148.903936 C243.04347,152.872604 240.463202,156.152816 237.532053,158.744571 C246.705186,163.980188 250.861032,169.787191 249.999591,176.165581 C249.13815,182.543971 242.957832,201.84936 231.458637,234.081747 L231.458637,87.3234302 Z"/>
        <path fill="#000" fill-rule="nonzero" d="M249.725514,169.968745 C249.801363,170.090347 249.821384,170.23865 249.780496,170.376012 L230.899415,233.806271 C230.736028,234.355162 229.927916,234.242966 229.92024,233.670324 L227.958681,87.3301316 C227.954945,87.0513935 228.179873,86.8234302 228.458636,86.8234302 L241.270726,86.8234302 C241.526496,86.8234302 241.741028,87.016454 241.767948,87.2708031 L247.496814,141.397353 C247.5118,141.538944 247.465711,141.680207 247.370106,141.785716 L238.353243,151.73667 L249.725514,169.968745 Z"/>
        <path fill="#FFF" fill-rule="nonzero" d="M230.876214,230.379078 L248.757753,170.306742 L237.304877,151.945439 C237.186593,151.755806 237.208525,151.510705 237.358598,151.345086 L246.478815,141.280072 L240.820854,87.8234302 L228.965384,87.8234302 L230.876214,230.379078 Z"/>
        <path fill="#000" fill-rule="nonzero" d="M237.610809 285.503319C245.093276 293.065797 248.892046 300.608926 249.344102 308.281319 249.792477 315.891221 248.771343 323.130324 246.280375 329.994424 124.008387 358.014916 56.8012897 371.84927 44.0805084 371.84927 34.8784211 371.84927 26.7979042 351.007252 19.0924739 311.843537 13.0454349 281.108781 7.65430551 241.768385 1.54679718 187.699019-1.37450987 161.836882 4.05042169 133.918745 15.236634 110.510307 25.3844301 89.2748743 38.8613678 75.1335181 49.1741141 75.1335181 56.6919887 75.1335181 63.1923803 79.5606987 69.05465 88.0938785 68.6980496 88.9454847 68.3867794 88.8877321 68.2304146 88.6601258 62.5372626 80.3731155 56.3122978 76.1335181 49.1741141 76.1335181 39.372506 76.1335181 26.1348631 90.0237821 16.1389051 110.941476 5.03004351 134.188049-.35874241 161.920171 2.54047795 187.586776 8.64510337 241.63062 14.033322 280.949775 20.0736632 311.650488 27.6416675 350.115721 35.6801307 370.84927 44.0805084 370.84927 56.6730705 370.84927 123.863393 357.020264 245.432594 329.396955 247.809531 322.738447 248.780705 315.720859 248.345833 308.340137 247.912142 300.979442 244.270325 293.702098 237.397393 286.503319L97.7611058 286.503319C99.2768243 214.852757 96.8196852 167.523967 89.904377 144.048665 90.5076019 143.349726 90.7855925 143.501204 90.8636228 143.766093 97.8016863 167.318641 100.267486 214.549201 98.2754069 285.503319L237.610809 285.503319zM108.593494 43.7688229L135.382469 34.2717238 230.847096 236.127361C193.325084 210.373092 172.877165 195.228552 169.503339 190.693742 166.129512 186.158931 167.955629 175.092582 174.981689 157.494694 158.093464 154.508711 147.245151 151.250966 142.43675 147.721461 138.211575 144.620061 132.463318 119.908841 118.242694 68.7482274 116.934055 64.0402188 113.717655 55.7137507 108.593494 43.7688229z"/>
        <path fill="#000" fill-rule="nonzero" d="M142.194647,138.158938 C142.086688,138.099193 142.004632,138.001638 141.964265,137.88504 L109.452013,43.9758006 C109.38158,43.7723591 109.449278,43.5466742 109.620059,43.4155897 L135.07803,23.8750916 C135.333293,23.6791623 135.704483,23.7718695 135.837647,24.0648108 L230.868361,233.118422 C231.089479,233.60485 230.496008,234.052415 230.08911,233.706093 L163.536962,177.061831 C163.384313,176.931908 163.324013,176.723376 163.383764,176.532034 L170.478766,153.811505 L142.194647,138.158938 Z"/>
        <path fill="#FFF" fill-rule="nonzero" d="M142.846535,137.37678 L171.319652,153.133939 C171.527305,153.248856 171.625564,153.493915 171.554821,153.720456 L164.43684,176.514571 L229.030529,231.491938 L135.18771,25.0515198 L110.514934,43.9893346 L142.846535,137.37678 Z"/>
        <path fill="#000" fill-rule="nonzero" d="M64.8019654 80.9349946C64.5478031 81.0429584 64.254242 80.9244412 64.1462782 80.670279 64.0383144 80.4161168 64.1568316 80.1225556 64.4109938 80.0145918L115.438634 58.338913C115.692796 58.2309492 115.986358 58.3494665 116.094321 58.6036287 116.202285 58.8577909 116.083768 59.151352 115.829606 59.2593158L64.8019654 80.9349946zM304.690902 209.05381C304.942926 209.166676 305.055735 209.462477 304.942869 209.714501 304.830003 209.966524 304.534202 210.079334 304.282178 209.966468L295.422467 205.99874C295.170443 205.885874 295.057634 205.590073 295.1705 205.338049 295.283366 205.086026 295.579168 204.973216 295.831191 205.086082L304.690902 209.05381zM297.268415 209.376353C298.257926 206.734412 285.487066 204.231672 279.334916 208.322812 273.182766 212.413952 272.227035 225.07584 274.034411 222.474872 279.58784 214.483019 296.278904 212.018293 297.268415 209.376353z"/>
      </g>
      <g fill-rule="nonzero" transform="translate(52)">
        <g transform="translate(429)">
          <path fill="#FFF" d="M100.662211,29.4576298 C121.945785,50.7412037 121.945785,85.248695 100.662211,106.532269 L77.8245647,129.369916 C58.0434759,123.459458 41.7300449,114.081342 28.8842718,101.235569 C16.0384986,88.3897961 6.66038315,72.0763651 0.749925517,52.2952764 L23.5875721,29.4576298 C44.871146,8.17405589 79.3786374,8.17405589 100.662211,29.4576298 Z"/>
          <path fill="#000" d="M100.308658,106.178716 C121.39697,85.0904038 121.39697,50.8994949 100.308658,29.8111832 C79.2203461,8.72287143 45.0294373,8.72287143 23.9411255,29.8111832 L1.31463082,52.4376779 C7.20680886,72.0131923 16.5145836,88.1587744 29.2378251,100.882016 C41.9610667,113.605257 58.1066488,122.913032 77.6821632,128.80521 L100.308658,106.178716 Z M101.015765,29.1040764 C122.494601,50.5829124 122.494601,85.4069863 101.015765,106.885822 L78.1781181,129.723469 C78.0481924,129.853395 77.857473,129.901591 77.6814212,129.848987 C57.8233471,123.915527 41.4372119,114.495616 28.5307184,101.589123 C15.6242249,88.6826292 6.2043139,72.296494 0.270853565,52.4384199 C0.218250437,52.262368 0.266446472,52.0716486 0.396372126,51.941723 L23.2340187,29.1040764 C44.7128548,7.62524035 79.5369286,7.62524035 101.015765,29.1040764 Z"/>
          <path fill="#000" d="M100.662211 29.4576298C121.945785 50.7412037 121.945785 85.248695 100.662211 106.532269L77.8245647 129.369916C58.0434759 123.459458 41.7300449 114.081342 28.8842718 101.235569 23.803537 96.1548345 72.0081778 124.814159 84.5685946 109.925859 112.154712 77.2270713 77.8235372 55.7205512 77.8245647 48.2720495 77.8278573 24.4030755 84.4406908 13.2361094 100.662211 29.4576298zM98.57275 295.921877C100.0212 305.078364 122.595325 312.5 150 312.5 178.449279 312.5 201.5 304.520904 201.5 295L201.5 282.5 195.514925 282.5 195.514925 285.983027C195.514925 286.371163 195.091939 286.611293 194.758659 286.41236 185.607849 280.9503 168.677199 277.5 150 277.5 131.322801 277.5 114.392151 280.9503 105.241341 286.41236 104.908061 286.611293 104.485075 286.371163 104.485075 285.983027L104.485075 283.5 98.5 283.5 98.5 295.730322C98.5363337 295.787002 98.5616604 295.851774 98.57275 295.921877zM194.514925 282C194.514925 281.723858 194.738783 281.5 195.014925 281.5L202 281.5C202.276142 281.5 202.5 281.723858 202.5 282L202.5 295C202.5 305.361347 178.988335 313.5 150 313.5 122.363412 313.5 99.5499493 306.07944 97.6310863 296.337499 97.5496734 296.248557 97.5 296.13008 97.5 296L97.5 283C97.5 282.723858 97.7238576 282.5 98 282.5L104.985075 282.5C105.261217 282.5 105.485075 282.723858 105.485075 283L105.485075 285.11634C114.964264 279.802841 131.656355 276.5 150 276.5 168.343645 276.5 185.035736 279.802841 194.514925 285.11634L194.514925 282z"/>
          <path fill="#000" d="M202,295 C202,304.941125 178.718807,313 150,313 C122.25058,313 130.772906,277 150,277 C169.227094,277 186.016922,280.612176 195.014925,285.983027 L195.014925,282 L202,282 L202,295 Z"/>
          <ellipse cx="150" cy="284" fill="#FFF" rx="52" ry="18"/>
          <path fill="#000" d="M150 302.5C121.011665 302.5 97.5 294.361347 97.5 284 97.5 273.638653 121.011665 265.5 150 265.5 178.988335 265.5 202.5 273.638653 202.5 284 202.5 294.361347 178.988335 302.5 150 302.5zM150 301.5C178.449279 301.5 201.5 293.520904 201.5 284 201.5 274.479096 178.449279 266.5 150 266.5 121.550721 266.5 98.5 274.479096 98.5 284 98.5 293.520904 121.550721 301.5 150 301.5zM182.958467 141.294095C185.625797 142.008804 187.20871 144.750489 186.494001 147.41782L155.953353 261.397067C155.238644 264.064398 152.49696 265.64731 149.829629 264.932601 147.162299 264.217892 145.579386 261.476207 146.294095 258.808877L176.834743 144.829629C177.549452 142.162299 180.291136 140.579386 182.958467 141.294095z"/>
          <path fill="#FFF" d="M180.958467,141.294095 C183.625797,142.008804 185.20871,144.750489 184.494001,147.41782 L153.953353,261.397067 C153.238644,264.064398 150.49696,265.64731 147.829629,264.932601 C145.162299,264.217892 143.579386,261.476207 144.294095,258.808877 L174.834743,144.829629 C175.549452,142.162299 178.291136,140.579386 180.958467,141.294095 Z"/>
          <path fill="#000" d="M180.829057,141.777058 C178.42846,141.13382 175.960944,142.558441 175.317705,144.959039 L144.777058,258.938286 C144.13382,261.338884 145.558441,263.8064 147.959039,264.449638 C150.359636,265.092876 152.827152,263.668255 153.470391,261.267658 L184.011038,147.28841 C184.654276,144.887813 183.229655,142.420296 180.829057,141.777058 Z M181.087876,140.811132 C184.02194,141.597312 185.763144,144.613166 184.976964,147.547229 L154.436316,261.526477 C153.650136,264.46054 150.634283,266.201744 147.70022,265.415564 C144.766156,264.629384 143.024952,261.613531 143.811132,258.679467 L174.35178,144.70022 C175.13796,141.766156 178.153813,140.024952 181.087876,140.811132 Z"/>
          <path fill="#000" d="M144,256.5 L155,256.5 C156.932997,256.5 158.5,258.067003 158.5,260 L158.5,281 C158.5,281.140469 158.440912,281.27446 158.337192,281.36919 C156.227214,283.296294 153.273665,284.252841 149.5,284.252841 C145.726335,284.252841 142.772786,283.296294 140.662808,281.36919 C140.559088,281.27446 140.5,281.140469 140.5,281 L140.5,260 C140.5,258.067003 142.067003,256.5 144,256.5 Z"/>
          <path fill="#FFF" d="M157.5,260 C157.5,258.619288 156.380712,257.5 155,257.5 L144,257.5 C142.619288,257.5 141.5,258.619288 141.5,260 L141.5,280.775718 C143.399103,282.422846 146.058593,283.252841 149.5,283.252841 C152.941407,283.252841 155.600897,282.422846 157.5,280.775718 L157.5,260 Z"/>
          <path fill="#000" d="M113.145188,44.7959645 C115.434512,43.251796 118.542172,43.8558638 120.08634,46.1451879 L186.071103,143.971621 C187.615271,146.260945 187.011204,149.368605 184.72188,150.912774 C182.432555,152.456942 179.324896,151.852875 177.780727,149.56355 L111.795965,51.7371169 C110.251796,49.4477929 110.855864,46.3401331 113.145188,44.7959645 Z"/>
          <path fill="#FFF" d="M111.145188,45.7959645 C113.434512,44.251796 116.542172,44.8558638 118.08634,47.1451879 L184.071103,144.971621 C185.615271,147.260945 185.011204,150.368605 182.72188,151.912774 C180.432555,153.456942 177.324896,152.852875 175.780727,150.56355 L109.795965,52.7371169 C108.251796,50.4477929 108.855864,47.3401331 111.145188,45.7959645 Z"/>
          <path fill="#000" d="M111.424784,46.2104833 C109.364393,47.600235 108.820732,50.3971288 110.210483,52.4575204 L176.195246,150.283954 C177.584998,152.344346 180.381891,152.888007 182.442283,151.498255 C184.502675,150.108503 185.046336,147.31161 183.656584,145.251218 L117.671821,47.4247843 C116.28207,45.3643927 113.485176,44.8207316 111.424784,46.2104833 Z M110.865591,45.3814457 C113.383848,43.6828603 116.802274,44.347335 118.500859,46.8655914 L184.485622,144.692025 C186.184207,147.210281 185.519732,150.628707 183.001476,152.327293 C180.48322,154.025878 177.064794,153.361403 175.366208,150.843147 L109.381446,53.0167133 C107.68286,50.4984569 108.347335,47.0800312 110.865591,45.3814457 Z"/>
          <circle cx="179" cy="146" r="2" fill="#000"/>
          <path fill="#FFF" d="M121.996735,7.98097039 C131.56458,17.5488155 131.56458,33.0613575 121.996735,42.6292027 L103.340087,61.2858506 C93.499588,59.576939 85.6919857,55.8351305 79.9172803,50.0604251 C74.142575,44.2857197 70.4007665,36.4781175 68.6918548,26.6376183 L87.3485028,7.98097039 C96.9163479,-1.58687476 112.42889,-1.58687476 121.996735,7.98097039 Z"/>
          <path fill="#000" d="M121.643182,42.2756493 C131.015765,32.9030663 131.015765,17.7071068 121.643182,8.33452378 C112.270599,-1.03805922 97.0746391,-1.03805922 87.7020561,8.33452378 L69.2293365,26.8072435 C70.9414153,36.4306515 74.6231055,44.0591434 80.2708337,49.7068717 C85.918562,55.3546 93.5470539,59.0362901 103.170462,60.748369 L121.643182,42.2756493 Z M122.350288,7.627417 C132.113396,17.3905243 132.113396,33.2196488 122.350288,42.9827561 L103.69364,61.639404 C103.578612,61.7544329 103.414814,61.8063112 103.254537,61.7784774 C93.3173622,60.052777 85.415582,56.2658335 79.563727,50.4139785 C73.7118719,44.5621234 69.9249284,36.6603432 68.199228,26.7231684 C68.1713942,26.5628919 68.2232725,26.3990939 68.3383014,26.2840649 L86.9949494,7.627417 C96.7580567,-2.1356903 112.587181,-2.1356903 122.350288,7.627417 Z"/>
          <path fill="#000" d="M121.996735,7.98097039 C131.56458,17.5488155 128.604651,31.4214764 119.036806,40.9893216 C111.298109,50.1947601 105.713845,55.3877002 102.284014,56.5681418 C97.1392674,58.3388042 85.6919857,55.8351305 79.9172803,50.0604251 C74.142575,44.2857197 70.4007665,36.4781175 68.6918548,26.6376183 C81.0276737,46.5913007 92.5770845,51.9218288 103.340087,42.6292027 C119.484591,28.6902635 112.42889,-1.58687476 121.996735,7.98097039 Z"/>
        </g>
        <g transform="translate(270 195)">
          <polygon fill="#FFF" points=".62 142.869 101.16 109.542 247.246 118.946 138.475 168.327"/>
          <path fill="#000" d="M138.411284,167.807234 L245.220449,119.316501 L101.224633,110.047055 L2.62607196,142.731395 L138.411284,167.807234 Z M0.463154336,142.394867 L101.002334,109.067234 L247.27845,118.446911 C247.797759,118.48034 247.926862,119.186036 247.453024,119.401156 L138.681642,168.782723 C138.619569,168.810904 92.5689152,160.337048 0.529679159,143.361157 C0.0211713131,143.26725 -0.0276866213,142.557576 0.463154336,142.394867 Z"/>
          <path fill="#000" d="M69.2585163,142.66584 L125.171631,115.151751 L176.773567,119.904442 L141.383231,154.775052 C139.323371,156.804662 136.413729,157.720866 133.562617,157.237651 L69.8073647,146.432218 C68.7183255,146.247645 67.9851113,145.215178 68.1696849,144.126138 C68.2770334,143.492751 68.6821052,142.949484 69.2585163,142.66584 Z"/>
          <path fill="#FFF" d="M1.03667023,143.304244 L142.554868,167.529762 L141.239622,169.309838 C138.982469,172.364706 135.18949,173.877101 131.449633,173.213453 L7.69965795,151.25369 C3.8451173,150.569691 1.03667023,147.219002 1.03667023,143.304244 Z"/>
          <path fill="#000" d="M7.78701947,150.761381 L131.536995,172.721144 C135.089859,173.351609 138.693189,171.914834 140.837484,169.01271 L141.670268,167.885606 L1.55999306,143.901101 C1.8274763,147.312553 4.36874307,150.154799 7.78701947,150.761381 Z M1.12103459,142.811412 L142.639233,167.036931 C143.006274,167.099762 143.178296,167.527393 142.957006,167.82689 L141.64176,169.606966 C139.271749,172.814577 135.289121,174.402592 131.362272,173.705762 L7.61229644,151.745999 C3.51904428,151.01964 0.536670228,147.461443 0.536670228,143.304244 C0.536670228,142.994384 0.815617977,142.75913 1.12103459,142.811412 Z"/>
          <polygon fill="#FFF" points="220 34 320.539 .672 323.36 2.674 241.246 124.946 139.958 174.459 136.658 174.459"/>
          <path fill="#000" d="M220.334665,34.4158175 L137.535887,173.959121 L139.841852,173.959121 L240.906109,124.555647 L322.673703,2.79982985 L320.456273,1.2266047 L220.334665,34.4158175 Z M320.381853,0.197763117 C320.482541,0.164386168 321.571857,0.853876459 323.649799,2.26623399 C323.870938,2.42312832 323.926728,2.7276891 323.775562,2.95278299 L241.661413,125.224635 C241.628721,125.273317 207.800617,141.834546 140.177104,174.908323 C140.131521,174.930605 138.958425,174.947538 136.657816,174.959121 C136.270262,174.959121 136.03005,174.537274 136.227814,174.203977 L219.569998,33.7448561 C219.610986,33.675778 253.214938,22.4934137 320.381853,0.197763117 Z"/>
          <polygon fill="#FFF" points="223 36 323.539 2.672 244.246 126.946 139.562 174.488"/>
          <path fill="#000" d="M223.332847,36.4164201 L140.821183,173.367086 L243.904576,126.551938 L322.360723,3.58976758 L223.332847,36.4164201 Z M244.039579,126.490626 L243.824822,126.676934 L243.904576,126.551938 L244.039579,126.490626 Z M323.381853,2.19776312 C323.828578,2.04967885 324.213833,2.5445624 323.960688,2.94131052 L244.667838,127.214822 C244.633139,127.269205 209.6668,143.178701 139.768821,174.943308 C139.321735,175.146352 138.88039,174.650618 139.133794,174.230025 L222.571725,35.7419678 C222.612779,35.6738284 256.216155,24.4924269 323.381853,2.19776312 Z"/>
        </g>
        <g transform="translate(0 88)">
          <g transform="translate(344 177)">
            <path fill="#FFF" d="M59.3401403,8.48036702 C70.6115805,13.9068287 80.1981591,19.6105887 88.099876,25.591647 L81.2169261,32.9363451 L62.1402065,31.1478893 C50.8036636,30.8259195 41.9446073,31.7371645 35.5630378,33.8816243 C29.1814683,36.0260841 24.8972233,38.9564563 22.7103028,42.6727408 L9.41732945,42.6727408 C7.01824355,40.6764976 4.49706251,36.584778 1.85378631,30.397582 C-1.56810433,22.6380777 7.84728983,6.08811096 12.9622122,1.5620857 C15.0131396,-0.252711924 46.357479,6.170158 59.3401403,8.48036702 Z"/>
            <path fill="#000" d="M41.9310489,5.7520562 C40.8403981,5.55065746 39.7992149,5.35977131 38.7920118,5.17668744 C23.4646898,2.39057069 14.1842948,1.1483485 13.293552,1.93653725 C6.71301847,7.7594332 -0.524778094,23.7647747 2.31358398,30.2011486 C4.87720544,36.2018943 7.31656717,40.1967574 9.6008481,42.1727408 L22.4280248,42.1727408 C24.7256318,38.4557091 29.0575475,35.5402507 35.40377,33.4076689 C41.849955,31.2414957 50.7640239,30.3245921 62.1868772,30.6500723 L81.0196395,32.4156569 L87.3543118,25.656018 C79.5807804,19.8287372 70.1909364,14.2631426 59.1849161,8.96057535 C56.3206198,8.44886226 43.4607829,6.03453571 41.9310489,5.7520562 Z M88.4016416,25.1929773 C88.638357,25.3721547 88.6677187,25.7169201 88.4647116,25.9335461 L81.5817617,33.2782442 C81.4760669,33.3910296 81.3241507,33.44859 81.1702554,33.4341622 L62.1260117,31.6476878 C50.8433032,31.327247 42.0392596,32.2328334 35.7223056,34.3555798 C29.4449646,36.4650146 25.2583883,39.3285826 23.1412258,42.9263259 C23.05138,43.0790028 22.8874539,43.1727408 22.7103028,43.1727408 L9.41732945,43.1727408 C9.30048784,43.1727408 9.18733583,43.1318213 9.09752051,43.0570873 C6.62280896,40.9979171 4.0658648,36.8481562 1.39629649,30.599332 C-0.238345335,26.8926063 0.786214048,21.1177016 3.7511114,14.5612594 C6.24042433,9.05650353 9.8916528,3.61147882 12.6308725,1.18763415 C13.9211569,0.045904187 22.4038522,1.18135071 38.9708556,4.19280998 C39.9790148,4.37606764 41.0211068,4.5671204 42.1126381,4.76868172 C43.6589449,5.05422155 56.7104207,7.50456519 59.4277371,7.98810002 C70.8568957,13.4700042 80.4717176,19.1905682 88.4016416,25.1929773 Z"/>
            <path fill="#FFF" d="M73.1431032,32.0838482 C72.4134888,26.1782184 74.5980614,19.1383955 76.8792081,19.1383955 C79.1603547,19.1383955 87.5364897,22.4546378 89.0795176,26.5640999 C90.6225454,30.673562 99.221242,51.1066309 94.6877823,51.1066309 C91.0730037,51.1066309 83.815064,42.2683333 82.5112169,35.6625244 C82.0758243,33.4566519 73.2909557,33.2805923 73.1431032,32.0838482 Z"/>
            <path fill="#000" d="M75.6599647,32.5674988 C76.0387551,32.6479645 77.5841221,32.9556589 77.9367405,33.0292548 C81.2103593,33.7125007 82.7569482,34.3254243 83.001753,35.5657029 C84.2347006,41.8123071 91.2732677,50.6066309 94.6877823,50.6066309 C95.4091666,50.6066309 95.6873748,49.5208188 95.3628297,47.23031 C95.0620285,45.1073761 94.2664805,42.1937659 93.0679278,38.6376327 C92.7250043,37.6201707 92.3525191,36.5605033 91.9511807,35.4563115 C90.9748291,32.7701013 88.362533,26.0769932 88.6114271,26.7398593 C87.3985078,23.5095574 79.9832087,19.6383955 76.8792081,19.6383955 C74.9913712,19.6383955 72.9575047,26.5037218 73.6393305,32.0225415 C73.6393996,32.0231005 74.3840818,32.2964655 75.6599647,32.5674988 Z M76.8792081,18.6383955 C80.3612977,18.6383955 88.1678991,22.713837 89.547608,26.3883405 C89.2948134,25.7150865 91.9097897,32.415062 92.8910249,35.1147082 C93.2949255,36.2259492 93.6699871,37.2929462 94.0155526,38.3182469 C95.2322035,41.9280781 96.0415118,44.8920836 96.3529402,47.09002 C96.756005,49.9346899 96.3276182,51.6066309 94.6877823,51.6066309 C90.6885616,51.6066309 83.3351382,42.4189104 82.0206809,35.7593458 C81.8996538,35.1461744 80.4696462,34.5794527 77.7324303,34.008161 C77.3865224,33.9359656 75.838798,33.6278019 75.4521733,33.5456719 C73.4716351,33.1249501 72.7344943,32.8543535 72.646876,32.1451549 C71.8986116,26.0885695 74.1057404,18.6383955 76.8792081,18.6383955 Z"/>
            <path fill="#FFF" d="M55.0286201,10.7492509 C57.7905109,10.7492509 76.600007,16.0151295 78.468223,20.9906471 C80.3364389,25.9661648 83.9570944,57.6634035 78.468223,57.6634035 C74.0916417,57.6634035 68.1657881,42.5684383 66.3344679,31.9436202 C65.8690454,29.2433661 58.5588509,33.3925742 58.3798391,31.9436202 L62.0286116,30.8516763"/>
            <path fill="#000" d="M66.8272022,31.8586913 C68.8520115,43.6060803 74.8508223,57.1634035 78.468223,57.1634035 C80.409536,57.1634035 81.239722,50.8854992 80.7278304,41.2192858 C80.3027629,33.1926009 78.9772255,23.7686449 78.0001325,21.1664065 C77.2410748,19.1448494 73.0446032,16.7247148 66.9112662,14.4735108 C62.142261,12.7230764 56.5170111,11.2492509 55.0286201,11.2492509 C54.7524777,11.2492509 54.5286201,11.0253932 54.5286201,10.7492509 C54.5286201,10.4731085 54.7524777,10.2492509 55.0286201,10.2492509 C56.6703077,10.2492509 62.3809175,11.7454409 67.255833,13.534749 C73.6922596,15.8972002 78.0288751,18.3981568 78.9363134,20.8148878 C79.9596012,23.5401545 81.2962459,33.0430777 81.7264311,41.1664031 C82.2857977,51.7291017 81.4349298,58.1634035 78.468223,58.1634035 C74.0857903,58.1634035 67.9602699,44.3197163 65.8417336,32.0285492 C65.7280609,31.369051 64.6927881,31.3370426 62.4965252,31.9256624 C62.2922342,31.9804144 62.0799135,32.0394172 61.8136594,32.114967 C60.1460886,32.5881419 60.0168504,32.6227886 59.5043694,32.7068146 C58.584362,32.8576584 57.9726106,32.7252986 57.8836118,32.0049269 C57.8537055,31.7628599 58.0028206,31.5345384 58.2364889,31.4646101 L61.8852615,30.3726662 C62.1498115,30.293496 62.4284517,30.4437761 62.5076218,30.7083261 C62.52514,30.7668639 62.5314239,30.8260915 62.5277214,30.8836953 C65.1499711,30.2122015 66.5602179,30.3097216 66.8272022,31.8586913 Z"/>
            <path fill="#FFF" d="M44.6967384,12 C47.4586292,12 57.600007,16.0151295 59.468223,20.9906471 C61.3364389,25.9661648 61.3083219,58.7553475 55.8194504,58.7553475 C51.4428692,58.7553475 49.1657881,42.5684383 47.3344679,31.9436202 C46.8690454,29.2433661 41.63968,28.4237664 40.1732618,27.6736642"/>
            <path fill="#000" d="M47.8272022,31.8586913 C47.8265054,31.8546483 47.826012,31.8518107 47.8257179,31.8501526 C47.8262166,31.8529971 47.8267113,31.8558433 47.8272022,31.8586913 Z M49.3467158,40.7342147 C51.4142747,52.226115 53.4448392,58.2553475 55.8194504,58.2553475 C57.8214037,58.2553475 59.3861471,51.6385095 59.9034221,41.7127944 C60.3530556,33.0850151 59.9150527,23.6030636 59.0001325,21.1664065 C57.5140193,17.2085222 48.4947375,12.5 44.6967384,12.5 C44.420596,12.5 44.1967384,12.2761424 44.1967384,12 C44.1967384,11.7238576 44.420596,11.5 44.6967384,11.5 C48.8728265,11.5 58.2834105,16.4128018 59.9363134,20.8148878 C60.9168681,23.4263457 61.358983,32.997316 60.9020668,41.7648384 C60.3420376,52.5109421 58.7471272,59.2553475 55.8194504,59.2553475 C52.6048095,59.2553475 50.582593,53.2509021 48.3625178,40.9112862 C47.9902977,38.8424131 46.8126112,31.8628978 46.8403512,32.0205834 C46.6532427,30.9545623 45.4842954,30.1053496 43.4058796,29.3315738 C43.0019331,29.1811881 40.3801187,28.3410922 39.945562,28.1188078 C39.699716,27.9930526 39.6023631,27.6918104 39.7281182,27.4459644 C39.8538734,27.2001184 40.1551156,27.1027655 40.4009616,27.2285206 C40.7498372,27.4069775 43.2809305,28.218004 43.7547764,28.3944126 C46.1462849,29.28475 47.5554401,30.3083715 47.8257179,31.8501526 C47.8029296,31.7216791 48.9762632,38.6751657 49.3467158,40.7342147 Z"/>
            <path fill="#FFF" d="M26.8743943,37.1482745 C27.2717963,38.8443715 26.3353393,41.9378972 24.0650235,46.4288517 C31.725045,53.6728083 35.5550557,58.4830788 35.5550557,60.8596632 C35.5550557,68.2182262 15.0083875,58.8557504 13.1770673,48.2309323 C12.7116447,45.5306782 9.55127178,42.4752557 9.37225991,41.0263017"/>
            <path fill="#000" d="M36.0550557,60.8596632 C36.0550557,62.9228162 34.636214,63.995557 32.3137361,63.9849276 C30.2917779,63.9756736 27.6045302,63.1581666 24.8248242,61.7340646 C18.580216,58.5348202 13.549585,53.3358164 12.684333,48.3158613 C12.6120464,47.8964746 12.4620808,47.4419546 12.2376492,46.9476565 C11.9285181,46.2668126 11.5084161,45.5619537 10.8842948,44.6336511 C10.7834078,44.4835943 10.679454,44.3308198 10.5446787,44.1340964 C10.3763759,43.8887817 10.2827611,43.7523459 10.2119104,43.648666 C9.94582558,43.2592895 9.76522896,42.9877767 9.60377265,42.7304086 C9.16830093,42.0362484 8.93087182,41.5314863 8.87603266,41.0876084 C8.84217391,40.8135497 9.03689448,40.5639332 9.31095323,40.5300745 C9.58501198,40.4962157 9.83462842,40.6909363 9.86848717,40.964995 C9.92685657,41.4374474 9.73793558,41.1362994 11.7141715,44.0757042 C12.3665829,45.046085 12.8112766,45.7922043 13.1481886,46.5342343 C13.4055941,47.1011556 13.5817143,47.6349454 13.6698016,48.1460034 C14.4712564,52.7958247 19.2881002,57.773886 25.2807889,60.8440668 C27.9326348,62.2026633 30.4763587,62.9765079 32.3183128,62.9849381 C34.1373956,62.9932636 35.0550557,62.2994501 35.0550557,60.8596632 C35.0550557,58.6882695 31.2577228,53.9190404 23.7214738,46.7921335 C23.5607727,46.6401611 23.5190144,46.4006632 23.6188014,46.2032727 C25.837018,41.8153768 26.7487136,38.8036487 26.3875785,37.2623373 C26.3245833,36.9934763 26.4914705,36.7244538 26.7603315,36.6614587 C27.0291925,36.5984635 27.298215,36.7653507 27.3612102,37.0342117 C27.7843178,38.8400196 26.8796506,41.9065455 24.6784969,46.3213188 C32.2816704,53.5390849 36.0550557,58.3079072 36.0550557,60.8596632 Z"/>
          </g>
          <path fill="#FFF" d="M44.0805084,296.34927 C56.7417877,296.34927 123.699159,280.787322 244.952621,249.663427 C277.032093,255.038822 299.251766,256.834474 311.611637,255.050383 C323.971509,253.266291 334.73879,246.709123 343.91348,235.378878 C358.657752,242.017938 366.546842,243.959042 367.580751,241.202191 C368.61466,238.445339 361.271805,227.677877 345.552186,208.899804 C328.077015,193.773424 314.14782,187.159864 303.764603,189.059124 C293.381385,190.958384 273.777391,200.021252 244.952621,216.247727 L97.7611058,211.003319 C49.3127616,267.90062 31.4192291,296.34927 44.0805084,296.34927 Z"/>
          <path fill="#000" d="M44.0805084,296.84927 C40.5823036,296.84927 39.1144625,294.77075 39.8218241,290.924705 C40.4903486,287.289824 43.0766403,281.908712 47.5814573,274.746574 C56.5441029,260.497002 73.1418414,239.14473 97.380419,210.679162 C97.4464462,210.601621 146.596276,212.289579 244.829909,215.743038 C273.636795,199.532217 293.23246,190.477329 303.674637,188.567285 C314.248081,186.633229 328.299785,193.304957 345.935581,208.578854 C361.904513,227.654748 369.189284,238.337036 368.048911,241.377766 C366.841854,244.596305 358.994637,242.692699 344.058804,235.992373 C334.860712,247.23338 324.064004,253.758122 311.68307,255.545254 C299.270379,257.336969 277.046349,255.543994 244.974411,250.174042 C123.687791,281.305534 56.8051957,296.84927 44.0805084,296.84927 Z M48.4279393,275.278991 C43.9859901,282.341177 41.444867,287.628309 40.8053283,291.105591 C40.2046265,294.371708 41.2480736,295.84927 44.0805084,295.84927 C56.6747947,295.84927 123.672837,280.27787 244.828309,249.179127 C277.066072,254.537544 299.246619,256.330034 311.540205,254.555511 C323.769704,252.790239 334.426345,246.30045 343.524901,235.064226 C358.443624,241.37317 366.26124,243.296688 367.112592,241.026616 C368.040037,238.553643 360.639098,227.701006 345.224953,209.277849 C327.854244,194.241892 314.04756,187.6865 303.854568,189.550964 C293.545113,191.436731 273.973563,200.484601 245.197896,216.683434 C245.144469,216.71351 196.07351,214.98957 97.9850198,211.511614 C73.8604653,239.851281 57.3395354,261.110582 48.4279393,275.278991 Z"/>
          <path fill="#FFF" d="M68.6425323,13.3770021 C63.1977572,5.45153175 56.8807777,0.633518092 49.1741141,0.633518092 C29.0170057,0.633518092 -4.25553742,56.8767202 2.04363756,112.642898 C11.7582114,198.645374 25.0885895,296.34927 44.0805084,296.34927 C56.7417877,296.34927 123.985074,282.507466 245.810367,254.823859 C248.277849,248.024475 249.289383,240.853431 248.844968,233.310728 C248.400553,225.768024 244.655833,218.332221 237.610809,211.003319 L97.7611058,211.003319 C99.7780936,139.81504 97.3190583,92.4497264 90.3839999,68.907379"/>
          <path fill="#000" d="M237.610809,210.503319 C245.093276,218.065797 248.892046,225.608926 249.344102,233.281319 C249.792477,240.891221 248.771343,248.130324 246.280375,254.994424 C124.008387,283.014916 56.8012897,296.84927 44.0805084,296.84927 C34.8784211,296.84927 26.7979042,276.007252 19.0924739,236.843537 C13.0454349,206.108781 7.65430551,166.768385 1.54679718,112.699019 C-1.37450987,86.8368822 4.05042169,58.9187448 15.236634,35.5103068 C25.3844301,14.2748743 38.8613678,0.133518092 49.1741141,0.133518092 C56.6919887,0.133518092 63.1923803,4.56069872 69.05465,13.0938785 C68.6980496,13.9454847 68.3867794,13.8877321 68.2304146,13.6601258 C62.5372626,5.37311553 56.3122978,1.13351809 49.1741141,1.13351809 C39.372506,1.13351809 26.1348631,15.0237821 16.1389051,35.9414759 C5.03004351,59.1880487 -0.35874241,86.920171 2.54047795,112.586776 C8.64510337,166.63062 14.033322,205.949775 20.0736632,236.650488 C27.6416675,275.115721 35.6801307,295.84927 44.0805084,295.84927 C56.6730705,295.84927 123.863393,282.020264 245.432594,254.396955 C247.809531,247.738447 248.780705,240.720859 248.345833,233.340137 C247.912142,225.979442 244.270325,218.702098 237.397393,211.503319 L97.7611058,211.503319 C99.2768243,139.852757 96.8196852,92.523967 89.904377,69.0486653 C90.5076019,68.3497257 90.7855925,68.5012042 90.8636228,68.7660926 C97.8016863,92.3186414 100.267486,139.549201 98.2754069,210.503319 L237.610809,210.503319 Z"/>
        </g>
        <g transform="translate(227 305)">
          <path fill="#FFF" d="M40,70 L85,70 L85,80 C77.4882158,82.8826224 69.9882158,84.3239337 62.5,84.3239337 C55.0117842,84.3239337 47.5117842,82.8826224 40,80 L40,70 Z"/>
          <path fill="#000" d="M40.5,70.5 L40.5,79.6554419 C47.8482067,82.4349876 55.1807217,83.8239337 62.5,83.8239337 C69.8192783,83.8239337 77.1517933,82.4349876 84.5,79.6554419 L84.5,70.5 L40.5,70.5 Z M40,69.5 L85,69.5 C85.2761424,69.5 85.5,69.7238576 85.5,70 L85.5,80 C85.5,80.2070242 85.3724176,80.3926375 85.1791362,80.4668085 C77.6111899,83.370983 70.0506231,84.8239337 62.5,84.8239337 C54.9493769,84.8239337 47.3888101,83.370983 39.8208638,80.4668085 C39.6275824,80.3926375 39.5,80.2070242 39.5,80 L39.5,70 C39.5,69.7238576 39.7238576,69.5 40,69.5 Z"/>
          <path fill="#000" d="M85,70 L85,80 C77.4882158,82.8826224 69.9882158,84.3239337 62.5,84.3239337 C57.5681481,84.3239337 65.0159175,84.1422316 73.087057,80 C75.8761067,78.5686172 79.8470877,75.2352839 85,70 Z"/>
          <path fill="#FFF" d="M25,63 C11.745166,63 1,53.5979797 1,42 C1,30.4020203 11.745166,21 25,21 C38.254834,21 49,30.4020203 49,42 C49,53.5979797 38.254834,63 25,63 Z M27,57 C37.4934102,57 46,50.2842712 46,42 C46,33.7157288 37.4934102,27 27,27 C16.5065898,27 8,33.7157288 8,42 C8,50.2842712 16.5065898,57 27,57 Z"/>
          <path fill="#000" d="M25,62.5 C37.9924392,62.5 48.5,53.3058843 48.5,42 C48.5,30.6941157 37.9924392,21.5 25,21.5 C12.0075608,21.5 1.5,30.6941157 1.5,42 C1.5,53.3058843 12.0075608,62.5 25,62.5 Z M25,63.5 C11.4827712,63.5 0.5,53.8900752 0.5,42 C0.5,30.1099248 11.4827712,20.5 25,20.5 C38.5172288,20.5 49.5,30.1099248 49.5,42 C49.5,53.8900752 38.5172288,63.5 25,63.5 Z M27,57.5 C16.2529259,57.5 7.5,50.5897953 7.5,42 C7.5,33.4102047 16.2529259,26.5 27,26.5 C37.7470741,26.5 46.5,33.4102047 46.5,42 C46.5,50.5897953 37.7470741,57.5 27,57.5 Z M27,56.5 C37.2397464,56.5 45.5,49.9787471 45.5,42 C45.5,34.0212529 37.2397464,27.5 27,27.5 C16.7602536,27.5 8.5,34.0212529 8.5,42 C8.5,49.9787471 16.7602536,56.5 27,56.5 Z"/>
          <path fill="#FFF" d="M22,8 L104,8 L94.9269889,58.6710961 C93.1036476,68.8541218 85.1968366,76.8623143 75.0378664,78.8152379 C70.9291675,79.6050793 66.9165454,80 63,80 C59.0834545,80 55.0708322,79.6050793 50.9621332,78.8152379 C40.803163,76.8623141 32.8963521,68.8541215 31.0730107,58.6710958 L22,8 Z"/>
          <path fill="#000" d="M22.9943698,10.7165531 L31.5651831,58.5829689 C33.3520576,68.5623341 41.1007323,76.4103628 51.0565231,78.3242281 C55.1346139,79.1081856 59.1156747,79.5 63,79.5 C66.8843251,79.5 70.8653858,79.1081856 74.9434765,78.3242282 C84.8992672,76.4103631 92.647942,68.5623344 94.4348165,58.5829692 L103.00563,10.7165531 C103.590143,10.2987 104.011098,9.86445932 104.254409,9.41598987 L95.4191612,58.759223 C93.5593531,69.1459092 85.4944059,77.3142656 75.1322563,79.3062476 C70.9929492,80.101973 66.9487656,80.5 63,80.5 C59.0512343,80.5 55.0070505,80.101973 50.8677433,79.3062476 C40.5055937,77.3142653 32.4406465,69.1459089 30.5808384,58.7592227 L21.7455907,9.41598987 C21.9889021,9.8644593 22.4098573,10.2987 22.9943698,10.7165531 Z M104.242638,7.56257323 C104.422056,7.66239231 104.53143,7.8688801 104.492172,8.08812688 L104.473103,8.19462478 C104.435345,7.9810191 104.358056,7.77026355 104.242638,7.56257323 L104.242638,7.56257323 Z M21.5268968,8.19462478 L21.5078276,8.08812687 C21.46857,7.8688801 21.5779442,7.66239231 21.7573623,7.56257323 C21.6419443,7.77026355 21.5646547,7.9810191 21.5268968,8.19462478 L21.5268968,8.19462478 Z"/>
          <path fill="#000" d="M80.3583043,57.050733 C91.1564804,46.9997619 99.0370456,30.6495175 104,8 L94.9269889,58.6710961 C93.1036476,68.8541218 85.1968366,76.8623143 75.0378664,78.8152379 C70.9291675,79.6050793 66.9165454,80 63,80 C59.7388951,80 57.0952473,77.3563522 57.0952473,74.0952473 C57.0952473,71.6017165 58.6616176,69.3769597 61.0091442,68.5362368 C68.6047863,65.8160393 75.0545022,61.9875263 80.3583043,57.050733 Z"/>
          <path fill="#000" d="M63,16.5 C39.9236292,16.5 21.5,13.1298239 21.5,8.5 C21.5,3.87017607 39.9236292,0.5 63,0.5 C86.0763708,0.5 104.5,3.87017607 104.5,8.5 C104.5,13.1298239 86.0763708,16.5 63,16.5 Z M63,15.5 C85.2109786,15.5 103.5,12.1544473 103.5,8.5 C103.5,4.84555269 85.2109786,1.5 63,1.5 C40.7890214,1.5 22.5,4.84555269 22.5,8.5 C22.5,12.1544473 40.7890214,15.5 63,15.5 Z"/>
          <path fill="#000" d="M30.1969973,13 C37.6770892,11.1783299 49.5862938,10 63,10 C76.4137062,10 88.3229108,11.1783299 95.8030027,13 C88.3229108,14.8216701 76.4137062,16 63,16 C49.5862938,16 37.6770892,14.8216701 30.1969973,13 L30.1969973,13 Z"/>
        </g>
        <g transform="translate(159 393)">
          <path fill="#000" d="M2.60897334,54.818794 L169.075831,94.0594269 L240.203575,43.0341526 L74.0965369,10.5283754 L2.60897334,54.818794 Z M241.53153,42.2750547 C241.961594,42.3592147 242.08303,42.9165805 241.726955,43.1720196 L169.473929,95.004543 C169.395654,95.0606956 113.306317,81.8976695 1.20591788,55.5154646 C0.772530657,55.4133038 0.678796078,54.8382729 1.05730393,54.6037668 L73.7366671,9.57496381 C73.8081452,9.53067922 129.739766,20.4307095 241.53153,42.2750547 Z"/>
          <polygon fill="#000" points="75 15 242.436 47.766 170.182 99.598 2.321 60.029"/>
          <polygon fill="#FFF" points="74 10 241.436 42.766 169.182 94.598 1.321 55.029"/>
          <g transform="translate(30)">
            <polygon fill="#FFF" points="73.871 .746 185.575 57.312 108.492 112.525 1.192 45.775"/>
            <path fill="#000" d="M73.8957471,1.31863614 L2.13971868,45.7753833 L108.472034,111.924348 L184.613711,57.385175 L73.8957471,1.31863614 Z M185.801001,56.8655006 C186.135887,57.035084 186.171441,57.499463 185.866273,57.7180501 L108.78275,112.931854 C108.673148,113.010361 72.7214446,90.766098 0.927641617,46.1990657 C0.612784966,46.0031945 0.613205588,45.5447704 0.928421148,45.3494773 L73.6077843,0.32067432 C73.7066149,0.259443383 111.104354,19.1077188 185.801001,56.8655006 Z"/>
            <path fill="#000" d="M153.829372 55.302977C154.03787 55.1219157 154.35367 55.1441574 154.534731 55.3526554 154.715793 55.5611533 154.693551 55.8769535 154.485053 56.0580149L139.598799 68.9853629C139.390301 69.1664243 139.074501 69.1441825 138.893439 68.9356846 138.712378 68.7271866 138.73462 68.4113864 138.943118 68.2303251L153.829372 55.302977zM143.859366 50.6054521C144.077268 50.4358261 144.391423 50.4749622 144.561049 50.692865 144.730675 50.9107678 144.691539 51.2249219 144.473636 51.3945479L124.347701 67.0615419C124.129798 67.2311679 123.815644 67.1920318 123.646018 66.974129 123.476392 66.7562262 123.515528 66.442072 123.733431 66.272446L143.859366 50.6054521zM126.365238 47.5536027C126.578669 47.3783837 126.893733 47.4093607 127.068952 47.622792 127.244171 47.8362232 127.213194 48.1512865 126.999762 48.3265056L87.3172622 80.9043557C87.103831 81.0795748 86.7887676 81.0485977 86.6135486 80.8351665 86.4383295 80.6217352 86.4693066 80.3066719 86.6827378 80.1314528L126.365238 47.5536027zM122.856309 37.6078507C123.072887 37.4365365 123.387336 37.4732301 123.55865 37.6898082 123.729964 37.9063863 123.693271 38.2208351 123.476693 38.3921493L77.3101918 74.9100535C77.0936137 75.0813677 76.7791649 75.0446741 76.6078507 74.8280961 76.4365365 74.611518 76.4732301 74.2970692 76.6898082 74.125755L122.856309 37.6078507zM112.856309 31.6078507C113.072887 31.4365365 113.387336 31.4732301 113.55865 31.6898082 113.729964 31.9063863 113.693271 32.2208351 113.476693 32.3921493L67.3101918 68.9100535C67.0936137 69.0813677 66.7791649 69.0446741 66.6078507 68.8280961 66.4365365 68.611518 66.4732301 68.2970692 66.6898082 68.125755L112.856309 31.6078507zM102.856309 25.6078507C103.072887 25.4365365 103.387336 25.4732301 103.55865 25.6898082 103.729964 25.9063863 103.693271 26.2208351 103.476693 26.3921493L57.3101918 62.9100535C57.0936137 63.0813677 56.7791649 63.0446741 56.6078507 62.8280961 56.4365365 62.611518 56.4732301 62.2970692 56.6898082 62.125755L102.856309 25.6078507zM81.4501007 10.5896469C81.6767324 10.4318728 81.9883549 10.487693 82.146129 10.7143247 82.3039031 10.9409565 82.2480829 11.252579 82.0214512 11.4103531L65.2856753 23.0612886C65.0590435 23.2190627 64.747421 23.1632426 64.5896469 22.9366108 64.4318728 22.7099791 64.487693 22.3983566 64.7143247 22.2405825L81.4501007 10.5896469zM47.4501007 33.5896469C47.6767324 33.4318728 47.9883549 33.487693 48.146129 33.7143247 48.3039031 33.9409565 48.2480829 34.252579 48.0214512 34.4103531L31.2856753 46.0612886C31.0590435 46.2190627 30.747421 46.1632426 30.5896469 45.9366108 30.4318728 45.7099791 30.487693 45.3983566 30.7143247 45.2405825L47.4501007 33.5896469z"/>
            <path fill="#000" d="M76.557214 15.6894695C73.4995825 15.6894695 72.6487177 18.1783694 74.1170338 23.6087026 74.244303 24.0793876 73.6914237 24.4352622 73.3156969 24.124503L69.9702031 21.3574848 69.9702031 23.7392116C69.9702031 24.015354 69.7463454 24.2392116 69.4702031 24.2392116 69.1940607 24.2392116 68.9702031 24.015354 68.9702031 23.7392116L68.9702031 20.2950812C68.9702031 19.8720272 69.4628749 19.6401606 69.788873 19.9097898L72.7968832 22.3976793C71.7462717 17.3742008 72.9710667 14.6894695 76.557214 14.6894695 76.822325 14.6894695 77.0824205 14.7098366 77.3365646 14.7491566 77.7041359 13.2335103 78.193279 11.5391198 78.8004971 9.6680069 78.8857353 9.40534924 79.1677607 9.26152243 79.4304184 9.34676072 79.693076 9.43199901 79.8369029 9.7140244 79.7516646 9.97668206 79.1427802 11.8529297 78.6617782 13.5260808 78.3042525 14.9986828 80.1094275 15.6587648 81.4977667 17.3114898 82.0552368 19.3313146 82.7870619 21.9828628 81.7574264 24.2392116 79.2760808 24.2392116 76.5320523 24.2392116 75.8805974 21.3612971 77.1108031 15.7274174 76.9293608 15.7023703 76.7446479 15.6894695 76.557214 15.6894695zM79.2760808 23.2392116C80.9646377 23.2392116 81.6698771 21.6937462 81.091278 19.5973665 80.6286281 17.9210938 79.5092484 16.5596605 78.0767176 15.9847452 77.0144401 20.8584371 77.4788787 23.2392116 79.2760808 23.2392116zM42.082902 45.7856327C42.082902 46.0748685 42.2972123 46.6672504 42.6983479 47.5117532 42.7561243 47.6333886 42.8179185 47.7608665 42.8864537 47.9001195 42.9293377 47.987253 43.3727594 48.8733713 43.4768431 49.0914202 43.6992134 49.5572718 43.7927836 49.7978916 43.7927836 50.0128212 43.7927836 50.4178027 43.4221818 50.6773516 43.0392511 50.5419323 42.9022877 50.4934966 42.7684314 50.4003371 42.5924243 50.2487259 42.3007611 49.9974895 41.8557321 49.5447041 41.2147725 48.8473309 39.5067593 46.9889881 37.9960195 45.7977715 37.2478579 45.5964811 37.302409 45.9021664 37.5392222 46.4220396 37.9593508 47.0931542 39.6780631 49.8386297 38.5773453 50.6633499 35.7400039 48.9360665 35.5041311 48.7924746 35.4293226 48.4848577 35.5729145 48.2489849 35.7165064 48.0131121 36.0241233 47.9383036 36.2599961 48.0818955 38.2824249 49.313086 38.205404 49.3707944 37.1117399 47.6237725 36.5611495 46.744258 36.2642436 46.0537184 36.2377757 45.5546216 36.1992406 44.8279758 36.7310766 44.4482319 37.4392409 44.6136172 38.4132929 44.8410981 40.0294923 46.0973557 41.8554697 48.0671013 41.8348532 48.0242725 41.8147531 47.9822475 41.7950691 47.9408072 41.3254565 46.9521412 41.082902 46.2816887 41.082902 45.7856327 41.082902 45.0717224 41.6146057 43.9760568 42.4493142 42.7844989 42.0508704 42.2084616 41.6239933 41.5835038 41.1686086 40.9095394 41.0140074 40.6807314 41.0741639 40.3699169 41.3029719 40.2153157 41.5317799 40.0607146 41.8425944 40.1208711 41.9971955 40.349679 42.3785086 40.9140181 42.7395575 41.4435585 43.0802975 41.9382485 45.1725276 39.2878981 48.4414398 36.5 50.546591 36.5 51.8291194 36.5 52.2586786 37.4140498 51.9290452 38.7611193 51.6996148 39.6987026 51.1330664 40.9027532 50.2260099 42.5019556 50.0645708 42.7865839 49.8922897 43.0838959 49.7012088 43.4084505 49.5826202 43.6098755 48.4119486 45.5651592 48.1447465 46.0334253 47.7240778 46.7706383 47.5014444 47.2510644 47.5014444 47.3584633 47.5014444 48.0859122 46.8636621 48.2053005 46.358866 47.818888 46.0922978 47.6148347 45.7326985 47.225374 45.2573775 46.6351109 44.6928247 45.9340379 43.957586 44.9385339 43.0505543 43.6473204 42.4532973 44.5306903 42.082902 45.3028518 42.082902 45.7856327zM46.0362402 46.0079164C46.2810091 46.3118754 46.4897462 46.5545724 46.6582005 46.7331231 46.783489 46.4296275 46.9864436 46.0456096 47.276201 45.5378157 47.5495653 45.0587505 48.7255762 43.094549 48.8394678 42.901102 49.0279789 42.5809122 49.197616 42.2881632 49.3561842 42.0085965 50.2198103 40.4859648 50.7566494 39.3450537 50.9577044 38.5234283 51.1531155 37.7248673 51.0474387 37.5 50.546591 37.5 48.731004 37.5 45.575026 40.3373036 43.672462 42.7921516 44.6584063 44.2034748 45.446784 45.2759179 46.0362402 46.0079164z"/>
          </g>
        </g>
      </g>
    </g>
    <path fill="#000" fill-rule="nonzero" d="M387.024625,300.201827 C392.325732,302.091425 404.146198,316.324686 419.283157,353.339087 C414.571932,327.78668 394.801559,302.147126 392.976956,300.201827 C391.152352,298.256529 372.422604,280.439453 372.422604,280.439453 C372.422604,280.439453 374.531154,294.064025 377.522245,296.660802 C380.513337,299.257579 381.723518,298.312229 387.024625,300.201827 Z" transform="rotate(22 395.853 316.89)"/>
    <path fill="#000" fill-rule="nonzero" d="M331.239564 292.709797C331.003864 292.565923 330.929424 292.258216 331.073298 292.022516 331.217172 291.786815 331.524879 291.712375 331.760579 291.856249 331.854996 291.913882 332.042772 292.024439 332.318331 292.180361 332.780239 292.441727 333.318811 292.733368 333.92846 293.047727 335.672721 293.947136 337.634585 294.846982 339.769206 295.686873 347.596124 298.766465 355.538487 300.231337 362.926159 299.198251 366.920559 298.639677 370.626311 297.351959 373.99128 295.259457 374.225779 295.113634 374.534092 295.18552 374.679916 295.42002 374.825739 295.65452 374.753853 295.962832 374.519353 296.108656 371.031763 298.27741 367.193187 299.611283 363.064651 300.188614 355.48008 301.249234 347.376284 299.754589 339.403066 296.617433 337.235503 295.76458 335.243196 294.850771 333.470161 293.936525 332.848758 293.616105 332.298818 293.318309 331.825863 293.050692 331.540504 292.889225 331.343229 292.773075 331.239564 292.709797zM379.16122 293.657867C378.917618 293.787915 378.614715 293.695862 378.484666 293.45226 378.354617 293.208658 378.446671 292.905754 378.690273 292.775706 383.382651 290.27065 385.693015 288.010653 385.693015 286.107946 385.693015 285.831803 385.916872 285.607946 386.193015 285.607946 386.469157 285.607946 386.693015 285.831803 386.693015 286.107946 386.693015 288.51079 384.158533 290.99002 379.16122 293.657867z"/>
    <g fill-rule="nonzero" transform="translate(0 483)">
      <path fill="#000" d="M136.5 302C135.671573 302 135 301.328427 135 300.5 135 299.671573 135.671573 299 136.5 299L212.693273 299C213.5217 299 214.193273 299.671573 214.193273 300.5 214.193273 301.328427 213.5217 302 212.693273 302L136.5 302zM136 277C135.171573 277 134.5 276.328427 134.5 275.5 134.5 274.671573 135.171573 274 136 274L272.193273 274C273.0217 274 273.693273 274.671573 273.693273 275.5 273.693273 276.328427 273.0217 277 272.193273 277L136 277zM136 252C135.171573 252 134.5 251.328427 134.5 250.5 134.5 249.671573 135.171573 249 136 249L352.193273 249C353.0217 249 353.693273 249.671573 353.693273 250.5 353.693273 251.328427 353.0217 252 352.193273 252L136 252z"/>
      <path fill="#F3A0C8" d="M0,1.02418003 C7.18557724,0.346537211 14.4675364,0 21.8303922,0 C147.624331,0 249.804921,101.152522 251.147402,226.5 L130.132322,226.5 C128.799807,168.033225 80.8472404,121 21.8303922,121 C14.3518098,121 7.05089568,121.755251 0,123.193313 L5.68434189e-14,1.02418003 L0,1.02418003 Z"/>
      <path fill="#FFF" d="M202.872633,121.534672 C199.798849,135.152345 188.240247,150.463771 168.024078,166.710426 C153.113198,178.693504 140.206424,191.896237 129.301084,206.319554 C130.593175,212.434361 131.360981,218.677258 131.588824,225 L180.047215,225 C193.769381,201.733584 212.993714,181.350855 238.524689,164.293948 C239.023752,163.960531 239.520434,163.626313 240.014737,163.291293 C231.589334,135.356428 217.835484,109.380868 199.59505,86.6921388 L190.680846,91.0162238 C201.188569,98.3676611 205.697813,109.018375 202.872633,121.534672 Z M85.1209807,142.221002 C84.6289966,142.459652 84.046125,142.411674 83.5997719,142.095777 C79.8195052,139.420373 75.8686679,136.992158 71.7718212,134.828332 C71.1438032,134.496633 70.8344952,133.769953 71.0307953,133.087387 C76.4903213,114.103748 85.5623298,100.937248 99.0197471,93.9959525 C131.21148,77.3915532 170.126722,76.6428621 190.673574,91.0111371 C190.675998,91.0128325 190.678422,91.0145281 190.680846,91.0162238 L85.1209807,142.221002 Z M184.417545,90.7200914 C163.96404,79.9910798 129.398651,81.7021669 100.394977,96.6621751 C88.0358685,103.036966 79.5334998,115.129811 74.2548937,132.754845 C77.8209302,134.689665 81.2763523,136.820591 84.6055745,139.136691 L184.417545,90.7200914 Z M199.357917,83.4728443 C199.984402,83.1689502 200.737646,83.3361356 201.176736,83.876538 C220.266379,107.370792 234.583079,134.392139 243.204524,163.487294 C243.389538,164.11167 243.150553,164.784098 242.612996,165.151668 C241.811944,165.699409 241.004692,166.245007 240.191241,166.788463 C214.76852,183.773047 195.723182,204.072001 182.202164,227.25569 C181.933366,227.716582 181.439977,228 180.906428,228 L130.132322,228 C129.317212,228 128.651284,227.349076 128.632712,226.534178 C128.476255,219.66934 127.666647,212.897794 126.225071,206.283636 C126.132204,205.85755 126.229363,205.412144 126.491238,205.063441 C137.635185,190.224553 150.853963,176.660413 166.144798,164.371985 C203.8228,134.092187 209.715147,107.987532 188.954353,93.4696488 C187.534956,92.4770741 186.019536,91.5604253 184.417545,90.7200914 L199.357917,83.4728443 Z M68.3814635,71.5772759 C73.0424639,61.1957196 77.8395497,50.9859756 83.8486062,38.5293571 C82.7697123,40.7658763 92.4288103,20.8407678 95.809739,13.7625302 C92.55022,12.6456692 89.2636853,11.602738 85.9522441,10.6347284 C55.0512643,44.0630561 31.085938,80.4402084 14.0504292,119.770458 C16.6306758,119.590439 19.2250351,119.5 21.8303922,119.5 C30.6581858,119.5 39.3492462,120.538365 47.775095,122.572757 C53.3399678,106.631861 60.1855834,89.8321537 68.3814635,71.5772759 Z M48.3722992,125.81185 C39.7713112,123.620064 30.8759105,122.5 21.8303922,122.5 C18.4749252,122.5 15.1386372,122.654119 11.8284531,122.96039 C10.6980876,123.064975 9.86570304,121.924661 10.3098098,120.879944 C27.6529263,80.0819954 52.3456494,42.4256922 84.3816744,7.91565027 C84.7666507,7.50094372 85.3522389,7.33817182 85.8960037,7.49472262 C90.0979939,8.7044827 94.2608121,10.033126 98.3802685,11.4786833 C99.2197986,11.7732825 99.6198504,12.7296907 99.2401019,13.5342966 C96.8592598,18.5787932 85.372139,42.2758213 86.5506417,39.8328156 C80.5525196,52.2667673 75.7663013,62.4533819 71.1182826,72.8060238 C62.7358466,91.4764218 55.7757365,108.608193 50.1642238,124.837288 L50.1603667,124.848444 C49.9054904,125.585637 49.1281532,126.004464 48.3722992,125.81185 Z"/>
      <path fill="#000" d="M18.4554933,195.722795 C18.2551887,196.526642 17.4411633,197.015909 16.6373165,196.815605 C15.8334698,196.6153 15.3442022,195.801275 15.5445067,194.997428 C19.2651991,180.065833 22.7093621,169.396372 25.904119,162.946869 C29.4130004,155.863219 33.1356427,153.154397 36.7813421,156.234396 C42.9387602,161.436371 45.9463077,171.907392 49.6520796,194.635405 C49.7800044,195.419986 49.9098892,196.221976 50.0817372,197.287021 C50.0566656,197.131638 50.4107064,199.327277 50.5073699,199.925293 C52.5602348,212.625493 53.7895305,218.784783 55.5947544,224.110288 C57.7638708,230.509295 60.2641881,233.398184 63.2909551,233.099722 C66.961692,232.73776 70.5323887,228.722004 74.1371289,221.054124 C77.0414347,214.876185 79.4007277,208.021779 83.7082507,194.060674 C83.893945,193.458821 84.545949,191.34335 84.5429122,191.353199 C88.5424374,178.381023 90.6367505,172.118055 93.2876067,165.828523 C96.8227925,157.440794 100.379656,151.949477 104.464139,149.274825 C107.880383,147.037757 110.082506,149.370126 111.042287,154.26831 C111.674546,157.495004 111.90349,161.101438 112.190171,169.71338 C112.279473,172.396034 112.302112,173.055804 112.34999,174.301452 C112.950806,189.933193 114.622815,197.218126 118.222165,197.218126 C121.519717,197.218126 124.536277,193.701264 128.451452,185.757784 C129.564672,183.499177 133.506915,174.894337 134.053704,173.741185 C141.08043,158.922145 147.196057,151.235649 156.410776,149.069514 C167.088652,146.55943 178.745876,157.3635 191.747096,181.020957 C192.146086,181.746972 191.88098,182.658969 191.154964,183.057959 C190.428949,183.456949 189.516951,183.191843 189.117961,182.465827 C176.726689,159.918251 165.93158,149.913201 157.097283,151.989909 C149.08511,153.873358 143.415971,160.998679 136.764409,175.026517 C136.234021,176.145081 132.27817,184.779622 131.142354,187.084074 C126.72142,196.053685 123.149406,200.218126 118.222165,200.218126 C114.54426,200.218126 112.328573,197.045924 111.042261,191.441469 C110.10416,187.354168 109.654427,182.279781 109.352203,174.416674 C109.304047,173.163764 109.281332,172.501772 109.191832,169.813192 C108.911572,161.394163 108.686355,157.846419 108.098273,154.845179 C107.481573,151.697888 107.007239,151.1955 106.107621,151.784599 C102.65747,154.04387 99.3726623,159.11517 96.0520988,166.993677 C93.453752,173.158623 91.379011,179.363061 87.4097464,192.237089 C87.4129019,192.226855 86.7607581,194.34278 86.5749059,194.945145 C82.2241237,209.046456 79.8378672,215.979199 76.8520859,222.33045 C72.8327274,230.880292 68.6485705,235.585971 63.5853495,236.085242 C58.7098581,236.566002 55.3226648,232.652409 52.7535516,225.073391 C50.8744509,219.529946 49.6272142,213.280764 47.5458097,200.404 C47.4490381,199.805316 47.0948858,197.608985 47.1200429,197.764899 C46.9484355,196.701344 46.8187904,195.900835 46.691179,195.118176 C43.1340275,173.301672 40.1860664,163.038106 34.8452832,158.526049 C33.3420045,157.256033 31.3546057,158.702186 28.5923828,164.278499"/>
    </g>
    <g fill-rule="nonzero" transform="translate(235 66)">
      <path fill="#000" d="M148.788631,203.282314 C137.443009,203.282314 115.417623,187.539526 95.2637644,165.629529 C73.5084777,141.978562 59.2359298,117.144074 59.2359298,99.8403332 C59.2359298,62.2849702 89.6805669,31.8403332 127.23593,31.8403332 C167.865122,31.8403332 202.174132,57.5859019 202.174132,92.8513491 C202.174132,111.0698 195.000508,138.432928 184.317309,162.002953 C172.888461,187.218082 159.772089,203.282314 148.788631,203.282314 Z"/>
      <path fill="#FFF" d="M148.788631,202.282314 C159.211323,202.282314 172.139094,186.449069 183.4065,161.590126 C194.035505,138.139668 201.174132,110.910031 201.174132,92.8513491 C201.174132,58.2107544 167.36505,32.8403332 127.23593,32.8403332 C90.2328516,32.8403332 60.2359298,62.8372549 60.2359298,99.8403332 C60.2359298,116.824495 74.4006513,141.471363 95.9997513,164.952533 C115.969171,186.66202 137.823178,202.282314 148.788631,202.282314 Z"/>
      <path fill="#000" d="M134.23593 143.840333C119.326351 143.840333 107.23593 131.978033 107.23593 117.340333 107.23593 102.702633 119.326351 90.8403332 134.23593 90.8403332 149.145509 90.8403332 161.23593 102.702633 161.23593 117.340333 161.23593 131.978033 149.145509 143.840333 134.23593 143.840333zM134.23593 142.840333C148.597443 142.840333 160.23593 131.42144 160.23593 117.340333 160.23593 103.259226 148.597443 91.8403332 134.23593 91.8403332 119.874417 91.8403332 108.23593 103.259226 108.23593 117.340333 108.23593 131.42144 119.874417 142.840333 134.23593 142.840333zM193.23593 144.840333C178.326351 144.840333 166.23593 132.978033 166.23593 118.340333 166.23593 103.702633 178.326351 91.8403332 193.23593 91.8403332 208.145509 91.8403332 220.23593 103.702633 220.23593 118.340333 220.23593 132.978033 208.145509 144.840333 193.23593 144.840333zM193.23593 143.840333C207.597443 143.840333 219.23593 132.42144 219.23593 118.340333 219.23593 104.259226 207.597443 92.8403332 193.23593 92.8403332 178.874417 92.8403332 167.23593 104.259226 167.23593 118.340333 167.23593 132.42144 178.874417 143.840333 193.23593 143.840333z"/>
      <path fill="#000" d="M167.23593 118.340333C167.23593 118.616476 167.012072 118.840333 166.73593 118.840333 166.459787 118.840333 166.23593 118.616476 166.23593 118.340333 166.23593 116.959621 165.116642 115.840333 163.73593 115.840333 162.355218 115.840333 161.23593 116.959621 161.23593 118.340333 161.23593 118.616476 161.012072 118.840333 160.73593 118.840333 160.459787 118.840333 160.23593 118.616476 160.23593 118.340333 160.23593 116.407337 161.802933 114.840333 163.73593 114.840333 165.668926 114.840333 167.23593 116.407337 167.23593 118.340333zM147.389916 165.701268C147.190577 165.51017 147.183896 165.193658 147.374995 164.994319 147.566093 164.79498 147.882605 164.7883 148.081944 164.979398 154.874688 171.491329 160.812036 173.091349 165.989644 169.904249 166.224805 169.759495 166.532788 169.832784 166.677542 170.067945 166.822296 170.303106 166.749007 170.611089 166.513846 170.755843 160.88339 174.221695 154.476861 172.495239 147.389916 165.701268zM162.924301 124.515576C162.827517 124.25695 162.958716 123.968833 163.217342 123.872049 163.475968 123.775265 163.764085 123.906464 163.860869 124.16509L175.615776 155.576563C175.726104 155.871381 175.539824 156.193581 175.229278 156.245071L160.817716 158.634597C160.545293 158.679767 160.287834 158.495541 160.242664 158.223118 160.197495 157.950695 160.38172 157.693235 160.654143 157.648066L174.466233 155.357936 162.924301 124.515576z"/>
      <circle cx="140.236" cy="120.84" r="4.5" fill="#000"/>
      <circle cx="185.236" cy="123.84" r="4.5" fill="#000"/>
      <path fill="#000" d="M96.593625,116.034052 L100.879757,100.439588 C103.725361,101.547093 107.654407,98.8278235 112.666894,92.2817796 C117.679381,85.7357357 120.840086,76.3850382 122.14901,64.2296872 C152.453428,74.5269743 173.372326,77.7816222 184.905705,73.993631 C196.439083,70.2056397 202.157754,77.5201748 202.061716,95.9372363 C225.080062,54.8938737 232.119947,27.790806 223.18137,14.6280332 C209.773504,-5.11612597 182.352358,6.15079987 156.02481,2.34033317 C125.515075,-2.07543427 70.9245904,-3.57766929 53.9380629,29.2707041 C32.8416693,70.0666946 30.7849731,97.598697 47.7679743,111.866711 C27.5182638,98.2613892 15.6885176,99.6505027 12.2787356,116.034052 C8.86895355,132.417601 12.8303858,152.607383 24.1630322,176.603398 C2.23427246,181.954852 -4.7686752,196.574036 3.15418921,220.46095 C11.0770536,244.347864 21.4029637,262.739334 34.1319195,275.635361 C23.4790324,282.653944 23.4790324,291.916368 34.1319195,303.422633 C50.1112501,320.682031 24.1630322,329.739336 29.7686585,348.842721 C35.3742848,367.946105 83.4062651,344.44663 85.3201388,323.934631 C86.5960547,310.259966 82.1326798,298.861741 71.930014,289.739957 C90.2285966,279.187947 98.4498003,268.824972 96.593625,258.651032 C94.7374498,248.477092 86.5162461,234.938812 71.930014,218.036192 C88.3724214,214.733036 96.593625,207.001781 96.593625,194.842428 C96.593625,182.683074 88.3724214,166.863608 71.930014,147.384028 C73.3014979,149.805976 75.4276585,151.59397 78.308496,152.748012 C81.1893335,153.902055 83.5265478,153.902055 85.3201388,152.748012 C75.9712818,114.874162 73.6340675,95.9372363 78.308496,95.9372363 C82.9829246,95.9372363 89.0779676,102.636175 96.593625,116.034052 Z"/>
      <path fill="#FFF" d="M86.7493623,106.198026 L84.5577684,137.122477 C79.0219401,138.376644 73.9582949,136.054165 69.3668328,130.15504 C62.4796396,121.306352 66.4631641,101.84665 72.4262289,99.7526879 C76.4016054,98.3567134 81.1759832,100.50516 86.7493623,106.198026 Z"/>
      <path fill="#000" d="M86.3404281,106.54781 C80.8881471,100.978638 76.2877577,98.9084857 72.5402383,100.224447 C69.880339,101.158485 67.4081295,106.210964 66.5211186,112.490772 C65.5602348,119.29358 66.6273057,125.887597 69.7097522,129.847934 C74.1908332,135.605241 79.0674827,137.841953 84.3956397,136.634835 C84.664957,136.57382 84.9327442,136.742682 84.9937592,137.012 C85.0547743,137.281317 84.885912,137.549104 84.6165947,137.610119 C78.8730951,138.911335 73.6224542,136.503089 68.920611,130.462146 C62.3657103,122.040389 65.2345101,101.730029 72.208917,99.2809289 C76.4121507,97.8049412 81.3605169,100.031681 87.0549941,105.848242 C87.2481745,106.045564 87.244817,106.362129 87.0474951,106.555309 C86.8501731,106.74849 86.5336084,106.745132 86.3404281,106.54781 Z"/>
      <path fill="#000" d="M82.0827749,119.53883 C78.9758899,114.382442 76.6857275,112.509514 75.3122343,113.546229 C75.0918294,113.71259 74.7782929,113.66878 74.611931,113.448375 C74.4455691,113.22797 74.4893796,112.914434 74.7097845,112.748072 C76.8230006,111.153013 79.5328602,113.369176 82.9393098,119.022741 C83.0818239,119.259267 83.0056125,119.566539 82.7690869,119.709053 C82.5325613,119.851567 82.225289,119.775356 82.0827749,119.53883 Z"/>
      <path fill="#000" d="M77.4281077 110.017887C73.9157208 112.907416 73.493021 118.157873 76.2609395 125.859249 76.3543376 126.119117 76.219387 126.405496 75.9595189 126.498894 75.6996508 126.592292 75.4132721 126.457341 75.319874 126.197473 72.4251107 118.143168 72.8824412 112.462556 76.7927967 109.24563 77.0060495 109.070194 77.3211442 109.10085 77.4965804 109.314103 77.6720167 109.527356 77.6413604 109.842451 77.4281077 110.017887zM108.655402 112.307107C108.912026 112.409081 109.037395 112.699782 108.935421 112.956406 108.833447 113.21303 108.542746 113.338399 108.286122 113.236425L84.5512898 103.804992C84.2946657 103.703018 84.1692969 103.412317 84.2712708 103.155693 84.3732447 102.899069 84.6639458 102.7737 84.9205699 102.875674L108.655402 112.307107zM219.614459 121.794605C219.882317 121.861736 220.045038 122.133299 219.977906 122.401157 219.910775 122.669015 219.639212 122.831736 219.371354 122.764604L198.863226 117.624768C198.595368 117.557637 198.432647 117.286074 198.499779 117.018216 198.566911 116.750358 198.838474 116.587637 199.106332 116.654769L219.614459 121.794605z"/>
    </g>
  </g>
</svg>
