<svg xmlns="http://www.w3.org/2000/svg" width="24" height="18" viewBox="0 0 24 18">
  <path fill="#A0AEC0" d="M11,6.275 C11,11.416 7.108,16.794 1,18 L0.016,15.874 C2.231,15.039 4.179,12.132 4.396,10.128 C1.905,9.736 0,7.581 0,4.979 C0,1.797 2.584,-1.77635684e-15 5.199,-1.77635684e-15 C8.214,-1.77635684e-15 11,2.305 11,6.275 Z M24,6.275 C24,11.416 20.108,16.794 14,18 L13.016,15.874 C15.231,15.039 17.179,12.132 17.396,10.128 C14.905,9.736 13,7.581 13,4.979 C13,1.797 15.584,-1.77635684e-15 18.199,-1.77635684e-15 C21.214,-1.77635684e-15 24,2.305 24,6.275 Z" transform="rotate(180 12 9)"/>
</svg>
