<?xml version="1.0" standalone="no"?>
<!DOCTYPE svg PUBLIC "-//W3C//DTD SVG 20010904//EN"
 "http://www.w3.org/TR/2001/REC-SVG-20010904/DTD/svg10.dtd">
<svg version="1.0" xmlns="http://www.w3.org/2000/svg"
 width="700.000000pt" height="700.000000pt" viewBox="0 0 700.000000 700.000000"
 preserveAspectRatio="xMidYMid meet">
<metadata>
Created by potrace 1.14, written by Peter Selinger 2001-2017
</metadata>
<g transform="translate(0.000000,700.000000) scale(0.100000,-0.100000)"
fill="#000000" stroke="none">
<path d="M1006 6984 c-244 -44 -466 -162 -647 -343 -143 -143 -237 -294 -299
-479 -64 -190 -60 -27 -60 -2662 0 -2635 -4 -2472 60 -2662 62 -185 156 -336
299 -479 143 -143 294 -237 479 -299 190 -64 27 -60 2662 -60 2635 0 2472 -4
2662 60 185 62 336 156 479 299 143 143 237 294 299 479 64 190 60 27 60 2662
0 2635 4 2472 -60 2662 -62 185 -156 336 -299 479 -143 143 -294 237 -479 299
-191 64 -26 60 -2671 59 -2038 -1 -2418 -3 -2485 -15z m2804 -1389 c725 -109
1340 -556 1660 -1210 243 -496 289 -1099 120 -1580 -99 -282 -286 -558 -508
-750 -894 -776 -2262 -500 -2783 560 -121 248 -169 448 -176 736 -7 267 21
444 104 669 71 192 223 450 296 504 34 25 103 27 136 4 12 -9 77 -91 143 -183
102 -141 124 -166 142 -162 11 3 59 19 106 36 126 44 219 61 371 68 192 8 382
-23 547 -90 l61 -25 145 163 c162 181 186 197 258 176 49 -15 82 -60 153 -206
69 -142 119 -287 152 -444 24 -112 27 -149 27 -336 1 -166 -3 -228 -17 -295
-81 -382 -297 -709 -605 -914 -115 -77 -257 -146 -362 -177 l-76 -22 -45 20
c-71 31 -96 99 -63 168 20 42 39 54 139 89 391 136 683 478 761 894 19 104 22
321 5 437 -22 143 -103 413 -131 430 -5 3 -61 -53 -125 -124 -64 -72 -125
-133 -137 -136 -41 -14 -86 -6 -144 23 -154 77 -306 112 -489 113 -181 0 -314
-31 -481 -112 -139 -67 -161 -57 -299 136 -111 156 -99 153 -157 40 -126 -247
-185 -552 -159 -825 34 -372 186 -695 446 -955 228 -226 511 -372 830 -427
154 -26 417 -21 562 11 537 118 968 503 1138 1015 175 528 58 1177 -299 1660
-137 185 -285 326 -480 457 -732 493 -1704 425 -2366 -164 -305 -272 -532
-670 -609 -1069 -111 -575 31 -1141 403 -1608 67 -83 68 -85 64 -136 -4 -43
-13 -63 -56 -121 -57 -77 -128 -147 -216 -213 l-59 -44 49 -14 c75 -20 230
-26 309 -13 101 18 202 60 300 126 80 54 88 57 131 52 90 -10 141 -105 99
-183 -39 -72 -244 -187 -410 -229 -281 -72 -589 -14 -818 152 -61 45 -81 82
-74 142 6 55 45 94 109 111 99 27 279 142 331 211 l19 26 -54 74 c-412 558
-529 1307 -309 1979 268 821 1010 1414 1876 1499 130 13 383 6 515 -14z m-654
-2104 c91 -56 80 -196 -19 -244 -104 -51 -224 55 -188 166 11 34 53 80 81 90
33 12 96 6 126 -12z m840 3 c47 -22 78 -83 71 -137 -19 -141 -209 -170 -263
-41 -52 125 69 236 192 178z"/>
</g>
</svg>
