<svg xmlns="http://www.w3.org/2000/svg" version="1.1" xmlns:xlink="http://www.w3.org/1999/xlink" width="1026" height="1026"><svg xmlns="http://www.w3.org/2000/svg" width="1026" height="1026" viewBox="0 0 1026 1026"><g fill="none" fill-rule="evenodd"><rect width="1026" height="1026" fill="#000" rx="100"></rect><path fill="#FFF" d="M577.088568,510.540934 C565.433718,509.935645 555.492352,518.900259 554.884342,530.563752 C554.284227,542.227246 563.238564,552.172983 574.893414,552.779063 C586.548264,553.384353 596.48963,544.42053 597.09764,532.757037 C597.697755,521.093543 588.743418,511.146224 577.088568,510.540934 Z M834.559244,541.180309 L834.559244,541.181106 C830.793973,613.730665 798.020995,677.894803 748.069467,722.974714 C698.125899,768.046653 631.011742,794.050308 558.556155,790.279698 C486.108528,786.51706 422.035245,753.689638 377.027127,703.675251 C332.009457,653.660864 306.047399,586.443568 309.809485,513.894009 C311.194595,487.176888 316.663392,460.930096 325.896663,436.022549 C335.129935,411.113407 348.099023,387.631995 364.481532,366.44643 C371.032944,357.987669 383.188479,356.446742 391.634467,363.003457 C393.457399,364.421621 394.961915,366.105242 396.132094,367.954674 L429.127964,413.727325 C440.575024,408.556089 452.531549,404.497701 464.822411,401.598397 C482.797001,397.35985 501.209412,395.653111 519.5263,396.60493 C534.245084,397.370213 548.884265,399.848611 563.157268,403.958815 C572.351533,406.605416 581.38659,409.952729 590.166915,413.976839 L628.878354,370.57736 C630.231623,368.858664 631.895347,367.340057 633.861566,366.118794 C642.944386,360.47404 654.869069,363.268915 660.512995,372.359831 C674.618829,395.130168 685.086759,419.830451 691.693893,445.563068 C698.301028,471.294889 701.023485,497.967368 699.638375,524.683692 C697.337819,569.145 681.050835,610.470244 654.630257,643.807854 C628.265403,677.073719 591.758995,702.328035 548.955909,714.708071 C538.718831,717.649625 528.03597,711.726658 525.098582,701.483036 C522.161193,691.231442 528.067812,680.533433 538.30489,677.583907 C573.115732,667.523634 602.847837,646.932757 624.364806,619.773207 C645.834012,592.685402 659.072162,558.997038 660.958778,522.671638 C662.144878,499.75781 659.836361,476.996242 654.224277,455.146635 C650.777422,441.728685 646.080785,428.616051 640.182126,415.988096 L609.128594,450.801266 C602.752312,457.956656 592.25254,459.240895 584.419504,454.276923 C574.365515,448.766891 563.690615,444.384853 552.593813,441.189799 C541.298001,437.938146 529.532526,435.969139 517.512318,435.344158 C502.54676,434.565324 487.772252,435.894205 473.626616,439.231155 C459.47302,442.569699 445.669681,447.977694 432.638502,455.352305 C423.627326,460.43904 412.283752,457.515024 406.806995,448.87132 L380.195368,411.950435 C373.015084,423.898405 366.989059,436.451426 362.173016,449.441296 C354.332019,470.590191 349.680755,492.990642 348.493063,515.905267 C345.285817,577.762397 367.418921,635.070881 405.796023,677.711455 C444.173126,720.352028 498.79741,748.332662 560.570137,751.545253 C622.334903,754.757845 679.562239,732.588573 722.142434,694.157052 C764.722629,655.725532 792.663644,601.023791 795.871686,539.169051 C799.931491,460.941257 771.934754,388.4754 723.408138,334.551696 C674.873562,280.627195 605.801146,245.243252 527.685712,241.180878 C449.570279,237.119302 377.202256,265.147766 323.353315,313.748772 C269.505169,362.348184 234.172125,431.521733 230.115504,509.749527 C228.203415,546.620191 233.488326,583.10343 245.307933,617.286039 C257.058283,651.269357 275.215962,682.980742 299.128217,710.538877 C304.663085,716.302409 306.142128,725.039382 302.583032,732.381309 L302.568703,732.413196 L302.400738,732.748007 L302.326707,732.891497 L302.224813,733.082818 L302.060033,733.385742 L302.018639,733.465459 L301.806096,733.832157 L301.772663,733.887958 L301.536239,734.2706 L301.529074,734.278571 L301.519522,734.294515 L301.372254,734.533665 C291.710713,749.727708 279.3498,762.896941 265.019482,773.499289 C261.965076,775.755278 258.827881,777.891691 255.615858,779.908528 C264.509221,782.826167 273.848365,784.571968 283.401645,785.066212 C296.756017,785.759749 309.850879,784.021921 322.066914,780.036076 C334.300461,776.05023 345.903544,769.752595 356.250476,761.350433 C364.553176,754.614354 376.732592,755.889825 383.459133,764.204298 C390.177713,772.5108 388.904048,784.707486 380.601348,791.443565 C366.726366,802.707564 350.886756,811.245244 333.950203,816.769626 C316.997729,822.294008 299.190308,824.733345 281.393235,823.808629 C266.67843,823.043347 252.190497,820.014104 238.407059,814.90425 C225.049503,809.953831 212.383706,802.994545 200.853859,794.209741 C197.199238,791.706631 194.378867,787.936021 193.122715,783.320412 C190.311101,772.997073 196.392849,762.338922 206.705551,759.524916 C219.65633,755.985485 231.630368,750.150207 242.084766,742.417667 C248.943449,737.3397 255.205102,731.416734 260.723253,724.760373 C238.005059,696.070258 220.50889,663.984203 208.741822,629.953056 C195.283169,591.035262 189.263512,549.56573 191.432722,507.73827 C196.043387,418.817249 236.209192,340.184493 297.423098,284.936691 C358.638597,229.688889 440.89344,197.824447 529.691734,202.44165 C618.482068,207.059651 697.003482,247.283207 752.177034,308.583914 C807.350587,369.883026 839.168317,452.258491 834.559244,541.178715 L834.559244,541.180309 Z M452.760475,510.540932 C441.103845,509.935669 431.160961,518.900047 430.560755,530.563615 C429.952651,542.227973 438.908355,552.173731 450.572882,552.778994 C462.229512,553.385048 472.164499,544.42067 472.772602,532.757102 C473.380706,521.093534 464.417105,511.146196 452.760475,510.540932 L452.760475,510.540932 Z"></path></g></svg><style>@media (prefers-color-scheme: light) { :root { filter: none; } }
@media (prefers-color-scheme: dark) { :root { filter: none; } }
</style></svg>