<svg xmlns="http://www.w3.org/2000/svg" width="243" height="189" viewBox="0 0 243 189"><g transform="translate(.9 .147)"><path d="M152.606754,73.7052118 C150.101185,70.304796 147.504142,67.1907311 144.382124,64.327223 C141.268059,61.4756463 137.811965,58.9183745 134.324053,56.5440491 C127.324368,51.7794899 119.736073,47.9734104 111.762,45.137742 C96.0087315,39.5419701 79.1418765,38.655078 63.3886079,44.6962846 C49.1704974,50.1528582 36.7937814,60.0001442 28.4975637,72.7984343 C18.9684469,87.5017527 16.1606186,105.374815 15.9180159,122.599612 C15.7748405,132.872447 16.2918627,143.224824 17.5247618,153.426071 C18.1491655,158.580386 18.9565156,163.718792 20.0899873,168.789587 C21.2592529,174.011512 22.5398771,179.420361 25.0732859,184.161057 C26.7476424,187.295008 31.3650483,185.08772 30.629286,181.818549 C29.6628522,177.535218 28.1396252,173.403017 27.1095579,169.131617 C26.0794906,164.856241 25.2761177,160.525185 24.6596681,156.170266 C23.4387003,147.551903 22.9455407,138.810249 22.7665715,130.112343 C22.4324956,113.806256 23.6455092,96.6331616 31.2417584,81.878141 C37.6369253,69.4536978 48.1841782,59.5189158 60.723955,53.4379383 C74.1227841,46.9393659 88.9971151,45.9252068 103.314653,49.76708 C111.956878,52.0897032 120.241164,55.7287447 127.909001,60.3262659 C135.50525,64.8800391 142.469142,70.5911469 149.158613,76.3698652 C150.908535,77.8891153 154.18566,75.8488658 152.606754,73.7052118 L152.606754,73.7052118 Z"/><path d="M35.63247 186.630833C48.4108725 188.042702 61.4398319 187.975091 74.285845 187.871687 85.8393026 187.776236 97.3927601 187.517725 108.942241 187.139901 111.284749 187.064336 113.631234 186.984795 115.973743 186.893321 117.496969 186.833665 118.817365 185.644514 118.805514 184.06163 118.737823 174.878519 110.286498 166.976032 101.091457 168.336198 102.268677 169.513418 103.445897 170.690638 104.623117 171.867858 108.604188 159.88885 112.545488 147.114422 109.192798 134.479193 106.361107 123.82058 98.1881789 115.910139 87.4062775 113.535813 81.5679038 112.251212 75.4630647 112.48586 69.7320725 114.176125 66.1964361 115.218124 67.6997776 120.762194 71.2592766 119.712241 82.0610634 116.522611 95.1536563 119.409982 101.08748 129.674863 108.401356 142.318046 103.31863 157.60202 99.0870021 170.336677 98.3234001 172.635438 100.630115 174.162642 102.618661 173.868337 108.134891 173.053032 113.082395 178.951064 113.138075 184.057653 114.084623 183.111104 115.027194 182.168533 115.969765 181.225962 96.155884 182.092968 76.3022315 182.522494 56.4684646 182.526472 49.5244588 182.526472 42.5724988 182.399205 35.6284929 182.196373 32.7212373 182.108877 32.8604356 186.324597 35.63247 186.630833L35.63247 186.630833ZM132.597995 183.532676C133.063315 184.149126 133.540566 184.908751 134.216672 185.310438 135.270602 185.934842 136.718264 185.795643 137.895484 185.831437 140.102771 185.899048 142.310058 185.930864 144.517345 185.942796 149.440987 185.974613 154.360652 185.8553 159.284294 185.700193 167.787321 185.433728 176.28637 185.059881 184.777466 184.550813 186.503525 184.447408 188.225606 184.340027 189.951665 184.224691 191.840784 184.097424 193.328218 182.442953 192.795287 180.494176 190.305626 171.402538 183.357643 163.181884 174.174534 160.441666 174.862571 161.65468 175.550608 162.863716 176.238645 164.07673 179.491908 156.130495 182.566202 148.029154 185.266648 139.87611 186.308647 136.726251 181.317394 134.546804 179.849847 137.593258 179.746442 137.808021 179.623152 138.106303 179.539633 138.332997 178.211284 141.91636 183.938299 143.459472 185.254717 139.907927 185.159267 140.134621 185.063817 140.361316 184.968366 140.58801 183.162766 139.828385 181.357165 139.064783 179.551564 138.305158 176.851118 146.458202 173.788756 154.559543 170.53947 162.509755 169.926997 164.00912 171.219553 165.735179 172.603582 166.144819 179.81803 168.29245 185.167221 174.969992 187.11202 182.061152 188.058568 180.816321 189.005117 179.575467 189.955642 178.330637 175.661967 179.312979 161.352383 179.989085 147.030868 180.362932 144.44178 180.430543 141.852692 180.478268 139.259627 180.482245 138.058545 180.486222 136.769966 180.343047 135.584792 180.510085 134.276328 180.693031 133.588291 181.381068 132.761056 182.315686 132.486636 182.613968 132.319598 183.166784 132.597995 183.532676L132.597995 183.532676ZM37.8874822 53.4737321C37.4460248 50.6420408 34.6222882 48.1046545 32.4428408 46.4740458 30.0526074 44.6843533 27.2010311 43.367935 24.2619588 42.7952334 18.0696237 41.5901738 11.8454718 43.4792936 7.05307376 47.5041133-2.10617334 55.195814-2.46808887 70.7104597 6.69115822 78.5493129 11.5471898 82.7053767 18.463356 85.0200457 24.8585228 84.5507486 29.0225401 84.2445123 29.0424255 78.3544353 24.8585228 78.0641074 19.5491026 77.6942376 14.3033158 77.0340399 10.2983823 73.1484186 6.59570797 69.5531252 5.38667144 63.7028192 6.87410453 58.6280466 8.49675882 53.0959081 13.635164 48.8682567 19.3780875 48.2836238 22.2137554 47.997273 25.1687362 48.585883 27.6902136 49.9023013 29.0821965 50.6301096 30.3270269 51.5249558 31.4724299 52.5947942 32.62181 53.6646327 33.5007477 54.94128 34.7654636 55.8719201 36.4398201 57.1087965 38.1380391 55.0725241 37.8874822 53.4737321L37.8874822 53.4737321ZM218.39584 54.0702963C219.44977 55.9713475 221.03663 57.339468 222.480315 58.9342829 224.011496 60.624548 225.383594 62.4261718 226.632401 64.3312001 229.050474 68.0179667 231.070838 71.903588 232.45089 76.0994227 235.099634 84.1570162 235.644496 92.9583263 233.345736 101.167049 228.895368 117.047588 213.138122 129.126024 196.585457 129.006711 191.494777 128.970917 186.491593 127.66643 181.87021 125.566524 179.157832 124.333625 176.548859 122.870054 174.027381 121.28717 171.478064 119.688378 169.183281 117.771419 166.276025 116.884527 164.231799 116.260123 162.072237 118.797509 163.36877 120.662767 165.07892 123.120611 167.445291 124.631907 169.934952 126.230699 172.34507 127.781766 174.830754 129.225451 177.411888 130.478236 182.43098 132.912218 187.708584 134.6343 193.272538 135.191093 202.63064 136.12571 212.294978 133.361629 220.16167 128.330605 228.334597 123.104703 234.801352 115.468681 238.289263 106.396929 241.808991 97.2416571 241.908419 86.9131427 239.343193 77.5073142 237.903485 72.2297098 235.62461 67.0873266 232.605996 62.517645 231.086746 60.2149073 229.31694 58.0394366 227.423843 56.0389581 225.479044 53.9788231 223.474589 51.9147111 220.730394 51.027819 218.95661 50.4551174 217.552696 52.5550233 218.39584 54.0702963L218.39584 54.0702963ZM218.908885 47.3967317C218.014039 42.5526306 215.91811 38.0306742 213.917632 33.5484887 211.905223 29.0424406 209.737707 24.6119573 207.252023 20.3445349 204.822019 16.1685857 202.113618 12.1437661 199.027393 8.42120562 196.132069 4.92931665 192.624272 1.25050423 188.010843.236345136 183.429231-.769859773 178.974886 1.51299247 176.839187 5.63326237 174.524518 10.1035166 175.236418 15.4487316 176.65624 20.0900009 178.656718 26.6203901 182.478706 32.6496653 186.256945 38.277254 189.032956 42.4134323 191.987937 46.4541603 195.11791 50.3358046 195.630955 48.3870283 196.147977 46.4342749 196.661022 44.4854986 190.011321 45.5394286 183.202537 46.7285798 177.05395 49.5801566 178.660695 50.0017286 180.271418 50.4233006 181.878164 50.8448727 175.769348 41.3634794 169.807685 31.7667503 163.500014 22.4166012 160.596735 18.117362 157.498579 13.8976647 153.911241 10.1432875 150.745474 6.83036782 146.828036 3.70039445 142.226539 2.76577724 137.589247 1.82320584 132.820712 3.48960844 130.219693 7.55419902 127.972635 11.0659735 127.936841 15.4487316 128.517496 19.4337803 129.149854 23.7847217 130.776486 27.9924877 132.355392 32.0769637 134.184855 36.8136833 136.252944 41.4589296 138.575567 45.9729319 143.709995 55.9474849 150.085276 65.2300235 157.351427 73.7688454 158.624097 75.2642329 161.181368 75.0773094 162.493809 73.7688454 163.977265 72.2853891 163.770456 70.1258268 162.493809 68.6264622 151.282382 55.4662565 142.449256 40.1862594 137.05234 23.7409736 135.898983 20.221245 132.884345 8.89447986 140.134588 9.70580714 143.837262 10.119425 146.911555 13.1738335 149.321674 15.7430366 152.388014 19.0122083 155.028804 22.6154559 157.530396 26.322108 163.77841 35.5728298 169.716211 45.0383147 175.785257 54.4043722 176.894866 56.1145229 178.811825 56.5082552 180.609471 55.6690883 186.117746 53.0998852 192.564616 52.1970848 198.518325 51.238605 201.389787 50.7772621 201.525008 47.1899228 200.061437 45.388299 199.922239 45.2133068 199.783041 45.0422918 199.643843 44.8672996 199.480782 44.6604907 199.313744 44.4497047 199.150683 44.2428958 199.027393 44.0877891 198.200157 43.0179507 198.705248 43.6741713 197.285426 41.8287994 195.901397 39.9555879 194.549185 38.0624909 191.021503 33.1229396 187.613134 28.0203273 184.956435 22.5518224 183.679788 19.9229629 182.685514 17.1389968 182.248034 14.2396949 181.850325 11.6108354 182.164515 6.48833769 185.950708 6.65537566 189.418734 6.81048235 192.35383 10.6801953 194.374193 13.0783833 197.134296 16.3594862 199.623957 19.8473981 201.894878 23.4824625 204.444195 27.5550073 206.742955 31.79459 208.92638 36.0739437 211.105827 40.3572745 212.986992 44.8235516 215.874362 48.6813332 216.99988 50.1727437 219.262846 49.3176684 218.908885 47.3967317L218.908885 47.3967317Z"/><path d="M176.254554 81.5758819C176.147172 86.9767762 183.95023 89.2039491 187.94721 87.1597225 190.158474 86.0262506 191.801013 83.7791922 192.345875 81.3650959 192.866875 79.0424727 192.636203 75.6977362 190.166428 74.7114168 189.291467 74.3614324 188.297194 75.101172 188.058568 75.9085222 187.648928 77.2766427 188.4523 78.5453359 188.201744 79.9611815 187.963118 81.3014623 187.223378 82.6457203 185.990479 83.305918 184.860985 83.9104363 183.421277 83.8786196 182.248034 83.4093224 180.72083 82.800827 180.108358 81.5321338 179.026588 80.4304786 178.02436 79.4083654 176.282393 80.1958301 176.254554 81.5758819L176.254554 81.5758819ZM205.247568 70.3127502C204.153867 75.1170804 209.383745 79.2771212 213.905701 78.6407861 218.570832 77.9805884 222.229758 72.6075338 220.491768 68.0378522 219.557151 65.5800078 216.037423 66.5106479 216.538537 69.1275761 216.979995 71.4342909 215.87834 74.1625777 213.368793 74.7511877 210.409836 75.4471792 208.373563 72.7228695 207.514511 70.3127502 207.148619 69.294614 205.525964 69.0997364 205.247568 70.3127502L205.247568 70.3127502Z"/></g></svg>