<svg xmlns="http://www.w3.org/2000/svg" width="216" height="268" viewBox="0 0 216 268"><path d="M191.847971,250.179135 C197.367895,234.388736 201.292216,218.146074 204.681795,201.774195 C208.123123,185.156802 210.650213,168.332661 212.530437,151.474061 C216.243449,118.148823 217.123187,84.3756303 214.453786,50.9340962 C213.08243,33.7395311 209.714413,16.4329772 200.209794,1.73231317 C198.653003,-0.675442831 195.582545,-0.477309064 193.991254,1.73231317 C190.881984,6.04818348 187.751152,10.3554393 184.60307,14.6454661 C182.395101,17.6562379 180.178506,20.6670097 177.9231,23.6433235 C177.716103,23.9189878 176.487057,25.5169797 176.965738,24.9053494 C176.607805,25.3662258 176.249873,25.8271021 175.879003,26.2836713 C175.615944,26.6067154 175.322698,26.9168379 175.076889,27.2528038 C174.304962,28.3037742 175.322698,26.9771394 176.107562,26.8565363 C177.034737,26.9771394 177.961912,27.0977426 178.889086,27.2183458 C177.379732,26.244906 174.240275,26.4990341 172.541174,26.3827381 C168.362418,26.094152 164.179351,25.8443312 159.991971,25.6505047 C150.560663,25.2111646 140.827484,24.6339923 131.430675,25.8830965 C132.284538,26.2362914 133.138402,26.5894864 133.992265,26.9426814 C126.561929,19.2843806 119.554213,11.2298122 112.123878,3.57581865 C110.286778,1.68493335 106.655703,2.50331195 106.060586,5.17381055 C104.050988,14.240584 102.222513,23.3547373 100.575161,32.4904269 C97.9186975,47.225549 95.6201666,62.1200396 97.9876966,77.0662172 C99.488426,86.5378727 103.166938,95.5055793 109.432915,102.827914 C112.447311,106.351249 117.505804,101.247151 114.521595,97.7453523 C104.206236,85.6419635 103.223,68.3698677 104.740979,53.2513999 C105.965712,41.0489442 108.50574,28.9326336 110.972456,16.9326189 C111.645197,13.65049 112.335187,10.3683611 113.055365,7.0991539 C111.03283,7.63325362 109.014608,8.16304608 106.992073,8.6971458 C112.684495,14.5550137 118.113858,20.6497807 123.689844,26.61533 C125.108637,28.1357913 126.540367,29.6433308 127.985035,31.1422558 C129.472827,32.6842534 130.624249,33.1882023 132.720095,32.9599178 C134.893565,32.7230187 137.07566,32.6153373 139.257755,32.5464212 C149.387679,32.2319915 159.556414,32.761784 169.664775,33.4078724 C172.127179,33.5672408 174.589583,33.7309166 177.051987,33.9333576 C176.443932,33.7696819 175.835878,33.6060061 175.232137,33.4423304 C178.518216,35.5528858 180.99787,31.3963839 182.632285,29.277214 C184.99119,26.2190624 187.285409,23.113531 189.571002,20.0036923 C193.146016,15.1451077 196.690842,10.2649869 200.214106,5.37194432 C198.139822,5.37194432 196.065538,5.37194432 193.995567,5.37194432 C202.11158,17.910366 205.514096,32.5291922 206.950139,47.2341635 C208.532805,63.4036018 208.933862,79.7539448 208.774301,95.9922992 C208.446556,128.990186 205.065602,161.906235 198.950561,194.331257 C195.500608,212.628479 191.084669,230.69311 186.82829,248.809428 C186.047738,252.082942 190.748299,253.327739 191.847971,250.179135 L191.847971,250.179135 Z"/><path d="M187.001564 252.217133C190.192122 254.759143 192.66291 258.274873 193.113292 262.48427 193.315332 264.37139 194.548622 266 196.547982 266 198.231653 266 200.205758 264.384315 199.982672 262.48427 199.246065 256.19818 196.106018 250.579906 190.655131 247.378696 187.797099 245.702692 184.227715 250.002568 187.001564 252.217133L187.001564 252.217133ZM164.102856 165.405706C162.838418 173.459364 163.254459 181.802659 163.295247 189.942776 163.336036 198.234197 163.344193 206.525617 163.323799 214.82136 163.303405 223.11278 163.327878 231.408524 163.291168 239.699944 163.274853 243.702997 163.25038 247.706049 163.221828 251.709102 163.189198 255.889396 162.634476 260.506308 163.413533 264.608788 164.025358 267.83371 168.838379 267.76022 169.49915 264.608788 170.351626 260.540891 169.854009 255.867781 169.870324 251.709102 169.88256 247.706049 169.890718 243.702997 169.890718 239.699944 169.886639 231.408524 169.88256 223.11278 169.764274 214.82136 169.645988 206.52994 169.495071 198.234197 169.315603 189.942776 169.136134 181.806982 169.287051 173.394519 167.68407 165.405706 167.312896 163.577097 164.404689 163.486315 164.102856 165.405706L164.102856 165.405706ZM125.836096 154.186996C125.610216 158.141767 126.222697 162.157049 126.62233 166.081565 127.026307 170.053625 127.447659 174.021363 127.916793 177.984778 128.868093 186.067207 129.732517 194.15828 130.657754 202.240709 132.490852 218.284546 134.024227 234.349994 135.700947 250.411119 136.591434 249.244138 137.48192 248.081478 138.37675 246.914496 130.974854 249.607199 123.872682 257.356821 125.14977 265.702902 125.662342 269.052571 130.523095 268.464758 131.391862 265.702902 132.217191 263.09232 132.573385 260.66327 134.263137 258.389816 135.779136 256.34976 137.903272 254.741918 140.314101 253.907742 141.725848 253.419339 143.13325 252.049216 142.989904 250.411119 141.54775 234.185752 139.64515 217.990639 137.703456 201.817138 136.747812 193.851407 135.657509 185.902965 134.57155 177.954523 134.032914 173.999752 133.446496 170.053625 132.807952 166.11182 132.130314 161.945263 131.652492 157.601498 130.27984 153.590539 129.450167 151.178777 125.983786 151.615314 125.836096 154.186996L125.836096 154.186996ZM104.393943 105.597979C98.2869728 110.855497 93.5547135 117.697591 88.8909756 124.229658 84.2015421 130.800479 79.747651 137.565066 75.7263012 144.570785 67.7092972 158.539162 61.4824148 173.708888 59.1826652 189.748408 57.9235844 198.545386 56.9300241 208.48343 60.2575947 216.905793 61.469567 219.975908 65.8891974 219.635741 66.0947616 216.113505 66.5444333 208.431759 65.7435894 200.793072 66.6386503 193.102714 67.5080155 185.644875 69.4266148 178.27746 71.8976679 171.202847 76.9896645 156.631643 84.8139521 143.240258 93.4390836 130.529207 98.368342 123.265134 104.14127 116.259416 107.768622 108.220279 108.770747 105.989817 106.308259 103.953121 104.393943 105.597979L104.393943 105.597979Z"/><path d="M55.6516942 205.155297C46.987146 196.606716 40.5308693 186.062173 38.4911353 173.961384 36.4254724 161.709711 39.7141114 148.776912 46.7365007 138.611731 50.2930709 133.464477 55.3707986 129.343225 57.9118232 123.519154 60.418276 117.776991 59.3076581 111.276103 54.1607869 107.422129 44.5023006 100.179761 31.2137791 105.663268 23.0764504 112.487476 13.9667908 120.13076 7.82165994 131.300388 4.13544571 142.448462.423302647 153.682754-.739172886 165.830964.444909999 177.586879 2.87789782 201.719483 14.5674752 223.950966 33.4090861 239.349619 52.2247681 254.722407 76.1786785 263.197702 100.43077 263.956426 103.416906 264.051267 106.372792 263.995225 109.350285 263.749502 114.138474 263.352896 114.294047 256.123461 109.350285 256.192436 98.0237113 256.35194 86.9477827 255.463888 75.9798908 252.493655 65.1416431 249.56222 54.8349362 244.9409 45.5135246 238.685736 26.996024 226.261626 13.9538264 207.38836 9.36442487 185.570727 4.96084655 164.628213 8.53902403 140.439567 22.5362666 123.618305 28.1930713 116.819963 38.7072088 108.245517 48.2317295 112.431433 52.9464537 114.504992 52.3068761 119.134935 49.917103 122.872514 46.6457499 127.989592 42.034741 132.072045 38.8541388 137.292585 26.0409791 158.299763 28.6208969 185.881114 45.5826682 203.801664 47.5791875 205.914021 50.05539 207.647016 52.4754134 209.250683 54.9861877 210.901771 57.7346429 207.211612 55.6516942 205.155297L55.6516942 205.155297ZM126.156501 61.2131229C126.254168 61.1382831 126.351834 61.0634433 126.449501 60.9886035 128.377351 59.4962093 126.632094 56.1328197 124.513158 57.5547763 124.436723 57.6076044 124.360289 57.6560302 124.283854 57.7088583 123.557725 58.193116 122.93351 59.0691821 123.005698 60.0156858 123.583204 67.4688516 128.598162 75.8817282 136.921039 73.6277288 140.471001 72.6680181 143.49866 69.876933 145.137758 66.5135433 146.607 63.4979387 148.025287 58.4000261 145.974292 55.3580074 144.640933 53.3769533 141.566564 53.5266329 140.882899 56.0491752 140.216219 58.4880729 140.895638 60.8477285 139.774597 63.2646145 138.793687 65.3865436 136.827619 67.5921172 134.453901 67.8826718 132.220312 68.1556171 130.462317 66.2405981 129.540855 64.3519931 128.415568 62.049568 128.780756 58.206323 125.99514 57.3522685 125.65543 58.6289479 125.315721 59.9100295 124.976012 61.1867089 125.315721 61.2747557 125.821039 61.4772635 126.156501 61.2131229L126.156501 61.2131229ZM164.507801 56.8807708C161.507446 59.0706377 163.685547 64.0173135 165.037018 66.7048775 166.659659 69.9204331 169.642519 72.4998021 173.329544 72.9282543 181.460243 73.8717148 187.4697 65.328637 186.971099 57.9930155 186.905494 57.0322438 186.468124 55.8723933 185.49279 55.4439411 184.412487 54.9722109 183.546496 54.7428374 182.483688 55.4439411 180.996632 56.422024 181.105974 57.7852811 180.987884 59.3562726 180.791068 61.9442971 179.553312 64.5323217 177.388333 66.064363 172.013062 69.8641717 168.872749 62.511239 168.111726 58.3349117 167.849304 56.8850986 165.719315 55.9978995 164.507801 56.8807708L164.507801 56.8807708Z"/></svg>