<svg xmlns="http://www.w3.org/2000/svg" width="225" height="246" viewBox="0 0 225 246"><g transform="translate(.515 .483)"><path d="M116.784214 202.43742C114.787713 200.627842 111.550359 200.763063 109.024904 200.484666 106.304572 200.186384 103.608103 199.633568 100.939473 199.025073 95.3277933 197.744448 89.9587166 195.700222 84.8879219 192.975912 75.394599 187.881254 67.4404113 180.273072 61.876457 171.05019 60.3094821 168.453147 58.909545 165.728838 57.6209666 162.980665 56.364205 160.300104 55.4574276 156.971275 53.4450181 154.760011 52.3552944 153.566883 50.0764196 154.13163 49.7383667 155.738376 49.1457797 158.542228 50.1639157 161.723903 51.0945557 164.372648 52.0609895 167.128775 53.2541176 169.793428 54.669963 172.346723 57.553356 177.55274 61.1645572 182.404795 65.3047119 186.680171 73.8156927 195.46955 84.7367924 201.737451 96.6203487 204.644707 100.040649 205.479897 103.516629 205.996919 107.03238 206.21566 109.995315 206.398488 114.513294 206.931537 116.792169 204.577097 117.333053 204.008372 117.400664 202.994213 116.784214 202.43742L116.784214 202.43742ZM122.690199 209.401312C122.030001 212.63469 122.197039 216.122602 122.161245 219.411659 122.117497 223.086494 122.041933 226.765307 122.030001 230.444119 122.022047 233.391146 122.010116 236.334196 121.994207 239.281223 121.982276 241.070916 121.815238 242.653799 123.203244 244.006012 123.827648 244.614507 124.969074 244.853133 125.732676 244.332133 127.426918 243.170822 127.42294 241.456694 127.438849 239.571551 127.458734 236.608616 127.466689 233.641703 127.47862 230.678768 127.490551 227.00791 127.430895 223.333074 127.395101 219.662216 127.363284 216.297594 127.54623 212.710255 126.854216 209.401312 126.42469 207.349132 123.111771 207.3372 122.690199 209.401312L122.690199 209.401312ZM195.932359 68.7553423C196.270412 72.1995062 197.399906 75.4209527 198.346455 78.7497808 199.281072 82.0348609 200.136147 85.3438035 200.891795 88.6766087 202.422976 95.4336923 203.468952 102.302134 204.033699 109.210348 204.602423 116.138446 204.693897 123.130178 204.296187 130.074185 203.898478 137.006261 202.876365 143.954245 200.287277 150.436909 195.777252 161.723903 186.828791 170.9269 177.144568 177.99022 171.548797 182.070719 165.595087 185.622264 159.553882 188.99484 153.850729 192.180493 147.654417 194.896849 142.341019 198.718836 139.604779 200.687498 137.095233 203.045915 135.532235 206.080438 133.834016 209.37745 133.217566 212.984674 132.831788 216.635647 131.956827 224.892095 131.95285 233.240017 132.640888 241.508396 132.768155 243.039578 133.977191 244.845178 135.766883 244.634392 143.494377 243.735569 151.245733 243.095257 159.016974 242.717433 163.005999 242.522555 163.029862 236.298402 159.016974 236.489303 151.245733 236.859173 143.494377 237.487554 135.766883 238.378423 136.808882 239.420422 137.85088 240.46242 138.892879 241.504419 138.284384 234.067252 138.256544 226.598269 138.876971 219.161102 139.131505 216.094762 139.401947 212.873316 140.603029 210.001854 141.736501 207.289475 143.904017 205.22934 146.302205 203.618617 151.786617 199.927873 157.939181 197.151861 163.70199 193.92246 169.735242 190.537953 175.673043 186.954591 181.229043 182.826367 191.211548 175.413063 200.275345 166.162341 205.370002 154.656606 211.041338 141.850362 211.51859 127.007845 210.579995 113.223236 210.047065 105.404268 208.881776 97.6370026 207.072199 90.0089354 206.169398 86.206833 205.107514 82.4524558 203.85473 78.7497808 202.597968 75.0351746 201.305413 71.0660342 198.919156 67.9440151 198.079989 66.8503141 195.757367 66.973604 195.932359 68.7553423L195.932359 68.7553423Z"/><path d="M200.231597,62.9527615 C202.912158,64.1299814 206.268826,64.3169049 209.124379,64.8219959 C213.41964,65.5776438 218.132497,66.762818 222.495369,66.5241923 C223.954962,66.4446504 225.000938,64.8975607 224.197565,63.5533027 C220.813058,57.8660576 217.245605,52.286194 213.479297,46.8415516 C210.09479,41.9497254 206.71426,36.8232506 202.45877,32.631393 C198.656668,28.88497 194.210277,26.2919044 188.813361,25.94192 C186.649822,25.8027217 184.49026,25.8305614 182.330698,26.0532787 C177.971803,26.5066675 173.620862,27.5645746 169.798875,29.7798162 C165.058179,32.5240114 161.49868,37.2130059 158.328937,41.5758785 C150.891771,51.8168969 147.320341,63.6368217 142.619416,75.222098 C140.332587,80.861618 137.488965,86.1670621 134.235702,91.3014911 C131.475599,95.6564095 128.413237,99.800542 124.603181,103.300385 C120.920392,106.680915 116.800123,109.413179 111.840687,110.335865 C106.698305,111.294345 101.102533,111.437521 96.3300209,109.023424 C84.9197387,103.260614 74.9968896,94.9325783 63.7496682,88.8714863 C53.4768349,83.3393479 41.4341947,78.6066054 29.5466613,79.6565584 C23.8832797,80.1576723 18.4664779,82.0587234 13.7019195,85.1688113 C9.58562734,87.8573272 4.87277115,91.7071547 2.59787348,96.1535464 C0.430357345,100.385175 -1.56216666,106.267298 1.79052344,110.415407 C5.87897589,115.474271 12.9979739,112.073856 17.3489145,109.230233 C19.7471021,107.663258 21.9345037,105.794023 23.8713484,103.686163 C26.3888488,100.941968 22.6782202,97.4898501 19.8783462,99.6931605 C10.4486567,107.114419 3.95406248,118.242329 2.25584341,130.137819 C1.59962293,134.727386 2.37913332,141.416859 7.54140112,143.158826 C10.5600153,144.176962 13.3320497,142.832705 15.6825122,140.971424 C18.0806998,139.070373 20.3237807,136.954559 22.4276633,134.739317 C27.4228932,129.469667 31.6306585,123.464254 34.8918754,116.977613 C36.4986213,113.776052 32.1317723,111.254574 30.1153857,114.185693 C21.906664,126.093114 17.8977535,140.903814 19.0391794,155.332713 C19.5243848,161.50914 20.3993455,169.391742 25.6451322,173.52792 C28.134793,175.492605 31.3641932,175.97781 34.2913342,174.693209 C37.2662004,173.384744 39.2587244,170.608733 40.809791,167.856583 C45.2084568,160.053524 47.9248119,151.383458 48.6287575,142.454881 C48.8514747,139.623189 43.9994203,138.915266 43.6136422,141.774797 C42.7187961,148.364843 41.0722792,154.942957 38.2445655,160.980187 C36.9003078,163.847672 33.054458,173.018852 28.6756777,168.962215 C26.949619,167.363423 26.1184064,164.865808 25.6013842,162.638635 C24.9213012,159.703539 24.5633627,156.692879 24.4162102,153.690172 C24.1139511,147.585332 24.7423319,141.484469 26.3013527,135.574507 C28.0632053,128.896965 30.974438,122.64895 34.8958525,116.969659 C33.305015,116.039019 31.7102003,115.108379 30.1193628,114.177739 C27.0570005,120.254739 23.1952424,125.862442 18.5022717,130.798017 C16.3347556,133.076892 13.9644077,135.669957 11.2798693,137.332383 C9.04076549,138.716412 8.17375903,137.018192 7.76809546,134.882493 C7.27493583,132.289427 7.92717922,129.545232 8.55953714,127.035685 C9.31518496,124.04491 10.3730919,121.141631 11.7650748,118.389482 C14.6842616,112.618718 18.7925996,107.667235 23.8793026,103.678209 C22.5469761,102.345882 21.2186268,101.017533 19.8863004,99.6852063 C18.1164936,101.61012 16.1756718,103.308339 13.9484993,104.688391 C12.3576617,105.674711 8.6470332,108.231982 6.65848628,107.253617 C5.03185491,106.450244 5.6840983,104.079896 6.05794512,102.763477 C6.67837175,100.580053 7.47776761,98.5000321 8.98906327,96.7819273 C15.9648858,88.8277383 25.0923162,84.353507 35.7946757,85.2046052 C46.9186071,86.0875202 57.5493789,91.3134223 66.9392975,97.0285071 C72.089634,100.166435 77.0610013,103.590713 82.1238417,106.863862 C86.9838504,110.005767 92.1421411,113.692533 97.7418892,115.347004 C102.43486,116.73501 107.370433,116.460591 112.142946,115.700966 C117.018863,114.925432 121.019819,112.905068 124.937257,109.930202 C132.823834,103.944674 138.542895,95.3302878 143.112576,86.6522676 C148.632782,76.1686465 151.285503,64.4839428 156.650603,53.9486195 C159.124355,49.0925871 162.08729,44.459272 165.59111,40.2793457 C168.721083,36.544854 171.902758,33.5699873 176.623568,32.0785769 C183.165888,30.0104877 191.1678,29.5292593 196.84709,33.9080403 C201.750847,37.6862801 205.409773,43.2025102 209.024952,48.1420615 C213.161129,53.7935128 217.078567,59.6000708 220.797149,65.5338958 C221.365874,64.5435993 221.934598,63.5533027 222.499346,62.5630062 C218.34726,62.8851509 213.968479,61.8153124 209.856164,61.2982902 C207.223328,60.9681913 203.974043,60.9721684 201.472451,60.0097115 C199.786163,59.3733764 198.565195,62.2209761 200.231597,62.9527615 L200.231597,62.9527615 Z"/><path d="M163.411663 35.2125273C160.393048 33.2279572 157.871571 30.4519452 156.817641 26.9361937 156.364252 25.4209207 156.026199 23.7783806 156.244939 22.1915199 156.415954 20.974529 157.060244 18.9064399 158.432341 18.5564556 159.780576 18.2144254 161.053246 19.8331029 161.864573 20.6603385 163.061678 21.8773295 164.215036 22.994893 165.801896 23.6789533 168.828464 24.9834403 172.940779 24.5737995 174.149816 21.0103229 174.806036 19.0695007 174.436167 16.7468776 174.400373 14.7304906 174.364579 12.6345618 174.241289 10.3914805 174.957166 8.38304782 175.442371 7.03083569 176.345172 5.85361572 177.78488 5.45192917 179.443328 4.99058621 180.115457 6.38256929 180.640433 7.72682723 181.94492 11.0675866 183.177819 14.9929789 187.194684 15.8639626 191.776296 16.8582362 193.931881 12.3760507 195.94429 9.20630638 196.743686 7.94556743 198.39418 5.62294424 200.195803 6.43427152 201.675282 7.10242339 202.232075 9.32561922 202.538312 10.7414649 203.023517 12.9885233 203.071242 15.3946654 202.721258 17.6655864 202.343434 20.1393392 201.194054 22.3267411 200.645215 24.7328833 200.136147 26.9560791 202.995677 28.9923515 204.693897 27.0913004 207.990907 23.4005567 208.730647 17.1087932 208.241464 12.348211 207.823869 8.27566627 206.519383 3.44747355 202.482632 1.53449109 197.606715-.77222372 193.307477 3.08158085 190.925198 7.01492731 190.300794 8.04101769 189.107666 11.4334793 187.648072 10.1051297 186.140754 8.73303214 185.88622 6.05644754 185.02319 4.29857177 182.923285.0192180856 178.00362-1.2176583 174.002663 1.27995704 169.822738 3.88495394 169.023342 8.89211592 169.082998 13.4379349 169.098907 14.5992465 169.146632 15.7605581 169.182426 16.9218697 169.198334 17.4070752 169.444914 18.5962265 169.238105 19.037684 168.872212 19.8211716 169.484685 19.164951 169.098907 19.2643784 167.651245 19.6223169 166.139949 17.6814948 165.284874 16.8383507 162.146947 13.7441712 157.660785 11.8948223 154.073446 15.5259095 146.990242 22.6966109 153.588241 35.8448853 162.317962 37.8016158 163.896868 38.1595543 164.767852 36.1033965 163.411663 35.2125273L163.411663 35.2125273ZM143.184163 124.542047C138.312223 124.804535 133.659024 126.204472 128.962076 127.445326 124.165701 128.710042 119.381257 130.046346 114.588859 131.342878 105.00804 133.939921 95.4152893 136.50117 85.7986764 138.966969 84.9237158 139.193663 84.128297 139.953288 83.9214881 140.844157 82.644841 146.304708 85.5481195 152.695899 88.7099091 157.086611 91.5097832 160.97621 95.2204117 164.050504 99.6190775 165.979395 108.957294 170.075802 119.882371 169.912741 128.974007 165.251586 134.299336 162.523299 138.777543 158.31951 141.907516 153.232807 143.836407 150.098856 138.908787 147.231371 136.979897 150.35339 131.149477 159.791035 120.240309 164.35674 109.390797 162.936917 104.685895 162.320468 99.9014512 160.622248 96.3061583 157.440573 94.3454511 155.706559 92.7824532 153.682218 91.5575083 151.371526 90.189388 148.786415 88.4235584 145.250778 89.1076185 142.275911 88.4832148 142.900315 87.8548339 143.528696 87.2304302 144.1531 96.8351118 141.64753 106.427862 139.090259 115.988796 136.413674 120.641995 135.109187 125.295195 133.792769 129.920555 132.400786 134.689091 130.965055 139.545122 129.648636 143.90004 127.186815 145.089191 126.510709 144.607963 124.466482 143.184163 124.542047L143.184163 124.542047ZM189.358223 48.2335347C189.879222 48.2534202 190.364427 48.1460386 190.817816 47.907413 191.287113 47.7562834 191.692777 47.4937951 192.034807 47.1239254 192.404677 46.7818952 192.663188 46.3762316 192.818294 45.9069344 193.05692 45.4575228 193.164301 44.9683401 193.144416 44.4473408 193.100668 44.1132648 193.052943 43.7752118 193.009195 43.4411358 192.830226 42.8008236 192.504104 42.2440304 192.034807 41.7707562 191.780273 41.5719014 191.525739 41.3770238 191.267228 41.1781691 190.678618 40.8361389 190.042283 40.6651239 189.358223 40.6611468 188.837223 40.6412613 188.352018 40.7486429 187.898629 40.9872685 187.429332 41.1383981 187.023669 41.4008864 186.681639 41.7707562 186.311769 42.1127863 186.053258 42.5184499 185.898151 42.9877471 185.659525 43.4371587 185.552144 43.9263414 185.572029 44.4473408 185.615777 44.7814167 185.663503 45.1194697 185.707251 45.4535457 185.88622 46.0938579 186.212341 46.6506511 186.681639 47.1239254 186.936173 47.3227801 187.190707 47.5176577 187.449218 47.7165124 188.037828 48.0585426 188.67814 48.2335347 189.358223 48.2335347L189.358223 48.2335347Z"/></g></svg>