<svg xmlns="http://www.w3.org/2000/svg" width="281" height="347" viewBox="0 0 281 347"><g transform="translate(.059 .575)"><path d="M93.7759258 48.049184C88.6653602 56.1425713 84.4377095 64.9717211 82.8428949 74.4968624 81.3395534 83.4612334 82.0037281 92.9505809 86.5694318 100.984312 88.7369479 104.798345 91.7118141 108.06354 94.3247648 111.563383 97.0132802 115.166631 98.9819416 118.913054 99.8648565 123.351491 101.582961 132.001672 99.7694062 140.930249 100.739817 149.64804 101.66648 157.980053 104.565781 167.914835 112.865976 171.641373 114.253982 172.265777 115.777209 172.13851 116.763528 170.861862 117.602695 169.776115 117.702122 167.843247 116.52888 166.896699 103.436287 156.317628 108.956493 138.687168 106.912267 124.230429 106.299794 119.899373 104.967468 115.711493 102.696547 111.953138 100.509146 108.330005 97.6297297 105.204009 95.0684813 101.859273 89.8187174 95.014693 87.8818728 87.2275419 88.6096809 78.6688346 89.4727103 68.5192894 93.9986431 59.0219877 97.0212344 49.4093503 97.6297297 47.4486427 94.8258786 46.3907356 93.7759258 48.049184L93.7759258 48.049184ZM176.233012 44.175494C185.21329 56.9658299 188.017141 73.343505 182.719652 88.1343195 179.621496 96.7765458 175.135334 104.770506 173.122925 113.802487 172.136606 118.221039 171.559927 122.758904 171.416752 127.284838 171.265622 132.124962 171.80253 136.917361 172.180354 141.733622 172.868391 150.475276 172.438865 159.204998 165.562469 165.472899 162.937588 167.86711 166.294255 171.98738 169.289006 170.305069 176.805714 166.07344 179.243672 156.68352 179.386848 148.633881 179.474344 143.630696 178.750513 138.663305 178.444276 133.680006 178.149971 128.887607 178.28917 124.043506 179.06868 119.302809 180.687357 109.443592 185.169542 100.87693 188.713133 91.6620023 191.847083 83.5129357 192.932829 75.0854724 191.703907 66.4273377 190.387489 57.1487762 185.929167 48.3912141 179.247649 41.8488937 177.744308 40.3773687 174.940457 42.3380763 176.233012 44.175494L176.233012 44.175494Z"/><path d="M105.82652 11.4280978C97.6376839 5.49427284 86.2631956 3.73241998 76.3443235 3.53356525 66.0953527 3.33073344 55.7071837 5.16815109 46.2218149 9.0696808 28.7583959 16.2523135 14.3931329 30.1403275 6.50655587 47.3014902 4.5538028 51.5530043 2.93512561 55.9556479 1.79767678 60.4935127.540915126 65.5046518-.449381237 70.8220271.210816339 75.9842958.839197164 80.8960075 3.29306406 85.7242002 7.68377565 88.2934033 9.90299401 89.5939132 12.3807235 90.0234394 14.9220864 90.09105 17.2288008 90.1507064 20.1201481 89.5939132 22.1444888 91.017713 25.2744617 93.2210233 25.4494538 97.96172 25.202874 101.393953 24.8131188 106.85848 23.4967007 112.354825 25.2625304 117.731857 28.0226335 126.139435 36.1438591 131.695436 44.5713209 133.381724 47.1007526 133.886815 49.6222301 134.045898 52.1954098 133.998173 54.3629259 133.958402 56.7213426 133.747616 58.2047986 135.624805 59.6087127 137.406543 60.1615287 139.844502 60.9211537 141.932477 61.7921372 144.326688 62.8579984 146.605563 64.3494086 148.677629 70.4542476 157.160772 80.8503709 161.809995 91.2186545 160.262905 94.9213288 159.710089 94.0901162 153.263219 90.3277855 153.67286 82.552567 154.519981 74.4273643 151.362168 69.9093857 144.784054 67.6384652 141.475111 66.8788402 137.621306 65.1567586 134.053853 62.9892425 129.559736 59.0638509 127.3087 54.1362316 127.177456 49.9205121 127.066098 46.1621585 127.157571 42.1413166 125.614458 38.9119164 124.377582 35.8058061 122.31347 33.721809 119.517572 31.0213622 115.890462 30.9060265 111.714513 31.351461 107.363571 31.8406436 102.563218 32.6559478 97.7986591 31.2043086 93.0698937 29.9435698 88.9536009 27.239146 85.3861472 23.0552433 83.9782557 18.9150886 82.5822956 13.4545388 84.7219724 10.0063984 81.5800677 6.56223519 78.4421402 6.51451006 73.2878257 7.0673261 69.008472 7.63605052 64.6018513 8.81724739 60.2151161 10.2967263 56.0351898 15.9163599 40.1626056 27.5891303 26.4535609 42.4038048 18.4556238 51.6863418 13.4444848 62.1978008 10.7798314 72.7291453 10.4855264 77.8953901 10.342351 83.0934518 10.6843812 88.1722006 11.646838 93.5412773 12.6689513 98.7512702 14.3830791 104.072622 15.5881387 106.685572 16.1767487 107.886655 12.9195083 105.82652 11.4280978L105.82652 11.4280978ZM177.171606 14.5262545C184.990573 10.0082751 193.378264 7.10101902 202.430129 6.58399674 211.346774 6.07492864 220.402616 7.6936061 228.579521 11.308785 244.953217 18.5510741 257.433337 32.5862406 265.518769 48.2917868 269.945274 56.8942422 273.691697 66.9602684 271.496341 76.7478979 270.513999 81.1306561 268.449887 84.8452623 265.248326 87.9831899 262.170056 91.0018046 258.737824 93.5908931 256.124873 97.0549424 253.209663 100.920678 252.374474 105.402864 252.410267 110.159469 252.442084 114.116678 253.245457 119.004527 250.401835 122.241882 248.230342 124.711658 244.738453 125.658206 241.707908 126.561007 238.116592 127.630845 234.417895 128.605233 231.14077 130.474468 226.70631 133.0039 224.117222 137.171895 221.532111 141.415454 219.273122 145.126084 216.719827 148.132767 212.698986 149.974162 205.401018 153.322875 196.969579 151.847373 190.805084 146.899868 187.698974 144.410207 183.765628 148.208332 186.402441 151.302511 192.057869 157.932328 202.080145 159.618616 210.261027 157.848809 214.305731 156.973848 218.095902 155.100637 221.2736 152.455869 224.964343 149.385552 227.0205 145.110175 229.62152 141.184783 231.864601 137.800276 234.787765 135.859453 238.597821 134.578829 242.535143 133.254457 246.623596 132.395404 250.373995 130.546055 254.402791 128.557508 257.512879 125.10539 258.630442 120.698769 259.871295 115.806943 258.5509 110.783873 259.433815 105.888069 260.253096 101.37009 263.844412 98.4429484 267.121538 95.5754633 270.677059 92.4653754 274.021795 89.1842724 276.08193 84.8532165 280.95387 74.6201524 279.565864 63.0547616 275.437641 52.8296516 267.988544 34.3679789 254.768684 17.3420374 237.078571 7.75723961 218.334528-2.40025974 191.33006-3.91155565 174.693877 11.3008308 172.943956 12.8956457 175.175105 15.6796119 177.171606 14.5262545L177.171606 14.5262545Z"/><path d="M100.672207 37.6928299C103.400493 36.3764116 105.778795 33.866865 108.300272 32.1447831 110.933109 30.3471364 113.732983 28.7801611 116.644215 27.4876054 122.232032 25.0098756 128.42039 23.5423277 134.521252 23.2122288 140.964144 22.8662216 147.287723 23.8326556 153.396539 25.8768822 156.458902 26.8989954 159.39002 28.2034824 162.197848 29.7982973 163.534152 30.5579224 164.838638 31.3732268 166.099377 32.2481875 167.511245 33.2225757 168.823686 34.5668336 170.382707 35.2707794 173.011566 36.4519764 176.690378 33.8350483 174.745579 30.9079067 173.146787 28.4977874 170.311119 26.7916139 167.901001 25.2524783 165.590309 23.7729992 163.160305 22.4804435 160.646781 21.3787883 155.321453 19.0442338 149.817155 17.5727088 144.038438 16.9125112 132.970186 15.6477951 121.790575 18.0658686 112.070557 23.4548316 109.45363 24.9064711 106.979877 26.5887821 104.625438 28.4301768 102.358494 30.2079381 99.4273761 32.5743093 98.2422022 35.2668023 97.5342795 36.8934339 99.0018271 38.496203 100.672207 37.6928299L100.672207 37.6928299ZM114.930088 155.736972C118.167442 160.072005 119.579311 165.703571 120.386661 170.973221 121.396842 177.579175 121.746827 184.232854 121.770689 190.910396 121.818414 204.706936 120.263371 218.435867 119.682715 232.208545 118.692419 255.605792 121.142308 280.741029 136.903531 299.282244 144.945215 308.743751 155.838475 315.67185 167.745894 319.127945 171.62356 320.253463 173.282009 314.212256 169.412296 313.086739 159.17128 310.115849 149.940445 304.337131 142.749859 296.466461 135.173495 288.178196 130.591883 277.782071 128.181765 266.896763 122.693375 242.107533 127.998818 216.693899 128.002795 191.673998 128.002795 184.360121 127.561338 176.891137 126.145493 169.704528 124.924525 163.516169 122.757009 157.673817 117.777687 153.541616 116.326048 152.34451 113.605716 153.963188 114.930088 155.736972L114.930088 155.736972Z"/><path d="M159.024127 154.484187C156.498673 159.980532 155.261796 166.180822 153.77834 172.035105 152.267045 178.004724 150.894947 184.010137 149.6183 190.039412 147.120685 201.807634 145.092368 213.742895 144.706589 225.785537 144.316834 238.027034 145.625298 250.367958 148.508691 262.271402 150.644391 271.076689 153.746524 280.832502 160.968926 286.841892 163.116557 288.627607 165.431225 289.900278 168.044176 290.878643 168.827663 291.172948 169.658876 291.363848 170.116242 292.107565 170.804279 293.229106 170.62531 295.356851 170.692921 296.609636 171.050859 303.291155 170.167944 309.8812 168.167466 316.26046 166.966384 320.094379 172.975772 321.732942 174.172878 317.914931 175.954616 312.231663 176.929004 306.273976 176.996614 300.316288 177.056271 295.301172 177.366484 288.30944 172.025247 285.799893 170.152036 284.920955 168.235077 284.384048 166.485155 283.242621 164.651715 282.045516 163.068832 280.41093 161.780253 278.649077 159.234913 275.16912 157.552602 271.136346 156.264024 267.043916 148.989919 243.960859 150.023964 219.660812 154.589668 196.184023 155.91404 189.387168 157.540671 182.653947 158.9247 175.869024 160.284866 169.19546 162.229665 162.207705 162.352955 155.386987 162.388749 153.704677 159.783752 152.829716 159.024127 154.484187L159.024127 154.484187ZM55.4645809 148.518545C50.2744735 164.681457 54.1243003 182.630085 59.7598423 198.160639 65.5862847 214.220146 73.9819298 229.146182 80.8105999 244.772186 87.7466516 260.648748 91.8629437 277.09801 92.2009967 294.465982 92.3759888 303.36672 91.7595392 312.287343 90.5703882 321.108538 89.9976867 325.360052 89.1505657 329.563841 88.5022994 333.803424 87.8977811 337.748702 88.3949179 341.880903 92.129409 344.127961 95.7644727 346.315363 100.739817 346.060829 104.82827 346.180142 109.819522 346.327294 114.818729 346.204005 119.794074 345.810272 122.347368 345.60744 124.892708 345.329044 127.430094 344.990991 129.724877 344.684754 132.520774 344.652938 134.624657 343.62287 139.075025 341.439445 137.702927 334.913033 137.679065 330.876282 137.655202 326.934982 131.657745 326.942936 131.562294 330.876282 131.5265 332.443258 131.48673 334.010233 131.450936 335.581185 131.427073 336.527734 131.713424 338.015167 131.168562 338.758884 131.546386 338.38106 131.928187 337.999259 132.306011 337.621435 131.112883 338.540143 128.810145 338.452647 127.346575 338.651502 125.346097 338.925922 123.333687 339.144662 121.325255 339.323631 117.244757 339.685547 113.14835 339.868493 109.051943 339.868493 105.321429 339.868493 101.380129 339.963943 97.6933632 339.359425 96.7985171 339.212272 95.4264198 338.993532 94.8934892 338.146411 94.1298872 336.92942 94.7980389 334.8494 95.0326875 333.568775 97.8643783 317.994473 99.4154449 302.046324 98.1427748 286.225442 96.8661277 270.344904 92.3521262 255.474548 85.9330968 240.958153 79.7407617 226.95878 72.1723521 213.567903 66.572604 199.306042 63.4227457 191.284242 60.9688788 183.031771 59.4058809 174.552606 57.8468601 166.117188 57.8548143 157.478939 58.7337521 148.96398 58.9246526 147.023158 56.0134199 146.816349 55.4645809 148.518545L55.4645809 148.518545Z"/><path d="M197.108778 169.720436C197.578075 183.747648 196.532099 197.544189 193.970851 211.344707 191.38574 225.272492 187.814309 239.005399 185.563274 253.000795 184.437757 260.004458 183.606544 267.071755 183.423598 274.166892 183.232697 281.508608 183.876987 288.814531 184.811604 296.088637 186.521754 309.411903 188.581889 322.663582 188.486438 336.134001 188.482461 336.499894 188.482461 337.152137 188.450644 337.358946 188.371103 337.911762 188.311446 337.29929 188.713133 337.438488 187.997256 337.195885 185.881442 337.788473 184.863306 337.927671 181.462891 338.385037 177.998842 338.424808 174.570587 338.38106 167.288528 338.285609 160.022378 337.569732 152.736342 337.593595 153.647096 338.285609 154.557851 338.977624 155.464628 339.673615 155.027148 336.690794 155.735071 333.684111 155.253842 330.669473 154.76466 327.611088 149.379675 328.299125 149.79727 331.409213 150.23475 334.666453 149.52285 337.903808 150.004078 341.180934 150.183048 342.385994 151.60287 343.264932 152.732365 343.260955 159.350249 343.233115 165.956202 343.821725 172.570109 343.988763 175.898936 344.072282 179.235718 344.072282 182.556591 343.797862 184.087773 343.670595 185.603045 343.463786 187.122295 343.237092 188.235881 343.070054 189.425032 343.117779 190.494871 342.747909 195.470215 341.033782 193.911194 334.388057 193.827675 330.446756 193.664614 322.576086 192.912944 314.840637 191.835151 307.041555 190.761336 299.258381 189.532414 291.483161 189.063117 283.6284 188.621659 276.231004 188.959712 268.825654 189.826719 261.468029 191.552778 246.812436 195.259429 232.47501 198.146799 218.026226 201.316543 202.16955 204.172096 185.270876 200.286476 169.294887 199.864904 167.521103 197.045144 167.879041 197.108778 169.720436L197.108778 169.720436ZM230.910098 146.633402C231.30383 159.13341 230.039115 171.601602 227.263103 183.791396 224.399596 196.359015 220.597494 208.688008 217.531155 221.203924 214.421067 233.894833 212.245597 246.808459 212.603535 259.912985 213.001245 274.314044 215.140921 288.715104 216.691988 303.02469 217.566948 311.102168 218.461795 319.179647 219.320847 327.261103 219.436183 328.362759 219.969113 330.259833 218.962908 331.047297 217.956704 331.838739 215.805096 331.743289 214.611968 331.834762 210.642828 332.137021 206.665734 332.005777 202.71648 331.524549 200.986444 331.313763 199.491057 333.159135 199.491057 334.749972 199.491057 336.666932 200.97849 337.76461 202.71648 337.975396 206.295864 338.404922 209.895134 338.548098 213.498381 338.341289 216.600515 338.162319 220.163991 338.050961 222.788873 336.189681 225.779647 334.077843 226.093838 330.621748 225.731922 327.261103 225.326258 323.482864 224.900709 319.704624 224.483115 315.926384 222.832621 300.936715 220.959409 285.951023 219.60322 270.929537 218.935069 263.52021 218.589062 256.075089 219.125969 248.641899 219.595266 242.127419 220.68499 235.688503 222.061064 229.309243 224.908664 216.125175 229.096543 203.279159 232.04357 190.122931 235.261039 175.749711 237.687066 160.724248 234.167338 146.195922 233.729858 144.382367 230.850442 144.752237 230.910098 146.633402L230.910098 146.633402ZM104.67714 172.229983C103.40447 175.455406 103.293111 179.162058 102.278952 182.502818 101.20116 186.046409 99.6580476 189.375237 97.9757369 192.668271 94.6071384 199.258317 90.3357396 205.33134 86.0365012 211.336753 84.7399686 213.150308 86.5455692 215.122947 88.3233302 215.321802 96.7468149 216.264373 104.024897 207.693734 108.419585 201.561055 110.845613 198.176547 112.786434 194.497735 114.337501 190.639953 115.832888 186.925347 117.415772 182.343734 117.049879 178.283121 116.819207 175.733803 113.565945 175.288368 112.65519 177.686556 111.390474 181.023339 110.877429 184.658403 109.624645 188.027002 108.379814 191.38367 106.693527 194.581254 104.708957 197.55612 102.776089 200.455422 100.501191 203.104167 97.9558514 205.48247 95.2872215 207.976108 92.173157 210.441907 88.3193531 210.020335 89.0829551 211.348684 89.84258 212.677034 90.606182 214.005383 95.140069 207.646009 99.7574749 201.187208 103.110165 194.104002 104.724865 190.695632 106.057192 187.11227 106.963969 183.445389 107.815067 179.997248 108.813318 175.686078 107.620189 172.222029 107.111121 170.734595 105.229956 170.830045 104.67714 172.229983L104.67714 172.229983Z"/><path d="M161.947291 179.014906C160.901315 180.406889 161.78423 182.665879 162.285344 184.141381 162.850091 185.81176 163.534152 187.446346 164.305708 189.02923 165.936316 192.354081 168.103832 195.400535 170.613379 198.120868 175.584746 203.501877 182.015707 207.459086 189.067094 209.447633 191.103366 210.020335 193.509508 207.474994 192.057869 205.558035 188.44269 200.789498 184.839443 195.977214 181.904348 190.751312 178.953344 185.489616 177.231263 180.140424 176.376188 174.186713 175.958593 171.271503 171.11847 171.971472 171.249714 174.878728 171.814461 187.513957 180.154427 198.566302 187.484211 208.230642 188.482461 206.934109 189.476735 205.637576 190.474985 204.341044 178.273261 200.900857 169.949204 191.26038 165.960179 179.539882 165.307935 177.630877 163.080763 177.507587 161.947291 179.014906L161.947291 179.014906ZM232.222539 204.15412C235.559321 208.1511 240.753405 210.803822 245.871925 211.599241 248.46499 212.000928 251.026239 212.020813 253.619304 211.627081 254.808455 211.448112 256.789048 210.53338 257.934451 210.77996 259.131556 211.038471 260.245142 211.817981 261.478041 212.096378 266.608492 213.25769 272.415049 211.802073 276.062044 207.90452 279.816421 203.891632 281.132839 198.045303 279.621543 192.791561 279.032934 190.747335 276.579067 190.222358 275.063794 191.586502 272.780942 193.642659 269.635061 194.680681 266.568721 194.263086 263.112627 193.793789 260.197417 191.976257 256.944154 194.350582 255.635691 195.305085 254.713005 196.518099 253.134099 197.070915 251.825635 197.528281 250.409789 197.631685 249.033715 197.504418 247.275839 197.341357 245.529895 196.760702 243.903264 196.096527 242.201068 195.400535 240.650001 194.350582 238.744973 194.501712 237.189929 194.625002 235.86158 196.31129 236.843922 197.810655 238.029096 199.620233 239.866514 200.30827 241.803358 201.111643 243.71634 201.907062 245.645231 202.527489 247.697411 202.817816 251.467696 203.350747 255.428882 202.690549 258.451473 200.264522 259.020197 199.811133 259.553128 199.051508 260.181509 198.705501 261.02863 198.240181 262.074605 198.729363 262.933658 198.97992 264.763121 199.508874 266.632355 199.866812 268.549314 199.775339 272.458797 199.592393 276.030228 198.04928 278.925552 195.436329 277.406302 195.034643 275.887052 194.632956 274.367802 194.231269 275.513206 198.212341 274.276329 202.650779 270.951479 205.239867 269.448137 206.41311 267.519247 207.101147 265.630127 207.268185 263.351253 207.46704 261.645079 206.735255 259.553128 206.0154 257.242436 205.219982 255.158439 206.333568 252.89945 206.763094 250.831361 207.156827 248.651914 207.164781 246.567917 206.87843 242.149365 206.269935 238.291584 204.317181 234.919009 201.449696 233.037843 199.866812 230.651587 202.272955 232.222539 204.15412L232.222539 204.15412ZM100.36597 92.2506123C100.334154 92.3739022 100.302337 92.493215 100.274497 92.616505 100.218818 93.0261457 100.163139 93.4318093 100.111436 93.8414501 100.087574 94.4738081 100.218818 95.0663952 100.509146 95.6152342 100.620504 96.0049895 100.815382 96.3430425 101.101733 96.6293933 101.427854 97.1305072 101.85738 97.5242396 102.394288 97.8145675 102.760181 97.9696742 103.126073 98.1247809 103.495943 98.2798875 103.905584 98.3355669 104.311247 98.3912462 104.720888 98.4429484 105.353246 98.466811 105.945833 98.3355669 106.494672 98.045239 107.067373 97.8583155 107.560533 97.5441251 107.978128 97.0947134 108.053693 96.9992631 108.133235 96.9038128 108.208799 96.8083626 108.789455 96.2237297 109.191142 95.5356923 109.413859 94.7402734 109.636576 93.9090607 109.636576 93.0778479 109.413859 92.2466352 109.254775 91.8727883 109.099668 91.4989414 108.940585 91.1250945 108.52299 90.4211488 107.96222 89.8603785 107.258274 89.4427836 106.721366 89.1007534 106.140711 88.91383 105.516307 88.8859903 104.891903 88.746792 104.271476 88.7746317 103.647073 88.9695093 102.088052 89.4030126 100.76368 90.6756829 100.36597 92.2506123L100.36597 92.2506123ZM167.212963 95.3209292C167.853276 95.3447918 168.44984 95.2095706 169.006633 94.9192427 169.583311 94.7323192 170.084425 94.4101746 170.505997 93.9567858 170.959386 93.5352138 171.28153 93.0340999 171.468454 92.4574212 171.758782 91.900628 171.894003 91.3040638 171.87014 90.6637516 171.814461 90.2501337 171.758782 89.840493 171.703102 89.4268752 171.480385 88.6394105 171.082676 87.9553502 170.505997 87.3707173 170.191807 87.1281146 169.877616 86.8855118 169.563426 86.642909 168.835618 86.221337 168.056107 86.010551 167.212963 86.0065739 166.572651 85.9827113 165.976087 86.1179326 165.419294 86.4082605 164.842615 86.5951839 164.341502 86.9173286 163.91993 87.3707173 163.466541 87.7922893 163.144396 88.2934033 162.957473 88.870082 162.667145 89.4268752 162.531924 90.0234394 162.555787 90.6637516 162.611466 91.0773694 162.667145 91.4870101 162.722824 91.900628 162.945542 92.6880927 163.343251 93.3721529 163.91993 93.9567858 164.23412 94.1993886 164.548311 94.4419914 164.862501 94.6845941 165.590309 95.1061661 166.373797 95.3209292 167.212963 95.3209292L167.212963 95.3209292Z"/></g></svg>