<svg xmlns="http://www.w3.org/2000/svg" width="207" height="292" viewBox="0 0 207 292"><g transform="translate(.958 .086)"><path d="M96.7813433 63.9000252C96.1648937 69.0026374 95.5126504 74.0257078 94.1087362 78.9851446 92.7644785 83.7377725 90.8833131 88.2915458 88.7794305 92.7538458 84.3330396 102.183537 79.007711 111.179725 74.2033816 120.426469 64.3680286 139.361416 55.6025138 159.103713 50.9214743 180.007322 48.2767069 191.815316 46.880747 203.977271 47.4534485 216.079569 47.6125322 219.468054 52.858319 219.49987 52.7469604 216.079569 52.0549461 194.39645 57.0342675 173.222399 64.9486843 153.142049 68.8979384 143.115793 73.5670466 133.383843 78.5225055 123.818931 83.3188807 114.552301 88.6561406 105.548159 93.1462795 96.1264219 97.8551586 86.2473192 102.416885 74.5228446 100.408453 63.4108426 100.002789 61.1796925 97.0080376 62.0188595 96.7813433 63.9000252L96.7813433 63.9000252ZM100.102217 48.3933337C100.456178 45.2951771 99.227256 41.7953339 98.7022796 38.7528566 98.125601 35.4160744 97.6841436 32.035544 97.3659761 28.6629679 97.0637169 25.4415214 96.9125874 22.2081435 96.9165645 18.9747657 96.9205416 16.2743185 96.6461221 13.0409407 97.4972202 10.4359438 99.3386146 4.81233218 107.177467 15.0851673 108.553541 16.8748598 110.490386 19.3963377 112.307918 22.0132659 114.169198 24.5944002 115.207219 26.0341084 116.237286 27.4777937 117.283262 28.9135249 118.25765 30.2538057 119.104771 31.8565748 120.643906 32.5724518 121.968279 33.1889014 124.119886 32.4929099 123.925009 30.687309 123.610818 27.7720987 121.025707 25.2068728 119.367259 22.8643641 117.581544 20.3468633 115.819691 17.8134541 113.998182 15.3237929 110.86821 11.0364851 107.217237 5.7389952 101.959519 3.93737139 99.5851944 3.12206702 96.9324728 3.38057816 94.9638114 5.00720981 92.9633332 6.66168112 92.2832502 9.15134228 92.0128078 11.6370263 91.3645415 17.5947139 91.7741822 23.8387523 92.4661965 29.7765544 92.867883 33.2167411 93.4724012 36.5972714 94.3036138 39.9618934 95.0672158 43.06005 95.8149095 46.7985188 97.9307234 49.28818 98.7301193 50.2227972 99.990858 49.3677219 100.102217 48.3933337L100.102217 48.3933337ZM129.333856 29.5538371C130.924694 24.9682471 131.843402 20.2792527 132.698478 15.5027622 133.143912 13.0250323 133.505828 10.5353712 133.991033 8.06559548 134.154094 7.22245145 134.102392 4.89982826 135.462558 5.06288913 136.679549 5.21401873 137.972104 7.9820765 138.572645 8.92862499 139.72998 10.7541114 140.75607 12.6591396 141.694664 14.6039388 143.647417 18.6486439 145.238255 22.860387 146.817161 27.0641759 147.906884 29.9634778 152.568038 28.7663724 151.52604 25.7676431 149.684645 20.4661761 147.783595 15.1766404 145.170644 10.2012952 143.854226 7.69572569 142.354861 5.3015148 140.628803 3.05843351 139.292499 1.3244203 137.701662.00800202405 135.39097 0 129.671909-.0198376375 129.170795 6.16454431 128.474804 10.443898 127.472576 16.6044174 126.283425 22.9120893 126.442509 29.1640818 126.486257 30.8662783 128.792972 31.1128581 129.333856 29.5538371L129.333856 29.5538371Z"/><path d="M159.611472 89.7988646C165.55325 88.215981 171.339921 85.3166791 176.852173 82.6241861 182.400219 79.9118076 187.912471 77.0284141 193.20996 73.8546927 197.596695 71.2258332 201.911842 67.8970052 203.804938 62.9892705 205.037837 59.7877095 205.968477 56.021401 204.648082 52.7601835 203.148718 49.0495543 200.499973 46.2974049 196.455269 45.6252759 192.056603 44.8934906 187.474991 45.1997268 183.040531 44.9372386 180.415649 44.7821319 177.818607 44.3366973 175.535755 42.9685768 173.463689 41.7277233 171.797287 39.9380308 170.210427 38.1443612 166.937278 34.4496404 163.866962 30.5441336 159.337052 28.3050294 153.8248 25.5846968 147.517129 25.0835829 141.46797 25.6006051 138.011875 25.8949101 134.579643 26.4755659 131.151388 27.0005424 127.72711 27.5255189 124.231245 27.6686943 120.838784 28.3328691 117.975276 28.8976165 119.065 32.6679021 121.467165 32.9820925 124.159657 33.3360539 126.903852 32.8389171 129.584413 32.4690473 132.559279 32.0554295 135.518237 31.5224988 138.49708 31.1406978 143.544013 30.4924314 148.793776 30.2458515 153.733327 31.6895368 158.374595 33.045726 161.548316 36.0921804 164.634541 39.6596342 167.402598 42.8611953 170.234289 46.2775194 174.139795 48.1348226 178.940148 50.4136977 184.150141 50.0716676 189.312408 50.298362 191.84184 50.4097206 195.731438 49.920538 197.871114 51.5869406 198.837548 52.3386115 200.102264 54.2396626 200.261348 55.2816614 200.416454 56.2918434 199.978974 57.6917807 199.764211 58.6462833 198.738121 63.2557359 195.886544 66.0357249 192.044672 68.6208363 186.894335 72.0848857 181.390037 75.0995233 175.925511 78.034619 170.17861 81.1208444 164.069794 83.8053832 158.54561 87.2734096 157.237147 88.1006452 158.068359 90.2085053 159.611472 89.7988646L159.611472 89.7988646ZM158.633107 94.9730645C158.959228 98.0632669 159.619426 101.105744 160.0927 104.180038 160.597791 107.465118 160.87221 110.778038 161.11879 114.090958 161.603996 120.629301 162.001705 127.171622 162.192606 133.72985 162.570429 146.715064 162.26817 159.716186 161.297759 172.669583 159.333075 198.83091 154.584425 224.773498 147.183053 249.940552 145.122919 256.944215 142.859952 263.884245 140.390177 270.752687 139.260682 273.894592 138.139142 276.817756 140.3862 279.756829 142.43838 282.437391 144.414996 284.62877 144.872362 288.152476 145.055308 289.560367 145.9422 290.745541 147.481335 290.761536 148.765937 290.773381 150.25337 289.552413 150.090309 288.152476 149.752256 285.225334 148.944906 282.433414 147.334183 279.931821 146.638192 278.850052 145.787093 277.915434 144.971789 276.925138 143.965584 275.700193 144.729187 274.590583 145.222346 273.238371 147.457473 267.073875 149.529539 260.849722 151.434567 254.577844 155.284394 241.910798 158.454137 229.04092 160.943798 216.039798 165.89528 190.168798 168.190063 163.772822 167.688949 137.436502 167.549751 130.142511 167.239538 122.836589 166.619111 115.570437 166.022547 108.558819 165.879372 100.175104 162.033522 94.0503786 161.150607 92.6424871 158.430275 93.0600821 158.633107 94.9730645L158.633107 94.9730645Z"/><path d="M137.522692 287.607614C136.659663 281.311873 132.105891 276.467772 126.319219 274.192874 126.876012 275.171239 127.428828 276.149604 127.985621 277.12797 139.499308 249.403644 147.210893 219.977122 147.835297 189.8387 147.89893 186.712703 143.090624 186.724635 142.987219 189.8387 142.016809 219.627137 134.726796 248.381531 123.380147 275.859277 122.859148 277.123993 123.96478 278.388709 125.046549 278.794372 129.36965 280.417027 132.559279 284.250946 133.959216 288.589956 134.710887 290.912579 137.836883 289.902397 137.522692 287.607614L137.522692 287.607614ZM113.477183 206.097062C111.886346 210.682652 111.651697 215.829012 111.15456 220.633342 110.625607 225.735955 110.080745 230.838567 109.563723 235.945156 109.058632 240.916524 108.585358 245.89187 108.096175 250.863238 107.853573 253.348922 107.606993 255.834606 107.36439 258.324267 107.137696 260.615073 106.262735 263.538238 107.483703 265.60235 108.100152 266.648326 109.726784 266.962516 110.585836 266.004036 112.20849 264.190481 111.946002 261.434355 112.176674 259.111732 112.423253 256.626048 112.669833 254.140364 112.92039 251.650702 113.429458 246.54809 113.94648 241.445478 114.443617 236.338889 114.924845 231.36752 115.378234 226.392175 115.843554 221.420807 116.316828 216.369897 117.076453 211.147972 116.388416 206.101039 116.169676 204.486339 113.910686 204.852231 113.477183 206.097062L113.477183 206.097062ZM146.789321 50.9824222C147.572809 54.8481581 152.293619 56.8685221 155.853118 55.7589127 159.714876 54.5538531 161.794896 50.1273469 160.744943 46.3451301 160.494386 45.4383525 159.53193 44.5952085 158.54561 44.6707733 158.139947 44.70259 157.734283 44.7224755 157.392253 44.9809866 156.541155 45.6332301 156.095721 46.4723971 156.342301 47.5581439 156.71217 49.1887526 155.964477 51.2130937 154.186716 51.6386428 152.273734 52.0920316 150.838003 50.5807357 149.780096 49.2404548 148.575036 47.7132506 146.475131 49.4234012 146.789321 50.9824222L146.789321 50.9824222Z"/><path d="M200.515882 64.9738407C196.813207 60.5871055 190.449857 58.9724051 184.901811 58.7655962 178.399263 58.5229934 172.03989 60.3604111 166.117997 62.8938203 160.072815 65.4789317 154.29012 68.7481034 148.845479 72.43487 143.695142 75.9188048 138.274363 79.7288613 134.551803 84.7837484 130.697999 90.0136277 130.248588 96.4008414 130.725839 102.668742 131.23093 109.290605 132.16157 115.653956 130.686068 122.228093 129.266246 128.535765 126.876012 134.640605 126.533982 141.159063 126.207861 147.311628 127.933919 153.340903 130.157115 159.016217 132.690523 165.482973 135.824473 171.71508 137.578372 178.468186 138.998194 183.940668 140.338475 189.922219 145.544491 193.044238 146.498993 193.616939 147.696099 193.390245 148.48754 192.666414 155.403706 186.30704 161.568202 179.076682 166.615134 171.146355 168.301422 168.497611 164.141382 166.111354 162.431231 168.700442 157.447933 176.233059 151.701032 183.109456 145.055308 189.234181 146.03765 189.106914 147.016015 188.979647 147.998358 188.856357 144.065012 186.501917 143.309364 181.260107 142.243503 177.183585 140.82368 171.750874 138.532874 166.632353 136.341496 161.478039 134.170002 156.375427 131.974647 151.030211 131.433762 145.462279 130.845152 139.421073 132.571211 133.725873 134.150117 127.96704 135.725046 122.236047 136.635801 116.64823 136.210252 110.690542 135.796634 104.915801 134.567712 98.9302735 135.784702 93.1793949 137.053395 87.2018219 141.46797 83.3162005 146.109238 79.7447697 150.929476 76.0341405 156.075835 72.7411063 161.444912 69.8815753 167.545774 66.6322891 174.143772 63.6852621 181.107664 63.052904 187.598281 62.4642941 193.090648 64.2897804 198.777892 67.2288533 200.261348 67.9964325 201.565834 66.2186713 200.515882 64.9738407L200.515882 64.9738407ZM115.020296 288.601887C113.616381 280.086928 108.764327 272.586128 103.212304 266.139258 97.6284643 259.652617 90.9708092 254.152295 83.9512386 249.288308 68.9416865 238.884229 50.69478 231.029467 32.0978892 231.944199 23.2766951 232.377702 14.2128983 235.026447 7.78989172 241.369913 1.98731182 247.100906-1.27788222 255.464736.472039068 263.578009 2.15832685 271.396977 8.34270776 277.414321 15.0321796 281.311873 23.1494281 286.040639 32.638774 288.518368 41.9093797 289.592184 53.3594328 290.916556 64.5907458 288.848467 75.9692113 287.870102 87.7135693 286.85992 99.4738358 287.750789 110.915935 290.598389 114.594747 291.513121 116.165699 285.825875 112.48291 284.919098 103.061174 282.592498 93.3332029 281.43914 83.6251169 281.626064 74.1397481 281.80901 64.7975547 283.60268 55.3360485 284.155496 46.0376031 284.700358 36.8027912 283.618588 27.933872 280.731217 20.9739578 278.464273 13.7555325 275.000224 9.12619525 269.122079 4.53662896 263.295635 4.3854994 255.850514 8.15578435 249.566705 12.3476412 242.57895 19.9399134 238.955817 27.7708111 237.742803 44.5859638 235.141783 62.0215432 241.795462 76.0885241 250.51723 83.71659 255.245996 90.9429695 260.782111 97.1392817 267.300569 103.319686 273.803119 107.873458 281.375507 111.345461 289.620024 112.295986 291.851174 115.425959 291.055755 115.020296 288.601887L115.020296 288.601887Z"/><path d="M79.9820989 253.010869C80.1849307 252.370556 80.0497095 252.207496 79.5764354 252.521686 79.2861075 252.637022 78.9878255 252.728495 78.6855664 252.800083 78.0452542 252.967121 77.3930109 253.046663 76.7367904 253.134159 75.5038913 253.297219 74.3425799 253.504028 73.2091081 254.036959 71.2643093 254.955668 69.7132427 256.717521 69.6973343 258.960602 69.6496092 265.45122 77.8981018 265.141007 81.4814633 268.414156 82.4041491 269.2573 81.7121348 269.2573 80.6661591 269.356727 79.305993 269.487971 77.9617353 269.245368 76.6015692 269.515811 74.2590609 269.981131 72.1313157 271.615717 71.7455376 274.069584 71.3438511 276.646741 73.0778641 278.937548 75.2612886 280.102836 76.3589665 280.687469 77.5958426 280.981774 78.6776122 281.602201 79.9582364 282.333986 80.6502507 283.463481 81.6524784 284.497526 83.334789 286.231539 86.7113417 284.465709 85.8602436 282.047636 84.9534662 279.48241 82.6785686 277.581359 80.24061 276.491635 79.4809851 276.153582 77.3771025 275.700193 77.0271182 274.849095 76.9396222 274.670125 76.8998512 274.725805 76.9038283 275.016133 77.0788204 274.86898 77.2816522 274.765576 77.5043695 274.709896 78.1128648 274.65024 78.6974976 274.570698 79.3179243 274.550813 81.8592872 274.483202 84.64723 274.141172 86.1863653 271.822526 87.6022107 269.690803 87.0812114 267.101715 85.3909466 265.304068 83.5654605 263.359269 80.8212657 262.436583 78.3912614 261.513897 76.7367904 260.885516 72.0398426 258.980488 75.8856923 257.683955 78.0929794 256.940238 81.1434103 257.079436 82.4598284 254.764767 83.2234304 253.424487 82.8177668 251.22913 80.9525098 251.328558 80.0934576 251.372306 79.5724583 252.239312 79.9820989 253.010869L79.9820989 253.010869ZM199.251166 49.6222559C197.20694 48.4211734 195.488835 50.7437966 195.321797 52.5573517 195.158736 54.3072732 195.922338 56.0810574 197.282504 57.1827126 199.072197 58.6343521 201.601628 58.2406197 202.778848 56.2202557 203.908343 54.2834107 203.156672 51.8693143 201.637422 50.3858581 199.457975 48.2541354 195.731438 50.9943535 197.362046 53.6828694 197.413748 53.7703655 197.990427 54.677143 198.034175 54.6612347 197.990427 54.677143 198.034175 54.0606934 198.026221 54.0925101 198.388136 53.2095952 199.060265 52.8715421 200.042608 53.0823281 200.177829 53.1817555 200.185783 53.1777784 200.062493 53.0624427 199.947157 52.9431298 199.947157 52.9391527 200.058516 53.0544885 199.923295 52.7999544 199.895455 52.7601835 199.982951 52.9351756 199.823867 52.6408706 199.895455 52.8794963 199.923295 52.5613288 199.931249 52.3942908 199.947157 52.2272528 199.97102 52.0641919 199.911363 52.2431612 199.923295 52.2033903 200.002837 51.9488562 200.142035 51.057987 200.142035 50.1472324 199.251166 49.6222559L199.251166 49.6222559Z"/></g></svg>