<svg xmlns="http://www.w3.org/2000/svg" width="282" height="385" viewBox="0 0 282 385"><g transform="translate(.62 .468)"><path d="M126.364248 138.603964C117.845313 150.304576 122.426925 166.908945 127.951108 178.828298 131.108921 185.641061 134.974656 192.087931 138.359163 198.781381 141.775486 205.538464 144.738421 212.510311 147.224105 219.65715 150.071704 227.834056 152.290922 236.209817 153.921531 244.712845 154.382874 247.11501 157.703747 247.186598 158.857104 245.357135 164.822745 235.907558 167.543077 224.636472 166.409605 213.512539 165.085233 214.272164 163.760861 215.031789 162.440466 215.791414 175.266593 223.964343 187.221737 233.394034 198.321806 243.786182 199.308126 244.708868 201.229062 244.967379 202.17561 243.786182 213.267725 229.914077 223.083193 215.063606 231.53054 199.441579 233.232736 196.295697 228.432384 193.483891 226.734165 196.637727 218.533397 211.866022 209.024166 226.346623 198.321806 239.932378 199.606408 239.932378 200.891009 239.932378 202.17561 239.932378 190.669878 229.313535 178.217597 219.78044 165.101142 211.233664 163.514281 210.199619 160.949056 211.535923 161.132002 213.512539 162.070596 223.74958 159.68434 233.934919 154.19595 242.632825 155.842467 242.847588 157.485007 243.062351 159.131524 243.277114 156.351535 228.788559 151.781854 214.70169 145.565657 201.326721 139.51252 188.305714 130.691326 176.207392 127.803956 161.921669 126.296637 154.464617 127.068193 147.103015 129.569785 139.952199 130.269754 137.943766 127.449994 137.108576 126.364248 138.603964L126.364248 138.603964ZM118.143595 134.809816C111.764336 136.850065 107.727586 143.352615 105.548139 149.322234 107.309991 149.560859 109.071844 149.799485 110.837673 150.038111 107.83099 123.924508 104.064683 91.9049203 124.693868 71.48254 130.054991 66.1731189 136.672875 62.4028333 143.561201 59.4359208 145.032726 58.7995857 145.334985 56.667863 144.619108 55.4071241 143.756079 53.8918511 142.041952 53.720836 140.590312 54.3492169 127.692597 59.9410118 116.851039 68.7184594 110.49962 81.4451618 104.028889 94.4144669 102.27499 109.030289 102.776104 123.367715 103.098249 132.554803 104.319217 141.654395 105.552116 150.753988 105.941871 153.617496 109.982598 152.985138 110.7462 150.753988 112.567709 145.428658 116.322086 141.781662 119.690684 137.458561 120.565645 136.325089 119.809997 134.272908 118.143595 134.809816L118.143595 134.809816ZM148.063272 49.2147879C145.036703 40.2663253 138.390979 32.1252129 132.154896 25.1971143 131.967973 26.6407996 131.781049 28.088462 131.598103 29.5321473 134.199123 27.7384776 138.573926 28.6969574 141.524929 29.058873 145.06852 29.4923763 148.576317 30.2679097 151.996617 31.2860459 159.055959 33.3859518 165.081256 36.8420469 171.281545 40.7077828 174.296183 42.5889485 178.086353 37.9357479 175.167166 35.6727812 168.660641 30.6298253 160.571232 27.1816844 152.652838 25.0817785 148.679721 24.0278485 144.607177 23.3437882 140.514748 22.9818726 136.593333 22.6358654 132.178759 22.325652 128.814137 24.763611 127.362498 25.817541 126.944903 27.7066609 128.257344 29.098644 131.446974 32.4831514 134.493427 36.0267426 137.273416 39.7572572 139.989771 43.4002758 142.459546 47.2938513 145.358848 50.7897174 146.384938 52.038525 148.564385 50.7022213 148.063272 49.2147879L148.063272 49.2147879ZM185.173534 34.9409958C186.004747 29.8224752 185.766121 24.4852143 186.243372 19.3110144 186.736532 13.9737536 187.706943 8.67626369 188.975636 3.47422409 187.440478 3.87988773 185.905319 4.28555137 184.370161 4.69121501 190.319894 11.1897874 195.406597 18.3604888 199.618339 26.0999147 200.183086 27.1379364 201.73813 27.8736988 202.895464 27.4322414 218.469764 21.5501186 235.953068 21.6296605 251.523391 27.4123559 251.813718 25.2567707 252.108023 23.0972084 252.398351 20.9416231 241 21.3870577 229.10849 26.8237459 221.78666 35.6767583 219.591304 38.3334574 223.08717 42.0242011 225.636487 39.5265857 233.029904 32.2763425 242.002228 28.0407368 252.398351 27.5316687 256.192499 27.3447453 256.7652 22.3176978 253.273312 21.060936 236.466113 15.003821 217.956719 15.3577825 201.352352 21.8364694 202.446053 22.281904 203.539753 22.7273386 204.629477 23.1687961 200.107522 15.0714317 194.603224 7.56267723 188.267713.793662394 186.879707-.689793854 184.123581.0141518722 183.662239 2.01065331 182.4015 7.45529568 181.610058 12.9755028 181.279959 18.5513893 180.969746 23.8369479 180.766914 29.8503148 182.405477 34.9409958 182.799209 36.169918 184.930931 36.4403604 185.173534 34.9409958L185.173534 34.9409958ZM234.298597 45.2337138C243.553295 45.1263348 252.720496 50.9289157 259.847448 56.3457184 266.723843 61.5755976 272.351431 68.3008644 275.791617 76.2510764 277.096104 74.9465894 278.404568 73.6381253 279.709055 72.3336383 275.91093 70.6950753 272.025309 69.3508174 267.988559 68.4321086 264.174526 67.565102 259.628708 66.4833323 255.719225 66.9406981 252.951167 67.2668199 251.750085 71.5581048 254.999371 72.2501193 258.65432 73.0296298 262.440513 73.0296298 266.115348 73.8528884 269.770297 74.6761469 273.369567 75.813596 276.817707 77.2731896 279.514177 78.4146158 281.940204 76.0919926 280.735145 73.3557516 276.809753 64.4430828 270.183915 57.1093205 262.400742 51.3663961 258.519099 48.502888 254.287471 46.1524252 249.856988 44.251374 244.770285 42.063972 239.341552 40.7833476 233.940659 42.5969027 232.552653 43.0622227 232.723668 45.2536018 234.298597 45.2337138L234.298597 45.2337138ZM260.535485 82.8053281C267.061896 93.7343838 270.871952 106.079285 271.953722 118.754285 273.14685 132.697979 271.396928 146.745076 268.585123 160.398442 266.914744 168.511715 264.874495 176.537491 262.830268 184.563268 264.52451 184.340551 266.214775 184.12181 267.909017 183.899093 264.035328 176.99088 258.562847 171.196253 251.944963 166.853266 249.662111 165.353902 246.599748 168.360585 248.142861 170.655369 254.705066 180.387319 253.034686 192.998685 250.99046 203.891947 248.600227 216.606718 244.702675 229.039116 239.345529 240.81927 241.039771 241.041987 242.730036 241.260727 244.424278 241.483444 242.288579 233.07189 240.296055 224.604655 237.953546 216.24878 237.006998 212.864272 231.924272 214.284095 232.703783 217.696442 234.63665 226.159699 236.927456 234.551369 239.063156 242.962924 239.611995 245.126463 243.127745 245.854271 244.141904 243.627098 249.904713 230.952098 254.164181 217.64474 256.610094 203.931718 258.737839 191.996458 260.090051 178.462405 252.939236 167.855494 251.670543 169.124187 250.405827 170.388903 249.137134 171.657596 254.967554 175.487538 259.700295 180.633899 263.108665 186.710899 264.265999 188.778988 267.598804 188.353439 268.187414 186.046724 275.274595 158.21104 282.441318 128.708953 273.524674 100.396017 271.28557 93.2849721 267.849361 86.5795908 263.283657 80.6895138 262.054735 79.0907218 259.537235 81.1309713 260.535485 82.8053281L260.535485 82.8053281ZM193.258966 90.9106467C191.998227 93.5355291 194.491865 96.9160594 196.30542 98.7892709 198.520661 101.0761 201.447802 102.547625 204.609592 101.382337 210.873515 99.0756217 211.756429 90.6919065 211.171797 85.0165926 210.845675 81.8388941 206.124864 81.6837874 206.101002 85.0165926 206.077139 88.5482526 206.900398 93.702567 203.734631 96.267793 200.079682 99.2267513 197.904212 91.3719896 195.573635 90.3021512 194.794124 89.9481898 193.684515 90.0277317 193.258966 90.9106467L193.258966 90.9106467Z"/><path d="M192.045952,120.436596 C191.023839,118.686675 190.232398,116.81744 189.13472,115.127175 C188.021133,113.40907 186.943341,111.663126 185.885434,109.913204 C183.869047,106.576422 181.991859,103.072602 180.643624,99.4096976 C177.803979,91.7020885 177.887498,83.7876704 181.733348,76.4300456 C188.05295,64.3396783 202.163679,55.0213459 216.131233,58.4217617 C222.339476,59.9330576 228.169896,63.6993661 231.618036,69.1479856 C236.024656,76.107901 234.827551,84.6785396 236.808143,92.4020571 C238.935889,100.702253 242.622655,108.533152 243.47773,117.147539 C244.241332,124.835263 243.123768,132.662185 238.800667,139.196551 C234.26678,146.045108 226.241005,150.034134 218.012398,148.598402 C214.071098,147.910365 210.447965,146.080902 207.576504,143.292958 C204.74879,140.548763 203.102273,137.080737 201.404054,133.584871 C200.322285,131.357698 196.341214,132.355948 196.611656,134.881403 C197.490594,143.217394 204.510164,150.18924 212.082551,153.136267 C220.183891,156.290103 229.824367,154.997547 236.796212,149.81937 C243.513524,144.832094 247.753106,137.013126 249.061569,128.812357 C250.672292,118.726446 248.389441,108.950747 245.175949,99.4295831 C243.644768,94.8956954 242.045976,90.3180596 241.441458,85.5495233 C240.844894,80.8128037 240.87671,75.940863 239.218262,71.4029982 C236.521793,64.029465 230.635694,58.055869 223.504765,54.8463538 C207.970236,47.8585987 190.62613,54.6077281 180.671464,67.6724835 C174.415495,75.8812066 171.607667,86.0029121 173.993923,96.1564343 C175.163189,101.127802 177.382407,105.828728 180.055014,110.159784 C181.37541,112.299461 182.795232,114.36755 184.318459,116.364051 C185.960999,118.511683 187.826256,120.297398 189.679581,122.262083 C190.860778,123.522822 192.908982,121.908121 192.045952,120.436596 L192.045952,120.436596 Z"/><path d="M224.594488 83.2189459C224.908679 87.34717 227.036424 91.9924164 231.085105 93.6270022 234.398025 94.9672831 238.764874 94.1281161 240.415367 90.6879294 241.751671 87.8999861 237.55186 85.4620272 236.263282 88.2619017 235.515588 89.8845563 233.427614 89.8089915 232.075402 88.902214 229.943679 87.474437 229.32723 84.3762804 228.201712 82.2405807 227.330729 80.5980406 224.451313 81.2980093 224.594488 83.2189459L224.594488 83.2189459ZM222.335499 122.218335C224.924587 122.985914 228.408521 122.437075 231.017495 121.943915 232.512882 121.661541 233.36398 119.859918 232.982179 118.479866 232.536745 116.865165 231.029426 116.292464 229.51813 116.515181 227.104034 116.865165 223.914405 117.481615 221.901996 118.913369 220.661142 119.796284 220.76057 121.749037 222.335499 122.218335L222.335499 122.218335ZM132.739529 252.380683C131.268004 255.458955 132.608285 259.917277 133.029857 263.190426 133.526994 267.068093 134.143443 270.933829 134.716145 274.799565 135.837685 282.34809 137.03479 289.888662 138.227919 297.425256 139.41707 304.96185 140.610198 312.498444 141.799349 320.035038 142.415798 323.932591 143.032248 327.830143 143.648697 331.731673 143.935048 333.549205 144.225376 335.370714 144.511727 337.188247 144.833871 339.224519 144.873642 340.93467 146.707083 342.147683 147.391143 342.601072 148.679721 342.509599 149.216629 341.825539 150.588726 340.075617 150.214879 338.608069 149.880804 336.520095 149.590476 334.702562 149.300148 332.881053 149.00982 331.063521 148.389393 327.165968 147.768967 323.268416 147.14854 319.370863 145.947458 311.838246 144.746375 304.301652 143.54927 296.769035 142.348188 289.236418 141.163014 281.703801 139.894321 274.183115 139.2381 270.297494 138.629605 266.399942 137.89782 262.530229 137.289324 259.300828 137.201828 254.568085 134.851366 252.106264 134.286619 251.521631 133.113376 251.601173 132.739529 252.380683L132.739529 252.380683ZM219.869701 249.879091C218.736229 252.774416 218.290795 255.995862 217.674345 259.03834 217.049941 262.124565 216.433492 265.21079 215.856813 268.30497 214.727318 274.370039 213.577938 280.431131 212.408673 286.492223 210.042302 298.741674 207.667977 310.991125 205.194225 323.216714 204.880034 324.763803 205.631705 326.131924 207.143 326.648946 210.805904 327.901731 213.816564 330.554453 215.761363 333.883281 216.727797 335.533775 217.391971 337.295628 217.781726 339.16884 218.195344 341.165341 217.928879 343.177751 218.274886 345.178229 218.632825 347.234387 222.0054 347.703684 222.876384 345.778771 224.964358 341.165341 222.96388 334.92528 220.462288 330.812964 217.730024 326.322824 213.601801 322.96218 208.626456 321.271914 209.274723 322.417318 209.922989 323.558744 210.575232 324.704147 213.048985 312.335383 215.455127 299.958665 217.686276 287.542176 218.799863 281.333931 219.893563 275.12171 220.967379 268.901534 221.480424 265.918713 221.929835 262.923961 222.379247 259.929209 222.844567 256.803212 223.532604 253.534041 223.425223 250.364297 223.349658 248.22462 220.597509 248.025765 219.869701 249.879091L219.869701 249.879091ZM182.656034 255.62997C181.506654 258.179287 181.104967 260.772353 180.60783 263.512571 180.090808 266.356193 179.613557 269.199816 179.160168 272.051393 178.253391 277.762501 177.330705 283.469631 176.50347 289.19267 174.848999 300.654656 173.194528 312.116643 171.571873 323.578629 171.408812 324.720055 171.663346 326.024542 172.804772 326.609175 178.845978 329.715286 182.723644 336.615545 181.621989 343.440239 181.387341 344.90381 181.999813 346.351472 183.52304 346.788953 184.815596 347.158822 186.641082 346.335564 186.871753 344.887901 188.319415 335.724676 183.888933 326.243282 175.513173 321.971883 175.922814 322.982065 176.336432 323.992247 176.746072 325.002429 178.356795 313.39329 179.935702 301.776197 181.514608 290.163081 182.290141 284.467882 182.970224 278.760751 183.666216 273.053621 184.0162 270.186135 184.346299 267.322627 184.632649 264.451165 184.922977 261.551863 185.28887 258.811645 184.867298 255.91632 184.7281 254.914093 183.069652 254.715238 182.656034 255.62997L182.656034 255.62997ZM114.090936 161.384761C111.780245 169.434401 109.318424 177.33291 105.890169 184.988817 102.434074 192.70438 98.3893697 200.093822 94.0742229 207.359974 85.2291662 222.25817 75.1353021 236.404695 67.0737329 251.764234 59.0439804 267.064116 52.712447 283.763936 52.3028064 301.231335 52.1039517 309.714478 53.177767 318.479994 56.7730598 326.235328 60.0104142 333.219106 65.7931086 338.671703 72.7052977 341.964737 91.1192422 350.738208 111.251291 345.110619 130.69928 345.937854 134.970679 346.120801 134.962725 339.479053 130.69928 339.300084 113.816517 338.604092 96.325258 343.340812 79.8759979 337.824582 73.4450372 335.668996 67.5430299 331.775421 63.9914851 325.885344 59.8871243 319.080535 58.813309 310.776362 58.8053548 302.961371 58.7655838 268.89358 81.6537588 240.445423 98.3774384 212.673372 103.102226 204.826564 107.433281 196.749086 110.996757 188.305714 114.512508 179.981655 117.26068 170.937742 117.678275 161.869967 117.777702 159.781992 114.651706 159.435985 114.090936 161.384761L114.090936 161.384761ZM57.500868 337.391078C53.3646904 337.836513 49.4949781 338.40126 45.3070983 338.047299 41.1351269 337.693338 37.0665599 336.651339 32.9343594 336.026935 25.2983393 334.8696 16.683954 334.626998 10.0859553 339.3319 4.27144417 343.476033 1.07783782 351.183642 4.1203146 357.968565 4.70494739 359.273052 6.28783074 360.951386 4.97141268 362.120652 3.6669259 363.277986 2.314714 364.109199 1.36816567 365.636404-.254488614 368.253332-.345961772 371.669656.632403311 374.529187 3.6072695 383.239024 13.1085467 384.595213 21.134322 384.288977 22.9518539 384.221366 24.7455232 382.39588 24.0455547 380.466989 23.083098 377.806313 22.1206413 375.145636 21.1542075 372.480983 20.2235675 369.91178 19.523599 367.143722 17.487327 365.210854 16.0237564 363.818871 14.0511179 364.944389 13.8284006 366.726127 13.4903477 369.406689 14.6993842 371.940098 15.5624136 374.421805 16.4493055 376.971123 17.3361974 379.52044 18.2230893 382.069758 19.1935002 380.797088 20.1639111 379.52044 21.134322 378.24777 15.9879626 378.430717 8.16899612 378.530144 6.33157877 372.433258 5.63558735 370.122566 6.39918937 368.662972 8.22069834 367.255081 11.1995416 364.95632 12.4682346 361.953614 10.9967098 358.302641 9.83539844 355.419248 8.45534688 353.339227 9.35814718 350.141643 10.1376576 347.385517 12.0228 345.154367 14.4687127 343.714659 20.4661702 340.186976 27.8158396 341.256814 34.3462277 342.211317 38.4386573 342.811858 42.5469952 343.511827 46.6951041 343.567506 50.5608393 343.619208 55.2219932 343.106163 58.4036683 340.727861 59.6405445 339.805175 59.4814607 337.180292 57.500868 337.391078L57.500868 337.391078Z"/><path d="M20.6928646,357.908909 C20.0445983,356.516926 18.9190807,355.801049 19.2770192,354.067036 C19.6309805,352.344954 21.4485124,351.489878 23.0512812,351.287047 C25.4494688,350.984787 27.8118626,351.891565 29.9992642,352.750617 C32.5843752,353.760799 35.1098297,354.798821 37.8222077,355.431179 C42.9367504,356.628284 48.1626517,356.775437 53.3448049,355.980018 C57.1906547,355.387431 64.1585231,353.888066 65.2283613,349.39395 C65.5902769,347.878677 64.1346605,345.906038 62.4324644,346.598052 C61.0842295,347.142914 60.1893834,348.117302 58.9445531,348.833179 C57.8906232,349.437698 56.7491973,349.827453 55.5839088,350.14562 C52.668699,350.941039 49.6421306,351.251253 46.6235164,351.223413 C43.5293374,351.195573 40.4749293,350.781956 37.4921089,349.962674 C34.4615634,349.127484 31.645781,347.683799 28.6231897,346.836678 C24.0097609,345.544122 17.6464107,345.997511 15.2522002,350.869452 C14.2698581,352.865953 14.2459955,355.280049 15.2482231,357.272574 C16.0555732,358.871366 17.9367386,360.700829 19.8855145,359.913365 C20.7405897,359.559403 21.0945511,358.775915 20.6928646,357.908909 L20.6928646,357.908909 Z"/></g></svg>