<svg xmlns="http://www.w3.org/2000/svg" width="353" height="382" viewBox="0 0 353 382"><g transform="translate(.743 .4)"><path d="M164.769161 58.0957194C172.739257 53.9317015 178.517974 46.379199 184.237035 39.6579093 189.940187 32.9565051 195.76663 26.5016807 202.786201 21.1246489 216.017992 10.9949893 232.72974 4.2379057 249.608526 6.51280375 264.47888 8.51725938 278.923685 17.1515315 284.865463 31.3815757 288.476664 40.0357333 288.981755 49.7995003 288.138611 59.0382908 287.327284 67.9191428 284.905234 76.8119261 281.226422 84.929176 277.034565 94.1838749 271.251871 103.044841 263.763003 109.968963 256.146868 117.012397 246.669454 120.587805 236.35685 118.122007 233.206991 117.366359 230.979819 121.940017 234.073998 123.538809 243.47187 128.390865 255.049191 125.348387 263.35734 119.585578 271.438794 113.977874 277.826007 105.888464 282.853054 97.5206572 293.086116 80.4907386 298.129071 59.2689623 294.414465 39.5545049 292.648636 30.1844702 288.329512 21.4348623 281.453117 14.7692519 275.435774 8.9348543 267.867364 4.76685927 259.865451 2.36071709 242.425895-2.88507055 223.94434.992596585 208.560941 10.22741 199.413625 15.7158004 191.296376 22.9103644 184.384187 31.0117059 180.820711 35.1876551 177.607219 39.6420009 174.095446 43.853744 170.615489 48.0296932 166.769639 51.8039559 162.64937 55.3395929 161.07444 56.6918051 163.074919 58.9826115 164.769161 58.0957194L164.769161 58.0957194ZM136.969275 86.2058234C138.003319 82.0378283 136.905641 78.1044819 137.036885 73.9166013 137.132336 70.9218492 138.707265 68.0344786 140.771376 65.9266185 144.641089 61.9813408 150.89308 60.1359689 156.083188 62.4864318 158.859199 63.7431936 161.289203 59.6308779 158.493307 58.3661619 151.732247 55.3077762 144.06441 56.7514615 138.476593 61.5438604 135.780124 63.8545523 133.747829 67.0083882 132.789349 70.4326666 131.445091 75.2409738 133.552951 80.1407542 132.3638 84.9371302 131.628038 87.915974 136.229535 89.1886442 136.969275 86.2058234L136.969275 86.2058234ZM61.2016601 170.321372C56.7791318 165.373866 54.0070974 159.265049 53.3787166 152.643187 52.7741983 146.291767 53.7724489 139.940347 55.387149 133.807667 57.125139 127.209668 59.5630975 120.822454 62.0646895 114.482965 63.2220238 111.543892 64.4032207 108.612774 65.5287382 105.66177 66.6980038 102.59543 67.8394297 99.572838 68.0144219 96.2559412 68.3922458 89.0772856 62.5856888 82.614507 55.1167066 84.1655739 48.3278074 85.5774424 44.2512862 91.9726104 41.0656341 97.552474 37.5538602 103.705039 33.7318731 110.048505 27.2253475 113.429035 24.1868479 115.007942 20.5597383 115.751658 17.1712543 115.091461 14.2719529 114.526713 11.5516208 112.625662 9.45171521 110.183726 4.98941593 104.989641 4.42466861 97.6121304 5.09282037 91.0857183 5.84051401 83.8036583 9.44376102 76.5931859 15.3696308 72.1786111 14.2003652 71.2797877 13.0310997 70.3809643 11.8658112 69.482141 11.7464984 69.9156443 11.3686744 70.7627654 11.3567432 71.2280855 11.3408348 71.8485122 10.7919958 71.4826195 12.0129636 70.7508341 12.9754203 70.8741241 13.9418541 71.0013911 14.9043109 71.124681 14.9599902 71.1843374 15.7514318 72.7473356 15.5287146 72.7950607 15.5724626 72.7871065 15.6599587 72.2342904 15.6838212 72.1786111 15.8906301 71.6536346 15.6480274 71.9996418 15.8548363 71.8047642 14.5264869 71.0292307 13.1941605 70.2576744 11.8658112 69.482141 10.4300803 78.0169858 7.2006801 87.4586081 11.0067589 95.8343691 11.8737654 97.7473516 13.2180231 99.8711201 14.9043109 101.17163 16.7457053 102.587476 19.4938771 102.889735 21.7290039 102.480094 26.1913031 101.668767 29.5042223 97.974046 31.8904786 94.3668213 38.309508 84.6627107 44.5654766 74.9904169 51.7918561 65.8430995 53.3906479 63.8187584 55.0729585 61.5120436 57.1410473 59.9212058 58.9585792 58.5212685 61.0823473 56.8787285 63.3691763 56.1350118 68.145666 54.5799679 73.2562315 55.6736689 77.4361572 58.2945742 86.1698552 63.7710333 90.313987 73.4035562 91.204856 83.370155 92.2190149 94.7486223 89.2878968 105.78506 86.1817865 116.622642 83.0478366 127.559652 79.0110863 139.061409 82.0654944 150.487602 84.3284608 158.954836 91.5627944 168.297031 101.42201 166.781758 104.094617 166.372117 106.289973 165.043768 108.139322 163.126808 110.155708 161.034856 111.985171 158.978699 113.293635 156.321999 114.848679 153.168163 115.787273 149.652412 116.928699 146.331538 118.038308 143.110091 119.139963 139.884668 120.237641 136.655267 124.85107 123.085421 129.384957 109.487735 133.91089 95.8860714 134.8813 92.966884 130.275826 91.7140992 129.309392 94.6173782 125.523199 105.987891 121.737005 117.358405 117.89911 128.709032 115.970219 134.412186 114.029398 140.115339 112.072667 145.806562 111.114188 148.590528 110.362517 151.61312 109.010305 154.230048 107.793314 156.584488 106.162706 158.441791 104.305403 160.279208 101.27088 163.281915 96.7966499 162.231962 93.6229291 160.092285 89.6856062 157.439563 87.5896777 153.044874 86.5039311 148.54678 83.914843 137.808625 88.2697608 126.748325 91.1809934 116.523215 96.3989405 98.2007404 100.86124 74.7398599 86.2096262 59.3524813 79.631513 52.4442681 69.629122 48.2365022 60.3704475 52.1976883 58.2347481 53.11242 56.3973308 54.544174 54.5241196 55.8446839 52.3526264 57.3559798 50.5032777 59.8416639 48.8726693 61.8978218 45.5279334 66.1135419 42.2746706 70.4048269 39.1526519 74.787585 35.5613362 79.8305409 32.1410355 84.9928095 28.855956 90.2385972 27.5236296 92.3623656 26.1555093 94.4940883 24.1908249 96.1008345 22.5880561 97.4132757 19.871701 98.7018543 17.8592916 97.3894131 16.1093703 96.2440099 15.0156695 93.4322041 14.530464 91.5231987 13.9657167 89.2960258 13.9458312 86.9773797 14.104915 84.6945274 14.4350138 79.9816705 15.6917754 75.3921034 16.4752629 70.746857 16.8570639 68.471959 14.3276322 66.6822665 12.4862378 68.4242338 11.0703924 69.7645147 10.0283938 72.8984652 11.5396895 74.4932801 12.2555664 75.2529051 13.5441448 75.4000576 14.4310367 74.8671269 15.7752944 74.0597768 16.097439 72.1269088 16.4752629 70.746857 16.9763767 68.9054623 14.7134103 66.7538542 12.9714433 68.050387 2.06625197 76.1676368-2.3363909 91.2368479 1.19526842 104.249901 2.91337295 110.585413 7.06148182 115.771544 12.8998556 118.758342 16.0735764 120.384973 20.2972501 120.333271 23.7016424 119.673074 27.3923855 118.961174 30.7490527 117.167504 33.688125 114.864766 39.5304759 110.287131 43.0024788 103.732879 46.6454967 97.429184 48.2959907 94.5776073 50.5350945 91.5908093 53.4224646 89.9005441 56.5444833 88.0710807 60.6687296 88.3057293 62.4822844 91.8493205 64.0532364 94.9196374 63.0669171 98.646175 61.9771934 101.700584 60.855653 104.838511 59.5710517 107.924736 58.3421297 111.022893 55.8007667 117.437946 53.2594038 123.868908 51.3583529 130.510656 49.2902641 137.729083 47.8823729 145.392944 48.649952 152.917607 49.4493479 160.768391 52.5832978 167.811825 57.8410159 173.693948 59.8772879 175.988732 63.2419093 172.604224 61.2016601 170.321372L61.2016601 170.321372Z"/><path d="M83.3978208,207.340168 C70.4484033,205.22833 56.9700323,209.885508 48.4868912,220.023122 C43.9927751,225.3922 40.6201996,232.356092 41.3400535,239.526793 C42.1155868,247.258265 47.0034352,253.792631 50.7975827,260.319044 C58.5449615,273.634356 65.0713724,288.417216 59.9409214,303.876182 C58.5489386,308.06804 56.5922084,312.180356 52.9611217,314.880803 C49.1948139,317.680677 43.6865389,320.043072 38.9657285,320.090797 C33.3103011,320.146476 27.7821407,317.696586 22.9459946,314.972276 C20.973356,313.85869 19.0563968,312.645676 17.199094,311.345166 C16.5905986,310.91564 15.9980117,310.466228 15.3934934,310.028748 C14.9082879,309.678763 15.9900575,310.509976 15.3059973,309.95716 C14.8327232,311.746852 14.359449,313.536545 13.8901519,315.326238 C13.8981061,315.326238 13.9020832,315.326238 13.9100374,315.32226 C13.341313,315.32226 12.7725886,315.32226 12.2038641,315.32226 C13.5680073,315.584749 14.9440818,316.352328 16.2565228,316.80174 C18.7382293,317.648861 21.2795923,318.332921 23.8766345,318.706768 C26.8475236,319.132317 30.0172674,319.287424 32.8728208,318.189746 C36.1221064,316.940938 38.603813,314.240491 40.5366806,311.424708 C44.8836442,305.085219 46.021093,296.789 45.1540865,289.292177 C44.1637902,280.741424 40.7116727,272.73951 35.2471458,266.093785 C30.0530613,259.778159 22.9698571,255.085187 18.8018628,247.934371 C14.9401047,241.312509 13.6912972,233.525358 14.3952428,225.95297 C15.8508592,210.346851 26.6844628,196.788936 39.0770872,187.987626 C46.446642,182.753769 54.9178519,178.808492 63.9458549,177.61934 C68.7462071,176.986982 73.6221242,177.281287 78.446339,177.130158 C83.5052023,176.971074 88.2458982,176.139861 92.8036477,173.857009 C95.6074989,172.453095 93.6507687,167.688535 90.6480629,168.746443 C82.4353641,171.63779 73.5147426,169.99525 65.011716,170.758852 C56.6995899,171.506546 48.7175626,174.179154 41.4355038,178.219882 C27.4520419,185.975216 15.4531498,198.689987 10.0124854,213.858626 C4.52409595,229.162485 7.12113823,246.598067 18.2291613,258.696389 C23.8328865,264.801229 30.4428165,269.716918 34.3522997,277.20181 C37.8322568,283.859466 39.5304759,292.068189 38.094745,299.517287 C37.3669368,303.29155 35.9312059,307.037973 33.262576,309.877618 C31.0990369,312.180356 29.2298028,312.617836 26.1077842,312.403073 C23.216437,312.208195 20.3529294,311.361074 17.6166888,310.442365 C15.8269966,309.841824 14.104915,308.843574 12.1760245,309.125947 C9.88919553,309.464 8.96650976,313.071225 10.7601791,314.495025 C17.0121706,319.454462 24.5408092,323.721884 32.3637528,325.471806 C38.2896226,326.796178 43.4996155,325.988828 49.0595927,323.701999 C53.8917617,321.713451 58.1671375,319.024935 61.2573395,314.73365 C64.542419,310.1759 66.4792637,304.055152 67.2866137,298.558807 C68.4558793,290.604618 67.0559423,282.475437 64.2719766,274.990545 C61.4880109,267.501676 57.4711461,260.59744 53.3150831,253.804563 C49.4095769,247.425303 45.0347737,240.894914 47.1068396,233.0839 C51.064048,218.173773 68.4280396,209.288944 82.9881801,210.342874 C84.6863992,210.466164 85.1039941,207.618564 83.3978208,207.340168 L83.3978208,207.340168 Z"/><path d="M98.8408762,183.366242 C98.0414803,184.941171 98.0534116,186.627459 97.8863736,188.357496 C97.7034273,190.266501 97.3375347,192.163575 96.9040315,194.032809 C96.0012312,197.9065 94.5655003,201.660877 92.8792125,205.25617 C89.6020872,212.239948 85.4102303,218.754429 81.9859525,225.666619 C78.8162087,232.069741 76.2151894,238.787054 75.777709,245.981618 C75.3680684,252.690976 76.6327842,259.54351 78.871888,265.855159 C81.4371136,273.093471 85.2233069,279.743173 90.1151323,285.657113 C91.204856,286.977508 93.4678224,286.786607 94.597317,285.657113 C95.909758,284.344671 95.6830637,282.507254 94.597317,281.174927 C86.7425567,271.526496 81.3655259,258.565145 82.1012882,245.981618 C82.4950205,239.240443 85.3028488,232.869137 88.3493026,226.939289 C91.7855117,220.249816 95.6671553,213.822832 98.5704338,206.862916 C100.201042,202.95741 101.489621,198.924636 102.141864,194.736755 C102.698657,191.177256 103.382717,186.110437 101.008392,183.087845 C100.467508,182.403785 99.2107459,182.638434 98.8408762,183.366242 L98.8408762,183.366242 Z"/><path d="M173.005722,194.852091 C165.82309,225.92513 143.646815,249.22295 126.939044,275.360415 C122.775027,281.874896 118.949063,288.635956 115.910563,295.758933 C112.887972,302.850092 110.720455,310.673037 112.31527,318.396554 C115.031625,331.55676 128.319096,335.645213 138.253876,342.084129 C144.135998,345.898163 148.367626,351.493935 148.327855,358.772018 C148.288084,365.934765 143.614999,372.60833 136.917573,375.157647 C138.241945,376.48202 139.566317,377.806392 140.890689,379.130765 C140.950346,378.83646 141.010002,378.538178 141.069658,378.243873 C140.791262,378.717147 140.516842,379.194398 140.238446,379.667672 C144.688814,374.541198 145.591614,367.640939 143.678632,361.229862 C141.634406,354.373351 136.802237,349.203128 130.936023,345.321484 C125.034016,341.412 118.328636,339.009835 111.989148,335.935541 C106.031462,333.048171 99.8987831,329.484694 96.3711009,323.674159 C92.4377551,317.203426 92.0678854,309.086176 92.4974115,301.720597 C92.9627315,293.7505 94.8955991,285.923578 97.4608246,278.386984 C102.766268,262.812682 110.573303,248.013913 119.124055,233.998632 C128.060585,219.350993 138.265807,201.975067 132.614357,184.221317 C131.520656,180.785108 126.223167,182.200953 127.185624,185.716705 C131.512702,201.553495 122.52447,216.280676 114.526534,229.226119 C105.912149,243.161858 98.2045411,257.829382 92.4974115,273.212784 C87.180037,287.55021 83.2586225,304.65967 87.7089905,319.756721 C89.7890106,326.808109 94.2194931,332.340248 100.161271,336.555968 C105.824653,340.572833 112.331178,343.066472 118.587147,345.969751 C125.407863,349.135518 132.757532,353.005231 136.297146,359.996963 C137.756739,362.876379 138.524318,366.312589 138.106724,369.538013 C137.927754,370.929996 137.478343,372.318002 136.778374,373.531016 C135.998864,374.879251 134.976751,375.83773 134.658583,377.404706 C134.217126,379.584153 136.146016,382.320394 138.6317,381.377823 C145.349011,378.824528 150.614684,373.769641 153.251497,367.060283 C155.924104,360.251497 155.033235,352.150156 151.26295,345.926003 C147.985825,340.517154 142.632656,336.941746 137.211877,333.93904 C132.156991,331.139165 126.585083,328.689275 122.560264,324.413898 C117.612759,319.160157 117.580942,311.91389 119.36268,305.299982 C121.390998,297.771342 125.26071,290.715977 129.194056,284.030481 C137.378915,270.118604 147.484711,257.491329 156.500783,244.132269 C166.415677,229.436905 175.141421,213.270016 177.1419,195.404907 C177.408365,193.04649 173.534675,192.565262 173.005722,194.852091 L173.005722,194.852091 Z"/><path d="M124.163033 306.588561C125.944771 307.837369 128.128195 308.620856 130.112765 309.515702 131.966091 310.354869 133.791577 311.253693 135.569338 312.247966 139.391325 314.383666 143.086045 316.80174 146.462598 319.589683 153.175932 325.125798 158.727955 331.855042 162.915835 339.479132 164.327703 342.052313 167.883225 340.198987 167.405974 337.586035 165.477083 327.006964 162.804476 316.384145 157.77743 306.803324 155.283792 302.050696 152.014621 297.96622 148.725564 293.758454 145.388782 289.487055 142.314489 284.774198 138.472616 280.940278 136.706787 279.174449 133.580791 281.461278 134.960842 283.652657 140.532751 292.497715 148.463076 299.70421 153.398649 308.986749 158.326269 318.253379 160.807975 328.629619 162.669255 338.8945 164.164642 338.262142 165.664007 337.633761 167.159394 337.001403 162.705049 328.864267 156.608164 321.625955 149.361899 315.831329 145.77456 312.963843 141.972459 310.390663 137.872075 308.310643 134.014294 306.349935 129.305415 303.892091 124.886864 303.915953 123.387499 303.923908 123.041492 305.801096 124.163033 306.588561L124.163033 306.588561ZM183.755807 187.669458C197.079071 192.863544 207.976308 204.110767 210.947197 218.297063 212.518149 225.789909 211.790341 233.744098 209.070009 240.882983 206.305929 248.145157 201.028325 253.983532 195.786515 259.559418 190.560614 265.115419 185.330736 270.667443 181.480909 277.305214 177.837891 283.585046 175.213009 290.56087 173.984087 297.71964 171.518289 312.100814 174.509063 326.867766 184.062043 338.138852 194.378624 350.308761 210.589259 356.668135 226.322642 356.887157 229.548065 356.930623 230.359392 351.867782 227.098175 351.163836 220.647329 349.771853 215.588466 345.281713 211.702845 340.127399 207.471217 334.519696 203.760589 327.718864 203.342994 320.564071 202.587346 307.594766 213.019263 298.328136 221.74103 290.31429 226.597061 285.85199 231.349688 281.341965 235.442118 276.151857 239.733402 270.711191 243.432099 264.841 246.347309 258.549236 252.173752 245.985595 255.041236 232.077695 253.939581 218.225475 252.702705 202.722761 246.951828 187.482535 236.686948 175.694427 234.416028 173.085453 230.860506 176.827899 232.944503 179.436873 250.694273 201.684739 253.056667 232.431657 240.473142 257.718024 237.367031 263.958085 233.505273 269.832254 228.943547 275.109858 224.699988 280.02157 219.812139 284.277061 215.067466 288.687659 205.848563 297.258297 196.486484 307.714079 197.619956 321.2362 198.307993 329.436969 202.145888 337.076967 207.069531 343.5477 211.746593 349.692311 217.807684 355.097183 225.547109 356.775516 225.80562 354.866511 226.064131 352.961483 226.322642 351.052477 212.597691 350.845669 198.741496 345.504431 189.37544 335.279321 179.886094 324.926944 177.23735 310.382709 180.172445 296.900359 181.707603 289.856924 184.567134 283.187337 188.564113 277.193855 192.819603 270.814596 198.506848 265.584717 203.593551 259.897471 208.779681 254.098868 213.226072 247.783242 215.608351 240.302327 217.998584 232.805504 218.328683 224.728025 216.678189 217.044278 214.960085 209.030433 210.855724 201.740419 205.073029 195.953746 199.353969 190.234684 192.473596 186.388834 184.507477 184.925263 182.701877 184.603118 182.061565 187.005283 183.755807 187.669458L183.755807 187.669458ZM252.261248 261.631485C252.563507 263.254139 252.96917 264.323978 254.062871 265.584717 255.088962 266.769891 256.142891 267.927225 257.224661 269.060697 259.384223 271.327641 261.651166 273.49118 264.01356 275.543361 268.809935 279.715333 273.988111 283.517436 279.468547 286.750814 290.345898 293.169844 302.40047 297.723617 314.828888 299.986584 321.840504 301.263231 328.963479 301.847864 336.086454 301.680826 339.041435 301.613216 339.566412 297.481015 336.774492 296.586168 330.116837 294.454446 323.793257 290.425649 318.201464 286.297425 311.798342 281.572637 306.075304 275.917208 300.964739 269.832254 290.365784 257.201001 282.94055 242.59711 276.561291 227.492105 272.643854 218.221498 268.567332 209.074181 262.207959 201.179648 260.068283 198.522949 256.353677 202.289258 258.465514 204.922094 264.180598 212.053025 267.891227 220.556053 271.438794 228.903974 274.779553 236.76669 278.195877 244.553841 282.399665 252.002939 290.409532 266.197189 300.694296 279.341486 313.647691 289.339902 320.138308 294.351041 327.531726 299.071852 335.39444 301.577422 335.625112 299.879203 335.855783 298.180983 336.082477 296.482764 311.861976 297.083305 287.665337 288.596185 268.909363 273.276417 266.320274 271.16458 263.838568 268.921499 261.472197 266.563082 260.215435 265.310297 258.994468 264.021718 257.805317 262.7053 256.580372 261.341157 255.522465 260.708799 253.836177 260.032693 252.845881 259.650892 252.102164 260.780386 252.261248 261.631485L252.261248 261.631485ZM252.193637 184.296882C263.420973 186.583711 275.3443 183.421921 284.356395 176.430189 286.655155 174.648451 288.755061 172.655927 290.584524 170.388983 292.549208 167.955001 294.215611 165.28637 296.251883 162.912045 298.960284 159.754232 305.824748 154.910131 309.113804 160.136033 311.901747 164.570493 308.85927 171.470752 306.994013 175.670564 304.496398 181.290199 301.370402 186.607574 298.972215 192.274934 296.578004 197.930362 294.95535 203.9835 295.480326 210.175836 295.98144 216.081821 297.99385 221.868494 301.473807 226.688732 309.702414 238.079131 324.807416 242.887438 338.138635 238.361505 340.477166 237.566086 341.240768 234.173624 338.858489 232.869137 333.867236 230.136873 327.499909 226.175687 326.63688 220.09471 325.018202 208.69238 334.630838 199.238826 340.560685 190.688073 346.955852 181.469168 351.791998 170.647494 352.042555 159.276981 352.269249 149.067779 348.431354 139.045501 341.81347 131.321983 334.86151 123.208711 324.783554 118.380518 314.240278 117.247046 304.639574 116.216978 295.237724 118.92538 286.834124 123.439382 271.363229 131.747532 259.16946 146.037233 242.37817 151.931287 237.490321 153.645415 231.930344 154.906154 226.776031 153.705071 222.313731 152.663072 218.495721 149.433672 218.794003 144.502075 219.14001 138.862555 225.897093 139.260264 229.731011 137.164335 233.724013 134.98091 236.806261 128.665284 232.670084 125.117716 230.383255 123.157008 227.110106 126.310844 229.321371 128.46643 230.442911 129.560131 228.840142 131.393571 227.873708 132.049792 225.769826 133.473591 222.691555 133.481546 220.333139 134.372415 215.874816 136.058703 213.158461 139.749447 212.876088 144.502075 212.605645 149.071756 214.872589 153.605644 218.475836 156.333931 222.52054 159.396293 227.802121 160.350796 232.781442 160.032629 251.418104 158.843477 265.6561 144.840128 280.14863 134.706491 287.311376 129.699329 294.995121 125.225098 303.689048 123.610397 313.711325 121.74514 324.692081 124.477404 332.6582 130.840755 340.413533 137.037068 345.48035 146.661637 345.969533 156.596419 346.522349 167.879436 341.650409 178.561912 335.350692 187.645596 328.279419 197.842866 318.5077 208.191266 320.826345 221.693502 322.142763 229.349409 329.393006 234.547471 335.812035 238.059246 336.050661 236.229782 336.289286 234.396342 336.531889 232.566878 325.435797 236.337164 312.526151 232.586764 305.952015 222.655959 302.790225 217.879468 301.09996 212.251879 301.330631 206.516909 301.569257 200.559222 304.003239 194.919702 306.58835 189.642097 309.300728 184.113936 312.303433 178.685202 314.252209 172.818987 315.914635 167.815803 316.889023 161.500176 313.667577 156.870838 310.167734 151.843791 303.74075 151.55744 298.594391 154.043124 293.014528 156.743571 290.218631 162.554106 286.504026 167.163559 278.327121 177.309127 265.445314 182.395831 252.555553 181.54871 251.008463 181.449282 250.646548 183.982692 252.193637 184.296882L252.193637 184.296882Z"/><path d="M323.737578 166.996521C323.856891 166.674376 323.976204 166.352232 324.095517 166.030087 323.988135 166.213033 323.880754 166.39598 323.773372 166.578926 324.067677 166.3403 324.246646 166.022133 324.409707 165.688057 323.443273 165.282393 322.476839 164.872753 321.510406 164.467089 321.172353 165.469317 320.917819 165.99827 320.71101 166.980613 320.500224 167.966932 321.001338 169.112335 322.059245 169.354938 323.029655 169.573678 324.206875 169.06461 324.43357 168.006703 324.608562 167.183444 324.783554 166.360186 324.958546 165.540904 323.669968 165.186943 322.381389 164.829005 321.088834 164.475043 320.90191 165.357958 320.551926 166.348255 320.862139 167.23117 321.088834 167.875459 321.522337 168.384527 322.20242 168.57145 322.814892 168.742466 323.642128 168.591336 324.071654 168.078291 324.445501 167.628879 324.711966 167.17549 324.799462 166.594834 324.851164 166.24485 324.902867 165.890889 324.958546 165.540904 325.113653 164.50686 324.700035 163.333617 323.558609 163.075106 322.604106 162.856366 321.255872 163.365434 321.092811 164.475043 320.969521 165.310233 320.842254 166.145423 320.718964 166.98459 321.959817 167.32662 323.20067 167.66865 324.437547 168.01068 324.477318 167.740238 324.521066 167.473772 324.556859 167.20333 324.580722 167.036292 324.600607 166.865277 324.62447 166.698239 324.52902 166.161331 324.513111 166.02611 324.584699 166.296552 324.600607 165.827255 324.616516 165.361935 324.632424 164.892638 324.660264 164.061425 323.884731 163.269983 323.045564 163.305777 322.254122 163.341571 321.375184 164.009723 321.458703 164.892638 321.510406 165.40966 321.550177 165.878957 321.824596 166.332346 321.768917 166.12156 321.70926 165.914751 321.653581 165.703965 321.653581 166.042018 321.653581 166.380071 321.653581 166.722102 321.649604 167.966932 323.335892 168.082268 323.737578 166.996521L323.737578 166.996521ZM329.512318 165.572721C329.225968 166.662445 328.816327 167.728306 329.050975 168.865755 329.229945 169.732762 330.096951 170.369097 330.924187 170.480456 331.846872 170.603746 332.6582 170.170242 333.171245 169.402663 333.743946 168.543611 333.704175 167.179467 333.835419 166.157354 333.970641 165.075584 332.892848 164.125059 331.926414 163.993815 330.868507 163.854616 329.794692 164.50686 329.512318 165.572721L329.512318 165.572721ZM316.173146 177.122204C315.349887 178.104546 314.789117 179.456758 314.355614 180.657841 313.894271 181.946419 314.876613 183.573051 316.177123 183.867356 317.64467 184.201432 318.893478 183.421921 319.386637 182.045847 319.740599 181.059527 320.118423 179.798788 320.110469 178.756789 320.102514 177.830126 319.537767 177.002891 318.690646 176.648929 317.903181 176.310876 316.757778 176.418258 316.173146 177.122204L316.173146 177.122204ZM325.221034 179.305629C324.823325 179.798788 324.572768 180.260131 324.342096 180.848741 324.274486 181.019756 324.210852 181.186794 324.139265 181.357809 324.091539 181.473145 323.852914 182.049824 324.043814 181.592458 324.214829 181.182817 324.099494 181.461214 324.059723 181.552687 323.952341 181.807221 323.833028 182.061755 323.737578 182.320266 323.681899 182.467419 323.634174 182.614571 323.582471 182.761724 323.395548 183.294654 323.809166 182.379923 323.66599 182.570823 323.618265 182.634457 323.574517 182.721953 323.542701 182.79354 323.065449 183.795768 323.061472 185.088324 323.944387 185.899651 324.751737 186.643368 326.080086 186.94165 327.050497 186.301338 328.020908 185.661026 328.522022 184.527554 328.764625 183.417944 328.991319 182.387877 329.186197 181.369741 329.027113 180.315811 328.780533 178.689179 326.23917 178.032958 325.221034 179.305629L325.221034 179.305629ZM311.305183 189.578464C309.754116 190.636371 308.994491 192.883429 308.429744 194.597557 308.05192 195.746937 308.867224 197.039493 309.992742 197.349706 311.245526 197.691736 312.323319 196.924157 312.744891 195.786708 313.309638 194.263481 314.077217 192.119827 313.576103 190.505127 313.301684 189.606303 312.160258 188.993831 311.305183 189.578464L311.305183 189.578464ZM318.527585 192.70446C317.437861 193.845886 316.686191 195.237869 316.471428 196.816776 316.308367 198.00195 316.757778 199.199055 318.022494 199.545062 319.056539 199.831413 320.58772 199.191101 320.750781 197.993996 320.917819 196.784959 321.144513 195.579899 321.438818 194.394725 321.844481 192.756162 319.764461 191.411904 318.527585 192.70446L318.527585 192.70446ZM305.860541 205.701605C304.782749 207.507206 304.544123 209.531547 305.057168 211.567819 305.689526 214.077366 309.686506 212.987642 308.938812 210.497981 308.592805 209.336669 308.509286 208.115701 308.755866 206.922573 309.109827 205.208445 306.815044 204.102813 305.860541 205.701605L305.860541 205.701605ZM312.693189 207.204946C312.100602 208.326487 311.854022 209.424165 311.814251 210.692858 311.770503 212.128589 311.889816 213.429099 313.158509 214.296106 314.061309 214.912556 315.230574 214.411442 315.787368 213.608069 316.435634 212.665497 316.08565 211.734857 316.037924 210.692858 315.998154 209.833806 316.045879 208.966799 316.02997 208.107747 315.998154 206.397596 313.544287 205.586269 312.693189 207.204946L312.693189 207.204946ZM309.193346 220.798655C309.467765 221.932127 309.81775 222.98208 310.235345 224.067827 310.6251 225.078009 311.607442 225.702413 312.689211 225.245047 313.751096 224.799613 314.021538 223.654209 313.560195 222.663913 313.063058 221.609983 312.550013 220.62764 311.917655 219.649275 311.006901 218.233429 308.79166 219.128276 309.193346 220.798655L309.193346 220.798655ZM40.3378259 93.6907152C41.4593664 92.8873421 42.0559304 91.6663741 42.7320364 90.5010854 43.2768982 89.5624911 42.9786162 88.1943706 41.9883198 87.6693941 41.0497257 87.1722573 39.6776283 87.3790662 39.156629 88.4131108 38.5521108 89.6102162 37.7885088 90.8272072 37.7288524 92.1993048 37.6851043 93.4322041 39.2759419 94.4543174 40.3378259 93.6907152L40.3378259 93.6907152ZM47.9181667 83.1394835C48.3715554 82.908812 48.777219 82.6304154 49.2226535 82.3878126 49.3181038 82.3361104 49.8072863 82.1730495 49.8391031 82.0855535 49.8033092 82.192935 49.4016227 82.2684998 49.835126 82.1054389 50.1055684 82.0060116 50.3799878 81.9026071 50.6225906 81.7475004 51.4577803 81.2066156 52.0145734 80.128823 51.6884517 79.1265951 51.3901697 78.2039092 50.4873694 77.3408797 49.4493479 77.4204216 48.3834867 77.5039406 47.5085261 77.9652836 46.6773135 78.6055958 46.3790314 78.8362672 46.0688181 79.0709158 45.8182612 79.3572666 45.4165747 79.8106554 45.1978346 80.3276777 44.9910257 80.888448 44.7126291 81.6281876 45.130224 82.5389422 45.7069026 82.9843768 46.359146 83.4934449 47.1863815 83.5133304 47.9181667 83.1394835L47.9181667 83.1394835ZM59.4954869 78.6055958C59.7380896 78.6493438 59.9727381 78.7209315 60.2113638 78.7726337 60.4380581 78.8561527 60.4460123 78.8521756 60.2392034 78.7607025 60.3227224 78.7964963 60.4062414 78.8362672 60.4857833 78.8800153 61.1618892 79.2299996 61.7345907 79.5481672 62.5260324 79.5919152 64.0492593 79.6754342 65.393517 77.6351847 64.3992436 76.3267206 63.9379007 75.7222023 63.568031 75.4080118 62.8720396 75.1296152 62.4464905 74.9586001 62.0368498 74.910875 61.575507 74.8631498 60.8755384 74.7915621 60.1875012 74.871104 59.499464 75.0063252 58.7318849 75.1534777 58.0955499 76.0363927 58.1313437 76.803972 58.1631605 77.5715512 58.6762056 78.4624204 59.4954869 78.6055958L59.4954869 78.6055958ZM69.3109545 84.3286348C69.3189087 84.340566 69.5177633 84.7502068 69.3944734 84.4877185 69.2234584 84.12978 69.5495801 84.8337258 69.6370762 84.9729241 69.7722973 85.1916643 69.9075185 85.3984732 70.0308084 85.6251676 70.1779609 85.8916329 69.9910375 85.6410759 69.9989917 85.5257402 69.9950146 85.6331217 70.1978464 86.022877 70.221709 86.0785563 70.2455715 86.1342357 70.4841971 86.527968 70.4722659 86.6273954 70.436472 86.5438764 70.4006782 86.4603574 70.3648843 86.3768384 70.436472 86.6154641 70.5398765 86.8381814 70.6711206 87.0449903 71.2438221 87.999493 72.4329731 88.3852711 73.4511091 87.9557449 74.5527641 87.4904249 74.9027484 86.4484261 74.7396875 85.3308626 74.6124205 84.4439705 73.9641542 83.5769639 73.3039567 83.0082394 72.9818121 82.7338199 72.639782 82.4554232 72.2738894 82.2406601 71.792661 81.9582864 71.2796159 81.9145384 70.7347541 81.8588591 69.3984505 81.7236379 68.8018865 83.330384 69.3109545 84.3286348L69.3109545 84.3286348ZM72.3932022 94.1759207C71.9159509 94.9952022 71.7011879 95.9497049 71.3512036 96.8286428 71.0091735 97.6837181 70.5796474 98.5387934 70.3768156 99.4376168 69.8359308 101.823873 73.2164606 103.482322 74.4652681 101.159699 75.0220612 100.125654 75.2606868 99.0041135 75.4157935 97.846779 75.562946 96.7570551 75.7220297 95.6633541 75.4913583 94.5776073 75.1851221 93.1219907 73.0971478 92.966884 72.3932022 94.1759207L72.3932022 94.1759207ZM67.4417204 110.012711C66.6184619 110.660977 66.0736001 111.675137 65.5327153 112.558052 64.9122887 113.572211 64.3793581 114.546599 64.2282285 115.73575 64.1288012 116.523215 64.8287697 117.358405 65.5008986 117.62487 66.3002944 117.947015 67.1195758 117.768045 67.7598879 117.195344 68.5513295 116.491398 68.992787 115.353949 69.3984505 114.395469 69.843885 113.349493 70.3131821 112.383059 70.3847698 111.229702 70.4921513 109.575231 68.5075815 109.173544 67.4417204 110.012711L67.4417204 110.012711ZM46.2915354 214.240427C47.0471832 214.55064 47.7948768 214.268266 48.5346163 214.077366 49.4732104 213.834763 50.304423 213.663748 50.8572391 212.752993 51.4776657 211.726903 50.9884832 210.633202 50.1294309 209.973004 49.198791 209.257127 47.7551059 209.71847 46.8443514 210.27924 45.9693908 210.820125 45.0745447 211.691109 45.2097658 212.820604 45.2972619 213.544435 45.6233836 213.96203 46.2915354 214.240427L46.2915354 214.240427ZM35.8556412 220.814564C36.4243656 220.385038 37.1283112 219.844153 37.5936312 219.474283 38.0708824 219.096459 38.8981179 218.627162 39.411163 218.134002 40.1548796 217.418125 40.1866963 216.213065 39.5742239 215.417647 38.9299347 214.586434 37.8322568 214.39951 36.9055939 214.884716 36.189717 215.26254 35.5573591 215.934669 34.9886347 216.511348 34.407979 217.103935 33.9187965 217.74027 33.4813161 218.444216 33.0796297 219.096459 33.2188279 220.011191 33.7517585 220.544121 34.2528723 221.041258 35.2511229 221.27193 35.8556412 220.814564L35.8556412 220.814564ZM41.1292676 224.218957C41.952526 223.81727 42.5610214 223.109347 43.2172418 222.457104 44.0405003 221.633845 45.0069341 221.045235 45.0427279 219.75268 45.0705676 218.746475 44.199584 218.014689 43.2530357 217.962987 41.9048009 217.891399 41.0855195 219.140207 40.3537343 220.086756 39.6537658 220.993533 39.1367436 221.864517 39.0572017 223.029805 38.9776598 224.151346 40.2662382 224.640529 41.1292676 224.218957L41.1292676 224.218957ZM30.3672517 228.693188C29.2536654 229.468721 28.6173304 230.375499 28.1917813 231.668055 27.7900949 232.893 27.7423697 234.380433 28.3190483 235.537768 29.0906045 237.088835 31.6081049 236.687148 31.9978601 235.056539 32.1808065 234.292937 32.0694478 233.493541 32.2205774 232.777664 32.371707 232.049856 32.6341952 231.31807 32.8608895 230.610148 33.2943927 229.257935 31.5882195 227.846067 30.3672517 228.693188L30.3672517 228.693188ZM35.935183 230.459018C35.7243971 231.723734 35.5851988 232.920839 35.5891759 234.205441 35.593153 235.505951 36.7544644 236.496247 38.0311115 236.321255 39.4270714 236.134332 40.00375 234.913364 39.8247808 233.632739 39.6696741 232.519153 39.4191172 231.528856 39.0770872 230.459018 38.6236985 229.063058 36.2175567 228.764776 35.935183 230.459018L35.935183 230.459018ZM29.5439932 243.428323C28.0406518 245.341306 28.7445974 247.902554 29.6672832 249.938827 30.1445344 250.992757 31.6717384 251.247291 32.5944242 250.706406 33.6403999 250.093934 33.8909568 248.809332 33.3620033 247.779265 32.7018057 246.486709 32.6222639 244.88394 31.7671887 243.714674 31.2939145 243.06243 30.1604428 242.640858 29.5439932 243.428323L29.5439932 243.428323ZM37.120357 241.881233C35.8635953 243.595361 36.6033348 246.383304 37.6612418 248.01789 38.26576 248.952507 39.494682 249.342263 40.4889555 248.75763 41.3917558 248.228676 41.8769612 246.848624 41.2286949 245.929916 40.8548481 245.400962 40.5804286 244.88394 40.4014594 244.263513 40.2105589 243.599338 40.2344215 242.923232 40.0156813 242.259057 39.5662697 240.88696 37.9237299 240.787532 37.120357 241.881233L37.120357 241.881233ZM35.9272288 256.007873C34.2449182 257.177139 35.3585044 259.849746 36.3488008 261.166165 37.1084257 262.17237 38.3691645 262.605873 39.4668424 261.762729 40.5565661 260.919585 40.4571387 259.599189 39.6816054 258.596962 39.2321938 258.016306 39.9838646 258.978763 39.450934 258.290725 39.3077586 258.107779 39.1526519 257.932787 39.0134537 257.74984 39.1645832 257.944718 38.9180034 257.610642 38.8742554 257.550986 38.7111945 257.332246 38.5441566 257.12146 38.3612103 256.918628 37.7805546 256.278315 36.8578688 255.363584 35.9272288 256.007873L35.9272288 256.007873ZM41.8729841 254.731226C41.39971 256.683979 41.8729841 258.744114 43.3763256 260.140074 45.2137429 261.842271 47.7272662 259.277045 46.104612 257.411787 45.4205518 256.624323 44.7603542 255.733454 44.4262784 254.731226 44.0325461 253.550029 42.1991058 253.398899 41.8729841 254.731226L41.8729841 254.731226ZM43.1933793 269.514086C43.47973 269.012972 43.7660808 268.511858 44.0524315 268.014721 43.4996155 268.245393 43.2053106 268.957293 43.1933793 269.514086 43.1734938 270.377115 43.5552948 271.228214 43.9092562 271.995793 44.2353779 272.699739 44.708652 273.415616 45.2773764 273.940592 46.0091617 274.620675 47.122748 274.732034 47.9221438 274.099676 48.6658604 273.507089 49.0078905 272.349754 48.439166 271.502633 48.0175941 270.870275 47.715335 270.556085 47.3255798 269.999292 46.9278704 269.430567 46.6335654 268.802186 46.1602913 268.285164 45.1023843 267.139761 43.2291731 268.066424 43.1933793 269.514086L43.1933793 269.514086ZM50.5271403 268.929453C50.5311174 269.33114 50.5350945 269.732826 50.6544073 270.118604 50.769743 270.488474 50.9566664 270.854367 51.1038189 271.212305 51.5253909 272.242373 51.871398 273.0537 52.7980609 273.733783 53.4065562 274.183195 54.4048068 274.016157 54.9496686 273.582654 55.6058891 273.061654 55.7729271 272.349754 55.6456601 271.546381 55.5024847 270.651535 54.794562 269.927704 54.2258376 269.263529 53.7127925 268.659011 53.2594038 268.15392 52.547504 267.776096 51.6685662 267.302821 50.5112319 267.875523 50.5271403 268.929453L50.5271403 268.929453ZM48.5067766 281.88285C48.5385934 283.509482 48.860738 285.406556 49.4413937 286.93376 50.4674839 289.63023 54.2576543 288.596185 53.7565405 285.744609 53.4741668 284.14184 52.7821525 282.34817 51.9827566 280.944256 51.0720022 279.349441 48.4709828 280.029524 48.5067766 281.88285L48.5067766 281.88285ZM55.5303243 282.030002C55.1962485 283.223131 55.430897 284.543526 55.514416 285.768471 55.5939578 286.937737 56.5086894 287.856446 57.7296572 287.689408 58.990396 287.518393 59.5273036 286.412761 59.3562886 285.247472 59.1773194 284.030481 59.1136859 282.737925 58.5290531 281.640247 57.8569242 280.367577 55.896217 280.709607 55.5303243 282.030002L55.5303243 282.030002ZM53.2633809 292.505669C52.7821525 293.253363 52.7423816 294.044805 52.6588626 294.903857 52.6310229 295.186231 52.5753436 295.476559 52.5713665 295.758933 52.5634123 296.494695 52.8577173 297.043534 53.311106 297.584419 53.991189 298.395746 55.4110115 298.296319 56.1070029 297.584419 56.8626508 296.804908 56.8825362 295.914039 56.8546966 294.907834 56.8467424 294.625461 56.8507195 294.33911 56.830834 294.052759 56.7910631 293.472103 56.6319793 293.006783 56.3575599 292.509646 55.6814539 291.280724 53.9713036 291.415945 53.2633809 292.505669L53.2633809 292.505669ZM144.446211 67.7043797C144.314967 67.7680133 144.179746 67.8316468 144.048502 67.8952803 143.35251 68.3088981 142.795717 68.8617142 142.382099 69.5616829 141.960527 70.2855141 141.749742 71.0690017 141.749742 71.9041915 141.749742 71.9161228 141.749742 71.9280541 141.745764 71.9399854 141.952573 71.1724061 142.159382 70.4048269 142.370168 69.6372477 142.334374 69.7008812 142.302558 69.7645147 142.266764 69.8241711 141.869054 70.5122085 141.6702 71.251948 141.666223 72.0473669 141.64236 72.6518853 141.769627 73.2206098 142.044046 73.7416092 142.223016 74.2864711 142.525275 74.7597454 142.954801 75.1574548 143.50364 75.7023168 144.151906 76.0801408 144.895623 76.2909268 144.963233 76.3068351 145.030844 76.3267206 145.098455 76.342629 144.426326 75.9528737 143.754197 75.5591414 143.086045 75.1693861 143.093999 75.1773403 143.101953 75.1813174 143.109908 75.1892716 143.53148 75.6426604 144.028616 75.9608279 144.605295 76.1477514 144.96721 76.3585374 145.356966 76.4619418 145.778538 76.4659189 146.394987 76.6051172 147.011437 76.5772776 147.631863 76.3823999 147.771062 76.3346748 147.906283 76.2750184 148.045481 76.2233162 148.836923 76.0005989 149.520983 75.6028894 150.101639 75.0262107 150.344241 74.7120202 150.586844 74.3978298 150.829447 74.0836393 151.251019 73.355831 151.461805 72.5723434 151.465782 71.7331765 151.489644 71.0928643 151.354423 70.492323 151.064095 69.9395068 150.877172 69.3628281 150.555027 68.8617142 150.101639 68.4401422 149.680067 67.9867534 149.178953 67.6646088 148.602274 67.4776854 148.045481 67.1873575 147.448917 67.0521362 146.804628 67.0759988 145.957507 67.0720217 145.174019 67.2828077 144.446211 67.7043797L144.446211 67.7043797ZM200.093708 101.243218C201.278882 101.243218 202.527689 100.726195 203.366856 99.8870284 203.816268 99.4694335 204.138412 98.9722967 204.325336 98.3995951 204.615664 97.846779 204.746908 97.2541919 204.723045 96.6178568 204.671343 95.4207513 204.277611 94.1798978 203.366856 93.344708 202.460079 92.5134952 201.35047 91.9885188 200.093708 91.9885188 198.908534 91.9885188 197.659727 92.505541 196.82056 93.344708 196.371148 93.7623029 196.049004 94.2594397 195.86208 94.8321413 195.571752 95.3849575 195.440508 95.9775445 195.464371 96.6138797 195.516073 97.8109851 195.909805 99.0518386 196.82056 99.8870284 197.727337 100.718241 198.840923 101.243218 200.093708 101.243218L200.093708 101.243218Z"/></g></svg>