<svg xmlns="http://www.w3.org/2000/svg" width="223" height="240" viewBox="0 0 223 240"><g transform="translate(.558 .578)"><path d="M116.389634 40.4882305C119.758233 37.6485851 122.092787 33.7987576 125.719896 31.1858065 126.944841 30.3028915 127.330619 28.974542 126.662468 27.5825589 125.171057 24.4804252 123.946113 21.2907954 122.920022 18.0057153 122.08881 15.341062 121.166124 12.5292562 121.142261 9.71745039 121.122376 7.60561321 121.770642 5.31878388 124.319959 5.48582185 127.119833 5.67274529 129.677105 7.95162044 131.498614 9.88846546 132.469025 10.9185329 133.312168 12.0360965 134.043954 13.2491103 134.783693 14.4780325 135.412074 15.8183134 136.672813 16.601801 139.623816 18.4352415 142.447553 15.8620614 145.016756 14.5297347 150.190955 11.849173 156.021374 10.1947017 161.831908 9.7094962 165.057331 9.44303087 168.322525 9.47882472 171.536017 9.87653417 174.960295 10.2981062 178.14197 11.4037385 181.466821 12.2349512 184.481458 12.9905992 186.676814 8.47659691 183.666153 7.02098032 177.632902 4.10577005 170.06847 3.40580142 163.450586 3.76771702 156.550328 4.145541 149.821085 5.8795542 143.62875 8.94589406 142.272561 9.61802303 140.956143 10.3617397 139.671542 11.1571586 139.763015 11.1014793 138.581818 11.8531501 138.573864 11.8412189 138.90794 11.8253105 139.238038 11.8133792 139.572114 11.7974708 139.480641 11.638387 139.389168 11.4753262 139.297695 11.3162424 139.218153 10.5884341 138.136383 9.40325993 137.710834 8.82260413 135.730242 6.10227149 133.264443 3.58874777 130.333325 1.88655132 127.438001.204240348 123.834754-.710491387 120.649102.677514594 117.857182 1.89450551 116.250436 4.52734207 115.82091 7.46641491 115.299911 11.0458 116.218619 14.6371163 117.212893 18.0574176 118.437838 22.2651835 120.140034 26.3337512 122.116649 30.239258 122.43084 29.0381755 122.74503 27.8370929 123.059221 26.6360104 119.165646 29.567129 115.315819 33.5402465 112.989219 37.8633482 111.792114 40.1064295 114.540286 42.0512287 116.389634 40.4882305L116.389634 40.4882305ZM112.34493 50.8764014C112.09835 52.9166509 114.595965 55.1716634 115.765231 56.6750052 117.037901 58.309591 118.326479 59.9362227 119.674714 61.5111521 122.725145 65.0706517 126.101697 68.3875485 129.653242 71.43798 133.674084 74.890098 137.973322 78.0280255 142.503232 80.7801749 145.044595 82.3232876 147.653569 83.7510645 150.318222 85.075437 151.805655 85.8151766 153.305019 86.5191223 154.820292 87.1912513 156.442946 87.9111054 157.894585 88.8099287 159.692232 88.1735936 161.279092 87.6168004 161.879633 86.0617564 161.163757 84.5584147 160.360384 82.8761037 158.725798 82.4982798 157.134961 81.794334 155.735024 81.1739073 154.343041 80.5256409 152.966966 79.8495348 150.30629 78.5450478 147.697317 77.1331793 145.155954 75.605975 140.884555 73.040749 136.804057 70.1653097 133.013886 66.9239777 129.641311 64.0405842 126.543155 60.8986795 123.528518 57.6454162 122.124604 56.1301432 120.740575 54.5989618 119.396317 53.0319866 117.96854 51.3735382 116.72371 49.090686 114.405064 48.8083122 113.211936 48.6651368 112.464243 49.8861049 112.34493 50.8764014L112.34493 50.8764014ZM173.775121 89.5337599C177.414162 91.0569871 182.305987 88.2968835 185.431983 86.6066184 190.908441 83.6476601 195.923557 79.9569164 200.719932 76.0036844 205.480513 72.0822693 210.121782 67.862572 214.055127 63.0980128 215.852774 60.9225421 217.415772 58.6396898 218.887296 56.2375248 220.975271 52.8212006 222.967795 48.8122893 221.882048 44.7119049 221.213896 42.1864499 219.332731 40.1541546 217.80155 38.1019738 216.349911 36.1531975 214.882363 34.2203296 213.39493 32.299393 210.16553 28.1234437 206.836702 24.0310135 203.356745 20.0618732 203.356745 21.3902228 203.356745 22.7145952 203.356745 24.0429448 206.518535 20.8016128 209.000241 17.0790523 210.678575 12.8712863 212.142145 9.2083823 213.088694 4.25689964 209.270684 1.65985694 202.096006-3.22003802 192.952668 3.77169412 189.218176 9.80096938 188.128453 11.5588451 190.789129 13.7303387 192.145318 12.0599591 193.962849 9.82483195 196.201953 7.93571206 198.771156 6.61929378 200.672207 5.64888272 203.909561 4.3642812 205.953787 5.74831008 207.815067 7.00904904 205.595849 11.089548 204.879972 12.5252791 203.464127 15.3569704 201.590915 17.8148148 199.371697 20.0618732 198.254134 21.1953451 198.361515 22.8935645 199.371697 24.0429448 204.89588 30.3148228 210.006446 36.9128226 214.977813 43.6261581 216.194804 45.2726752 216.934543 46.5532997 216.389682 48.6213888 215.932316 50.355402 214.997699 51.9064689 214.075013 53.425719 212.858022 55.4222204 211.609215 57.3590654 210.121782 59.1686434 203.026646 67.779053 194.185567 75.2559907 184.895075 81.4006017 181.5225 83.6317517 177.688581 86.041871 173.771144 87.0162591 172.399047 87.3622663 172.685397 89.0803712 173.775121 89.5337599L173.775121 89.5337599Z"/><path d="M126.236919,61.1850303 C129.076564,58.5402625 130.707172,54.5949847 132.890597,51.4252404 C135.217196,48.040733 137.85401,44.7198591 140.920349,41.9716868 C143.481597,39.6769033 147.275745,37.1116773 150.898877,38.109928 C153.794202,38.909324 155.846382,41.5819315 158.101394,43.4034408 C160.66662,45.47153 163.637509,46.9430549 167.018039,46.2271779 C170.183805,45.5550489 172.355299,43.1608381 174.22851,40.6990166 C176.177286,38.1337906 178.042543,35.3975496 181.466821,34.8487105 C185.308693,34.2322609 189.094887,36.0338847 192.097592,38.2729889 C199.479079,43.7812648 205.444719,51.8666979 209.855316,59.8606579 C211.446154,62.7440514 215.820957,60.1788254 214.265913,57.2835006 C209.950767,49.2497697 204.235683,41.8245343 197.196227,35.9782054 C191.059571,30.8835473 181.868507,27.0297428 174.63815,32.4823393 C171.862139,34.574291 170.311072,37.8076689 167.650397,39.9871166 C165.085171,42.0909996 162.639258,40.29733 160.54333,38.4519582 C157.914471,36.1372892 155.277658,33.5482006 151.710205,32.848232 C147.54221,32.0289505 143.413987,33.5760403 140.045388,35.9821825 C136.084203,38.8138738 132.8031,42.65177 130.031066,46.6328415 C127.378344,50.4428981 123.958044,55.4659684 124.101219,60.3021153 C124.137013,61.3997934 125.437523,61.928747 126.236919,61.1850303 L126.236919,61.1850303 Z"/><path d="M149.343834 80.1756566C151.427831 78.4297121 152.843676 76.1229973 154.510079 74.0032059 156.037283 72.0584067 157.556532 70.0976991 159.230889 68.2761898 162.138145 65.1143997 165.753323 61.9764721 170.183805 61.4196789 174.860868 60.835046 179.267488 63.5434474 182.317919 66.85239 183.968413 68.6420825 185.292785 70.6863091 186.493867 72.7981463 187.786423 75.0690672 188.6932 77.7337205 190.367557 79.7421533 192.125432 81.8460363 195.120184 79.5353444 194.634978 77.2564692 194.046368 74.4884114 192.081684 71.5851324 190.626068 69.1750132 189.102841 66.6535353 187.329057 64.2076221 185.201312 62.1633956 181.252058 58.3612932 175.779576 55.6250522 170.179828 56.1778684 164.739164 56.7147761 160.153575 59.8765662 156.442946 63.7263937 154.458376 65.7825516 152.664707 68.0455183 150.998305 70.3641644 149.18475 72.8896194 147.259837 75.4508683 146.440555 78.4893685 145.971258 80.2631526 148.071164 81.245495 149.343834 80.1756566L149.343834 80.1756566ZM148.373423 58.6078731C148.977941 58.6317357 149.542688 58.5044686 150.067665 58.2300491 150.612527 58.0510799 151.085801 57.7488207 151.48351 57.3192945 151.913036 56.921585 152.215295 56.4483108 152.394265 55.9034488 152.668684 55.3784724 152.795951 54.8137249 152.772089 54.2092066 152.720386 53.8194513 152.668684 53.4296961 152.613005 53.0399408 152.402219 52.2962241 152.028372 51.6479577 151.48351 51.0991187 151.185228 50.8684472 150.890923 50.6417528 150.592641 50.4110813 149.908581 50.0133719 149.168842 49.8145171 148.373423 49.8105401 147.768905 49.7866775 147.204157 49.9139445 146.679181 50.188364 146.134319 50.3673333 145.661045 50.6695925 145.263335 51.0991187 144.833809 51.4968281 144.53155 51.9701024 144.352581 52.5149643 144.078161 53.0399408 143.950894 53.6046882 143.974757 54.2092066 144.026459 54.5989618 144.078161 54.9887171 144.129864 55.3784724 144.34065 56.122189 144.714497 56.7704554 145.259358 57.3192945 145.55764 57.549966 145.851945 57.7766603 146.150227 58.0073318 146.838265 58.4050413 147.578004 58.603896 148.373423 58.6078731L148.373423 58.6078731ZM185.141655 48.2753816C185.066091 48.4145799 184.986549 48.5498011 184.910984 48.6889994 184.771786 49.0230753 184.62861 49.3571513 184.489412 49.6912272 184.31442 50.2480205 184.290557 50.8048137 184.413847 51.365584 184.413847 51.743408 184.509297 52.0973694 184.700198 52.4234911 184.871213 52.9444905 185.157564 53.3939022 185.567204 53.7717262 185.849578 53.9904664 186.131952 54.2092066 186.414325 54.4279468 186.748401 54.5671451 187.082477 54.7103205 187.416553 54.8495188 187.973346 55.0245109 188.530139 55.0483735 189.090909 54.9250836 189.647703 54.901221 190.168702 54.734183 190.64993 54.4279468 190.785151 54.3484049 190.92435 54.2728401 191.059571 54.1932982 191.707837 53.80752 192.224859 53.2904977 192.610638 52.6422313 193.000393 51.9661253 193.199247 51.238317 193.199247 50.4588065 193.147545 50.0770054 193.095843 49.6912272 193.044141 49.3094261 192.837332 48.5776408 192.467462 47.9413056 191.930554 47.4004208 191.540799 46.9788488 191.075479 46.6805667 190.538572 46.5055745 190.021549 46.2351321 189.468733 46.1118422 188.872169 46.1317276 187.372805 46.1357047 185.881395 46.9549862 185.141655 48.2753816L185.141655 48.2753816ZM187.504049 92.7432752C186.672836 96.5732172 186.784195 100.558266 186.402394 104.455818 186.032524 108.202242 185.602998 111.924802 184.97064 115.635431 183.63036 123.478261 181.74124 131.217687 180.050975 138.992907 179.231694 142.755239 178.392527 146.525524 177.780055 150.327626 177.223261 153.759859 176.865323 157.394923 178.078337 160.735683 179.271465 164.012809 181.860553 166.212142 184.047954 168.809185 186.100135 171.243166 187.977323 173.720896 186.772264 176.97416 185.447892 180.557522 191.174907 182.104612 192.487348 178.549089 195.259382 171.056243 188.975574 166.080898 184.84735 160.854996 182.667903 158.098869 183.04175 154.495622 183.606497 151.238381 184.266695 147.412416 185.097907 143.614291 185.92912 139.82412 187.627339 132.044923 189.393169 124.281635 190.574365 116.40301 191.166952 112.449778 191.711814 108.452798 191.839081 104.455818 191.962371 100.570197 192.081684 96.4459502 190.777197 92.7432752 190.260175 91.2757273 187.88585 90.9853994 187.504049 92.7432752L187.504049 92.7432752ZM171.178079 110.485094C170.891728 113.209403 171.309323 116.037118 171.16217 118.78529 171.022972 121.441989 170.561629 124.08278 169.881546 126.651983 168.457747 132.032992 165.991948 137.067993 162.973334 141.725171 160.161529 146.068158 156.72532 150.904305 157.25825 156.368833 157.53267 159.184616 158.80534 161.527125 160.29675 163.877587 161.060352 165.082647 161.891565 166.279753 162.277343 167.667758 162.667098 169.063719 162.094397 170.360251 162.551762 171.74428 163.06083 173.283416 164.850523 174.182239 166.330001 173.283416 169.125898 171.581219 168.708304 167.814911 167.702099 165.118441 166.676009 162.374246 164.51247 160.214683 163.530127 157.482419 161.66487 152.292311 166.90668 146.803921 169.35657 142.703536 172.335413 137.720237 174.673944 132.243778 175.831279 126.540624 176.877254 121.378356 177.561314 114.231517 174.506906 109.582293 173.484793 108.019295 171.361025 108.743126 171.178079 110.485094L171.178079 110.485094ZM74.292096 149.667429C77.5851297 148.87201 80.4963624 146.895394 83.658152 145.71022 86.6926746 144.572771 89.8584413 143.66997 93.0440934 143.073406 99.2085889 141.920049 105.770794 142.106972 111.867679 143.562589 117.658327 144.946618 123.055243 147.507866 127.879458 150.995778 132.854803 154.591072 136.593271 159.268135 140.164701 164.191778 142.570843 167.508675 147.434829 164.720731 145.668999 160.974308 141.194768 151.488938 131.673606 143.940413 122.220054 139.840028 111.625076 135.242507 99.9682138 134.435157 88.8363282 137.600924 85.6705615 138.503725 82.6121763 139.780372 79.7128749 141.34337 76.9647031 142.822849 74.121081 144.544931 72.4188848 147.233447 71.6155119 148.498163 72.935907 149.993551 74.292096 149.667429L74.292096 149.667429Z"/><path d="M123.536472 118.156909C123.405228 117.755223 123.273984 117.349559 123.14274 116.947872 126.658491 114.979211 120.887727 110.958368 120.151965 114.649112 119.603126 117.417169 119.969019 120.447715 120.307072 123.231682 120.645125 126.027579 121.042834 128.827454 121.639398 131.579603 122.235962 134.335729 122.947862 137.067993 123.759189 139.764463 124.546654 142.373437 125.175035 145.769876 127.0562 147.798194 128.639083 149.500391 131.419072 148.128293 131.478728 145.964754 131.550316 143.431345 130.003226 140.663287 129.263487 138.245213 128.472045 135.668056 127.784008 133.059082 127.183467 130.426246 126.586903 127.797386 126.018178 125.168527 125.560813 122.515805 125.119355 119.946602 124.94834 117.099002 124.07338 114.645135 123.421136 115.504187 122.764916 116.363239 122.112672 117.222292 122.494473 117.210361 123.102969 118.148955 123.270007 118.355764 123.401251 118.518825 123.60806 118.315993 123.536472 118.156909L123.536472 118.156909ZM109.378018 63.3366385C111.871656 61.3639996 109.413812 62.0202202 109.143369 61.8651135 108.9644 61.761709 107.954218 61.7298923 107.751386 61.7060297 106.749159 61.6026252 105.738977 61.550923 104.728795 61.550923 102.497645 61.5588772 100.254565 61.6264878 98.0393233 61.8929531 93.6684972 62.4258838 89.337442 63.2053943 85.0700203 64.3110266 76.8135735 66.4467264 68.8076836 69.6920355 61.3943807 73.9117327 46.8779883 82.172158 34.7001269 94.2983191 26.1971003 108.663584 21.4206106 116.737086 17.8173636 125.526465 15.5464431 134.626057 14.6277344 138.30487 20.3070244 139.875822 21.225733 136.193033 25.2306665 120.15341 33.5388155 105.354642 45.2076088 93.6301673 57.2343406 81.5437771 72.6455792 73.1600619 89.2221063 69.2704634 93.9866647 68.1528999 98.8546275 67.4290687 103.718613 66.9120464 105.683298 66.7012604 108.566691 66.8643213 110.320589 65.802437 111.712572 64.959293 112.090396 63.2491424 111.064306 62.0003347 110.638757 61.4833124 109.883109 61.5310375 109.342224 61.7776174 108.872927 61.9923805 108.542828 62.5372425 108.678049 63.0463106 108.71782 63.1974401 108.853041 63.3445926 109.008148 63.3764094 109.159278 63.4082262 109.258705 63.4281116 109.378018 63.3366385L109.378018 63.3366385ZM7.22238566 146.943119C-4.2117591 157.434694-.103421174 176.321916 6.09289101 188.479894 12.7704316 201.580443 24.0335613 212.064064 36.3625522 219.811444 64.5720787 237.541332 99.9006032 242.870638 132.138926 234.681801 147.896172 230.680844 163.056853 223.569799 176.018202 213.730467 184.389985 207.37507 195.048596 194.775635 189.202268 183.532388 185.062113 175.574222 174.479067 172.718669 166.385681 171.119877 153.539668 168.58249 140.00164 167.635942 126.952795 168.152964 117.5589 168.522834 108.47124 170.392068 99.2244973 171.907341 90.566364 173.327164 81.6536967 173.951568 73.1983952 171.139762 59.0956205 166.450768 51.4118752 153.040005 39.9737534 144.501183 37.1380855 142.385369 34.0916316 140.722943 30.7985979 139.434365 29.2316229 138.821892 27.3822743 140.106494 26.9686565 141.609835 26.4834511 143.375665 27.5731748 144.823328 29.1441269 145.439777 35.1137447 147.786263 39.914097 152.25254 44.3485566 156.750634 49.069367 161.535079 53.5595059 166.538264 58.9405138 170.610808 65.1606886 175.319688 72.5063809 178.187173 80.2378513 179.113836 88.9437097 180.155835 97.7012703 178.644539 106.255999 177.105404 114.949926 175.538429 123.540449 174.436773 132.39346 174.428819 139.719267 174.420865 147.037119 174.957773 154.315201 175.753192 162.13019 176.608267 171.357048 177.829235 178.332871 181.766558 180.086769 182.756855 180.993546 183.361373 182.337804 184.832898 183.272421 185.855012 183.872962 186.889056 184.230901 188.396375 184.564977 189.784381 184.461572 191.355333 183.980344 193.105255 183.308215 195.563099 182.059408 197.802204 180.667425 199.921995 176.642606 206.054675 170.247439 210.294257 164.122714 214.112268 157.651983 218.145042 150.79945 221.585229 143.664544 224.281699 114.373248 235.365861 81.3792772 234.399427 52.8754458 221.314786 39.9459137 215.380961 27.8595256 207.200078 18.7837974 196.131824 14.5800093 191.005349 11.0761896 185.123226 8.91662763 178.839417 6.75706568 172.555608 5.43269344 165.488311 6.90819525 158.902242 7.64395761 155.621139 8.88878798 152.483212 10.8494952 149.739016 12.4363557 147.527752 9.07173429 145.2449 7.22238566 146.943119L7.22238566 146.943119Z"/><path d="M41.8032165 149.890146C37.8141914 147.312989 31.4150474 151.158839 27.9470216 153.258745 23.8386837 155.748406 20.1877116 158.949967 17.1571661 162.668551 11.3227694 169.827321 6.82467628 179.435981 6.90024106 188.845787 6.92808072 192.1945 11.5932118 191.999623 11.9710357 188.845787 12.9653092 180.54559 15.458947 172.913546 20.8359778 166.347363 23.4012034 163.213413 26.4198176 160.393653 29.7804619 158.126709 31.4747038 156.985283 33.2564419 155.963169 35.1097676 155.104117 37.2295586 154.121775 39.914097 153.708157 41.8032165 152.340036 42.6742001 151.711655 42.753742 150.506596 41.8032165 149.890146L41.8032165 149.890146ZM51.0698452 159.470967C46.6512939 158.580098 42.2406968 163.475901 39.6953568 166.518378 36.4023231 170.451725 33.6621055 174.878231 31.3156201 179.428027 28.9333409 184.049411 26.9686565 188.905443 25.4772463 193.884765 24.7613695 196.278976 24.1568512 198.705004 23.6636916 201.154894 23.21428 203.40593 22.0211518 206.778506 23.3057531 208.842618 23.9858362 209.936319 25.4732693 210.139151 26.4078863 209.244304 27.9947467 207.7171 27.8277088 204.837684 28.2333724 202.769595 28.6907382 200.431063 29.2554855 198.10844 29.9196602 195.82161 31.2241469 191.327494 32.9144118 186.956667 35.0023861 182.772763 37.0784291 178.612723 39.536273 174.683353 42.2566052 170.913068 43.5093898 169.179054 44.8616017 167.516629 46.4325537 166.061012 48.0631622 164.549716 50.3499912 163.658847 51.7061802 161.904949 52.3186526 161.121461 52.2629733 159.713569 51.0698452 159.470967L51.0698452 159.470967ZM59.6961617 168.001585C57.4689891 167.973995 55.6275947 170.284687 54.283337 171.811891 52.6248888 173.693057 51.1215474 175.681604 49.7812668 177.797418 47.1524077 181.945528 45.0485251 186.435667 43.4656417 191.080914 41.8748042 195.750023 40.8964391 200.598101 40.4589588 205.505836 40.2362416 207.999474 40.1765851 210.505043 40.2799896 213.006636 40.3714627 215.24574 40.2163561 218.459232 41.4572094 220.372215 42.5071621 221.986915 45.0206854 221.74829 45.5814557 219.835307 46.1859739 217.763241 45.4144177 215.158244 45.3348758 213.006636 45.2473798 210.715829 45.299082 208.417069 45.4860054 206.130239 45.8558751 201.576466 46.8342402 197.062464 48.2540627 192.723454 49.6818394 188.364558 51.6505009 184.20054 54.0805052 180.306965 55.2338624 178.457616 56.4667615 176.636107 57.7632941 174.882208 58.9444909 173.283416 61.0284881 171.394296 60.9648546 169.262573 60.9449691 168.578513 60.4001073 168.013766 59.6961617 168.001585L59.6961617 168.001585ZM67.7975018 172.897638C66.2862061 174.49643 66.0356492 176.842916 65.6180544 178.926913 65.1487573 181.277376 64.838544 183.647724 64.5561703 186.026027 63.9794917 190.886036 63.6454158 195.761954 63.5618969 200.65378 63.3908818 210.401639 64.1306213 220.129612 65.6220315 229.762135 66.111214 232.927902 70.9314517 231.583644 70.4382921 228.433785 69.0025612 219.250674 68.3741804 209.94825 68.52531 200.65378 68.5968977 196.159663 68.8315462 191.657593 69.2213014 187.175407 69.4201561 184.872669 69.714461 182.581863 69.9172928 180.283102 70.1081933 178.135471 70.8002076 175.52252 69.9411554 173.466362 69.5991253 172.627195 68.5332642 172.122104 67.7975018 172.897638L67.7975018 172.897638ZM81.9161849 177.280396C81.1684913 179.404164 81.8008492 181.826215 82.1349251 183.993731 82.4928635 186.328286 82.8348936 188.666817 83.2524884 190.993418 84.1314262 195.893198 84.9984326 200.792979 85.8455536 205.696736 86.6727891 210.473227 87.4841163 215.249717 88.2755579 220.030185 89.0868851 224.906103 89.5959531 229.941104 90.7334019 234.753389 91.3498515 237.358385 95.7445402 236.869203 95.4939832 234.109099 95.0485487 229.229204 93.9429167 224.337378 93.111704 219.509185 92.2685601 214.605428 91.4095079 209.705647 90.5385243 204.809844 89.6874263 200.041308 88.8204198 195.276749 87.937505 190.512189 87.4841163 188.066276 86.9670941 185.640249 86.4341635 183.214221 85.9370268 180.951254 85.6188593 178.513295 84.0677927 176.711671 83.3877096 175.928184 82.2104898 176.441229 81.9161849 177.280396L81.9161849 177.280396ZM102.274928 176.675878C102.593096 178.823509 103.297041 180.879666 103.734522 183.003435 104.18791 185.202768 104.589597 187.414033 104.991283 189.62132 105.906015 194.608597 106.812792 199.59985 107.667867 204.595081 108.507034 209.502816 109.258705 214.422481 109.807544 219.369987 110.077986 221.819877 110.308658 224.273745 110.475696 226.731589 110.622848 228.831495 110.316612 231.436492 111.020558 233.432993 111.191573 232.792681 111.358611 232.152369 111.529626 231.516034 111.489855 231.555805 111.450084 231.599553 111.410313 231.639324 111.831885 231.464331 112.253457 231.289339 112.679006 231.114347 112.623326 231.11037 112.56367 231.106393 112.507991 231.098439 112.977288 231.364904 113.442608 231.635346 113.911905 231.901812 113.895996 231.862041 113.876111 231.82227 113.860203 231.778522 113.542035 231.026851 112.452311 230.89163 111.819953 231.241614 111.776205 231.265477 111.732457 231.289339 111.688709 231.317179 111.199527 231.591598 110.873405 232.160323 110.885336 232.721093 110.905222 233.961947 111.863701 234.948266 113.136371 234.864747 114.190301 234.797137 115.001628 234.196595 115.331727 233.194367 116.035673 231.066622 115.395361 228.163343 115.2323 225.956055 115.041399 223.370944 114.786865 220.78981 114.484606 218.212652 113.888042 213.098109 113.116486 208.007428 112.241525 202.932655 111.382473 197.941402 110.372291 192.977988 109.362109 188.014574 108.487149 183.723289 107.811043 178.576929 104.673116 175.27594 103.587369 174.138491 102.084028 175.371391 102.274928 176.675878L102.274928 176.675878ZM124.419387 173.311256C125.373889 177.749693 127.935138 181.90178 129.549838 186.137385 131.168515 190.376968 132.465048 194.727909 133.491138 199.146461 135.583089 208.126741 136.283058 217.349623 135.686494 226.548643 135.475708 229.78202 140.514685 229.770089 140.721494 226.548643 141.333967 216.920097 140.514685 207.215986 138.311375 197.818112 137.221652 193.176843 135.742173 188.619092 133.948503 184.204517 132.230399 179.964935 130.353211 175.017429 126.940864 171.843708 125.815347 170.789778 124.101219 171.839731 124.419387 173.311256L124.419387 173.311256ZM146.400784 173.772599C148.270018 176.687809 149.968237 179.368371 151.260793 182.605725 152.803905 186.467484 154.096461 190.42867 155.130505 194.45349 156.144664 198.398768 156.948037 202.415633 157.449151 206.456361 157.691754 208.397183 157.8747 210.349937 157.99799 212.30269 158.129234 214.362825 157.882654 216.522387 158.753638 218.423439 159.330316 219.676223 161.577374 219.731903 162.134167 218.423439 162.96538 216.470685 162.647213 214.390665 162.519946 212.30269 162.37677 209.984044 162.146099 207.669375 161.839863 205.366637 161.25523 200.916269 160.396177 196.517602 159.211004 192.186546 158.077532 188.034459 156.693503 183.918167 154.979376 179.968912 153.547622 176.679855 151.535212 173.008996 147.995599 171.688601 146.842242 171.259075 145.764449 172.778325 146.400784 173.772599L146.400784 173.772599Z"/></g></svg>