<svg xmlns="http://www.w3.org/2000/svg" width="357" height="362" viewBox="0 0 357 362"><g transform="translate(.195 .961)"><path d="M305.521681,49.1083021 C301.683785,46.3044505 301.186649,40.8240142 301.437205,36.4452332 C301.747419,30.9926366 302.872936,25.4565211 305.306918,20.5368552 C309.912392,11.2384083 320.065913,3.65408904 330.843837,6.87951268 C341.235983,9.99357767 346.485747,21.0697859 348.354981,30.9091177 C349.500384,36.9344158 349.671399,43.126752 349.798666,49.2435233 C349.933888,55.7420957 349.838437,62.2446452 349.428797,68.7352634 C347.933409,92.5739679 341.880273,116.420627 328.246795,136.310076 C321.982872,145.445462 314.159929,153.29227 305.080223,159.619827 C300.164535,163.044105 295.109649,166.333162 290.762686,170.485249 C287.219095,173.869757 284.101053,177.747424 281.480149,181.887579 C271.048232,198.360705 268.069388,219.992121 274.703181,238.449817 C275.56621,240.851982 276.62014,243.095063 277.940535,245.278488 C279.762044,248.285172 285.290205,246.308556 283.870382,242.780873 C280.036464,233.255732 277.638276,223.826041 278.266657,213.481618 C278.867198,203.542859 282.009102,193.719435 287.342385,185.311857 C290.018969,181.09216 293.260301,177.282104 296.994792,173.965207 C301.727533,169.761418 307.239785,166.563834 312.278763,162.761732 C321.732315,155.634778 329.674572,146.78972 336.037922,136.815167 C349.953773,115.000804 355.509773,89.0781018 356.480184,63.4934529 C356.738695,56.6727358 356.694947,49.8321333 356.384734,43.0114162 C356.086452,36.5128438 355.473979,29.9029127 353.568951,23.6509202 C350.347505,13.0758259 342.512631,2.75526568 331.122234,0.468436343 C319.330151,-1.89793489 307.573861,4.96653022 301.743442,15.0763044 C298.716873,20.3260692 297.102173,26.2241003 296.437999,32.2215588 C295.881205,37.2605376 296.191419,42.8125615 298.959476,47.2231593 C300.200329,49.1997753 301.846846,50.7627734 303.958683,51.7769325 C305.776215,52.6518933 307.12445,50.2775679 305.521681,49.1083021 L305.521681,49.1083021 Z"/><path d="M318.972212 13.1474136C314.128112 16.4006769 311.212902 21.8254338 309.399347 27.2501907 307.557953 32.7584666 307.072747 38.5928642 307.935777 44.3238574 308.329509 46.9368085 308.854485 50.2894992 310.803261 52.2422526 313.038388 54.4813568 315.790537 52.4013363 314.617294 49.6332786 312.509435 44.6619104 312.322511 38.5491162 313.265083 33.2874202 314.470142 26.5541992 317.914305 21.3123886 321.449942 15.6171893 322.376605 14.1257789 320.491462 12.1292774 318.972212 13.1474136L318.972212 13.1474136ZM327.554781 19.0931699C322.49194 23.0185622 319.839219 30.3960725 318.479053 36.4452332 317.759199 39.6507714 317.40126 42.9875536 317.476825 46.2766108 317.536481 48.9889893 317.783061 53.8489987 321.080072 54.5370361 322.189681 54.7677076 323.160092 54.2148914 323.533939 53.145053 324.035053 51.7093219 323.382809 50.5798271 323.060665 49.1957982 322.734543 47.8077922 322.742497 46.3521756 322.778291 44.9323529 322.845902 42.0966845 323.211794 39.2729474 323.824267 36.5048896 324.440716 33.7288777 325.343517 31.0284305 326.437217 28.4075252 327.550804 25.7349177 329.03426 23.2532107 330.016602 20.5249239 330.573395 18.9738571 328.576894 18.3017281 327.554781 19.0931699L327.554781 19.0931699ZM4.46363202 281.780262C-.730452521 282.273421-1.15202447 288.775971 1.96204 291.969578 5.61698923 295.716001 12.2746443 296.093825 17.1545384 295.660321 22.7264469 295.171139 28.1830196 293.345652 32.6771357 289.957168 36.7576339 286.882874 42.3414737 280.603042 39.0325316 275.206124 37.9666705 273.472111 35.1230484 274.148217 35.1429338 276.260054 35.1628193 278.355983 34.9719188 280.086019 33.83447 281.89162 32.8481507 283.462573 31.4402595 284.810808 29.980666 285.948257 26.9421664 288.314628 23.3071026 289.794107 19.5487489 290.537824 16.0051583 291.241769 12.0240874 291.305403 8.49242807 290.478167 7.03283464 290.136137 5.15962344 289.555481 4.39602143 288.127704 3.78354898 286.986278 4.05001426 285.124998 5.18348601 284.413098 6.27718681 283.733015 5.94311093 281.641063 4.46363202 281.780262L4.46363202 281.780262Z"/><path d="M4.2210293,290.93951 C0.387110845,294.825132 4.56305937,300.711231 8.36118398,302.596374 C12.7797352,304.79173 17.898255,305.082058 22.6986072,304.282662 C27.2563568,303.523037 31.6351371,301.546421 35.2980405,298.746547 C38.7978831,296.073939 42.6357786,291.945715 43.586304,287.503301 C44.135143,284.942052 40.8977886,283.617679 39.430241,285.749402 C38.455853,287.165248 37.7399761,288.728246 36.6979775,290.10432 C35.6679102,291.472441 34.4429653,292.689432 33.1504098,293.81495 C30.5135966,296.105756 27.3716925,297.807952 24.0190024,298.774386 C20.7697167,299.712981 17.3136222,299.963538 13.9728634,299.402767 C12.0956751,299.088577 10.0116779,298.567578 8.53617611,297.294907 C6.8021632,295.79952 6.84591123,294.164934 7.02488045,292.088891 C7.14817036,290.645205 5.16360054,289.988985 4.2210293,290.93951 L4.2210293,290.93951 Z"/><path d="M19.3101233 304.441746C24.086613 306.159851 29.7142008 305.09399 34.4787592 303.777571 39.5097829 302.389565 44.3578602 300.146484 48.9832204 297.760227 57.5379492 293.34963 65.7188312 288.247017 73.6968814 282.873963 89.5973026 272.175578 104.754007 260.371562 121.155542 250.420872 125.70136 247.660768 130.342629 245.047817 135.095256 242.665537 139.963219 240.223601 145.06583 238.366298 149.969587 236.035721 152.467202 234.846569 150.693418 230.933108 148.116261 231.641031 143.554535 232.893816 139.128029 235.097126 134.876516 237.14533 130.672728 239.173648 126.56439 241.384913 122.527639 243.727421 114.314941 248.495958 106.428364 253.797425 98.6531452 259.242067 83.2180441 270.043856 68.1488355 281.474025 51.6558274 290.657137 46.80775 293.353607 41.8443369 296.034168 36.6661608 298.046578 33.9696912 299.096531 31.1976568 300.019217 28.3659659 300.627712 25.3791685 301.272002 22.3128291 301.399269 19.3061462 301.888451 17.898255 302.119123 18.2124454 304.048014 19.3101233 304.441746L19.3101233 304.441746ZM153.008087 238.636741C152.610377 240.052586 153.198987 241.209921 153.640445 242.53827 154.113719 243.970024 154.531314 245.409732 154.805733 246.893189 155.37048 249.923735 155.39832 253.049731 155.330709 256.120048 155.187534 262.642483 154.650626 269.09333 155.255145 275.615765 155.86364 282.16604 157.323233 288.660635 159.498704 294.864903 161.614518 300.898155 164.275193 307.154125 168.073318 312.336279 171.740199 317.339464 177.725725 322.732404 184.224296 319.65811 185.755477 318.934278 185.485035 316.094633 183.727159 315.840099 178.385922 315.076497 174.699156 312.145378 171.815763 307.671147 168.514775 302.544672 166.017161 296.817656 164.147926 291.030983 162.238921 285.121021 161.009999 278.996296 160.46116 272.811914 159.92823 266.802524 160.357756 260.801088 160.210604 254.779767 160.135039 251.621954 159.872551 248.436301 159.164628 245.354053 158.576018 242.788827 157.605607 238.489588 154.7421 237.646444 154.014291 237.427704 153.214895 237.908932 153.008087 238.636741L153.008087 238.636741ZM151.063288 265.549739C148.513971 263.966855 144.755617 264.682732 141.963697 265.21964 138.758159 265.83609 135.667958 266.977516 132.812404 268.556422 127.403557 271.547198 122.889555 276.160627 120.018093 281.629132 116.919937 287.527163 116.315419 293.624049 115.953503 300.16637 115.659198 305.507607 114.394483 314.802077 106.913569 312.78569 104.861389 312.232874 103.584742 314.722535 104.917068 316.213946 107.180034 318.743378 110.846915 318.628042 113.682583 317.088907 116.35519 315.637267 118.132951 313.004431 119.230629 310.236373 121.811763 303.733823 120.383986 296.555168 122.15777 289.88558 123.768493 283.828465 127.455259 278.240648 132.514122 274.506156 135.154912 272.55738 138.153641 271.085855 141.279637 270.107489 142.950016 269.58649 144.648235 269.236506 146.374294 268.981972 147.965132 268.747323 149.619603 268.687667 151.063288 267.932019 152.013813 267.434882 151.906432 266.070738 151.063288 265.549739L151.063288 265.549739Z"/><path d="M106.666989,303.7378 C104.205168,304.322433 102.228553,306.95527 100.991676,309.015405 C99.5718539,311.381776 98.4940615,314.054384 97.9173829,316.754831 C97.3526355,319.403576 97.2174144,322.151748 97.5236506,324.840264 C97.7742075,327.06346 98.1003292,331.120096 100.271822,332.388789 C101.194508,332.929674 102.359797,332.782522 103.095559,332.022896 C104.193237,330.889425 103.688146,329.39006 103.290437,328.085573 C102.510926,325.524324 102.220598,322.927281 102.403545,320.254674 C102.582514,317.6457 103.214872,314.981047 104.288687,312.59479 C105.394319,310.136945 107.553881,307.909773 108.273735,305.336592 C108.548155,304.358227 107.625469,303.515083 106.666989,303.7378 L106.666989,303.7378 Z"/><path d="M101.413248,298.114189 C97.1338954,300.866338 94.44538,305.424088 92.6875045,310.105129 C91.8125438,312.431729 91.2597278,314.829917 90.9773541,317.295716 C90.7069118,319.674018 90.2972711,322.91535 91.7170936,324.995371 C92.6636419,326.383376 94.5010593,326.045323 95.0896692,324.553913 C95.8731566,322.561389 95.3601115,320.024002 95.5708975,317.908188 C95.7816835,315.768511 96.270866,313.636789 96.946972,311.596539 C98.3508861,307.352979 100.975768,303.817342 103.47736,300.174324 C104.340389,298.93347 102.650125,297.31877 101.413248,298.114189 L101.413248,298.114189 Z"/><path d="M95.4873785 295.755772C91.0728044 297.636937 88.1058924 303.212824 86.4275588 307.424567 84.6219582 311.954478 83.5322345 317.729219 85.250339 322.430145 85.9383762 324.31131 88.6547313 324.032914 88.76609 321.952893 89.0086927 317.430937 88.9052882 313.191354 90.4324923 308.840413 91.1762088 306.720621 92.2380929 304.747982 93.4789462 302.882725 94.6840056 301.06917 96.2907515 299.526057 97.4043378 297.664777 98.1918023 296.352336 96.6805067 295.246704 95.4873785 295.755772L95.4873785 295.755772ZM91.4108574 331.394516C91.2875675 333.744978 93.3158853 336.743708 94.5885553 338.644759 96.1595074 340.999199 97.9810164 343.206486 100.013311 345.179125 104.077901 349.132357 109.085062 352.115178 114.434254 353.956573 126.520642 358.116614 137.970695 353.916802 148.577604 347.967068 154.280757 344.769484 160.127085 341.528152 165.603543 338.012401 167.631861 336.711891 166.331351 333.649528 163.980888 334.162573 162.672425 334.448924 161.574747 334.65971 160.329916 335.192641 159.061223 335.737503 157.824347 336.338044 156.595425 336.962448 154.217123 338.171485 151.882569 339.468017 149.548015 340.760573 145.002197 343.278074 140.512058 346.006361 135.620232 347.807985 125.084911 351.685652 113.857575 349.713013 105.123877 342.629808 102.928521 340.852046 100.892249 338.871453 99.1383507 336.656212 98.2673671 335.554556 97.4361545 334.405176 96.6725525 333.223979 95.8652025 331.975171 95.3282948 330.746249 94.1311895 329.835495 92.9579469 328.936671 91.4744909 330.181502 91.4108574 331.394516L91.4108574 331.394516ZM182.975489 334.480741C181.798269 337.829454 184.645868 340.812275 187.684368 341.715076 191.315454 342.796845 195.475495 342.40709 199.162261 341.878137 206.591472 340.816252 215.054727 337.829454 220.057912 331.979148 221.457849 330.344563 219.715881 327.835016 217.707449 328.932694 212.362235 331.859836 207.398822 334.977878 201.39341 336.437471 198.502063 337.141417 195.586853 337.45163 192.615964 337.515264 190.003013 337.570943 186.431583 337.714119 185.811157 334.476764 185.520829 332.941605 183.416946 333.227956 182.975489 334.480741L182.975489 334.480741Z"/><path d="M187.748001,343.842821 C184.91631,345.525132 188.475809,348.332961 190.03483,349.15622 C193.200597,350.826599 196.950996,351.260103 200.470724,350.830576 C207.315303,349.991409 215.567773,346.046132 218.952279,339.770277 C219.759629,338.274889 218.188677,336.994265 216.784763,337.60276 C211.924755,339.702666 208.114699,343.616127 202.932545,345.214919 C200.494587,345.96659 197.909476,346.268849 195.360159,346.101811 C194.198847,346.026246 193.037536,345.799552 191.904064,345.529109 C191.291592,345.381957 190.699005,345.191056 190.106418,344.98027 C189.812113,344.864935 189.517808,344.757553 189.219526,344.658126 C188.730343,344.335981 188.66671,344.491088 189.024648,345.119469 C189.438266,344.316096 188.579214,343.349662 187.748001,343.842821 L187.748001,343.842821 Z"/><path d="M190.50015 352.190743C190.150166 357.050752 194.584626 360.300038 199.046925 360.848877 205.215397 361.608502 211.638404 358.621705 217.37735 356.744516 229.531349 352.759467 241.697279 348.802258 253.827415 344.749599 259.916346 342.713327 266.013231 340.708871 272.038528 338.493629 277.682024 336.417586 283.635734 334.377336 288.698574 331.072371 293.248369 328.101481 296.720372 323.973257 299.750918 319.514934 302.984295 314.754352 305.780192 309.699465 307.860212 304.32641 312.044115 293.516668 312.020252 281.91946 306.897755 271.431862 302.630334 262.690208 295.248847 255.634842 285.588487 253.443463 276.516736 251.387305 266.864329 253.674135 259.804987 259.767044 255.589268 263.406085 253.008134 268.950155 250.737213 273.921523 248.34698 279.151402 246.270937 284.52048 243.578444 289.607184 238.062215 300.027171 230.469943 309.592084 220.813559 316.46848 215.635383 320.151269 209.936208 323.098296 203.875117 325.031164 197.746415 326.983918 191.562034 327.50094 185.19073 327.982168 182.748794 328.165115 181.774406 332.170049 184.566326 332.595598 194.886885 334.170528 205.935251 330.921241 215.126315 326.311789 224.2617 321.734153 232.275544 314.965138 238.694573 307.038789 245.217007 298.985172 249.727031 290.03671 253.819461 280.575202 255.935275 275.683376 258.106768 270.656328 261.256627 266.321295 263.758219 262.877131 267.810877 260.494852 271.831719 259.261953 279.515464 256.903536 288.265071 258.561984 294.413658 263.803795 301.8548 270.151237 305.979047 280.583156 305.477933 290.267381 304.937048 300.683392 299.599788 310.689762 293.498926 318.91837 290.317251 323.205678 286.447539 326.423147 281.639232 328.745771 276.461056 331.247363 270.956758 333.144437 265.539957 335.041511 252.789394 339.499834 239.947358 343.695669 227.164978 348.058542 220.745949 350.249921 214.326919 352.433345 207.923798 354.664495 204.960863 355.69854 201.73544 356.843943 198.561719 356.227494 196.270913 355.782059 193.836932 354.087817 192.965948 351.860644 192.440972 350.556157 190.603555 350.731149 190.50015 352.190743L190.50015 352.190743ZM300.112833 58.9834277C300.033291 77.7871305 292.592149 95.0954458 280.294975 109.130612 274.945783 115.235452 268.419373 121.149392 260.413483 123.348725 256.595473 124.398678 252.578608 124.279365 248.669125 123.893587 242.985857 123.332817 236.586713 121.75391 232.585757 117.398992 226.870673 111.18677 225.1645 102.16672 221.048208 94.976133 217.866533 89.4201319 213.440027 84.500466 207.860165 81.2829966 202.355867 78.1052981 195.984563 76.7332005 189.660983 76.8366049 181.539758 76.9718262 173.545799 79.2864952 166.136473 82.4880562 158.078881 85.9680139 150.916135 91.9694495 146.406111 99.5378604 135.978171 117.037076 142.532421 137.841257 138.571236 156.760296 134.562325 175.906029 121.461778 191.170118 106.674943 203.248554 98.6610994 209.794851 90.0506913 215.57357 81.476077 221.344334 72.7423789 227.218502 64.0245892 233.124488 55.3147537 239.03445 40.9017657 248.814125 26.5643424 258.705159 12.1235147 268.445064 9.01342737 270.54497 5.04428772 272.541471 2.68984817 275.508384.124622653 278.741761.426881784 283.959709 4.72214312 285.534639 6.73852969 286.274378 9.01740446 286.047684 11.1093558 285.844852 13.6268562 285.598272 16.1284482 285.164769 18.5664067 284.496617 22.774172 283.34326 27.2165858 281.573453 30.6846117 278.873006 33.6912946 276.530497 35.0116897 272.640898 32.4583955 269.447292 31.1777713 267.844523 28.7040189 269.896703 29.6784069 271.594923 31.7544499 275.218056 22.7940575 278.097472 20.6026788 278.849143 16.5062721 280.257034 11.8013701 281.338804 7.43849821 280.984843 4.97667713 280.785988 6.32888903 278.72983 7.53394846 277.699763 8.97763352 276.466863 10.6758526 275.476567 12.2468046 274.414683 15.1938312 272.418181 18.1488119 270.429634 21.1077697 268.445064 35.91449 258.518236 50.5303099 248.297103 65.285328 238.290733 81.6550462 227.190663 98.8082519 216.734881 113.770079 203.737736 127.622297 191.703048 139.505853 176.371349 143.323863 158.072737 145.332296 148.444191 144.779479 138.664516 144.870953 128.900749 144.958449 119.76934 145.77773 110.359534 150.466724 102.301941 154.817664 94.8289805 161.936662 89.3286588 169.894827 86.1430061 176.803039 83.3789254 184.192479 81.4023094 191.685324 81.6329809 197.579377 81.8159273 203.302415 83.573803 208.094813 87.0537607 213.12186 90.7047335 216.62568 95.9942692 219.182951 101.574133 222.475985 108.76472 224.953714 117.450694 231.4324 122.529444 236.212867 126.275867 242.349522 127.755346 248.287324 128.363841 251.771258 128.72178 255.342688 128.81723 258.810714 128.25646 266.502413 127.015606 273.259496 122.326612 278.779702 117.041053 291.287662 105.050113 300.442932 89.0900331 302.753624 71.8254659 303.322348 67.5659977 303.393936 63.2786898 303.111562 58.995359 302.972364 57.0863537 300.120787 57.0465827 300.112833 58.9834277L300.112833 58.9834277Z"/><path d="M178.779655 119.168799C178.700113 119.868767 178.735907 120.711911 178.994418 121.38404 179.384173 122.390245 180.22334 123.074306 181.348857 122.923176 182.378925 122.783978 183.234 121.889131 183.210137 120.815316 183.190252 119.880699 182.876061 118.98983 182.430627 118.182479 182.02894 117.454671 181.022736 117.021168 180.215386 117.279679 179.328494 117.56603 178.879082 118.269975 178.779655 119.168799L178.779655 119.168799ZM188.097985 115.311017C186.757705 115.291132 186.089553 116.659252 186.12137 117.824541 186.14921 118.711433 186.411698 119.558554 186.936674 120.278408 187.668459 121.280636 188.937152 121.6863 190.003013 120.863041 190.456402 120.513057 190.710936 120.067622 190.790478 119.502875 190.885928 118.794952 190.647303 118.289861 190.217777 117.748976 190.380837 117.955785 190.356975 117.9359 190.237662 117.725114 190.18596 117.63364 190.142212 117.542167 190.098464 117.450694 190.042784 117.339335 189.971197 117.224 189.931426 117.104687 190.014945 117.351267 190.022899 117.299564 189.955288 117.076847 189.6928 116.197909 189.120099 115.326926 188.097985 115.311017L188.097985 115.311017ZM171.863488 132.675012C174.249745 134.587994 177.097344 135.44307 180.159706 135.112971 183.619778 134.743101 185.938424 132.603424 189.076351 131.481883 192.138713 130.388182 195.515265 131.481883 198.60149 130.189328 201.027518 129.171191 203.99443 126.411088 202.288256 123.591328 201.564425 122.394222 200.184374 122.414108 199.186123 123.189641 198.426498 123.778251 198.148102 124.732754 197.360637 125.297501 196.545333 125.882134 195.499357 126.037241 194.528946 126.096897 191.908041 126.252004 189.366678 126.049172 186.896903 127.115034 184.757227 128.03772 183.023214 129.763779 180.776156 130.443862 178.342174 131.179624 175.768995 130.813732 173.390693 130.054106 171.966893 129.604695 170.622635 131.680738 171.863488 132.675012L171.863488 132.675012ZM161.399755 137.467411C159.466887 135.689649 158.50443 133.458499 157.884004 130.940999 157.044837 127.536606 156.476112 123.921427 156.913593 120.413629 157.534019 115.426353 162.055975 108.581773 167.985822 111.341877 170.002209 112.280471 171.19136 114.615026 171.083978 116.794473 170.956711 119.415379 168.821012 121.157346 167.150632 122.939084 165.090498 125.142395 163.766125 127.465018 163.193424 130.447839 162.660493 133.215897 162.779806 135.972023 160.095268 137.626494 159.43507 138.036135 159.645856 138.899165 160.294123 139.161653 162.823554 140.175812 164.847895 138.740081 165.92171 136.473137 167.325624 133.510202 166.97564 129.962633 169.035775 127.29798 170.817513 124.991265 173.27138 123.304977 174.563935 120.616461 175.709338 118.234182 175.784903 115.426353 174.870171 112.9526 172.774243 107.281263 166.550091 105.085907 161.097495 107.31308 155.05629 109.782856 152.280278 116.496191 152.38766 122.68455 152.455271 126.486653 153.198987 130.591014 154.575062 134.146537 155.632969 136.882778 157.430615 139.28892 160.51684 139.595156 161.598609 139.706515 162.155402 138.163402 161.399755 137.467411ZM195.944792 98.889594C190.317204 100.762805 189.203618 108.188041 191.653507 112.968508 192.961971 115.521803 195.352205 117.53819 198.04072 118.500647 199.456565 119.005738 200.947976 119.009715 202.387684 119.391516 204.105788 119.852859 205.314825 121.061896 206.583518 122.235139 208.786828 124.271411 211.391824 126.232119 214.557591 126.057126 217.619953 125.890089 219.835194 123.507809 220.308468 120.560782 220.837422 117.251839 219.274424 113.867332 217.906304 110.936213 216.530229 107.993163 214.724629 105.181357 212.421891 102.870666 209.888483 100.321348 206.659082 98.300984 203.143331 97.4657941 201.504769 97.0760389 199.703145 97.0601305 198.128216 97.7083969 197.289049 98.0544041 196.247051 98.9929984 195.785708 99.2753721 194.680076 99.9475011 195.690258 101.689468 196.803844 101.013362 196.175463 101.395163 196.823729 101.025294 197.193599 101.01734 197.67085 101.013362 198.092422 101.033248 198.569674 101.076996 200.001427 101.212217 201.492838 101.562201 202.872889 101.979796 205.740374 102.85078 208.218103 104.704106 210.186765 106.931279 212.266785 109.285719 213.790012 112.161158 214.935415 115.072391 215.635383 116.850153 217.452915 122.453879 213.475821 121.606758 210.803214 121.034056 208.989659 118.285884 206.861914 116.766634 204.324528 114.957056 201.361593 115.398513 198.696941 114.086072 196.362386 112.936692 194.676099 110.482824 194.608488 107.865896 194.5369 105.248968 196.076036 102.930322 197.424271 100.802576 198.01288 99.8679592 197.022584 98.5276784 195.944792 98.889594Z"/><path d="M200.653671 110.681679C201.214441 110.701565 201.739417 110.586229 202.2286 110.331695 202.733691 110.168634 203.171171 109.88626 203.541041 109.488551 203.93875 109.118681 204.221124 108.681201 204.384185 108.17611 204.638719 107.690904 204.758032 107.165928 204.734169 106.60118 204.686444 106.239265 204.638719 105.877349 204.587017 105.515433 204.392139 104.823419 204.042155 104.222878 203.537064 103.71381 203.262644 103.499046 202.984248 103.28826 202.709828 103.073497 202.073493 102.703628 201.385456 102.516704 200.649694 102.516704 200.088923 102.496819 199.563947 102.612154 199.074764 102.866688 198.569674 103.029749 198.132193 103.312123 197.762323 103.709832 197.364614 104.079702 197.08224 104.517183 196.91918 105.022274 196.664646 105.507479 196.545333 106.032456 196.569195 106.597203 196.61692 106.959119 196.664646 107.321034 196.716348 107.68295 196.911225 108.374964 197.26121 108.975506 197.766301 109.484574 198.04072 109.69536 198.319117 109.910123 198.593536 110.124886 199.229871 110.494756 199.913931 110.681679 200.653671 110.681679L200.653671 110.681679ZM163.996797 121.31643C169.322126 121.31643 169.33008 113.040096 163.996797 113.040096 158.667491 113.040096 158.659537 121.31643 163.996797 121.31643L163.996797 121.31643ZM172.678793 161.123169C175.916147 164.149738 181.094323 164.813912 185.349814 164.845729 189.808136 164.881523 194.377817 164.014516 198.720803 163.087853 202.610401 162.256641 206.488067 161.03965 209.995864 159.138599 213.105951 157.456288 217.52848 154.493352 217.961983 150.707158 218.160838 148.981099 216.00923 148.141932 214.70872 148.837924 213.249127 149.621411 212.334395 151.228158 211.097519 152.325836 209.928254 153.367834 208.587973 154.199047 207.203944 154.922878 204.129651 156.529625 200.745144 157.440379 197.380522 158.223867 193.642054 159.094851 189.859838 159.786865 186.02592 160.021514 184.124869 160.140826 182.219841 160.208437 180.322767 160.001628 178.195022 159.770957 176.170681 159.086896 174.074753 158.717027 172.766289 158.494309 171.545321 160.065262 172.678793 161.123169L172.678793 161.123169Z"/></g></svg>