<svg xmlns="http://www.w3.org/2000/svg" width="282" height="146" viewBox="0 0 282 146"><g transform="translate(.11 .81)"><path d="M213.521194,36.5859378 C219.013561,39.4812626 225.325209,38.614256 230.742011,35.9694881 C236.822987,33.0025756 241.336989,27.7647422 246.224837,23.2507399 C250.858151,18.9713862 256.99083,14.5289717 263.684279,15.3800699 C269.291981,16.0959469 273.929273,20.7252849 275.543973,26.0028893 C279.755715,39.7795447 267.689212,52.0528583 256.318701,57.5134091 C251.06496,60.034887 243.365306,62.4251208 237.642268,60.1860166 C236.290057,59.657063 234.894097,58.8298273 233.879938,57.7719202 C231.501636,55.2941903 229.536951,52.2358046 227.47284,49.4995636 C223.40825,44.1145777 219.407293,38.6699353 214.984765,33.5752773 C210.538374,28.4527795 205.602801,23.7677622 200.345082,19.4844314 C189.662608,10.7785716 177.528495,4.08909862 163.89104,1.47217044 C136.580337,-3.7736172 109.003168,5.51687555 86.687695,21.1309486 C75.5120613,28.9499163 65.3346782,38.2046153 56.0481641,48.1751912 C51.1642929,53.4170017 46.4951847,58.8815296 42.1760608,64.5966144 C38.2546463,69.7827456 34.6951473,75.2592047 30.3402296,80.1072829 C28.1090799,82.592967 25.6790756,84.9036589 22.982606,86.8842519 C24.1121006,88.3478227 25.2415953,89.8113935 26.3710899,91.2749643 C28.8925674,88.8926847 31.418022,86.5104051 33.9394995,84.1281255 C36.5961982,81.6185788 32.6628524,77.7846597 29.9624057,80.1510309 C26.8483412,82.8753407 21.4474478,80.8430454 18.0907806,79.6777567 C12.8609022,77.8681787 7.73442825,75.4580594 2.15854269,77.3909274 C0.579636443,77.9397664 -0.716896146,79.9999014 0.448392346,81.5947163 C3.73744894,86.1087185 7.5713674,90.7738504 13.2705429,92.106177 C16.7385687,92.9175043 20.4452201,93.1044277 24.000742,92.9930691 C23.5115595,92.861825 23.0223769,92.7305809 22.5371715,92.5953596 C45.0316142,105.95442 71.1253268,112.043352 97.1554059,112.40129 C123.770118,112.767183 150.185975,107.135617 174.800209,97.1650412 C188.942754,91.434048 202.381355,84.3985679 215.135894,76.0228069 C217.82441,74.2569769 215.414291,70.0213713 212.594531,71.6758426 C185.955957,87.3455949 157.253271,99.8177633 126.526244,104.490849 C97.2707417,108.937241 65.9869216,106.487351 38.7438288,94.420846 C35.021269,92.7703518 31.3702969,90.9448654 27.8227292,88.9443869 C26.5102882,88.2046473 25.2893204,87.2421904 23.7422309,87.1904882 C22.8354535,87.1586715 21.924699,87.2063966 21.0139445,87.182534 C18.4328107,87.1109463 15.5335092,87.0473128 13.1114591,86.045085 C9.83433379,84.6888958 7.42023783,81.459495 5.39589707,78.6993915 C4.82717265,80.0993287 4.25447114,81.5032431 3.68574673,82.9031803 C9.10254852,81.0061063 14.7221821,84.8042315 19.8924041,86.1564436 C24.7603669,87.4291139 29.9663828,87.6239915 33.9474537,84.1201713 C32.6230814,82.7957988 31.2947321,81.4674492 29.9703599,80.1430768 C27.4568366,82.5333106 24.9393362,84.9235444 22.4258129,87.3137781 C20.1827319,89.4455008 23.2172545,93.6294042 25.8142968,91.7044905 C37.0376556,83.4003172 43.7032649,70.7969047 52.4886651,60.2178333 C61.6041642,49.2450296 71.7338222,39.0000342 82.9611581,30.1788385 C104.771541,13.0415383 132.698694,1.26536153 160.852541,5.97026432 C175.014972,8.33663555 187.542817,15.1175817 198.448009,24.2967158 C203.813108,28.810718 208.76459,33.734361 213.262683,39.1153699 C217.804524,44.5441039 221.95661,50.2830512 226.279711,55.8828003 C229.421615,59.9473909 231.978887,63.5227988 237.109338,65.0778428 C243.309627,66.9590085 250.830312,65.0181864 256.597098,62.5682962 C268.78689,57.3901191 280.20115,46.4968573 280.936912,32.5770265 C281.593132,20.096904 270.942475,8.18948305 257.929424,11.2558229 C251.291654,12.8188211 245.986211,17.4759987 241.293241,22.1729473 C236.457094,27.0130713 231.652765,32.5173701 224.84398,34.4741006 C221.590718,35.4087178 218.146554,35.4484888 215.048398,33.9650325 C213.310408,33.145751 211.783204,35.6712061 213.521194,36.5859378 L213.521194,36.5859378 Z"/><path d="M229.604562 69.3890132C237.99623 81.2566632 233.462343 96.8906217 226.108696 108.050349 217.9477 120.438998 204.978397 129.10111 190.748355 132.94696 181.990794 135.317309 172.907112 135.882056 163.89104 135.054821 164.575101 136.701338 165.255184 138.347855 165.939244 139.998349 175.329162 128.798851 182.81803 116.27498 188.282557 102.725019 188.851281 101.313151 187.66213 99.6666337 186.329804 99.2848326 184.734989 98.8274667 183.454365 99.8456029 182.889618 101.237586 177.783029 113.817136 170.632214 125.557519 161.846814 135.905919 160.148595 137.906397 161.3457 140.59889 163.895018 140.849447 181.099925 142.539712 199.215588 138.813175 213.553011 128.898278 226.200169 120.152647 236.763331 106.348152 238.942778 90.8255526 240.131929 82.3622955 238.867213 73.3422452 232.738512 66.9749169 231.203354 65.3761249 228.272235 67.5038704 229.604562 69.3890132L229.604562 69.3890132ZM78.2244393 107.724227C74.8359554 111.275773 71.7179138 114.958562 67.9197892 118.112398 64.1455271 121.242371 59.985487 123.946796 55.7260195 126.360892 46.0577044 131.841328 35.5462454 135.607637 25.1262596 139.385876 26.1881436 140.765928 27.2500277 142.14598 28.3119117 143.530009 32.3526391 137.838787 34.9417271 131.125451 36.5922211 124.376322 38.2188525 117.72662 39.5392476 110.130369 38.5529283 103.297721 38.0915855 100.09616 33.410546 101.154067 33.2077142 104.021552 32.984997 107.163457 33.1043098 110.305361 32.7861423 113.447266 32.4560435 116.728369 31.8634565 119.981632 31.0680378 123.179216 29.5209483 129.403369 27.1704858 135.428667 23.4439489 140.682409 22.0559431 142.643117 24.3745888 145.641846 26.629601 144.826542 37.5984258 140.841493 48.6428154 136.800765 58.7525879 130.890803 63.1910246 128.29376 67.3868586 125.302985 71.2406625 121.894615 75.0268559 118.549878 78.9403162 114.616532 81.2748703 110.078667 82.2413041 108.181593 79.8073227 106.065779 78.2244393 107.724227L78.2244393 107.724227ZM262.761593 30.3538307C263.278615 30.3737162 263.759844 30.2663346 264.205278 30.0316861 264.670598 29.8805565 265.072285 29.6220453 265.410338 29.2561526 265.77623 28.9180996 266.034741 28.512436 266.185871 28.051093 266.420519 27.6056584 266.527901 27.12443 266.508015 26.6074077 266.464267 26.2733317 266.420519 25.9432329 266.372794 25.609157 266.193825 24.9728218 265.87168 24.4239828 265.410338 23.9546857 265.155804 23.759808 264.905247 23.5649304 264.650713 23.3700528 264.06608 23.0319997 263.433722 22.8609847 262.757616 22.8570076 262.240594 22.8371221 261.759365 22.9445037 261.313931 23.1791522 260.848611 23.3302818 260.446924 23.588793 260.108871 23.9546857 259.742979 24.2927387 259.484468 24.6984023 259.333338 25.1597453 259.09869 25.6051799 258.991308 26.0864083 259.011194 26.6034306 259.054942 26.9375065 259.09869 27.2676054 259.146415 27.6016813 259.325384 28.2380164 259.647529 28.7868555 260.108871 29.2561526 260.363405 29.4510303 260.613962 29.6459079 260.868496 29.8407855 261.457106 30.1828156 262.085487 30.3498536 262.761593 30.3538307L262.761593 30.3538307Z"/></g></svg>