<?xml version="1.0" standalone="no"?>
<!DOCTYPE svg PUBLIC "-//W3C//DTD SVG 20010904//EN"
 "http://www.w3.org/TR/2001/REC-SVG-20010904/DTD/svg10.dtd">
<svg version="1.0" xmlns="http://www.w3.org/2000/svg"
 width="384.000000pt" height="384.000000pt" viewBox="0 0 384.000000 384.000000"
 preserveAspectRatio="xMidYMid meet">
<metadata>
Created by potrace 1.14, written by Peter Selinger 2001-2017
</metadata>
<g transform="translate(0.000000,384.000000) scale(0.100000,-0.100000)"
fill="#000000" stroke="none">
<path d="M0 1920 l0 -1920 1920 0 1920 0 0 1920 0 1920 -1920 0 -1920 0 0
-1920z m3126 1285 c93 -27 163 -98 190 -192 14 -47 14 -59 -1 -114 -44 -175
-193 -343 -405 -458 -106 -58 -163 -53 -224 19 -43 51 -50 44 149 158 186 107
314 221 365 326 39 80 37 107 -10 123 -124 42 -348 -11 -635 -152 -376 -184
-645 -393 -838 -650 -79 -104 -161 -262 -152 -288 4 -9 25 -22 47 -29 72 -21
166 -1 557 121 373 116 588 139 673 71 23 -17 25 -16 168 66 79 45 146 81 148
79 2 -2 -5 -23 -16 -47 -21 -47 -66 -92 -160 -158 l-62 -44 8 -40 c34 -192
-52 -421 -249 -661 -137 -166 -349 -297 -503 -312 -79 -7 -132 8 -184 52 -55
48 -107 151 -98 198 16 87 230 338 411 484 84 67 275 200 359 248 41 24 45 29
31 38 -38 21 -125 -2 -376 -101 -140 -55 -290 -111 -334 -125 -175 -55 -310
-70 -364 -42 -45 23 -124 116 -165 195 -48 91 -45 116 29 268 69 140 173 279
306 407 162 157 317 266 526 373 356 181 623 243 809 187z m-1469 -391 c22
-14 21 -15 -63 -146 -223 -350 -421 -868 -579 -1513 -61 -250 -95 -426 -95
-492 l0 -56 -55 6 c-30 3 -80 17 -110 31 l-55 25 0 49 c0 111 71 444 186 876
35 132 64 244 64 249 0 6 -17 -12 -37 -39 -71 -94 -136 -165 -167 -181 -82
-42 -163 -34 -196 19 -80 131 -24 457 146 855 100 235 123 264 208 271 56 4
152 -13 162 -29 3 -5 -4 -24 -15 -42 -112 -182 -302 -729 -301 -867 l1 -35 40
45 c22 25 90 123 152 218 418 645 488 739 575 767 51 16 104 12 139 -11z"/>
<path d="M2655 1844 c-224 -161 -353 -272 -463 -402 -99 -115 -156 -198 -147
-213 12 -18 119 -2 201 30 124 48 291 174 396 298 55 65 109 165 132 242 17
57 21 131 9 131 -5 0 -62 -39 -128 -86z"/>
</g>
</svg>
