<svg xmlns="http://www.w3.org/2000/svg" width="240" height="240" viewBox="0 0 240 240"><g fill="none" fill-rule="evenodd" stroke="#000" transform="translate(5.372 5.556)"><path fill="#000" fill-rule="nonzero" stroke-width="2" d="M81.550309 118.573095C75.700004 91.0635328 73.2063662 62.5596965 74.5267613 34.4535697 72.8961528 35.1296757 71.2695215 35.8018047 69.638913 36.4779108 70.191729 37.1460626 70.6411406 38.1801072 71.2377047 38.7726943 71.5121242 39.0431367 71.4166739 38.9357552 71.3530404 38.9039384 71.166117 38.8124652 75.2386611 36.3148499 75.1113941 36.9631163 75.1273025 36.8875515 74.8807227 36.7602845 74.7614098 36.3943918 74.5625551 35.7660108 74.5188071 35.1455841 74.5267613 34.4535697 72.8961528 35.1296757 71.2695215 35.8018047 69.638913 36.4779108 81.975858 50.1034365 91.5686084 65.8765933 101.149427 81.4707808 110.980803 97.470632 120.883767 113.426735 130.703212 129.434541 136.211487 138.410843 141.687945 147.399076 147.116678 156.423104 149.013752 159.57694 153.969211 156.7015 152.060206 153.531756 142.383936 137.448386 132.540629 121.46842 122.681413 105.496409 112.62732 89.2022526 103.022639 72.5183411 92.2924394 56.6616654 86.6131495 48.269996 80.4963791 39.9459372 73.6875945 32.4292286 71.9814213 30.5440858 68.8196317 32.0633359 68.7997462 34.4535697 68.7758836 37.4721844 70.4184234 43.135567 74.5943719 42.125385 79.8322045 40.8606689 75.4494471 34.5450428 73.6875945 32.4252515 71.9933525 30.3889791 68.9071277 32.1786716 68.7997462 34.4495926 67.4554885 63.0568333 70.0724162 92.0936003 76.0261257 120.092346 76.7937048 123.69957 82.313911 122.176343 81.550309 118.573095L81.550309 118.573095ZM201.825581 182.524775C195.295193 181.900371 189.03127 179.840236 183.491178 176.31653 180.373137 174.33196 177.497698 179.28742 180.599831 181.260059 187.01886 185.344535 194.285011 187.531937 201.825581 188.251791 205.492461 188.601775 205.468599 182.870782 201.825581 182.524775L201.825581 182.524775Z"/><path fill="#000" fill-rule="nonzero" stroke-width="2" d="M45.2195569,153.078367 C56.6417703,142.714059 69.3326768,131.041287 85.3325252,129.108419 C92.737874,128.213573 100.934664,129.27148 107.04348,133.849115 C112.519939,137.953477 115.622072,144.20547 119.92131,149.367738 C124.256343,154.569778 130.03506,158.37188 136.804074,159.374108 C144.539521,160.519511 152.457915,158.74175 159.306471,155.070892 C173.345612,147.542252 181.566265,132.648033 189.870437,119.722476 C200.544956,103.114129 211.963193,86.9750796 223.954131,71.293396 C224.900679,70.0565196 224.137077,68.0997891 222.928041,67.3759579 C221.46447,66.5009971 219.94522,67.1810803 219.010603,68.4020483 C208.419602,82.2542685 198.305853,96.4644271 188.713102,111.028547 C184.059903,118.08789 179.728847,125.373927 174.837022,132.274186 C170.593463,138.259713 165.709592,144.145813 159.549073,148.250175 C153.21754,152.465895 145.279261,154.959533 137.647217,153.750496 C131.148646,152.724406 126.161371,148.51664 122.426879,143.302669 C118.410015,137.690989 114.592005,131.848637 108.670112,128.03858 C102.290853,123.934219 94.1616735,122.629732 86.6966684,123.250159 C68.3901055,124.769409 54.1799493,137.225669 41.1668982,149.033662 C38.4346348,151.511392 42.4952476,155.55212 45.2195569,153.078367 L45.2195569,153.078367 Z"/><path fill="#000" fill-rule="nonzero" stroke-width="2" d="M49.5148182 157.938377C61.0205507 156.283905 71.3013382 164.850567 77.398223 173.74335 85.0541287 184.907055 89.5840385 197.836589 96.8462119 209.234942 100.914779 215.622155 105.587864 221.651431 111.020574 226.944943 113.661365 229.518124 117.714023 225.473419 115.069256 222.896261 104.760629 212.850121 98.1387674 200.47738 91.8032569 187.726815 85.9768144 175.994386 79.5219912 163.856293 68.0242129 156.761157 61.9392593 153.002803 55.0787725 151.404011 47.9915913 152.422147 46.4484789 152.644864 45.6331746 154.585686 45.9911131 155.945852 46.4246163 157.588392 47.9915913 158.161094 49.5148182 157.938377L49.5148182 157.938377ZM84.5888087 146.424688C85.2688917 146.448551 85.9052268 146.309352 86.4978137 145.999139 87.1102862 145.800284 87.6432168 145.458254 88.0926284 144.973049 88.5738567 144.523637 88.9158868 143.994683 89.1187186 143.378234 89.4289319 142.789624 89.5721073 142.153289 89.5442676 141.469228 89.4846112 141.031748 89.4249548 140.590291 89.3652984 140.15281 89.1306499 139.313643 88.7051008 138.585835 88.0926284 137.965408 87.7585525 137.706897 87.4244766 137.448386 87.0904007 137.189875 86.3188445 136.740463 85.4836548 136.517746 84.5888087 136.513769 83.9087257 136.489906 83.2723906 136.629104 82.6798037 136.939318 82.0673312 137.138173 81.5344006 137.480203 81.084989 137.965408 80.6037607 138.41482 80.2617306 138.943773 80.0588988 139.560223 79.7486855 140.148833 79.6055101 140.785168 79.6333498 141.469228 79.6930062 141.906709 79.7526626 142.348166 79.8083419 142.785647 80.0429904 143.624814 80.4685395 144.352622 81.0810119 144.973049 81.4150878 145.23156 81.7491637 145.490071 82.0832396 145.748582 82.8587729 146.197994 83.6939626 146.424688 84.5888087 146.424688L84.5888087 146.424688Z"/><circle cx="114.341" cy="114.341" r="114.341" stroke-width="10"/></g></svg>