<svg xmlns="http://www.w3.org/2000/svg" width="240" height="240" viewBox="0 0 240 240"><g fill="none" fill-rule="evenodd" stroke="#000" transform="translate(5.654 5.644)"><path fill="#000" fill-rule="nonzero" stroke-width="2" d="M141.059564 224.550733C143.270828 220.863966 145.40255 217.125497 147.4428 213.339303 148.902393 210.634879 144.782124 208.22476 143.32253 210.929184 141.278304 214.715378 139.150559 218.44987 136.939295 222.140613 135.356411 224.781404 139.480658 227.183569 141.059564 224.550733L141.059564 224.550733ZM51.5789299 157.87872C41.1629212 179.585702 57.2940137 199.713777 66.0436202 218.752129 67.3242444 221.540072 71.4405365 219.118022 70.1638894 216.34201 62.3409458 199.324022 46.329166 179.820351 55.6991991 160.28884 57.0195943 157.532713 52.9072792 155.106686 51.5789299 157.87872L51.5789299 157.87872ZM44.7780994 154.701022C38.8641609 156.38731 35.1535324 162.504081 33.1610084 167.928838 34.9228609 168.167464 36.6847135 168.40609 38.4505432 168.644715 35.7620277 145.060545 32.3099103 116.10332 50.946572 97.6575555 55.7906723 92.8651566 61.7682443 89.4687179 67.988419 86.7881562 69.4599438 86.1518211 69.7622029 84.0200984 69.046326 82.7593595 68.1832966 81.2440865 66.4651921 81.0730714 65.01753 81.7014523 53.3248741 86.780202 43.4736127 94.7423452 37.6948953 106.279896 31.7968652 118.052096 30.1702338 131.335592 30.6196454 144.364553 30.9099733 152.752246 32.0275366 161.056419 33.1649855 169.360592 33.5547407 172.2241 37.595468 171.591742 38.35907 169.360592 40.0413807 164.444903 43.6008797 161.120052 46.5717688 157.027622 47.4029814 155.878242 46.0229298 154.34706 44.7780994 154.701022L44.7780994 154.701022ZM72.0728944 77.2431294C69.3923332 69.0582689 63.3630589 61.656896 57.6957002 55.3372929 57.5087768 56.7809782 57.3218534 58.2286406 57.1389071 59.6723259 59.3978964 58.1371674 63.2795399 58.9723573 65.8209029 59.2785935 69.0701886 59.6683488 72.2956117 60.3842258 75.4295616 61.3228201 81.8008659 63.2278484 87.2017593 66.3657759 92.8134387 69.8377794 95.832053 71.7070138 99.6182463 67.0776758 96.6990594 64.8027778 90.7572812 60.1734398 83.3240929 57.023581 76.0738508 55.1185527 72.4944664 54.1799584 68.8236087 53.5674858 65.1408199 53.2413641 61.5057561 52.9192194 57.472983 52.6686625 54.3549414 54.9077667 52.899325 55.9537425 52.4857073 57.8587708 53.7981483 59.2427997 56.6894955 62.3051624 59.4535757 65.5067235 61.9790303 68.8792997 64.4448284 72.1723339 66.7117719 75.6801313 69.3684706 78.8220359 70.4144463 80.0628894 72.566054 78.7385169 72.0728944 77.2431294L72.0728944 77.2431294ZM105.683314 64.38916C106.550321 59.7995929 106.311695 54.919698 106.749176 50.2625203 107.206541 45.4263734 108.09741 40.6260203 109.242813 35.9091862 107.707655 36.3148499 106.172497 36.7205135 104.637339 37.1261772 110.010392 43.0043228 114.595982 49.4830098 118.40206 56.478719 118.966808 57.5167407 120.521851 58.2485261 121.679186 57.8110457 135.754121 52.5135558 151.523298 52.605029 165.586302 57.826954 165.87663 55.6713688 166.170934 53.5118065 166.461262 51.3562213 156.081047 51.765862 145.175856 56.7372301 138.542064 64.8385716 136.362616 67.4992479 139.822688 71.1740832 142.39189 68.6883991 149.097271 62.1898267 157.083275 58.4195411 166.461262 57.9462669 170.251433 57.7553663 170.836066 52.732296 167.336223 51.4755341 152.036343 45.9791895 135.241076 46.3172426 120.136073 52.2112966 121.229774 52.6567312 122.323475 53.1021658 123.413199 53.5436233 119.300884 46.1899755 114.293723 39.3732356 108.534891 33.2246475 107.146885 31.7451683 104.390759 32.4451369 103.929416 34.4416384 102.784013 39.3970981 102.072113 44.4201685 101.785762 49.4989182 101.51532 54.2674545 101.320442 59.8194784 102.915257 64.3851829 103.340806 65.610128 105.400941 65.8925017 105.683314 64.38916L105.683314 64.38916ZM150.067682 73.8029426C158.399693 73.858622 166.596483 79.0407761 173.031421 83.9286252 179.251596 88.6534135 184.318414 94.7304139 187.432478 101.917024 188.736965 100.612537 190.045429 99.3040726 191.349915 97.9995856 187.885867 96.5081752 184.346253 95.2752759 180.663464 94.440086 177.219301 93.6605755 173.003582 92.6225538 169.471922 93.0958281 168.11971 93.2747973 167.014078 93.9866972 166.815224 95.4383367 166.644209 96.711007 167.43565 98.099013 168.752068 98.4052492 172.025217 99.1608972 175.477334 99.1211262 178.790253 99.8648429 182.091241 100.604582 185.340527 101.630673 188.458568 102.947091 191.151061 104.08454 193.585042 101.765894 192.376006 99.0296531 188.776736 90.8845635 182.711668 84.1950906 175.584716 78.9572571 172.041125 76.3522602 168.167436 74.2324689 164.122731 72.5183411 159.505325 70.5576335 154.581683 69.4599555 149.709743 71.1701061 148.325714 71.6553116 148.492752 73.7949885 150.067682 73.8029426L150.067682 73.8029426ZM173.154711 108.125268C191.839098 135.56722 183.610491 170.259416 176.050036 199.960357 177.505652 199.769457 178.957291 199.578556 180.412907 199.391633 176.905111 193.151572 171.969537 187.925669 165.995942 183.992323 164.031258 182.699767 161.410353 185.288856 162.730748 187.257517 167.499284 194.364585 167.356108 203.066468 166.353881 211.247351 165.980034 214.289829 170.756524 214.261989 171.126393 211.247351 172.232025 202.259118 172.076919 192.630572 166.854995 184.847398 165.765271 185.937122 164.679524 187.022869 163.589801 188.112593 168.891267 191.600505 173.190505 196.269614 176.296615 201.801752 177.294866 203.575536 180.154396 203.213621 180.659487 201.233028 187.034769 176.189263 193.537317 149.530799 185.873457 123.989898 183.932636 117.515188 181.092991 111.310921 177.282935 105.719126 175.556876 103.193671 171.416721 105.579928 173.154711 108.125268L173.154711 108.125268ZM112.511984 115.415282C111.668841 117.865173 114.142593 121.134344 115.85672 122.733136 117.889015 124.63021 120.406516 125.791522 123.170596 124.793271 129.012947 122.689388 129.887907 115.029504 129.351 109.728037 129.028855 106.546362 124.300091 106.395232 124.280205 109.728037 124.264297 112.794377 125.055738 117.765745 122.076895 119.869628 119.189525 121.905901 116.934513 115.431191 115.113004 114.357375 114.074982 113.744903 112.877877 114.349421 112.511984 115.415282L112.511984 115.415282Z"/><path fill="#000" fill-rule="nonzero" stroke-width="2" d="M111.907466,141.747625 C111.01262,140.176673 110.316629,138.494362 109.374057,136.955226 C108.415578,135.392228 107.429259,133.849115 106.48271,132.278163 C104.629385,129.203869 102.895372,125.978445 101.66645,122.601892 C99.1767889,115.76129 99.2205369,108.737741 102.605044,102.199397 C108.300242,91.2027311 121.122393,82.7354969 133.785459,85.9489893 C139.341459,87.3608578 144.503727,90.7811591 147.542227,95.700825 C151.352283,101.865321 150.310284,109.457595 152.024412,116.270358 C153.921485,123.814906 157.309969,130.921974 158.097434,138.736965 C158.797402,145.676994 157.823015,152.728383 153.92944,158.634368 C149.920529,164.715346 142.853233,168.266891 135.547312,167.085694 C132.023607,166.51697 128.76239,164.910223 126.181256,162.444425 C123.564328,159.94681 122.088826,156.777065 120.470149,153.603344 C119.344632,151.396056 115.451057,152.358513 115.677751,154.903854 C116.337949,162.372837 122.613803,168.724257 129.32316,171.492315 C136.748394,174.554678 145.688901,173.596198 152.215312,168.87141 C158.347991,164.428995 162.337016,157.4134 163.629571,150.000096 C165.236317,140.793122 163.259702,131.796935 160.316652,123.079144 C158.888876,118.843538 157.369626,114.576115 156.808856,110.117793 C156.271948,105.866279 156.303765,101.487497 154.828263,97.4069985 C152.418144,90.7413881 147.192243,85.3046999 140.789122,82.3099478 C126.598851,75.6721771 110.5473,81.729292 101.360213,93.7281861 C95.6530837,101.185238 93.0242247,110.364372 95.1241303,119.627025 C96.1621517,124.200684 98.1904696,128.53174 100.640359,132.508835 C101.849396,134.469542 103.149906,136.358662 104.549843,138.184148 C106.069092,140.160764 107.815037,141.783419 109.541095,143.573111 C110.734224,144.821919 112.75061,143.235058 111.907466,141.747625 L111.907466,141.747625 Z"/><path fill="#000" fill-rule="nonzero" stroke-width="2" d="M141.099335 108.137199C141.306144 111.895554 143.32253 116.147068 146.953617 117.682226 150.087567 119.006599 154.219767 118.23902 155.810605 114.981779 157.170771 112.20179 152.963006 109.763831 151.658519 112.555751 150.990367 113.983528 149.144996 113.788651 148.031409 112.94153 146.253649 111.589318 145.760489 109.020114 144.722467 107.158834 143.803759 105.520271 140.991953 106.1924 141.099335 108.137199L141.099335 108.137199ZM139.182376 143.596974C141.48909 144.408301 144.817918 143.887302 147.164403 143.441867 148.65979 143.155517 149.510888 141.361847 149.129087 139.977818 148.683653 138.359141 147.176334 137.794393 145.665039 138.013133 143.262874 138.359141 140.31187 139.059109 138.38298 140.574382 137.225646 141.489114 138.044927 143.199265 139.182376 143.596974L139.182376 143.596974ZM40.4430672 178.734604C39.3533435 185.336581 37.4801323 191.74368 35.0501279 197.97181 33.9325646 200.835318 38.5459934 202.076172 39.6516255 199.240503 42.0816298 193.012373 43.954841 186.605274 45.0445647 180.003297 45.5417015 176.996614 40.944181 175.704058 40.4430672 178.734604L40.4430672 178.734604Z"/><circle cx="114.341" cy="114.341" r="114.341" stroke-width="10"/></g></svg>