<svg xmlns="http://www.w3.org/2000/svg" width="240" height="240" viewBox="0 0 240 240"><g fill="none" fill-rule="evenodd" stroke="#000" transform="translate(5.538 5.39)"><path fill="#000" fill-rule="nonzero" stroke-width="2" d="M130.575945,61.6767815 C121.082622,54.919698 108.188883,53.6867987 97.3075548,57.5883284 C86.8120041,61.3546369 78.3209088,69.4718867 73.158641,79.2634934 C67.0577791,90.8328613 66.3458793,103.917502 65.5663689,116.711815 C64.7868585,129.502151 62.5716172,141.950457 57.1866322,153.670954 C50.9147552,167.316366 41.7435769,179.422641 32.2900248,190.992009 C29.9753562,193.8237 34.0041523,197.896245 36.3387063,195.040691 C44.4678861,185.097955 52.346509,174.860914 58.5627067,163.585851 C64.5482329,152.73236 68.537258,141.019817 70.2116145,128.730595 C71.9018794,116.341945 71.0945293,103.611266 74.4591507,91.4731735 C77.354475,81.0333005 83.8013441,71.3888463 93.2270565,65.7970514 C103.798172,59.5251734 117.546985,59.4098377 127.684597,66.6282642 C130.695257,68.7599868 133.558765,63.7965729 130.575945,61.6767815 L130.575945,61.6767815 Z"/><path fill="#000" fill-rule="nonzero" stroke-width="2" d="M112.344947 84.8552883C113.108549 84.8831279 113.820448 84.7240441 114.484623 84.3780369 115.17266 84.1553196 115.769224 83.7735186 116.270338 83.2286566 116.811223 82.7275427 117.193024 82.1309785 117.419718 81.4429412 117.765725 80.7827435 117.924809 80.0668665 117.89697 79.3032643 117.829359 78.8101046 117.765725 78.320922 117.698115 77.8277623 117.435627 76.889168 116.958375 76.0698865 116.270338 75.3778721 115.896491 75.0875442 115.522645 74.8011934 115.148798 74.5108655 114.281791 74.0097516 113.351151 73.7552175 112.348924 73.7512404 111.585322 73.7234008 110.873422 73.8824845 110.209247 74.2284918 109.52121 74.4512091 108.924646 74.8330101 108.423532 75.3778721 107.882647 75.878986 107.500846 76.4755502 107.274152 77.1635875 106.928145 77.8237852 106.769061 78.5396622 106.796901 79.3032643 106.864511 79.7964241 106.928145 80.2856067 106.995755 80.7787664 107.258244 81.7173607 107.735495 82.5366422 108.423532 83.2286566 108.797379 83.5189845 109.171226 83.8053353 109.545072 84.0956632 110.408102 84.6007542 111.342719 84.8552883 112.344947 84.8552883L112.344947 84.8552883ZM76.1693011 214.580157C77.398223 203.965291 79.685052 193.453831 83.3042074 183.391782 86.2273714 175.270555 90.0493585 166.087443 97.8762792 161.53367 105.42878 157.142958 115.045393 158.308247 121.595667 163.959698 128.786252 170.159988 132.73153 179.577748 135.595037 188.426783 139.027269 199.033694 140.606175 210.105925 141.46125 221.190088 141.743624 224.841061 147.470639 224.872877 147.188266 221.190088 146.349099 210.30478 144.889505 199.387656 141.743624 188.904035 138.736941 178.901642 134.397932 168.000426 126.594874 160.75416 122.784818 157.214546 118.394106 154.701022 113.259678 153.663 108.542845 152.708498 103.571478 152.967009 99.053499 154.681136 89.2618939 158.395743 83.582604 167.379999 79.7725481 176.666515 74.8011808 188.784722 71.9496045 201.594943 70.446263 214.580157 70.2672938 216.131224 71.8899481 217.427756 73.3097706 217.443665 75.0000355 217.459573 75.9903318 216.107361 76.1693011 214.580157L76.1693011 214.580157ZM140.697648 66.9623401C156.904306 65.5504716 172.653597 60.9012481 188.904003 59.9348141 188.422774 58.1570529 187.941546 56.3792916 187.460318 54.5975533 181.73728 57.993992 176.006287 61.3904307 170.283249 64.7868694 164.67157 68.1156975 158.829219 71.2416938 153.448211 74.9284604 149.773377 77.4459612 145.513909 78.9771426 142.149288 81.9679177 137.973339 85.6825239 136.899524 91.3936316 136.545563 96.7388466 136.123991 103.050496 137.376775 109.218969 138.331278 115.423237 139.265895 121.488306 140.463 127.497696 142.097585 133.419589 145.326986 145.104293 150.119384 156.363447 156.136727 166.882862 163.176183 179.184016 171.826362 190.44317 180.289618 201.777889 181.220258 203.026697 182.755416 203.631216 184.207055 202.80398 185.435977 202.104011 186.155831 200.123418 185.233145 198.886542 178.090285 189.317652 170.812203 179.820351 164.484647 169.682737 158.256518 159.704207 153.082319 149.109227 149.431347 137.913706 147.617792 132.357705 146.166152 126.686368 145.052566 120.951398 143.942957 115.248244 142.833348 109.40987 142.360074 103.615243 142.125425 100.739804 142.065769 97.8126621 142.427684 94.945177 142.733921 92.5191494 143.179355 89.6914352 144.646903 87.6591399 147.04509 84.3422431 151.431825 82.8548097 154.824286 80.8304686 166.668071 73.7631717 178.476063 66.5924703 190.343711 59.5450589 192.682242 58.1570529 191.819213 54.036783 188.900026 54.207798 172.637689 55.174232 156.896352 59.8234555 140.693671 61.235324 137.050653 61.5534916 137.018837 67.2844848 140.697648 66.9623401L140.697648 66.9623401Z"/><circle cx="114.341" cy="114.341" r="114.341" stroke-width="10"/></g></svg>