<svg xmlns="http://www.w3.org/2000/svg" width="239" height="239" viewBox="0 0 239 239"><g fill="none" fill-rule="evenodd" stroke="#000" transform="translate(5.126 5.152)"><path fill="#000" fill-rule="nonzero" stroke-width="2" d="M75.4216074 112.826194C79.0686025 109.65645 81.6417822 105.476523 85.6148989 102.613015 86.8398438 101.7301 87.229599 100.401751 86.5574701 99.0097676 84.9586784 95.6888937 83.6303291 92.2765466 82.524697 88.7607951 81.5900799 85.7978597 80.5441043 82.6519779 80.492402 79.5180274 80.4526311 77.0721143 81.2321415 74.3080337 84.2229161 74.5387051 87.2813012 74.7773308 90.0175418 77.1238166 92.0498367 79.2396308 93.0719498 80.3015151 93.970773 81.4389641 94.7582376 82.6837947 95.581496 83.9843046 96.2019227 85.4677608 97.442776 86.4381719 100.481276 88.8045431 103.631134 86.020577 106.367375 84.5768917 112.102344 81.5503227 118.569098 79.6850654 125.031876 79.1362264 128.583421 78.8339672 132.178713 78.8777152 135.718327 79.3112185 139.468726 79.7725615 142.968569 80.9537586 146.603633 81.9003071 149.61827 82.6837947 151.813626 78.1141131 148.802966 76.6863362 142.248715 73.5842025 134.143398 72.7887836 126.980652 73.1745617 119.535532 73.5722712 112.261428 75.417643 105.564002 78.7027231 103.909531 79.5140504 102.32267 80.424805 100.759672 81.3991931 100.481276 81.5702082 99.2046285 82.1349556 100.369917 82.0434825 101.193175 81.9758718 100.723878 82.1548411 100.46139 81.4946434 100.127314 80.6634307 99.5068877 79.8401721 99.0017967 79.1083867 96.937685 76.1096575 94.3287115 73.4330729 91.2583951 71.4564569 88.1801244 69.4718867 84.1433742 68.2469416 80.5997836 69.650856 77.4698107 70.8877324 75.656256 73.7671488 75.190936 77.0124579 74.6301657 80.886148 75.6403476 84.7757464 76.71814 88.4744443 78.0464893 93.0321946 79.8799296 97.4427924 82.0235832 101.674421 82.3377736 100.473338 82.651964 99.2722558 82.9661544 98.0711733 78.7186182 101.256826 74.6381199 105.552088 72.0331235 110.209266 70.7922702 112.412576 73.5961213 114.413055 75.4216074 112.826194L75.4216074 112.826194ZM71.4524678 123.731387C70.7206825 125.974468 73.4330605 128.38061 74.7057305 130.023151 76.1613469 131.896362 77.6408258 133.753665 79.1799611 135.559266 82.4729948 139.417048 86.1199898 143.016318 89.9578854 146.329238 94.3764366 150.147249 99.1131554 153.607321 104.104408 156.641844 106.908259 158.348018 109.791652 159.922947 112.734702 161.382541 114.210204 162.114326 115.697637 162.814295 117.200978 163.490401 118.982716 164.289797 120.752523 165.467017 122.725161 164.759094 124.312022 164.190369 124.908586 162.655211 124.196686 161.143915 123.325703 159.290589 121.269545 158.876971 119.523601 158.097461 118.028214 157.429309 116.548735 156.737294 115.081187 156.009486 112.340969 154.657274 109.652454 153.201657 107.031549 151.630705 102.278922 148.787082 97.7450351 145.593475 93.5332927 141.994205 89.7948245 138.800598 86.3705467 135.308709 83.033765 131.701484 81.5344006 130.07883 80.0628759 128.432313 78.627145 126.753979 77.3306125 125.238706 75.6125079 122.108732 73.369427 122.267816 72.4546954 122.335427 71.7427956 122.848472 71.4524678 123.731387L71.4524678 123.731387ZM138.176171 166.341977C142.17315 167.897021 147.403029 164.906246 150.803444 163.05292 156.741245 159.819543 162.189864 155.7987 167.395879 151.503438 172.510422 147.279764 177.493721 142.737922 181.745234 137.631332 183.72185 135.257007 185.443931 132.763369 187.058631 130.130532 189.265918 126.527284 191.433434 122.335427 190.447115 117.984485 189.814757 115.192565 187.82621 113.021072 186.159808 110.789922 184.545108 108.626382 182.914499 106.470797 181.264006 104.335097 177.716438 99.741553 174.053534 95.2355049 170.223593 90.8726322 170.223593 92.2009818 170.223593 93.5253543 170.223593 94.8537038 173.675711 91.3299981 176.376157 87.2574533 178.197666 82.6678863 179.728847 78.8101046 180.758915 73.524546 176.710233 70.8042134 168.986717 65.6180822 159.171249 73.1188824 155.134499 79.5856381 154.040798 81.3395367 156.717382 83.5229616 158.06164 81.8446277 160.058141 79.3509895 162.559733 77.2391523 165.41131 75.7875128 167.650413 74.6500638 171.030943 73.4052332 173.409245 74.9045978 175.477334 76.2090848 173.317772 80.4327592 172.55417 82.0355283 170.971287 85.3683335 168.827633 88.251727 166.238545 90.8686552 165.120982 91.99815 165.228363 93.7003464 166.238545 94.8497267 172.375201 101.817596 178.098239 109.147381 183.578674 116.644205 184.795665 118.310607 185.432 119.790086 184.875207 121.858176 184.346253 123.830814 183.300278 125.58869 182.242371 127.318726 180.882205 129.545899 179.47829 131.69353 177.807911 133.701963 170.088372 143.00041 160.51153 151.093797 150.437551 157.735545 146.746808 160.169527 142.554951 162.869974 138.168217 163.828454 136.800097 164.122759 137.08247 165.916428 138.176171 166.341977L138.176171 166.341977Z"/><path fill="#000" fill-rule="nonzero" stroke-width="2" d="M86.2194172,135.455862 C89.2778023,132.385545 91.0794258,128.070397 93.5332927,124.522829 C96.046816,120.887764 98.886461,117.312356 102.195403,114.361352 C105.023117,111.839874 109.079753,109.143404 113.064801,110.078022 C116.326017,110.845601 118.640686,113.87217 121.134324,115.896511 C123.814885,118.075959 126.87327,119.658842 130.424815,119.026484 C133.829207,118.417989 136.211487,115.960144 138.23185,113.331285 C140.351641,110.571181 142.336211,107.484956 145.975252,106.697491 C150.246651,105.770828 154.541912,107.687788 157.942327,110.133701 C166.198774,116.07548 172.844498,125.163141 177.704507,133.98036 C179.291367,136.863753 183.670147,134.298527 182.115104,131.403202 C177.438041,122.697342 171.249683,114.671566 163.653434,108.308215 C156.860558,102.616992 146.567839,98.3853638 138.732964,104.808371 C135.901273,107.127017 134.258734,110.718334 131.315684,112.873919 C128.587398,114.874398 125.938653,113.001186 123.779091,111.116043 C120.828088,108.542863 117.908901,105.571974 113.896013,104.832234 C109.485416,104.020907 105.11459,105.671401 101.551114,108.212764 C97.2558525,111.275127 93.7003307,115.427214 90.6896706,119.73043 C87.7585525,123.922288 84.13542,129.279434 84.0994136,134.572947 C84.0797407,135.654716 85.4597922,136.219464 86.2194172,135.455862 L86.2194172,135.455862 Z"/><path fill="#000" fill-rule="nonzero" stroke-width="2" d="M111.390444 156.136753C113.542052 154.235702 115.061302 151.821605 116.811223 149.566593 118.445808 147.458733 120.088348 145.342919 121.882018 143.366303 125.103464 139.818734 129.10442 136.263212 134.036016 135.587106 139.158513 134.88316 144.010568 137.714851 147.41496 141.318099 149.319988 143.334486 150.843215 145.653132 152.215312 148.055297 153.615249 150.513141 154.597591 153.448237 156.407169 155.615754 158.165045 157.719637 161.159796 155.408945 160.674591 153.13007 160.050187 150.183043 157.890625 146.993413 156.347513 144.432164 154.70895 141.715808 152.799945 139.067063 150.517093 136.851822 146.17013 132.640079 140.160741 129.657258 133.984314 130.345295 128.157872 130.993562 123.266046 134.44568 119.304861 138.585835 117.200978 140.785168 115.276065 143.19131 113.506258 145.665063 111.537596 148.417213 109.465531 151.173339 108.491143 154.454442 107.97412 156.196409 110.149591 157.230454 111.390444 156.136753L111.390444 156.136753ZM110.439919 132.325888C111.044437 132.349751 111.609184 132.222484 112.134161 131.948064 112.679022 131.769095 113.152297 131.466836 113.550006 131.03731 113.979532 130.6396 114.281791 130.166326 114.46076 129.621464 114.73518 129.096487 114.862447 128.53174 114.838584 127.927222 114.786882 127.537466 114.73518 127.147711 114.683478 126.757956 114.472692 126.014239 114.098845 125.365973 113.553983 124.817134 113.255701 124.586462 112.961396 124.359768 112.663114 124.129096 111.979054 123.731387 111.239314 123.532532 110.443896 123.528555 109.839377 123.504693 109.27463 123.63196 108.749654 123.906379 108.204792 124.085348 107.731518 124.387608 107.333808 124.817134 106.904282 125.214843 106.602023 125.688118 106.423054 126.232979 106.148634 126.757956 106.021367 127.322703 106.04523 127.927222 106.096932 128.316977 106.148634 128.706732 106.204314 129.096487 106.411123 129.840204 106.788946 130.488471 107.333808 131.03731 107.63209 131.267981 107.926395 131.494675 108.224677 131.725347 108.90476 132.123056 109.6445 132.321911 110.439919 132.325888L110.439919 132.325888ZM150.879009 121.655344C150.791513 121.802496 150.704017 121.949649 150.61652 122.096801 150.477322 122.430877 150.334147 122.764953 150.194949 123.099029 150.019956 123.655822 149.996094 124.212615 150.119384 124.773386 150.119384 125.15121 150.214834 125.505171 150.405735 125.831293 150.57675 126.352292 150.8631 126.801704 151.272741 127.179528 151.555115 127.398268 151.837488 127.617008 152.119862 127.835749 152.453938 127.974947 152.788014 128.118122 153.12209 128.257321 153.678883 128.432313 154.235676 128.456175 154.796446 128.332885 155.353239 128.309023 155.874239 128.141985 156.355467 127.835749 156.502619 127.748252 156.649772 127.660756 156.796924 127.569283 157.445191 127.183505 157.962213 126.666483 158.347991 126.018216 158.737746 125.34211 158.936601 124.614302 158.936601 123.834791 158.884899 123.45299 158.833196 123.067212 158.781494 122.685411 158.574685 121.953626 158.204816 121.317291 157.667908 120.776406 157.278153 120.354834 156.812833 120.056552 156.275925 119.88156 155.758903 119.611117 155.206087 119.487827 154.609523 119.507713 153.086296 119.51169 151.654542 120.342902 150.879009 121.655344L150.879009 121.655344ZM152.517571 170.446339C153.233448 187.197861 149.443278 203.547697 145.983206 219.81799 145.346871 222.812742 149.944392 224.093367 150.584704 221.086683 154.128294 204.41868 158.021869 187.603525 157.290084 170.446339 157.15884 167.383976 152.386327 167.368068 152.517571 170.446339L152.517571 170.446339ZM134.962679 189.938079C136.485906 196.23382 135.980815 202.700575 134.159306 208.88098 132.246324 215.367621 128.881703 220.979302 125.266524 226.630753 123.608076 229.223819 127.7363 231.622007 129.386794 229.040872 133.351956 222.840582 136.95918 216.624383 138.955681 209.481522 140.856732 202.68069 141.234556 195.557714 139.568154 188.669386 138.840346 185.686565 134.238848 186.951281 134.962679 189.938079L134.962679 189.938079ZM85.2529834 196.559942C84.688236 195.669072 84.3382518 194.829905 84.0996262 193.803815 83.5030621 191.222681 79.2157549 191.727772 79.4106325 194.44015 80.1702574 204.836275 82.2065295 215.081271 85.5552425 224.956396 86.5375847 227.847744 91.1470364 226.60689 90.1567401 223.687703 86.9472253 214.218241 84.9149304 204.414703 84.1831451 194.44015 82.6201472 194.650936 81.0571494 194.861722 79.4941515 195.072508 79.8162961 196.468468 80.3571809 197.761024 81.1287371 198.970061 82.7752539 201.555172 86.9074544 199.160961 85.2529834 196.559942L85.2529834 196.559942ZM70.0962788 137.679057C70.1082101 137.57963 70.1201413 137.480203 70.1320726 137.380775 69.7383403 138.068813 69.344608 138.752873 68.9508758 139.44091 68.1912508 139.273872 67.4316259 139.110811 66.6680239 138.943773 66.588482 138.331301 66.5089401 137.718828 66.4293983 137.106356 66.7435887 136.000724 67.6980912 136.267189 66.0754369 136.422296 65.4709186 136.481952 64.8544691 136.473998 64.2499508 136.477975 62.9056931 136.489906 61.5733667 136.485929 60.2330861 136.585356 57.5207081 136.788188 54.8123072 137.118287 52.1198147 137.531905 46.794486 138.347209 41.5327909 139.580109 36.3983627 141.214694 26.2925673 144.428187 16.6839086 149.152975 7.97805023 155.202136 5.47248111 156.944103 7.85476032 161.080281 10.3881691 159.322406 21.4723296 151.618774 33.9405188 146.150269 47.1365161 143.286761 50.4693207 142.562929 53.8418963 142.002159 57.2343573 141.632289 60.61091 141.266397 64.0789358 141.560702 67.4236717 141.039702 69.6428901 140.693695 72.2836804 138.717079 70.6451177 136.223441 68.9787154 133.686055 65.653865 134.954748 65.3277433 137.67508 64.9578735 140.721535 69.7303861 140.693695 70.0962788 137.679057L70.0962788 137.679057Z"/><circle cx="114.341" cy="114.341" r="114.341" stroke-width="10"/></g></svg>