<svg xmlns="http://www.w3.org/2000/svg" width="239" height="240" viewBox="0 0 239 240"><g fill="none" fill-rule="evenodd" stroke="#000" transform="translate(5.054 5.445)"><path fill="#000" fill-rule="nonzero" stroke-width="2" d="M64.4647139 101.654535C57.7513795 104.048746 51.6783572 109.620656 51.4437087 117.185089 51.2050831 124.793271 57.5644561 129.605556 64.8385607 128.400496 66.5685965 128.114145 68.2230676 127.513604 69.7979967 126.742048 71.50417 125.902881 73.0870533 124.487035 74.9443562 124.013761 76.9169947 123.512647 77.8277492 125.238706 79.132236 126.407972 80.3889976 127.533489 81.7809805 128.384588 83.3559096 128.993083 89.2778023 131.279912 96.6592885 129.14819 100.063681 123.69957 103.921462 117.52712 101.85735 108.837168 95.8559155 104.895867 92.8929806 102.951068 90.3913886 107.540635 93.1276292 109.564976 96.4325941 112.01089 97.5143636 117.165204 95.4343436 120.704818 93.2270565 124.463172 87.7426441 125.473354 84.0797407 123.345609 81.7491637 121.98942 80.4605853 119.471919 77.7044593 118.712294 74.554601 117.845287 71.6075744 119.432148 68.9826925 121.007077 65.01753 123.38538 58.1331805 125.079622 56.8286938 118.871378 55.4725048 112.400645 61.9909615 108.180948 66.0754369 104.422593 67.264588 103.336846 66.0316889 101.097742 64.4647139 101.654535L64.4647139 101.654535ZM66.8231306 92.3481343C72.0530089 92.3481343 72.0609631 84.2189531 66.8231306 84.2189531 61.5932522 84.2189531 61.5813209 92.3481343 66.8231306 92.3481343L66.8231306 92.3481343ZM103.571478 95.661054C109.258722 95.661054 109.266676 86.82395 103.571478 86.82395 97.8842334 86.82395 97.8762792 95.661054 103.571478 95.661054L103.571478 95.661054Z"/><path fill="#000" fill-rule="nonzero" stroke-width="2" d="M79.4464264 106.22024C78.5993054 105.440729 77.6328716 104.82428 76.6903003 104.168059 76.2727055 103.877731 75.783523 103.396503 75.3500197 103.149923 74.8568601 102.445977 74.6063032 102.664717 74.5943719 103.802166 73.9779224 104.732807 74.005762 105.046997 74.681868 104.744738 75.7238665 105.074837 77.2470935 104.872005 78.3527256 105.031089 78.8339539 105.102676 79.557785 105.420844 79.9992424 105.341302 80.7509131 105.595836 80.6395545 105.078814 79.6651665 103.794212 79.3509761 103.909548 79.0288315 103.993067 78.6947556 104.048746 75.2863862 104.804394 76.7260942 110.09393 80.1424178 109.294534 83.1968259 108.578657 86.1876004 105.655493 84.4257478 102.31871 83.626352 100.79946 82.0514228 100.262552 80.4725166 99.9921099 78.6430534 99.6739424 76.6863233 99.3955458 74.8250433 99.490996 71.9734671 99.6341714 68.8037233 101.734077 70.2513854 104.959501 71.4246281 107.572452 75.2545695 109.632587 78.0345581 109.628616 79.7089146 109.620656 80.742959 107.409391 79.4464264 106.22024L79.4464264 106.22024ZM60.1097962 137.97734C62.7426323 142.893028 62.6750217 148.4888 62.0148241 153.893672 61.2790618 159.911016 59.9149186 165.908474 58.8053094 171.866162 56.6417703 183.479278 54.3589185 195.072508 51.9487996 206.637899 51.3243959 209.636628 55.9258935 210.917253 56.5502972 207.906592 59.1155227 195.58953 61.5375728 183.244629 63.8244018 170.871888 65.9163532 159.568986 70.0286682 146.400826 64.2300654 135.571197 62.7784261 132.858819 58.6581569 135.264961 60.1097962 137.97734L60.1097962 137.97734Z"/><path fill="#000" fill-rule="nonzero" stroke-width="2" d="M198.13086,191.640276 C195.275307,182.612271 191.516953,173.910388 187.488157,165.351681 C185.515519,161.155846 183.479247,156.987851 181.470814,152.807925 C180.575968,150.946645 179.712939,149.236494 179.25955,147.251924 C178.770368,145.120201 177.354522,142.984501 176.483539,140.972092 C169.861678,125.620507 164.532372,109.612702 156.411146,94.9411999 C148.540478,80.7270642 137.758576,67.3600496 123.158665,59.7001655 C109.107592,52.3266323 92.2606227,50.5289856 77.7919553,57.8189999 C75.7755688,58.837136 74.0455329,60.1893482 72.1723218,61.3745223 C71.376903,61.8796133 70.8360182,62.539811 70.0326453,63.0051311 C69.0741657,63.5659014 68.3065866,64.2579158 67.4912823,65.0254951 C64.2738134,68.0639953 61.3864433,71.4763424 58.9325764,75.1591319 C53.829965,82.822993 50.8511217,91.8112265 50.9176057,101.04604 C50.9425949,104.116357 55.7151075,104.124311 55.6912449,101.04604 C55.6315885,93.2509348 57.9740968,85.7779742 62.0386867,79.1561118 C64.0351878,75.9068256 66.3975815,72.9160506 69.0542802,70.1837867 C69.6468672,69.5752912 70.2513854,68.978727 70.867835,68.3980712 C71.6712079,67.6424233 72.1047112,67.4316373 73.0273969,66.9225692 C73.6836174,66.5606536 74.1012123,65.9799978 74.6659596,65.5186548 C74.98015,65.2601437 76.0460111,64.7311901 76.6067814,64.2778013 C82.2820943,59.6603946 90.4788847,57.8707021 97.6734474,57.8547937 C105.082773,57.8349082 112.448351,59.7558449 119.090098,62.9852456 C133.244575,69.861642 143.648652,82.2383601 151.352283,95.6849166 C155.225972,102.449954 158.487189,109.553045 161.466032,116.751586 C164.492601,124.073417 167.097597,131.574217 170.366768,138.78469 C171.353088,140.96016 172.251911,143.167448 173.222322,145.346896 C173.651848,146.317307 174.323977,147.327489 174.598396,148.345625 C174.868839,149.347853 174.984174,150.230768 175.44154,151.21311 C177.597125,155.882219 179.907817,160.47974 182.123058,165.121009 C186.438205,174.172877 190.506772,183.332125 193.53334,192.904992 C194.452049,195.824179 199.0615,194.579348 198.13086,191.640276 L198.13086,191.640276 Z"/><circle cx="114.341" cy="114.341" r="114.341" stroke-width="10"/></g></svg>