<svg xmlns="http://www.w3.org/2000/svg" width="240" height="240" viewBox="0 0 240 240"><g fill="none" fill-rule="evenodd" stroke="#000" transform="translate(5.478 5.644)"><path fill="#000" fill-rule="nonzero" stroke-width="2" d="M52.5692263 147.144542C51.415869 148.854693 50.525 150.767675 49.1847194 152.350559 47.8364846 153.941397 46.1939448 155.273723 44.3803901 156.299814 42.6463772 157.282156 40.7055554 157.974171 38.7249626 158.256544 36.5614236 158.566758 34.5132203 157.815087 32.4172918 157.990079 29.8282037 158.208819 28.7305258 161.485945 31.0730341 162.95747 33.3678172 164.401155 36.8795911 164.079011 39.4567479 163.661416 42.1174237 163.23189 44.7303743 162.237616 47.0331116 160.837679 51.288602 158.244613 55.9616873 153.328924 55.6832907 147.987686 55.5957947 146.297421 53.5038433 145.760513 52.5692263 147.144542L52.5692263 147.144542ZM94.7463063 226.917104C101.149427 220.140135 107.647999 213.37112 113.828403 206.395296 119.809952 199.64219 126.105691 193.223159 131.8685 186.271198 142.041906 173.993907 151.877259 161.179709 157.508824 146.102544 160.260973 138.72901 162.551779 130.556081 160.638797 122.705297 158.761609 114.997687 152.660747 109.684289 145.545726 106.729308 131.311707 100.815368 115.657866 106.335576 101.738037 110.451868 92.5390193 113.172201 82.6678724 115.757313 72.9995573 115.120977 68.8474713 114.846558 63.7806538 114.134658 60.7461312 111.008662 58.2286308 108.415596 57.1229987 104.752692 57.1627696 101.201147 57.2065177 97.2081438 51.0022513 97.2041667 50.9585033 101.201147 50.8829385 108.01391 54.2276744 115.463008 60.6228413 118.509462 68.708273 122.363267 78.499878 121.790565 87.0744923 120.307109 95.0127716 118.935011 102.6647 116.604434 110.380262 114.349421 117.28052 112.333034 124.363724 110.412098 131.602035 110.364372 138.649445 110.316647 145.983206 112.42053 151.038092 117.570868 156.454894 123.091075 155.492438 131.128783 153.635135 137.925637 149.534751 152.943146 140.482885 165.884612 130.802639 177.831804 124.642121 185.436008 118.036168 192.535122 111.454078 199.761503 104.490186 207.405478 97.4626614 215.01366 90.3555948 222.530369 87.6193542 225.42967 91.9981345 229.828337 94.7463063 226.917104L94.7463063 226.917104Z"/><path fill="#000" fill-rule="nonzero" stroke-width="2" d="M62.9335328 122.764953C57.4690059 121.699092 53.1816987 126.682391 51.5908612 131.391271 49.5466349 137.448386 51.6346092 143.732195 52.3584403 149.813173 52.939096 154.673182 52.1436772 159.557054 49.7733293 163.868225 48.6239492 165.960176 47.1603787 167.873159 45.2911445 169.376501 43.5173607 170.8003 41.2901882 171.874116 39.3175496 172.995657 37.2017357 174.200716 38.2278259 177.326713 40.5146549 177.422163 45.7246478 177.640903 50.0795655 174.097312 53.1021568 170.140103 56.2679235 165.999947 58.0019364 161.040511 58.5428212 155.886196 59.1910875 149.713745 56.880396 143.867416 56.6934726 137.754622 56.6179078 135.276892 57.0394797 132.827002 58.2723788 130.647554 59.4933466 128.491969 61.2194053 127.398268 63.3948757 126.352292 64.8862859 125.640392 64.5482329 123.079144 62.9335328 122.764953L62.9335328 122.764953ZM59.5967511 89.9539234C65.5623918 81.9997344 73.7313425 75.1909486 82.2343691 70.0923135 91.6839441 64.4209767 101.447709 59.9666309 112.31313 57.7871831 117.479375 56.7531385 122.733116 56.2758872 127.998788 56.3156581 130.56799 56.3355436 133.137193 56.478719 135.694464 56.7451843 138.243782 57.0116497 140.749351 57.7991144 143.274805 58.2803428 151.594886 59.8751577 159.588844 62.8460473 166.84704 67.2327825 181.128784 75.8670547 191.807281 89.8465419 196.062772 106.017408 201.726153 127.553375 196.985457 150.739836 186.955227 170.23953 176.37218 190.809063 159.970645 207.401501 143.47366 223.289994 140.590267 226.066006 144.980979 230.448764 147.860394 227.676729 163.446625 212.671151 178.929451 197.01333 189.747147 178.094292 201.29265 157.90656 207.325901 134.135466 203.436304 110.964914 200.314285 92.3719969 189.830666 75.8272838 174.522831 64.8703884 167.137368 59.5848298 158.682067 55.723071 149.904621 53.4243104 145.06052 52.1556173 139.973817 50.9426035 134.994496 50.4693292 129.44645 49.9403756 123.850679 49.9920779 118.314564 50.6204588 105.691269 52.0561899 93.3225067 56.2003224 82.4173155 62.7426428 71.7348414 69.1537192 61.7642672 76.7857635 54.2396057 86.819973 53.2254467 88.168208 54.0327968 90.2760681 55.3531919 91.0635328 56.9281211 92.0061042 58.5985005 91.2862501 59.5967511 89.9539234L59.5967511 89.9539234Z"/><path fill="#000" fill-rule="nonzero" stroke-width="2" d="M88.1562619,88.0648035 C83.709871,87.3171098 82.2860714,93.9866972 86.6529204,95.1877798 C88.5102232,95.6968479 90.7533041,94.8735893 91.723715,93.1793471 C92.8373013,91.2345478 92.1254015,88.8124973 90.451045,87.4483539 C88.6533986,85.9847831 86.1319211,86.0484166 84.4058624,87.6034606 C82.7553684,89.0869168 82.2184608,91.5726009 83.459314,93.4816062 C84.5649461,95.1838027 86.8756376,96.0110383 88.796574,95.3349323 C90.8567086,94.607124 91.8629133,92.3799511 91.3777079,90.3039077 C90.8408002,88.0290097 88.5380629,86.5018054 86.2591881,87.329041 C83.7377106,88.2437728 82.4849261,91.4015858 84.3819998,93.5054688 C85.6308073,94.8934748 87.8301402,93.4219498 87.4045911,91.747593 C87.3608431,91.5805551 87.484133,91.2385249 87.5239039,91.1231892 C87.5239039,91.1192121 87.3727744,91.0754641 87.3886828,91.0516015 C87.440385,90.9839909 87.4642475,91.2067082 87.4682246,91.1669372 C87.4642475,91.3101126 87.5756062,91.4652193 87.4801559,91.5805551 C87.3290263,91.7635014 87.4761788,91.6004405 87.5199268,91.5964634 C87.3330034,91.6123718 87.1301717,91.620326 86.9193857,91.4731735 C86.5017908,91.1868227 86.6290578,90.7413881 87.0148359,90.4152664 C87.905705,89.6516642 89.2261001,91.2146624 88.1323993,91.6481657 C86.9233628,92.1293941 87.273347,90.2482284 88.1562619,90.1130072 C89.178375,89.9579005 89.1664437,88.2358186 88.1562619,88.0648035 L88.1562619,88.0648035 Z"/><circle cx="114.341" cy="114.341" r="114.341" stroke-width="10"/></g></svg>