<svg xmlns="http://www.w3.org/2000/svg" width="240" height="240" viewBox="0 0 240 240"><g fill="none" fill-rule="evenodd" stroke="#000" transform="translate(5.81 5.394)"><path fill="#000" fill-rule="nonzero" stroke-width="2" d="M37.4522926 195.824179C49.7574209 189.568209 62.0188012 183.184973 73.5523733 175.572814 77.3783376 173.043382 73.7989531 166.843091 69.9411721 169.392409 58.4115771 177.008545 46.1462197 183.391782 33.8410914 189.643774 29.7327535 191.727772 33.3519089 197.908177 37.4522926 195.824179L37.4522926 195.824179ZM70.6411406 111.569432C76.3482703 114.683497 82.7752539 115.180634 89.0988331 114.071024 95.4224123 112.961415 101.455664 109.576908 106.705427 106.0015 110.885353 103.149923 114.424967 99.4591793 118.008328 95.8957026 121.603621 92.3242717 125.179028 88.7210241 129.036809 85.431967 136.143876 79.370875 144.471911 74.7574453 154.084546 75.5687726 164.32954 76.4318021 171.695118 83.8848772 174.542717 93.4816062 178.026651 105.225966 173.719459 117.793585 166.469216 127.207368 159.751905 135.929136 150.413689 142.38396 140.375504 146.726947 134.692237 149.184792 128.623192 151.038118 122.422902 151.45969 115.952171 151.901147 110.10982 151.236973 105.261742 146.611612 100.445482 142.018068 96.8581432 136.052426 92.865141 130.754936 88.713055 125.242683 84.4933584 119.778155 80.2458222 114.33749 65.0095758 94.8258642 46.6035855 77.4857322 24.5983253 65.8447766 21.8939015 64.4130225 19.1417526 63.0806959 16.3498327 61.8318882 14.5879802 61.0404464 12.5000059 61.3228201 11.4540302 63.1164897 10.5591841 64.6476711 10.9648477 67.2168742 12.7386315 68.0122931 35.9091802 78.404441 55.7628326 95.2036882 71.6473454 114.886329 76.1732781 120.494032 80.532173 126.252865 84.8870907 131.995789 87.1500571 134.97861 89.393138 137.973362 91.6163335 140.984023 93.7122619 143.819691 95.6689921 146.806489 98.0274088 149.431372 102.624929 154.549892 108.141158 157.9344 115.089141 158.554826 122.192231 159.187184 129.482244 158.133254 136.239326 155.918013 159.477486 148.289946 182.158852 128.977175 182.938362 102.843687 183.280392 91.3817003 177.89143 79.3788291 168.227092 72.9438902 158.952509 66.7714396 146.627495 67.2049429 136.808051 71.7268993 127.326659 76.089772 119.861654 83.9723733 112.567664 91.2146624 108.817264 94.9411999 105.150384 98.7950045 100.564795 101.479543 94.9372068 104.776555 89.3613213 107.580406 82.6877578 107.49291 79.7248229 107.453139 76.8692696 106.80885 74.260296 105.38505 70.2076374 103.18174 66.5924591 109.358167 70.6411406 111.569432L70.6411406 111.569432ZM98.1944467 165.920405C111.485894 182.568523 106.331581 206.713464 96.7189449 223.775199 94.4559785 227.792065 100.636382 231.407244 102.899349 227.386401 114.305654 207.146967 118.724205 180.229991 103.25331 160.853587 102.044274 159.342291 99.4512083 159.592848 98.1904696 160.853587 96.6990594 162.352952 96.9814331 164.405132 98.1944467 165.920405L98.1944467 165.920405Z"/><path fill="#000" fill-rule="nonzero" stroke-width="2" d="M152.87551,99.7097362 C153.651043,99.7375759 154.370897,99.5784921 155.043026,99.2245307 C155.739017,98.9978363 156.343536,98.6080811 156.852604,98.0632191 C157.401443,97.554151 157.787221,96.9496326 158.013915,96.2536411 C158.367876,95.5815121 158.52696,94.861658 158.49912,94.0861246 C158.43151,93.5889878 158.363899,93.0878739 158.300266,92.5907371 C158.0338,91.6362344 157.552572,90.8089987 156.852604,90.1090301 C156.47478,89.8147251 156.092979,89.5243972 155.715155,89.2300922 C154.836217,88.7210241 153.889669,88.4664901 152.87551,88.462513 C152.099976,88.4346733 151.380122,88.5937571 150.707994,88.9477185 C150.012002,89.1744129 149.407484,89.5641682 148.898416,90.1090301 C148.349577,90.6180982 147.963799,91.2226166 147.737105,91.9186081 C147.383143,92.5907371 147.224059,93.3105912 147.251899,94.0861246 C147.31951,94.5832614 147.38712,95.0843753 147.454731,95.5815121 C147.721196,96.5360148 148.202425,97.3632505 148.902393,98.0632191 C149.280217,98.3575241 149.662018,98.647852 150.039842,98.942157 C150.914803,99.4512251 151.861351,99.7057591 152.87551,99.7097362 L152.87551,99.7097362 Z"/><circle cx="114.341" cy="114.341" r="114.341" stroke-width="10"/></g></svg>