<svg xmlns="http://www.w3.org/2000/svg" width="239" height="240" viewBox="0 0 239 240"><g fill="none" fill-rule="evenodd" stroke="#000" transform="translate(5.055 5.445)"><path fill="#000" fill-rule="nonzero" stroke-width="2" d="M178.475984 211.028645C182.188995 177.703407 183.068733 143.930214 180.399332 110.48868 179.027976 93.2941146 175.65996 75.9875608 166.15534 61.2868967 164.598549 58.8791408 161.528091 59.0772745 159.936801 61.2868967 156.827531 65.6027671 153.696699 69.9100229 150.548617 74.2000497 148.340647 77.2108215 146.124053 80.2215933 143.868646 83.197907 143.661649 83.4735714 142.432603 85.0715633 142.911284 84.459933 142.553352 84.9208094 142.195419 85.3816857 141.824549 85.8382548 141.56149 86.161299 141.268244 86.4714214 141.022435 86.8073874 140.250508 87.8583578 141.268244 86.531723 142.053109 86.4111199 142.980283 86.531723 143.907458 86.6523262 144.834633 86.7729294 143.325279 85.7994895 140.185822 86.0536176 138.48672 85.9373217 134.307965 85.6487356 130.124897 85.3989148 125.937517 85.2050882 116.506209 84.7657481 106.77303 84.1885759 97.3762216 85.4376801 98.2300849 85.790875 99.0839482 86.14407 99.9378115 86.497265 92.507476 78.8389642 85.4997596 70.7843958 78.0694241 63.1304022 76.2323243 61.2395169 72.6012491 62.0578955 72.0061323 64.7283941 69.9965349 73.7951676 68.16806 82.9093209 66.5207076 92.0450105 63.864244 106.780133 61.5657131 121.674623 63.9332431 136.620801 65.4339725 146.092456 69.1124845 155.060163 75.378461 162.382498 78.3928571 165.905833 83.4513502 160.801735 80.4671412 157.299936 70.1517827 145.196547 69.1685462 127.924451 70.6865254 112.805983 71.9112586 100.603528 74.4512862 88.4872172 76.9180024 76.4872025 77.5907432 73.2050736 78.2807337 69.9229446 79.0009113 66.6537375 76.9783766 67.1878372 74.9601542 67.7176297 72.9376195 68.2517294 78.6300414 74.1095973 84.0594044 80.2043643 89.6353904 86.1699135 91.0541834 87.6903748 92.4859138 89.1979144 93.9305814 90.6968394 95.4183735 92.238837 96.5697952 92.7427859 98.6656415 92.5145013 100.839112 92.2776023 103.021207 92.1699209 105.203302 92.1010048 115.333225 91.7865751 125.501961 92.3163676 135.610322 92.9624559 138.072726 93.1218244 140.535129 93.2855001 142.997533 93.4879412 142.389479 93.3242654 141.781425 93.1605897 141.177683 92.996914 144.463763 95.1074693 146.943416 90.9509675 148.577832 88.8317976 150.936737 85.773646 153.230955 82.6681146 155.516549 79.5582759 159.091562 74.6996913 162.636389 69.8195705 166.159653 64.9265279 164.085369 64.9265279 162.011085 64.9265279 159.941113 64.9265279 168.057127 77.4649496 171.459643 92.0837758 172.895685 106.788747 174.478351 122.958185 174.879408 139.308528 174.719848 155.546883 174.527427 174.920075 173.282593 194.265059 171.049925 213.499026 176.945547 210.554584 168.945547 216.554584 178.475984 211.028645ZM128.945547 229.554584C131.650299 229.611807 131.650299 229.611807 134.965902 229.554584 134.786433 221.41879 135.232597 225.949103 133.629617 217.960289 133.258443 216.131681 130.350236 216.040899 130.048402 217.960289 128.783965 226.013947 128.904758 221.414467 128.945547 229.554584ZM92.5678766 225.636149C92.9718533 229.608209 92.4764122 224.591168 92.9455465 228.554584 98.0287533 227.569805 95.0287533 227.569805 99.6003032 228.524329 99.0616675 224.569557 99.3920428 229.608209 98.753499 225.666404 98.0758606 221.499847 97.5980386 217.156082 96.2253864 213.145122 95.3957138 210.73336 91.9293327 211.169898 91.7816423 213.74158 91.5557628 217.696351 92.1682437 221.711632 92.5678766 225.636149ZM54.8365221 183.784242C50.1470886 190.355063 45.6931975 197.11965 41.6718477 204.125368 46.9455465 208.554584 43.9455465 204.554584 45.3195012 206.212148 49.6101123 202.375611 55.4015411 195.953759 59.3846301 190.083791 64.3138885 182.819718 70.0868166 175.814 73.7141683 167.774863 74.7162938 165.544401 72.2538059 163.507704 70.3394893 165.152563 64.2325193 170.410081 59.50026 177.252174 54.8365221 183.784242Z"/><path fill="#000" fill-rule="nonzero" stroke-width="2" d="M92.1020479 120.767707C92.1997144 120.692867 92.2973808 120.618027 92.3950472 120.543187 94.3228974 119.050793 92.5776409 115.687403 90.4587043 117.10936 90.3822697 117.162188 90.3058351 117.210614 90.2294005 117.263442 89.5032719 117.7477 88.8790561 118.623766 88.9512443 119.570269 89.5287501 127.023435 94.5437084 135.436312 102.866586 133.182312 106.416548 132.222602 109.444207 129.431517 111.083304 126.068127 112.552547 123.052522 113.970833 117.95461 111.919838 114.912591 110.586479 112.931537 107.51211 113.081216 106.828445 115.603759 106.161766 118.042656 106.841184 120.402312 105.720144 122.819198 104.739233 124.941127 102.773166 127.146701 100.399447 127.437255 98.1658586 127.710201 96.4078631 125.795182 95.4864017 123.906577 94.3611147 121.604152 94.7263021 117.760907 91.940686 116.906852 91.6009767 118.183531 91.2612675 119.464613 90.9215582 120.741292 91.2612675 120.829339 91.766585 121.031847 92.1020479 120.767707L92.1020479 120.767707ZM130.453348 116.435354C127.452993 118.625221 129.631093 123.571897 130.982565 126.259461 132.605206 129.475017 135.588066 132.054386 139.275091 132.482838 147.40579 133.426298 153.415247 124.883221 152.916646 117.547599 152.85104 116.586827 152.413671 115.426977 151.438337 114.998525 150.358034 114.526794 149.492042 114.297421 148.429234 114.998525 146.942178 115.976608 147.05152 117.339865 146.933431 118.910856 146.736614 121.498881 145.498859 124.086905 143.33388 125.618947 137.958608 129.418755 134.818295 122.065823 134.057272 117.889495 133.794851 116.439682 131.664861 115.552483 130.453348 116.435354L130.453348 116.435354Z"/><circle cx="114.341" cy="114.341" r="114.341" stroke-width="10"/></g></svg>