<svg xmlns="http://www.w3.org/2000/svg" width="239" height="240" viewBox="0 0 239 240"><g fill="none" fill-rule="evenodd" transform="translate(5.054 5.667)"><path fill="#000" fill-rule="nonzero" d="M129.88393,143.020295 C132.628125,149.172861 134.429749,155.691318 136.24728,162.162051 C138.076744,168.680509 139.894276,175.135333 141.111266,181.804921 C143.517408,194.996943 144.173628,208.423614 144.229308,221.810514 C144.249193,226.41599 151.407962,226.423944 151.388118,221.810514 C151.332397,207.775348 150.536979,193.72825 148.015501,179.899893 C146.754762,172.987702 144.849734,166.294252 142.952661,159.537169 C141.027747,152.684635 138.975567,145.91562 136.068311,139.405116 C135.280847,137.639286 132.707667,137.221692 131.172509,138.120515 C129.351,139.186376 129.092489,141.250488 129.88393,143.020295 L129.88393,143.020295 Z"/><path fill="#000" fill-rule="nonzero" d="M137.134172,134.183191 C142.562905,135.626877 148.118906,136.378548 153.678883,137.118287 C156.319673,137.468271 158.956486,137.830187 161.581368,138.279599 C164.253975,138.736965 166.703865,138.645491 169.39238,138.665377 C172.053056,138.681285 173.92229,135.59506 172.482582,133.280391 C171.341156,131.44695 169.973036,128.965243 167.745864,128.293114 C165.284043,127.553375 162.830176,129.402724 162.81029,131.975904 C162.786428,135.364388 165.987988,138.75685 169.388403,138.665377 C172.037148,138.593789 173.930245,135.658693 172.478605,133.280391 C168.310611,126.45172 163.95967,119.738384 159.413852,113.152316 C155.047003,106.828735 150.684131,100.453453 145.792306,94.5156508 C141.536815,89.345428 136.648967,84.2269073 130.504357,81.3236284 C123.715458,78.1180902 116.119209,78.1180902 108.801356,79.0964554 C101.300557,80.0986832 94.1576965,82.5764131 88.2358037,87.3847204 C82.7951394,91.7992953 78.4720384,97.7092577 74.5188071,103.440251 C65.5504605,116.429442 60.5790932,131.053218 55.0270702,145.680972 C51.9328912,153.837992 48.3654381,161.804113 43.8991617,169.312867 C39.4965188,176.718217 34.7478688,183.908804 28.6629152,190.049438 C25.4176067,193.326564 30.47647,198.389405 33.7257557,195.112279 C44.0144974,184.728085 51.8175555,171.404819 57.6519522,158.081552 C63.665318,144.360576 67.5549158,129.748731 74.8131121,116.580571 C78.1498938,110.527433 82.0394915,104.748715 86.4421344,99.4194083 C90.6777394,94.2929335 95.4502519,90.0692592 101.85735,87.9494678 C105.178223,86.8517897 108.638295,86.1756836 112.122229,85.8893328 C115.498782,85.6149133 119.205433,85.4081044 122.542215,86.1120501 C128.599329,87.3886975 133.340025,91.3379523 137.436432,95.784344 C142.948684,101.765894 147.51041,108.550817 152.151679,115.204496 C157.091229,122.287702 161.804085,129.526014 166.302179,136.89557 C167.332246,135.1019 168.362313,133.304253 169.39238,131.510584 C168.911152,131.522515 169.969059,131.777049 170.291204,131.963973 C170.15996,131.848637 170.032693,131.725347 169.921334,131.594103 C170.179845,131.944087 170.235524,132.011698 170.092349,131.796935 C169.57135,131.339569 170.152005,131.053218 169.977013,131.697507 C169.933265,131.578194 169.901448,131.454905 169.873609,131.327638 C170.000876,131.792958 170.00883,132.258278 169.893494,132.727575 C169.587258,133.252551 169.281022,133.781505 168.974786,134.306481 C168.994671,134.286596 169.010579,134.26671 169.030465,134.246825 C168.505489,134.553061 167.976535,134.859297 167.451559,135.165534 C164.743158,134.024108 163.848312,133.869001 164.774975,134.692259 C164.993715,134.966679 165.053371,135.018381 164.949967,134.847366 C165.343699,135.551312 165.880607,136.207532 166.306156,136.891593 C167.336223,135.097923 168.36629,133.300276 169.396358,131.506607 C166.962376,131.490698 164.782929,131.582172 162.368833,131.192416 C159.724065,130.76289 157.067367,130.412906 154.414645,130.058944 C149.244423,129.370907 144.09011,128.62719 139.043177,127.282932 C134.580878,126.093781 132.679827,132.998017 137.134172,134.183191 L137.134172,134.183191 Z"/><path fill="#000" fill-rule="nonzero" d="M83.2167113 92.2248444C79.0129231 89.472695 75.3818365 85.5353714 73.8228157 80.6833161 72.6694585 77.1039311 71.6354141 71.1939687 75.1750276 68.4815902 76.3602016 67.5748127 77.7004822 68.1992165 78.9890606 69.3048488 81.041241 71.0667016 82.6479869 73.2898975 84.9785639 74.7296057 89.2579169 77.3703964 96.0110222 77.6686785 98.5643164 72.5223182 100.131291 69.3605281 99.3676894 65.148785 99.3159872 61.7364379 99.268262 58.8172506 99.1926972 55.7787504 100.198902 52.98683 100.878985 51.0977101 102.231197 49.5307349 104.203835 48.9500791 105.858307 48.4608965 106.884397 49.280178 107.75538 51.0818018 108.876921 53.4004479 109.330309 55.9776051 110.606957 58.2405719 112.078481 60.853523 114.4886 63.3511383 117.491306 64.0749695 120.863882 64.8902739 124.252365 63.5619243 126.479538 60.9609045 128.587398 58.4951059 129.78848 55.4605828 131.749187 52.903311 132.934361 51.3562213 135.312663 49.3636969 137.094401 50.5170543 139.126696 51.8334726 139.84655 54.9316292 140.276077 57.1150541 140.884572 60.2132107 140.936274 63.5579472 140.43516 66.6759893 139.858482 70.2712827 138.215942 73.4609125 137.420523 76.9607557 136.660898 80.3174234 140.920366 83.3121756 143.497523 80.4963927 148.281966 75.2744676 149.375667 66.1708983 148.759218 59.3621125 148.178562 52.9311507 146.066725 45.1599081 139.345437 42.6543385 135.893319 41.3657599 132.003721 42.2248123 129.060672 44.3247182 125.906837 46.5757537 124.005786 49.8091315 122.068941 53.0822803 121.707025 53.6947529 120.497989 56.3355436 119.48383 56.2957727 119.26509 56.2878185 118.390129 55.34127 118.135595 55.0032169 116.489078 52.7879753 116.055575 49.70175 114.88631 47.2319743 111.796108 40.697608 104.128271 38.8840529 98.2222863 42.9088726 91.8748446 47.2359514 91.1987386 55.0151482 91.3975933 62.0625597 91.4532726 63.9437254 91.5487229 65.8288682 91.5725855 67.7100339 91.5805397 68.1912623 91.5646313 68.6724907 91.5646313 69.1537192 91.5646313 69.1219024 91.6759899 68.7520326 91.7515547 68.8355516 91.7197379 68.7997578 92.2924394 68.6287427 91.7714402 68.8315745 91.5049749 68.934979 91.9583636 68.8912309 91.3896391 68.9150935 91.6958754 68.9031622 90.9839756 68.8474829 90.8169376 68.8156661 90.3754802 68.7321472 89.8107329 68.5531779 89.4846112 68.4020483 88.3909104 67.9009344 87.6631022 67.0538133 86.7085997 66.1032877 84.4933584 63.8880461 82.1031251 61.529629 78.9691751 60.7421643 75.7357978 59.9268599 72.5103747 60.813752 70.020714 62.9892227 64.7510647 67.590721 64.3056302 76.2210161 66.7197261 82.3536958 69.2929058 88.8880621 74.5267613 94.6190553 81.5821258 96.1144428 83.9365653 96.6115796 85.2688917 93.5691023 83.2167113 92.2248444L83.2167113 92.2248444ZM121.046828 111.430234C121.830315 111.458073 122.558124 111.295013 123.234229 110.941051 123.938175 110.71038 124.54667 110.320624 125.059716 109.767808 125.612532 109.254763 126.006264 108.646268 126.232958 107.942322 126.58692 107.266216 126.74998 106.538407 126.722141 105.75492 126.65453 105.253806 126.58692 104.748715 126.519309 104.247601 126.248867 103.285144 125.763661 102.449954 125.059716 101.742032 124.677915 101.447727 124.292136 101.149444 123.910335 100.855139 123.023443 100.342094 122.068941 100.083583 121.046828 100.079606 120.267317 100.051766 119.535532 100.214827 118.859426 100.568789 118.155481 100.79946 117.546985 101.189215 117.03394 101.742032 116.481124 102.255077 116.087392 102.863572 115.860697 103.567518 115.506736 104.243624 115.343675 104.971432 115.371515 105.75492 115.439126 106.256034 115.506736 106.761125 115.574347 107.262239 115.844789 108.224696 116.329995 109.059885 117.03394 109.767808 117.415741 110.062113 117.801519 110.360395 118.18332 110.6547 119.066235 111.167745 120.020738 111.426257 121.046828 111.430234L121.046828 111.430234Z"/><circle cx="114.341" cy="114.341" r="114.341" stroke="#000" stroke-width="10"/></g></svg>