<svg xmlns="http://www.w3.org/2000/svg" width="239" height="240" viewBox="0 0 239 240"><g fill="none" fill-rule="evenodd" stroke="#000" transform="translate(5.265 5.595)"><path fill="#000" fill-rule="nonzero" stroke-width="2" d="M169.396358 208.674171C166.600461 205.679419 164.031258 202.509675 161.088209 199.650144 158.220724 196.870155 155.17427 194.285043 152.01248 191.847085 148.806943 189.373332 145.490047 187.050709 142.085654 184.851375 138.677285 182.648065 135.022336 180.774853 131.673623 178.495978 125.811386 174.506953 124.797227 166.477199 125.771615 159.998512 127.103942 151.093797 131.62192 143.139608 135.404137 135.1019 139.421001 126.563078 143.429912 118.020279 147.478593 109.497366 151.173314 101.714192 152.807899 93.1475303 151.380122 84.6047313 148.846714 69.4241616 137.2336 57.1627793 124.073396 50.0040092 116.393628 45.8240828 107.87867 42.463438 98.9978196 43.767925 90.6936477 44.9849159 82.0275603 50.2983142 83.5706727 59.8075471 84.0598552 62.8301389 88.6613528 61.5495145 88.1721702 58.538854 86.8835918 50.5806879 98.0472942 48.0790954 103.806126 48.2222708 111.032506 48.4052172 118.227068 51.9567626 124.304068 55.6395521 136.692715 63.1562607 147.243945 75.8948944 147.184289 91.0078535 147.148495 99.7614385 143.274805 107.198605 139.62781 114.914169 135.821731 122.967785 132.091217 131.057195 128.257299 139.09888 122.490513 151.181293 115.411286 168.529379 126.260798 180.098747 129.060672 183.085545 133.065605 184.835467 136.501814 186.963212 140.156764 189.226179 143.744102 191.600505 147.204174 194.153799 150.628452 196.679254 153.909554 199.403564 156.991802 202.334683 160.213248 205.397045 162.997214 208.809393 166.027759 212.050725 168.123688 214.30176 171.492286 210.92123 169.396358 208.674171L169.396358 208.674171ZM108.328082 178.185765C98.6955605 191.353925 87.738667 214.059157 103.551592 227.092096 105.902055 229.032918 109.298493 225.672273 106.928145 223.715543 92.9804767 212.213785 104.144179 191.946512 112.452328 180.591907 114.265883 178.1102 110.125728 175.727921 108.328082 178.185765L108.328082 178.185765Z"/><path fill="#000" fill-rule="nonzero" stroke-width="2" d="M68.9707612 213.088746C71.2178192 194.642982 79.1123505 177.088087 88.1005825 161.028579 97.064952 145.01282 107.640045 129.947586 116.326017 113.768765 120.832065 105.373119 124.387587 96.4246562 124.001809 86.736454 123.878519 83.6740912 119.106006 83.6581828 119.229296 86.736454 119.571326 95.3627719 116.504987 103.269236 112.519939 110.774013 108.27638 118.763996 103.52773 126.443765 98.7790795 134.135466 89.0351996 149.920554 78.710664 165.721551 72.1484592 183.169064 68.49351 192.889083 65.4589874 202.752278 64.1982486 213.092723 63.8283789 216.127246 68.6048686 216.103384 68.9707612 213.088746L68.9707612 213.088746ZM80.0111737 63.6176036C72.2876575 68.1156975 64.8465149 73.0552489 57.3934411 77.9868461 55.0986579 79.5060962 56.5264346 83.0655957 59.2706294 82.4372148 60.8733982 82.067345 62.3807167 82.2502914 64.043142 82.3019936 66.6560926 82.3855126 69.2650662 82.4650545 71.8780168 82.5485735 76.9686969 82.7076572 82.0633541 82.8746952 87.1540342 83.0298019 92.2447143 83.1809315 97.3393715 83.3161527 102.430052 83.4593281 107.158816 83.5905722 111.867695 83.5348929 116.560666 84.2030448 119.690639 84.6484794 121.170118 80.0708436 117.908901 79.3151956 113.132411 78.2055863 108.085479 78.4839829 103.213539 78.3527388 97.8603708 78.2095634 92.5072025 78.0584338 87.1540342 77.9271896 81.8008659 77.7959455 76.4476976 77.6806098 71.0945293 77.5573199 66.8271076 77.4578925 62.1460682 76.7539468 57.9780739 77.7482204 58.6024776 79.2316766 59.2268813 80.7151329 59.8552622 82.1985891 67.2844734 77.1954043 74.7216389 72.2001736 81.8605223 66.7833709 83.6740771 65.3953649 82.1031251 62.3966356 80.0111737 63.6176036L80.0111737 63.6176036ZM98.1864925 60.4677448C98.1745612 60.5075157 98.166607 60.5472867 98.1586528 60.5870576 98.1268361 60.7819353 98.0989964 60.9768129 98.079111 61.1716905 98.0035462 61.3745223 97.9796836 61.5773542 98.0115004 61.780186 98.0632026 62.1540329 98.1109277 62.5239026 98.1626299 62.8977495 98.3018282 63.2318255 98.4450036 63.5659014 98.5842019 63.8999773 98.802942 64.1823511 99.0216822 64.4647248 99.2404224 64.7510756 99.6222234 65.1607163 100.071635 65.4510442 100.592634 65.6180822 100.918756 65.8089827 101.272717 65.904433 101.654518 65.904433 102.028365 66.0038603 102.398235 66.0038603 102.772082 65.904433 103.149906 65.904433 103.503867 65.8089827 103.833966 65.6180822 104.354965 65.4470671 104.804377 65.1607163 105.186178 64.7510756 105.448666 64.4408622 105.695246 64.1147404 105.925917 63.7806645 105.7032 64.0670153 105.48446 64.3533661 105.261742 64.6397169 105.269697 64.6277856 105.281628 64.6158544 105.289582 64.6039231 105.814558 64.0749695 106.180451 63.4505657 106.383283 62.7307116 106.586115 61.9790407 106.586115 61.2233927 106.383283 60.4717219 106.240108 60.1336689 106.096932 59.7956158 105.953757 59.4575628 105.575933 58.8172506 105.066865 58.3121596 104.43053 57.9343356 103.941347 57.6241222 103.416371 57.4570843 102.851624 57.4292446 102.286876 57.3019776 101.722129 57.3298172 101.157382 57.5048094 99.7057423 57.8985417 98.6040874 59.0399679 98.1864925 60.4677448L98.1864925 60.4677448Z"/><circle cx="114.341" cy="114.341" r="114.341" stroke-width="10"/></g></svg>