<svg xmlns="http://www.w3.org/2000/svg" width="239" height="239" viewBox="0 0 239 239"><g fill="none" fill-rule="evenodd" stroke="#000" transform="translate(5.049 4.996)"><path fill="#000" fill-rule="nonzero" stroke-width="2" d="M82.4014071 90.4470831C75.5289889 101.121605 70.4303547 115.944236 77.3703834 127.883474 80.4566082 133.196872 85.3126398 137.066585 86.5773556 143.34244 87.8182089 149.491028 86.4938366 155.854379 87.2216448 162.058647 87.905705 167.900999 89.985725 174.773418 95.7962591 177.370461 97.9319585 178.324963 100.688085 175.604631 98.5404539 173.814938 89.4726799 166.24255 93.3065984 154.203885 91.8549591 143.990706 90.9839756 137.850072 87.7585525 133.530948 84.008153 128.814114 80.1304865 123.934219 78.499878 118.529347 78.965198 112.301217 79.5060828 105.074837 82.7394601 98.3257073 84.8234572 91.4731735 85.280823 89.9857402 83.1968259 89.2102067 82.4014071 90.4470831L82.4014071 90.4470831ZM140.272099 87.8182237C146.520114 96.8939533 148.456959 108.336054 144.678719 118.763996 142.57086 124.582485 139.5602 129.987357 138.132423 136.048449 136.593288 142.574861 136.736463 148.98196 137.285302 155.607799 137.814255 161.955242 137.679034 168.171441 132.755392 172.808733 130.822524 174.630242 133.2923 177.704536 135.551289 176.431866 140.733442 173.512679 142.531089 167.169213 142.718012 161.585372 142.956638 154.434557 141.330006 147.494527 142.539043 140.331779 143.672515 133.606513 146.707037 127.72439 149.156927 121.440581 151.415916 115.645954 152.25906 109.652472 151.3841 103.480022 150.449483 96.8780449 147.303601 90.7095714 142.535066 86.0722792 141.401594 84.970624 139.317597 86.4262406 140.272099 87.8182237L140.272099 87.8182237Z"/><path fill="#000" fill-rule="nonzero" stroke-width="2" d="M90.9879527 64.6874421C85.2887772 60.4558135 77.2868644 59.2308684 70.3388815 59.0757617 63.0965936 58.9166779 55.7548784 60.2171878 49.0494982 62.9653601 36.62108 68.0639953 26.4158572 78.0067315 20.8996281 90.2641368 18.139525 96.4007936 15.5902078 104.032838 16.7316337 110.825715 17.2804727 114.09091 19.1497068 117.328265 22.1126417 118.958874 23.5165558 119.734407 25.0437599 120.056552 26.6345974 120.148025 28.356679 120.243475 30.5241952 119.746338 32.0513992 120.752543 34.3939075 122.295656 34.3501594 125.942652 34.1433505 128.38061 33.8132518 132.294071 32.9979475 136.191624 34.4257242 139.997704 36.5534694 145.680972 42.1651488 149.411486 47.9677287 150.556889 49.6540165 150.890965 51.3482585 151.010278 53.0623859 150.986416 54.8123072 150.962553 56.5145033 150.791538 57.5962729 152.39033 58.5070274 153.734588 58.8570116 155.416899 59.4376673 156.916264 60.062071 158.526987 60.8137418 160.034306 61.8438091 161.426289 66.2106581 167.340228 73.4489689 170.470202 80.7270506 169.416272 83.5070392 169.014585 82.8826354 164.186392 80.0588988 164.472743 74.4671049 165.041468 68.7400898 162.750661 65.6180711 157.930423 64.1226838 155.619731 63.6533868 152.903375 62.3846938 150.489279 60.9449859 147.741107 58.5269128 146.174131 55.4367109 145.919597 52.4936615 145.673017 49.8369628 145.975277 46.9734552 145.024751 44.5394738 144.217401 42.1651488 142.769738 40.5743113 140.725512 36.4858588 135.467793 40.4072733 128.448221 38.8442754 122.490534 38.1602153 119.88156 36.62108 117.399853 34.1950528 116.099343 32.7792074 115.343695 31.1764385 115.109046 29.5935552 115.061321 28.0902137 115.017573 26.3760863 115.303924 24.9522867 114.683497 18.8673331 112.030775 22.2399087 101.519314 23.7551815 96.9814494 27.5612603 85.5791195 35.7938445 75.6880854 46.3490515 69.9372068 52.7800122 66.4333865 60.0700252 64.5402896 67.3799237 64.2937097 71.0985064 64.1664427 74.8489059 64.3931371 78.5078322 65.0891286 82.2781172 65.8050056 85.9290893 67.0180194 89.6834659 67.8054841 91.6401961 68.219102 92.5231109 65.8288682 90.9879527 64.6874421L90.9879527 64.6874421ZM141.063541 67.041882C152.195427 60.7620498 165.188592 59.6285778 177.016469 64.8425487 188.410843 69.8656191 197.116702 79.6373403 202.772129 90.5385563 205.814606 96.4007936 208.471304 103.27719 207.182726 109.986548 206.558322 113.231858 205.1385 116.011847 202.788037 118.33447 200.727903 120.370742 198.401303 122.108732 196.603656 124.403516 194.631018 126.921017 193.767989 129.7368 193.668561 132.918475 193.577088 135.801869 194.420232 139.504544 192.634517 142.029999 191.30219 143.915142 188.884117 144.646927 186.780235 145.291216 184.318414 146.046864 181.816822 146.683199 179.502153 147.840534 173.425154 150.886988 172.399063 158.459376 166.512965 161.569464 161.334788 164.305705 155.190178 163.295523 150.684131 159.771817 148.3456 157.942354 145.394596 160.738251 147.383143 163.072806 151.316489 167.690213 158.18493 168.903226 163.907968 167.793617 166.843063 167.224892 169.603166 165.904497 171.917835 164.023331 174.483061 161.939334 175.970494 159.044009 177.728369 156.315722 179.494199 153.571527 181.677623 152.179544 184.728054 151.201179 187.452364 150.326218 190.288031 149.709768 192.829394 148.349602 195.430414 146.957619 197.426915 144.706583 198.258127 141.85103 199.296149 138.299484 198.238242 134.612718 198.926279 131.049241 199.562614 127.756207 202.338626 125.660278 204.720905 123.568326 207.385558 121.225817 209.628639 118.696385 211.024599 115.399374 214.051167 108.256512 212.850085 100.354026 209.974646 93.3702476 204.669203 80.4725301 195.374734 68.6168114 182.950293 61.9551781 169.774181 54.8918583 150.815375 53.9015618 139.198284 64.6238085 137.893797 65.8288682 139.564177 67.8890031 141.063541 67.041882L141.063541 67.041882Z"/><path fill="#000" fill-rule="nonzero" stroke-width="2" d="M85.956929 83.1968399C86.000677 83.2207024 86.0404479 83.244565 86.084196 83.2684276 86.6966684 83.6263661 87.3409576 83.4513739 87.8579798 83.0377561 94.7940315 77.4698238 102.589135 73.524546 111.62907 73.1825159 116.031713 73.0154779 120.338905 73.7393091 124.502922 75.1551548 126.574988 75.8591005 128.559558 76.7579239 130.464586 77.8436707 132.42927 78.9612342 134.163283 80.6952474 136.175693 81.6497501 138.120492 82.5684589 140.95616 80.5242324 139.448841 78.3766013 137.989248 76.3045351 135.503564 74.8409643 133.340025 73.5762483 131.168532 72.3075551 128.85784 71.2615793 126.491469 70.410481 121.68714 68.684422 116.389651 67.9804763 111.302948 68.3145522 101.594862 68.9508874 91.5725855 73.4768209 85.5592196 81.2639719 85.2609376 81.6497501 85.3046856 82.3497187 85.5592196 82.739474 85.6705782 82.9144662 85.7739827 83.0894583 85.956929 83.1968399L85.956929 83.1968399ZM97.1524481 166.703893C99.9761847 169.698645 101.129542 173.731419 101.73406 177.712491 102.410166 182.186722 102.521525 186.820037 102.517548 191.338016 102.513571 202.485812 101.065908 213.573952 100.918756 224.717771 100.886939 227.020508 104.466324 227.024485 104.49814 224.717771 104.653247 212.790464 106.307718 200.918837 106.07307 188.979599 105.910009 180.611793 105.778765 170.641217 99.6779027 164.170484 98.1029735 162.49215 95.5735419 165.029536 97.1524481 166.703893L97.1524481 166.703893ZM127.632895 165.359635C122.908108 185.960985 116.930536 206.637899 119.090098 227.994896 119.320769 230.265817 122.900154 230.28968 122.669482 227.994896 120.541737 206.936181 126.427836 186.625159 131.085013 166.310161 131.598058 164.067079 128.149917 163.112577 127.632895 165.359635L127.632895 165.359635ZM54.9793451 160.845633C51.3959836 181.343578 59.5370947 201.233028 69.2929058 218.851556 70.4104692 220.867943 73.5006711 219.062342 72.3831077 217.045955 63.1482959 200.369998 55.0270702 181.256082 58.4314626 161.800136 58.8251949 159.545123 55.3770545 158.578689 54.9793451 160.845633L54.9793451 160.845633ZM154.418622 176.368233C156.633863 192.220931 152.338602 208.006019 149.093294 223.397375 148.620019 225.644434 152.06816 226.60689 152.545411 224.347901 155.941849 208.248622 160.185408 191.982306 157.87074 175.417707 157.552572 173.146786 154.104432 174.11322 154.418622 176.368233L154.418622 176.368233ZM178.11017 159.688298C180.416885 178.639154 173.106986 196.627552 169.094098 214.814805 168.600939 217.057887 172.049079 218.020343 172.546216 215.765331 176.622737 197.279796 184.03604 178.949367 181.689555 159.688298 181.415135 157.429309 177.831774 157.401469 178.11017 159.688298L178.11017 159.688298Z"/><path fill="#000" fill-rule="nonzero" stroke-width="2" d="M90.0573127 177.636926C89.1425811 179.84819 89.0590622 182.433302 88.3630707 184.740017 87.5915145 187.285357 86.4779283 189.671614 85.2688917 192.030031 82.9104751 196.619598 79.9316318 200.855204 76.9368802 205.043084 75.9744235 206.387342 77.310727 207.902615 78.6510076 208.033859 84.5848316 208.606561 89.5681302 202.847728 92.7179885 198.520649 94.4281388 196.170186 95.8121675 193.612914 96.9098454 190.924399 98.0115004 188.231906 99.2284911 184.859329 98.9222549 181.908325 98.7234002 179.987389 96.341121 179.677175 95.6252441 181.462891 94.7025583 183.765628 94.3605282 186.334832 93.4895447 188.685294 92.6384466 190.980078 91.4930436 193.16748 90.1487859 195.207729 87.7943463 198.787114 83.4632911 204.518108 78.6470305 204.060742 79.219732 205.058992 79.7924335 206.053266 80.361158 207.051517 83.5985123 202.509675 86.9233628 197.888291 89.265871 192.801587 90.3635489 190.415331 91.2782805 187.925669 91.890753 185.372375 92.4634545 182.97021 93.1156979 180.039091 92.2645998 177.640903 91.8668904 176.507431 90.4868388 176.598904 90.0573127 177.636926L90.0573127 177.636926ZM131.291822 181.673677C131.248074 181.689585 131.200348 181.705494 131.1566 181.721402 130.504357 181.956051 129.772572 182.624202 129.871999 183.40769 131.148646 193.227136 140.196535 201.292684 149.323965 203.905635 150.851169 204.343115 152.652793 202.422179 151.567046 200.990425 146.45648 194.24925 141.775441 187.5558 140.570381 178.997092 140.264145 176.817644 136.601242 177.33069 136.724532 179.518092 137.229623 188.4586 142.932775 196.130415 148.134814 202.99488 148.882508 202.024469 149.630201 201.050081 150.377895 200.07967 146.015023 198.830862 142.157242 196.412789 139.082948 193.076007 137.627332 191.4971 136.386479 189.715362 135.364366 187.826242 134.409863 186.056435 134.04397 183.594613 132.763346 182.067409 132.449156 181.681631 131.757142 181.506639 131.291822 181.673677L131.291822 181.673677ZM192.101586 195.565668C189.596017 195.462263 187.348959 194.380494 185.133718 193.294747 183.073583 192.284565 181.256051 195.37079 183.328117 196.384949 186.131968 197.761024 188.931842 199.009832 192.101586 199.141076 194.404324 199.240503 194.400346 195.661118 192.101586 195.565668L192.101586 195.565668ZM179.335115 200.385906C181.299799 202.366499 183.650262 203.774391 186.275144 204.701054 188.450614 205.468633 189.389208 202.012538 187.225669 201.248936 185.18542 200.529082 183.387774 199.391633 181.864547 197.856474 180.241892 196.217911 177.708484 198.751321 179.335115 200.385906L179.335115 200.385906ZM86.8835918 121.456489C86.8637064 121.543985 86.8438209 121.627504 86.8239354 121.715 86.7841645 122.021236 86.7404165 122.327473 86.7006455 122.633709 86.6847371 123.11096 86.7801874 123.552418 86.9989276 123.966036 87.0824465 124.260341 87.229599 124.510898 87.4443621 124.729638 87.6869648 125.107462 88.0091094 125.401767 88.414773 125.620507 88.6891924 125.735843 88.9636119 125.851178 89.2380314 125.970491 89.5442676 126.010262 89.8505038 126.05401 90.1567401 126.093781 90.6339913 126.113667 91.0754487 126.014239 91.4890665 125.795499 91.9185926 125.656301 92.2884624 125.417675 92.5986757 125.079622 92.654355 125.012011 92.7100343 124.948378 92.7657136 124.880767 93.2031939 124.443287 93.501476 123.926265 93.6685139 123.3297 93.8355519 122.705297 93.8355519 122.08487 93.6685139 121.460466 93.5492011 121.182069 93.4338654 120.899696 93.3145526 120.621299 93.0003621 120.092346 92.5827673 119.670774 92.0538138 119.36056 91.6521273 119.102049 91.214647 118.962851 90.7453499 118.942965 90.2760529 118.839561 89.8107329 118.859446 89.3414358 119.006599 88.7448717 119.173637 88.2278496 119.475896 87.7903692 119.909399 87.3528889 120.342902 87.0506298 120.859925 86.8835918 121.456489L86.8835918 121.456489ZM134.024085 123.894448C134.505313 123.914333 134.954725 123.810929 135.368343 123.592189 135.801846 123.45299 136.175693 123.210388 136.49386 122.868358 136.83589 122.55019 137.074516 122.176343 137.217691 121.74284 137.436432 121.325245 137.535859 120.87981 137.51995 120.398582 137.48018 120.088368 137.436432 119.778155 137.396661 119.471919 137.229623 118.879332 136.931341 118.366287 136.497837 117.932783 136.263189 117.749837 136.02854 117.566891 135.789915 117.387921 135.245053 117.073731 134.656443 116.914647 134.028062 116.91067 133.546834 116.890784 133.097422 116.994189 132.683804 117.212929 132.250301 117.352127 131.876454 117.59473 131.558287 117.93676 131.216257 118.254928 130.977631 118.628775 130.834456 119.062278 130.615716 119.479873 130.516288 119.925308 130.532197 120.406536 130.571968 120.716749 130.615716 121.026963 130.655487 121.333199 130.822524 121.925786 131.120807 122.438831 131.55431 122.872335 131.788958 123.055281 132.023607 123.238227 132.262232 123.417197 132.807094 123.735364 133.395704 123.894448 134.024085 123.894448L134.024085 123.894448Z"/><circle cx="114.341" cy="114.341" r="114.341" stroke-width="10"/></g></svg>