<svg xmlns="http://www.w3.org/2000/svg" width="239" height="240" viewBox="0 0 239 240"><g fill="none" fill-rule="evenodd" stroke="#000" transform="translate(4.995 5.59)"><path fill="#000" fill-rule="nonzero" stroke-width="2" d="M75.0000355,63.8960002 C64.3573324,72.2717613 57.1150445,84.7359754 54.0168884,97.8086851 C52.3425319,104.868028 51.7221053,112.038729 52.5692263,119.26511 C53.0027295,122.959831 53.7146293,126.610803 54.7526508,130.186211 C55.6713594,133.36391 56.4946179,136.330822 59.5251634,138.080744 C61.0523674,138.963659 63.3312422,138.200057 63.7329286,136.370593 C64.1505235,134.453634 65.2203617,131.72137 64.7311792,129.724868 C64.2499508,127.768138 62.1420911,127.290887 60.5234139,128.014718 C59.1354082,128.635145 58.8411032,130.818569 58.5507754,132.134988 C58.2127224,133.674123 57.643998,135.591083 58.4990732,137.054654 C59.6961784,139.106834 63.1801126,138.816506 63.7329286,136.370593 C66.1112308,125.823339 71.4723532,116.147068 79.2674571,108.638313 C82.5962847,105.436752 87.2813012,100.875025 92.3640271,102.187466 C97.064952,103.40048 99.77733,108.097429 100.672176,112.567683 C101.853373,118.477645 100.640359,124.709752 99.6102921,130.552104 C98.4648891,137.054654 96.9416621,143.485615 95.3627559,149.896692 C92.316302,162.265456 89.0908789,174.650128 87.9653614,187.37683 C87.3489118,194.368562 87.5040185,201.376203 88.4426126,208.328164 C89.3334816,214.946049 90.7175103,221.92585 93.4537508,228.05853 C93.9230479,229.11246 95.6093357,229.784589 96.6871281,229.374948 C96.6911052,229.370971 96.6990594,229.370971 96.7030365,229.366994 C97.9438898,228.89372 98.7432856,227.96308 98.8069191,226.60689 C98.8069191,226.587005 98.8069191,226.56712 98.8108962,226.547234 C98.1109277,227.465943 97.4109592,228.388629 96.7070136,229.307338 C96.7149678,229.303361 96.722922,229.299383 96.7308762,229.295406 C95.6530837,228.857926 94.5752913,228.416468 93.4974989,227.978988 C93.6088575,228.15398 93.6963536,228.340904 93.7679413,228.539758 C94.4042763,229.963558 96.4445254,230.273772 97.6853787,229.565849 C99.1449721,228.734636 99.3438268,227.052325 98.7114689,225.648411 C98.6398812,225.453533 98.5523851,225.26661 98.4410265,225.08764 C97.8524166,224.085413 96.3729377,223.32181 95.2076492,223.771222 C95.199695,223.775199 95.1917408,223.779176 95.1837867,223.783153 C93.9429334,224.264382 93.1435375,225.183091 93.079904,226.543257 C93.079904,226.563142 93.079904,226.583028 93.0759269,226.602913 C93.7758954,225.684205 94.475864,224.761519 95.1798096,223.84281 C95.1758325,223.846787 95.1678783,223.846787 95.1639012,223.850764 C96.2416936,224.288244 97.319486,224.729702 98.3972785,225.167182 C96.0945411,220.000936 94.7184667,212.822281 93.9747501,206.840731 C93.1554688,200.258639 93.119675,193.597006 93.7241932,186.999006 C94.9889091,173.246214 98.8824839,159.899084 102.072113,146.512184 C103.662951,139.842597 105.090727,133.125284 106.069092,126.336384 C106.952007,120.215635 107.512778,113.581842 105.206063,107.691765 C103.241379,102.672672 99.4710938,98.3018448 94.1616735,96.7507779 C88.164216,95.0008563 82.6400327,98.1308297 78.1856876,101.889184 C68.1753425,110.344487 61.0802071,122.072939 58.2007911,134.847366 C59.9467353,134.620672 61.6887024,134.39 63.4346466,134.163306 C63.6692951,135.44393 63.7846309,135.809823 63.7766767,135.264961 C63.7806538,135.217236 63.7806538,135.165534 63.7846309,135.117809 C63.8124705,134.823504 63.8005392,134.895091 63.748837,135.324617 C63.7607683,135.25303 63.7726996,135.181442 63.7806538,135.109854 C63.8721269,134.580901 63.9755314,134.055924 64.0948442,133.530948 C64.1982486,133.069605 64.3016531,132.608262 64.4289201,132.150896 C64.4726681,131.987835 64.55221,131.808866 64.5720954,131.637851 C64.6834541,130.683348 66.1271391,131.741255 63.410784,132.954269 C62.0068699,132.385545 60.6069329,131.812843 59.2030188,131.244119 C59.127454,130.937882 58.9842786,130.512333 59.1513166,130.233937 C59.0081412,130.468585 59.0200725,130.969699 58.9643931,131.240141 C58.7297446,132.445201 58.4672564,133.642307 58.2047682,134.843389 C59.6086823,134.274665 61.0086194,133.701963 62.4125335,133.133238 C61.2194053,132.445201 61.1080467,131.395248 60.7063602,130.106669 C60.2569486,128.674915 59.8552622,127.227253 59.5013008,125.767659 C58.7496301,122.665526 58.236585,119.519644 58.0218219,116.333991 C57.5843416,109.855304 58.3797603,103.539678 60.0501398,97.2797315 C63.1005707,85.8654703 69.7144778,75.2863989 79.0447399,67.9446824 C80.2696848,66.9822256 80.0350363,64.9061823 79.0447399,63.8960002 C77.8595659,62.6829864 76.209072,62.9454747 75.0000355,63.8960002 L75.0000355,63.8960002 Z"/><path fill="#000" fill-rule="nonzero" stroke-width="2" d="M89.0908789,58.244549 C102.382326,48.8267892 124.968242,57.528672 125.783547,74.7176744 C126.77782,95.7207104 120.410493,115.816969 116.222613,136.151853 C114.059074,146.671268 112.726748,157.278179 112.543801,168.024288 C112.392672,176.849461 112.50403,186.66493 117.940718,194.12596 C120.676958,197.880337 124.566556,200.787593 129.179985,201.730164 C134.103627,202.736369 138.987498,201.666531 143.533316,199.7098 C152.652793,195.784408 158.566731,187.325128 164.309655,179.641382 C167.574849,175.274532 171.019012,171.345162 175.354044,167.992472 C179.510107,164.775002 184.115582,162.27341 188.971613,160.276908 C198.739356,156.260043 209.358196,154.088549 219.933289,154.390809 C223.620055,154.49819 223.616078,148.767197 219.933289,148.663792 C201.129589,148.126885 180.643579,154.557846 166.926582,167.714075 C159.79963,174.550701 155.444712,183.90085 147.816646,190.260224 C140.852755,196.062805 129.852114,199.749571 123.142756,191.548802 C117.439604,184.580933 118.071962,174.156968 118.330473,165.753368 C118.664549,154.899877 120.283226,144.296943 122.593917,133.701963 C124.884723,123.222319 127.609033,112.834148 129.450427,102.259054 C130.321411,97.2439376 131.009448,92.1810963 131.363409,87.1023467 C131.725325,81.9559864 132.007698,76.4994127 131.164555,71.3888463 C127.947086,51.8971061 101.956777,42.1412933 86.1995317,53.3049976 C83.2167113,55.4128577 86.0762418,60.3802487 89.0908789,58.244549 L89.0908789,58.244549 Z"/><path fill="#000" fill-rule="nonzero" stroke-width="2" d="M91.6521273,78.7385169 C92.2566456,78.7623795 92.8213929,78.6351125 93.3463693,78.3606929 C93.8912312,78.1817237 94.3645053,77.8794645 94.7622147,77.4499383 C95.1917408,77.0522289 95.494,76.5789546 95.6729692,76.0340927 C95.9473887,75.5091162 96.0746557,74.9443688 96.0507931,74.3398504 C95.9990909,73.9500951 95.9473887,73.5603399 95.8917094,73.1705846 C95.6809234,72.426868 95.3070766,71.7786015 94.7622147,71.2297625 C94.4639327,70.999091 94.1696277,70.7723966 93.8713457,70.5417252 C93.1833085,70.1440157 92.443569,69.945161 91.6521273,69.9411839 C91.0476091,69.9173213 90.4828618,70.0445883 89.9578854,70.3190079 C89.4130235,70.4979771 88.9397493,70.8002363 88.54204,71.2297625 C88.1125138,71.627472 87.8102547,72.1007462 87.6312855,72.6456081 C87.356866,73.1705846 87.229599,73.735332 87.2534616,74.3398504 C87.3051638,74.7296057 87.356866,75.1193609 87.4125453,75.5091162 C87.6233313,76.2528329 87.9971781,76.9010993 88.5460171,77.4499383 C88.8442991,77.6806098 89.138604,77.9073042 89.4368861,78.1379757 C90.1209462,78.5356851 90.8606857,78.7345398 91.6521273,78.7385169 L91.6521273,78.7385169 Z"/><path stroke-width="10" d="M222.804751,150.616546 C226.614807,139.218193 228.682895,127.020444 228.682895,114.341467 C228.682895,51.1931604 177.489743,0 114.341448,0 C51.1931518,0 0,51.1931604 0,114.341467 C0,177.489773 51.1931518,228.682934 114.341448,228.682934 C163.410831,228.682934 205.253836,197.768978 221.476401,154.358992 C220.859952,154.160137 222.092851,150.389851 222.804751,150.616546 Z"/></g></svg>