<?xml version="1.0" standalone="no"?>
<!DOCTYPE svg PUBLIC "-//W3C//DTD SVG 20010904//EN"
 "http://www.w3.org/TR/2001/REC-SVG-20010904/DTD/svg10.dtd">
<svg version="1.0" xmlns="http://www.w3.org/2000/svg"
 width="700.000000pt" height="700.000000pt" viewBox="0 0 700.000000 700.000000"
 preserveAspectRatio="xMidYMid meet">
<metadata>
Created by potrace 1.14, written by Peter Selinger 2001-2017
</metadata>
<g transform="translate(0.000000,700.000000) scale(0.100000,-0.100000)"
fill="#000000" stroke="none">
<path d="M1045 6985 c-134 -21 -234 -53 -360 -115 -257 -127 -442 -314 -565
-573 -56 -117 -84 -211 -105 -347 -22 -143 -22 -4757 0 -4900 40 -261 152
-491 329 -673 140 -146 355 -276 536 -327 187 -52 88 -50 2620 -50 2532 0
2434 -2 2620 50 99 28 261 106 356 172 92 63 210 178 282 273 66 87 164 285
192 385 52 188 50 89 50 2620 0 2532 2 2434 -50 2620 -28 99 -106 261 -172
357 -68 99 -202 233 -301 301 -96 66 -258 144 -357 172 -187 52 -86 50 -2630
49 -1847 -1 -2383 -4 -2445 -14z m4560 -1150 c195 -42 337 -163 401 -342 29
-83 30 -137 5 -236 -46 -177 -151 -348 -316 -512 -124 -124 -243 -212 -413
-306 -117 -64 -117 -64 -198 -64 -72 0 -86 3 -129 30 -61 38 -115 106 -115
146 0 34 5 37 230 164 262 148 410 252 544 383 128 124 203 238 240 362 l17
55 -26 22 c-42 37 -99 48 -250 48 -163 0 -270 -20 -480 -90 -331 -109 -831
-365 -1175 -603 -251 -173 -564 -461 -740 -682 -184 -232 -333 -489 -334 -577
-1 -43 1 -47 39 -67 35 -18 56 -21 155 -20 102 1 134 6 290 47 96 25 312 89
480 142 778 246 1139 292 1322 169 l51 -34 261 150 c143 82 262 146 264 141 4
-12 -34 -110 -58 -148 -23 -39 -185 -174 -293 -246 -73 -49 -77 -54 -72 -82
30 -152 31 -216 10 -358 -46 -308 -258 -687 -554 -990 -197 -203 -435 -354
-666 -422 -111 -33 -262 -38 -335 -11 -110 41 -210 141 -274 276 -40 85 -42
162 -6 235 120 246 474 622 844 898 147 109 308 218 480 322 96 59 124 80 113
87 -32 17 -132 20 -205 4 -40 -8 -265 -91 -500 -185 -552 -219 -742 -280 -983
-317 -124 -19 -212 -13 -271 17 -123 62 -340 369 -355 501 -14 125 162 476
387 768 102 132 409 436 558 550 493 379 1131 681 1627 770 126 23 334 25 430
5z m-2635 -696 c21 -6 50 -21 65 -33 l27 -22 -115 -179 c-151 -238 -213 -346
-313 -548 -313 -635 -624 -1581 -838 -2547 -74 -336 -98 -479 -94 -575 l3 -85
-68 0 c-85 0 -176 23 -258 64 -55 27 -64 36 -71 66 -32 141 111 829 377 1810
42 156 79 290 83 299 3 9 -39 -42 -93 -112 -146 -191 -241 -288 -317 -323 -72
-32 -175 -43 -231 -25 -55 18 -103 79 -129 163 -20 64 -23 93 -23 238 1 238
43 443 161 790 108 319 309 777 366 838 72 76 186 98 331 63 48 -11 100 -27
116 -36 l29 -15 -60 -100 c-109 -183 -266 -564 -373 -905 -66 -213 -144 -522
-151 -606 -7 -71 -7 -71 15 -60 55 30 195 230 546 781 397 622 605 914 711
995 80 61 217 90 304 64z"/>
<path d="M4933 3434 c-158 -107 -434 -314 -568 -425 -217 -181 -434 -420 -599
-662 -79 -114 -80 -112 62 -104 258 14 558 182 860 479 198 195 313 383 362
593 25 109 35 205 21 205 -6 0 -68 -39 -138 -86z"/>
</g>
</svg>
