<svg xmlns="http://www.w3.org/2000/svg" width="273" height="276" viewBox="0 0 273 276"><g transform="translate(.402)"><path d="M39.0013655,149.430286 C38.599679,142.255608 37.4343906,135.144563 36.5156819,128.021587 C35.6248129,121.105419 34.8970047,114.153458 34.3402116,107.201497 C33.2027627,93.0072467 32.9243662,78.7732255 33.5726324,64.5471584 C31.5761313,65.3743941 29.5796302,66.2016297 27.5831291,67.0288654 C39.1524951,80.9288107 48.9162604,96.2446016 58.4135605,111.600163 C68.5670811,128.01761 78.6848078,144.458918 88.8462825,160.872387 C91.6978588,165.48184 94.5534122,170.087315 97.3691946,174.716653 C100.181,179.342014 102.702477,184.237817 106.071076,188.473423 C108.194844,191.146031 113.166211,188.250706 111.897518,185.080961 C110.072032,180.51128 107.32386,176.379079 104.77852,172.17529 C102.308745,168.094791 99.8071531,164.034177 97.301584,159.977541 C92.1273849,151.60178 86.9492088,143.229996 81.7710326,134.854235 C71.8044354,118.731094 62.0287388,102.428984 51.3860357,86.7393457 C45.5675474,78.16473 39.3513498,69.8804422 32.5465422,62.0654515 C30.4665222,59.6752177 26.6286266,61.6836504 26.5570389,64.5471584 C26.2150089,78.9004925 26.6087411,93.2856433 27.8814112,107.587275 C28.5137691,114.702297 29.3966839,121.781525 30.5062931,128.832914 C31.6318107,135.963844 32.9760684,143.102729 35.4458436,149.907538 C36.1020641,151.709162 39.1246554,151.60178 39.0013655,149.430286 L39.0013655,149.430286 Z"/><path d="M2.38028553,182.487896 C5.00516746,180.94876 7.71356836,179.584617 10.0759621,177.679589 C12.4940351,175.726835 14.9439249,173.801921 17.445517,171.95655 C22.2617776,168.39705 27.3962057,165.215374 32.9442516,162.924568 C42.2069032,159.098603 53.645025,158.17194 62.6571196,163.198988 C72.5680375,168.727149 75.4514305,181.187386 85.2470126,187.005875 C94.9869154,192.792548 107.375563,191.396588 117.171145,186.540555 C127.953046,181.19534 135.589066,171.09352 142.063775,161.286005 C148.964033,150.830224 155.617711,140.231267 162.760571,129.934569 C177.479796,108.720747 193.312606,88.2864355 210.179461,68.739016 C227.026431,49.211482 244.891536,30.5628859 263.683304,12.9006092 C266.009904,10.7132073 268.352413,8.54171368 270.706852,6.38215136 C268.579107,5.14527497 266.455339,3.90839858 264.327594,2.6675451 C261.674872,10.4586732 258.644327,18.1344656 255.490491,25.7307161 C249.489057,40.1914317 242.374036,55.3879098 233.839192,68.9975272 C229.420641,76.0409615 224.823121,82.5435111 218.634763,88.1551914 C215.94227,90.5971274 218.76203,95.926434 222.33346,94.5105884 C228.032635,92.2476216 234.793695,89.2687779 240.930351,91.5834469 C242.958668,92.3510261 244.95517,93.7549404 245.893764,95.7673503 C247.106777,98.3683701 246.164206,101.450618 245.074482,103.928348 C240.123001,115.207388 231.842691,125.519994 222.981726,133.955412 C217.847298,138.839284 212.259481,143.158408 206.262024,146.924717 C202.392311,149.354722 205.092758,154.445403 209.185188,153.86077 C212.307206,153.415335 216.049652,153.252274 219.259166,153.95622 C222.102788,154.580624 224.588472,155.666371 225.196967,158.338978 C226.147493,162.502996 222.707307,167.5897 220.846027,171.12136 C218.722259,175.150156 216.375773,179.063617 213.778731,182.802086 C203.668959,197.350298 188.794628,209.337261 170.746576,211.536594 C161.050421,212.717791 150.598618,211.103091 142.266607,205.785715 C138.353147,203.2881 134.737968,209.512253 138.63552,211.997937 C156.886404,223.646847 180.820554,220.755499 198.295905,208.939551 C207.049488,203.021635 214.311662,195.278232 220.325027,186.628051 C223.347619,182.281087 226.02818,177.699474 228.414436,172.974686 C230.971708,167.911845 234.030093,162.16892 232.51482,156.322591 C229.695061,145.449215 216.085445,145.270246 207.172778,146.542916 C208.147166,148.853608 209.121554,151.1643 210.095942,153.478969 C222.576063,145.648069 233.393758,135.502501 242.071777,123.607012 C246.347152,117.748752 250.765704,111.190523 253.05651,104.258447 C255.530262,96.7695781 252.805953,89.0500377 245.663092,85.4109962 C237.354943,81.1793676 228.438299,83.9593567 220.317073,87.1808032 C221.549972,89.3005946 222.782871,91.4164089 224.015771,93.5362003 C229.59961,88.473359 234.197131,82.3247709 238.341263,76.0568699 C243.06605,68.9179853 247.206205,61.4012767 251.0441,53.7573011 C257.661984,40.5851641 263.42877,26.9675925 268.618878,13.1710517 C269.676785,10.3592459 270.722761,7.54346296 271.689194,4.69984039 C272.985727,0.893760952 267.946749,-1.42886224 265.309936,0.985234125 C246.291473,18.4088851 228.175811,36.8069243 211.066353,56.1077639 C193.901216,75.472237 177.742284,95.7395106 162.673075,116.778341 C155.092734,127.357412 147.794767,138.135338 140.787128,149.100188 C134.634564,158.720779 128.597335,168.997591 119.426157,176.104659 C111.73048,182.066324 100.157137,185.677526 90.8507378,181.338516 C85.9668666,179.05964 82.9005272,174.768355 79.9415694,170.445254 C76.6206961,165.593198 73.1646015,160.967838 68.1693717,157.722528 C58.9106972,151.705184 46.7646527,151.176231 36.3446668,154.05167 C24.5764462,157.300956 14.4666737,165.080153 5.72899853,173.340579 C3.58932205,175.36492 1.99450743,177.985825 0.260494516,180.376059 C-0.678099628,181.668614 1.12750097,183.223658 2.38028553,182.487896 L2.38028553,182.487896 Z"/><path d="M7.15677522 186.76725C16.3518162 186.731456 24.7872322 191.233527 30.9716131 197.883229 37.665062 205.077793 41.7097664 214.292721 45.9771881 223.014489 54.4205583 240.283033 65.2223452 257.340791 82.1886274 267.315344 90.4092804 272.147514 99.7912447 275.08261 109.368087 275.051049 119.85966 275.018977 130.498386 272.302621 140.433167 269.112991 159.761843 262.912701 177.499681 253.109163 194.517666 242.188061 212.024833 230.952769 230.454685 218.257884 251.867359 216.818176 251.29068 216.663069 250.714001 216.503985 250.137323 216.348878 253.569555 218.019258 256.631917 215.52562 256.775092 211.926349 256.850657 210.084955 256.385337 208.084476 256.126826 206.266944 255.836498 204.230671 255.490491 202.202353 255.084828 200.189943 253.517853 192.40677 251.020238 184.894038 247.838563 177.623909 247.162457 176.080797 244.959147 175.603545 243.555233 176.219995 241.872922 176.959734 241.304197 178.522733 241.570663 180.268677 241.57464 180.304471 241.582594 180.344242 241.586571 180.380036 241.880876 179.266449 242.175181 178.15684 242.469486 177.043253 235.020389 183.287292 226.787805 188.62853 217.692191 192.140304 216.021812 192.784594 214.864478 194.371454 215.373546 196.220803 215.834889 197.903114 217.739916 199.084311 219.454044 198.539449 225.208899 196.713963 230.589907 193.886249 235.64877 190.6131 238.126499 189.010331 240.52071 187.284272 242.859241 185.482648 245.24152 183.64523 248.709546 181.883377 248.188547 178.447168 246.100573 179.330083 244.008621 180.209021 241.920647 181.091936 244.127934 186.134892 245.897741 191.376702 247.261884 196.713963 247.922082 199.29112 248.482852 201.896117 248.944195 204.513045 249.186797 205.877189 249.405538 207.249286 249.584507 208.621384 249.679957 209.341238 249.77143 210.061092 249.835064 210.784923 249.858926 211.027526 249.882789 211.266152 249.910628 211.508754 249.850972 212.435417 250.121414 212.129181 250.717979 210.586069 251.294657 210.430962 251.871336 210.271878 252.448014 210.116771 252.332679 210.100863 252.213366 210.088932 252.094053 210.073023 252.670732 210.22813 253.24741 210.387214 253.824089 210.54232 251.827588 209.571909 249.405538 210.136657 247.273815 210.415053 244.811994 210.737198 242.366081 211.15877 239.948008 211.723518 235.286854 212.813241 230.760922 214.380217 226.350325 216.229566 217.457543 219.96008 209.125531 224.800204 200.976466 229.926679 183.82326 240.708582 167.016062 251.844447 148.045324 259.269682 138.460528 263.024059 128.482 266.022789 118.304617 267.653397 108.393699 269.244235 98.5662998 268.182351 89.4905717 263.783685 71.955565 255.284634 60.7759543 238.640493 52.2132712 221.757727 47.1941788 211.858739 42.6443835 201.247851 34.6384936 193.30957 27.4598392 186.190571 16.9961054 180.893081 6.75508874 183.840108 5.15629702 184.297474 5.45060197 186.771227 7.15677522 186.76725L7.15677522 186.76725ZM42.9943677 175.695018C43.5630921 175.714904 44.0920456 175.599568 44.5852053 175.341057 45.0982504 175.174019 45.5397078 174.891645 45.9135546 174.485982 46.3152411 174.112135 46.6015918 173.670677 46.7686298 173.157632 47.0271409 172.664472 47.1464537 172.135519 47.1225911 171.566794 47.074866 171.200902 47.0231638 170.835009 46.9754387 170.469116 46.7805611 169.769148 46.4265997 169.164629 45.9135546 168.647607 45.635158 168.432844 45.3567615 168.218081 45.0783649 168.003318 44.4340757 167.629471 43.7420614 167.442547 42.9943677 167.43857 42.4256433 167.418685 41.8966898 167.534021 41.4035302 167.792532 40.8904851 167.95957 40.4490277 168.241943 40.0751809 168.647607 39.6734944 169.021454 39.3871436 169.462911 39.2201057 169.975957 38.9615946 170.469116 38.8422818 170.99807 38.8661443 171.566794 38.9138695 171.932687 38.9655717 172.29858 39.0132968 172.664472 39.2081744 173.364441 39.5621358 173.968959 40.0751809 174.485982 40.3535774 174.700745 40.631974 174.915508 40.9103706 175.130271 41.5546598 175.504118 42.2466741 175.695018 42.9943677 175.695018L42.9943677 175.695018Z"/></g></svg>