<svg xmlns="http://www.w3.org/2000/svg" width="183" height="263" viewBox="0 0 183 263"><g transform="translate(.616 .448)"><path d="M118.759698,8.42984322 C122.414647,8.61676666 126.077551,8.84346105 129.617164,9.84568886 C131.275613,10.314986 132.914175,10.8717792 134.421494,11.7228775 C136.239026,12.7449908 137.666802,14.272195 139.102533,15.7636055 C145.52554,22.433193 151.79344,29.9976267 161.767991,30.6100993 C163.939484,30.7453205 166.170634,30.3794278 168.194975,29.5999172 C169.447759,29.1186888 171.873786,27.4125153 173.118617,28.4783766 C174.212318,29.4129938 174.45492,31.5566477 174.685592,32.8690889 C175.01569,34.7502546 175.150912,36.65926 175.162843,38.5682653 C175.206591,45.9457756 173.054983,53.2079502 169.284698,59.5275534 C167.145022,63.1188697 164.58775,66.372133 161.513457,69.2078014 C158.268148,72.2065306 154.577405,74.3024594 150.652014,76.2790754 C147.597606,77.818211 149.721374,82.9248003 152.994522,81.8350764 C161.298694,79.0709957 168.354058,72.7911635 173.404967,65.7954543 C178.511556,58.7281574 181.474491,50.0103662 182.035261,41.332346 C182.524444,33.7520039 180.858041,18.0225952 169.400034,21.7928807 C167.236495,22.5047807 165.343398,23.7774509 163.012821,23.9126721 C160.638496,24.0478933 158.228377,23.3558789 156.128472,22.2900176 C151.515043,19.9475089 148.011223,16.0300708 144.356274,12.4665941 C140.582012,8.78380463 136.843544,5.92427369 131.613666,4.73114534 C127.15932,3.71300914 122.156136,3.28348294 117.880761,5.16862573 C116.162656,5.9163195 117.188746,8.34632424 118.759698,8.42984322 L118.759698,8.42984322 Z"/><path d="M167.323991 27.7744309C167.184793 31.3299534 169.82956 34.4559496 173.249861 35.2513685 174.800927 35.6132841 176.06962 34.5474228 176.184956 33.0162414 176.43949 29.6715049 173.57996 24.2706106 169.495484 25.4120367 166.926282 26.1279137 166.918327 28.9118799 167.940441 30.8765646 168.851195 32.6225091 170.601116 33.8951793 172.49819 34.3525452 173.846425 34.6786669 175.226476 33.9349503 175.620209 32.578761 176.729818 28.7726816 173.802677 25.0580753 169.972736 24.7995642 168.588707 24.7041139 167.288197 26.0841657 167.339899 27.4324007 167.483075 31.0754193 170.517597 34.8417278 174.439012 34.0144921 176.463353 33.588943 176.670162 30.7015724 174.999782 29.7192301 174.395264 29.3652687 173.607799 29.0113073 173.206113 28.6334833 172.796472 28.2516822 172.625457 27.8539728 172.605572 27.4284237 171.726634 28.3073615 170.851673 29.1823223 169.972736 30.0612602 169.753995 30.0055809 169.80172 30.0175122 170.119888 30.0970541 169.936942 29.9976267 169.988644 30.0254664 170.271018 30.180573 169.968758 29.9856954 170.684635 30.6260076 170.581231 30.4868093 170.724406 30.681687 170.605093 30.598168 170.748269 30.892473 170.752246 30.6777099 170.7602 30.7333892 170.764177 31.0555338 170.823834 30.852702 170.807925 30.9083813 170.724406 31.2265489 171.766405 30.6339618 172.804426 30.0453518 173.846425 29.4527648 173.393036 29.3573145 173.051006 29.2737955 172.704999 28.9874447 172.510121 28.8243838 172.462396 28.6851855 172.283427 28.5141704 171.806176 28.0528275 172.732839 27.9534001 171.96526 29.1544827 171.674932 29.4448106 171.380627 29.7391156 171.090299 30.0294435 170.998826 30.0970541 170.274995 30.1726189 170.278972 30.1169395 170.278972 30.2402295 170.947124 30.8009998 171.058482 30.9720149 171.468123 31.60835 171.579481 32.2725248 171.547665 33.0162414 172.52603 32.2725248 173.504395 31.524831 174.48276 30.7811143 172.645343 30.4152216 171.205635 29.126643 170.621002 27.3289963 170.036369 25.5273725 167.399556 25.8534942 167.323991 27.7744309L167.323991 27.7744309ZM146.022676 85.9752318C145.529517 87.0251847 145.159647 87.8086724 145.171578 88.9819152 145.187487 90.2466313 145.430089 91.5511183 145.545425 92.8158343 145.799959 95.6276401 146.010745 98.4474001 146.217554 101.263183 146.595378 106.385681 146.845935 111.516133 146.977179 116.646585 147.251598 127.185885 147.211828 137.717231 146.70276 148.252555 145.692578 169.132301 143.131329 189.912619 139.814433 210.541809 137.925313 222.278215 135.777683 233.974849 133.506762 245.643645 133.200526 247.214597 133.936288 249.131557 135.690187 249.493472 138.879816 250.149693 142.590444 252.197896 143.175077 255.681831 143.457451 257.352211 145.517586 258.282851 147.028881 257.869233 148.798688 257.384028 149.498656 255.689785 149.216283 254.015429 148.28962 248.507153 142.498971 244.51415 137.352612 243.46022 138.08042 244.744821 138.808228 246.025446 139.536036 247.310047 147.637377 205.59828 154.271169 163.126888 152.843392 120.500389 152.644538 114.594404 152.211034 108.684441 151.650264 102.802319 151.359936 99.7558642 150.994044 96.7213411 150.584403 93.6907951 150.377594 92.171545 150.206579 90.6284324 149.928183 89.1171365 149.653763 87.6495886 149.184466 86.8223529 148.214055 85.6968352 147.665216 85.0485688 146.392546 85.1917442 146.022676 85.9752318L146.022676 85.9752318ZM112.841783 165.008054C111.541273 171.85661 111.907166 178.987541 111.744105 185.927571 111.581044 192.887486 111.441846 199.851379 111.191289 206.811294 110.686198 220.854415 110.026 234.909467 108.78117 248.908839 108.622086 250.706486 110.419732 252.162103 112.070226 252.197896 115.947893 252.281415 117.884738 254.918229 119.475575 258.083996 120.191452 259.511773 122.140228 260.020841 123.528234 259.412346 125.111117 258.716354 125.66791 257.232898 125.405422 255.586381 124.45092 249.600854 117.705768 245.647622 112.070226 245.619782 113.167904 246.71746 114.261605 247.811161 115.359283 248.908839 116.377419 234.889581 117.25238 220.870323 117.522822 206.811294 117.658043 199.851379 117.713723 192.891463 117.562593 185.927571 117.411463 178.995495 117.610318 171.785023 115.971755 165.008054 115.605863 163.508689 113.144042 163.413239 112.841783 165.008054L112.841783 165.008054ZM69.837467 169.780567C69.2766968 177.249551 70.6249316 185.016816 71.4561442 192.434097 72.3191736 200.145684 73.3373096 207.841361 74.3832853 215.533062 75.4093755 223.073633 76.5070534 230.602273 77.6882503 238.118982 78.2808372 241.877336 78.8853555 245.631713 79.501805 249.382114 79.8000871 251.191692 80.1023462 253.005247 80.4085824 254.814825 80.770498 256.958479 80.8619711 258.98282 82.4329232 260.617406 83.6220743 261.854282 86.2310478 261.7469 86.9986269 260.028796 87.9730149 257.857302 87.4997407 256.047724 87.1139626 253.776803 86.8077264 251.967225 86.5014902 250.157647 86.1992311 248.348069 85.5947128 244.724936 85.0061029 241.101803 84.4294243 237.47867 83.2124336 229.842648 82.0312367 222.198673 80.8818566 214.55072 79.752362 207.037988 78.7063863 199.513326 77.6206397 191.996617 76.534893 184.483885 76.0178708 176.521742 73.7588815 169.251614 73.0668672 167.040349 70.0005279 167.557371 69.837467 169.780567L69.837467 169.780567ZM113.808216 9.63887995C111.509456 7.26455453 108.908437 5.21635086 106.347188 3.13633044 104.016611 1.24721055 101.670126-1.0276875 98.4964052.503493881 96.0385612 1.69264514 93.954564 4.42093196 92.0216964 6.30607476 89.925768 8.35030133 87.849725 10.4144134 85.81743 12.5262506 77.6802961 20.9735993 70.0760927 30.4231758 65.554137 41.3442773 63.4184376 46.506546 62.0702028 52.5716151 63.7843302 58.0600055 65.3473281 63.0552362 69.1693153 66.6863235 74.0889803 68.3407948 84.5049891 71.844615 94.4874946 65.8829504 100.457112 57.5787771 104.207512 52.3648062 106.70115 46.2201952 108.793101 40.1829657 111.223105 33.167371 112.794058 25.9449674 113.744583 18.5873426 113.975254 16.7976501 112.046364 15.2505603 110.407801 15.2505603 108.419254 15.2505603 107.293737 16.7896959 107.071019 18.5873426 105.778464 28.9755134 102.914956 39.6261725 98.0867645 48.9524591 94.3164796 56.2345191 88.3389075 63.2461367 79.4381715 62.8683127 76.1371837 62.7291144 72.7526768 61.3053146 70.9271907 58.4497608 68.4454842 54.5760707 69.3721471 49.5728858 70.7561757 45.4884098 73.906034 36.1820086 80.3568802 27.9255605 86.8117035 20.6792943 90.4825611 16.5590244 94.336365 12.6137466 98.2458483 8.72414821 99.1327402 7.84123323 100.628127 6.83105123 101.248554 5.75723572 101.375821 5.64189998 101.507065 5.52258714 101.634332 5.4072514 100.644036 5.4072514 100.421319 5.54644971 100.96618 5.82882342 101.192875 6.33789151 102.628606 7.02592886 103.093926 7.35602771 105.782441 9.27696435 108.522659 11.1382446 111.390143 12.7768075 113.362782 13.8983482 115.3911 11.2734658 113.808216 9.63887995L113.808216 9.63887995Z"/><path d="M73.3571951 74.1871237C72.9992566 79.8067582 70.7641299 84.9053934 67.4790504 89.4233727 64.2337418 93.8856728 60.5151591 98.1570723 56.9477059 102.364838 53.4240008 106.524879 49.5264488 110.334936 46.1141023 114.598381 42.6182369 118.973185 39.3888367 123.554798 36.5491917 128.38299 31.1323899 137.589964 26.9047391 147.556563 24.0054377 157.837352 20.7442208 169.414674 19.2607648 181.501065 18.3977354 193.472119 17.3835765 207.574896 17.4511871 221.721421 17.5187977 235.852038 19.5789323 234.996963 21.6390669 234.145865 23.6992015 233.290789 17.2801721 227.094476 11.6008821 220.253873 6.74485049 212.772959 4.89152477 209.917405-.155407304 210.832137.00367644974 214.598445.504790272 226.462118 5.94545463 237.590028 14.3689394 245.870339 23.5600032 254.902321 35.7338874 259.802101 48.4128626 261.261695 55.9613867 262.132679 63.5854755 261.619633 71.0305952 260.187879 72.9515315 259.81801 74.0452323 257.515272 73.5560498 255.737511 73.0032337 253.729078 71.0305952 252.842186 69.1056818 253.212056 47.4901768 257.364142 22.9077598 250.953066 11.7639429 230.578411 9.07542748 225.662722 7.46868157 220.206148 7.23403303 214.598445 4.98697502 215.206941 2.73991701 215.815436.492858991 216.423931 5.67103516 224.40596 11.7281491 231.803356 18.5727275 238.413287 20.8038772 240.568872 24.7690397 239.033714 24.7531314 235.852038 24.6417727 211.408815 24.1406589 186.166196 30.3091314 162.315561 33.001624 151.907504 37.0781451 141.917043 42.4830157 132.622573 45.0959663 128.128456 47.9674281 123.761607 51.1689886 119.665199 54.6767853 115.179037 58.7334211 111.186034 62.3485993 106.795322 66.3376245 101.955197 70.5016417 96.9003104 73.7906983 91.5511183 77.1394113 86.1064759 79.2512481 79.9459565 78.101868 73.5428344 77.6126855 70.7190973 73.524233 71.6059894 73.3571951 74.1871237L73.3571951 74.1871237ZM138.708801 38.3455481C139.349113 38.3694106 139.949654 38.2341894 140.50247 37.9438615 141.079149 37.7569381 141.580263 37.4347934 142.001835 36.9814046 142.455223 36.5598326 142.777368 36.0587187 142.964291 35.48204 143.254619 34.9252468 143.38984 34.3286826 143.365978 33.6883704 143.310298 33.2747526 143.254619 32.8611347 143.19894 32.4475169 142.976223 31.6560751 142.578513 30.9720149 142.001835 30.3913591 141.687644 30.1487563 141.373454 29.9061535 141.059263 29.6635508 140.331455 29.2419787 139.547968 29.0311927 138.708801 29.0272156 138.068489 29.0033531 137.467948 29.1385743 136.915132 29.4289022 136.338453 29.6158256 135.837339 29.9379703 135.415767 30.3913591 134.962379 30.8129311 134.640234 31.314045 134.453311 31.8907237 134.162983 32.4475169 134.027761 33.0440811 134.051624 33.6843933 134.107303 34.0980111 134.162983 34.511629 134.218662 34.9252468 134.441379 35.7166886 134.839089 36.4007488 135.415767 36.9814046 135.729958 37.2240074 136.044148 37.4666102 136.358338 37.7092129 137.08217 38.130785 137.865657 38.341571 138.708801 38.3455481L138.708801 38.3455481Z"/></g></svg>