<svg xmlns="http://www.w3.org/2000/svg" width="174" height="311" viewBox="0 0 174 311"><g transform="translate(.345 .305)"><path d="M49.5260601,129.183986 C42.3951309,138.780715 34.7074085,150.811425 36.8669704,163.390975 C38.3663348,172.132629 45.409768,178.122133 52.4014989,182.787265 C70.5211384,194.885587 91.9815368,200.791572 112.952753,205.890207 C119.216675,207.413434 125.512415,208.85712 131.843948,210.070133 C134.138731,210.511591 137.177231,208.483273 136.107393,205.806688 C129.2827,188.736999 120.767742,172.303644 109.055201,158.04576 C103.363979,151.117662 96.909156,144.893509 89.7185704,139.536363 C86.0039647,136.768305 82.0666418,134.405911 78.0458,132.119081 C74.191996,129.923725 70.4256882,127.541445 68.6081563,123.30584 C64.6907189,114.178408 69.5666359,104.12829 73.3806689,95.871842 C77.9901207,85.9012661 82.8143355,75.9983008 87.1692532,65.9123891 C91.2934995,56.3633852 93.6161223,46.5558702 90.7048896,36.2949664 C88.0203513,26.8374356 81.8797184,18.7440483 74.1959731,12.7505669 C69.9166202,9.41378464 65.2673975,6.63379558 60.3278469,4.3827601 C55.0900144,1.9965034 49.5101517,0 43.6837093,0 C34.1983405,-0.00397513723 22.8795314,6.05313979 24.9913683,16.9821955 C25.3413525,18.7917735 27.5088687,19.825818 29.1872022,19.3644751 C31.1041615,18.8394986 31.887649,16.9901497 31.5694815,15.1686404 C31.0285967,12.0903692 33.4665552,10.0540969 35.9522389,8.7933579 C39.5356004,6.97184862 43.7035947,6.58607045 47.6210322,7.35364969 C56.2234861,9.03993776 64.9253674,13.848245 71.5273432,19.5434443 C78.2844256,25.3738649 83.4427163,33.1132908 84.8386762,42.0498221 C86.3380406,51.6306428 82.0228938,60.5870596 78.1134106,69.0423625 C73.7067906,78.575458 69.105293,88.0409429 64.9213903,97.6694887 C61.2266702,106.176494 58.2995291,115.920375 61.7914175,125.019968 C63.4578198,129.362955 66.2736022,132.683829 70.035933,135.380299 C73.7028135,138.009158 77.8429682,139.926118 81.6172302,142.399871 C88.6089612,146.977506 94.8689069,152.577255 100.460701,158.773569 C113.199332,172.904185 122.350625,190.093188 129.421898,207.65206 C130.841721,206.232237 132.26552,204.808437 133.685343,203.388615 C118.552501,200.525107 103.479315,196.770729 88.8078159,192.097643 C79.0917756,189.003464 69.487094,185.46385 60.7613502,180.122612 C57.2257138,177.959072 53.4912227,175.600655 50.5919212,173.150765 C49.1005111,171.890026 47.6886428,170.541791 46.4477895,169.030495 C46.1534845,168.66858 46.3881331,169.002656 45.9665611,168.386206 C45.7199813,168.028268 45.4734015,167.670329 45.2467071,167.296482 C44.8410436,166.636284 44.2484566,165.514744 44.0734645,165.093172 C42.4826269,161.322886 42.6496649,156.876495 43.8229075,152.493736 C45.7955461,145.120203 49.7408232,138.084723 53.6821232,131.61399 C55.32864,128.905589 51.3276836,126.761935 49.5260601,129.183986 L49.5260601,129.183986 Z"/><path d="M141.245798 202.394341C151.47886 203.495996 161.536931 201.527334 171.197292 198.190552 170.366079 197.359339 169.534866 196.528127 168.703654 195.696914 167.896304 198.890521 167.108839 201.694372 165.661177 204.673216 163.227196 209.688332 160.439253 214.556296 157.277463 219.14984 151.188533 227.994898 143.445131 235.790004 134.198388 241.314188 123.496028 247.709356 111.28635 250.453551 98.8937258 250.66036 86.3340635 250.867169 73.1698829 249.105316 61.2545098 245.080496 38.7282504 237.472315 19.7416044 218.692474 13.7242614 195.478174 7.14614824 170.108288 14.9492063 143.525388 26.4310762 120.816179 32.4563734 108.900804 39.5276462 97.5660842 46.5472168 86.2234107 53.2008948 75.4693472 61.1431512 64.3573452 63.8595063 51.7937036 64.5515206 48.5881655 64.7742379 45.5417111 64.3447117 42.2844707 64.0026816 39.7033364 60.371595 39.5522068 60.204557 42.2844707 59.7949164 49.0495084 58.1086286 55.5003557 55.1894417 61.61315 52.2901403 67.6861733 48.674962 73.4092123 45.155234 79.1362283 37.9169232 90.9163822 30.4678265 102.589155 24.0209574 114.834629 11.628333 138.371074 2.86679528 165.292027 7.98531504 192.093666 12.6663545 216.616431 30.6229331 237.325162 53.3957724 247.120746 65.4344354 252.3029 78.598616 254.398829 91.6196212 255.1505 104.640626 255.902171 118.027524 254.140318 129.946874 248.671813 140.076532 244.022589 148.913635 236.788254 155.976954 228.205684 159.60804 223.79111 162.877211 219.050413 165.6572 214.051205 167.912212 209.994569 170.588796 205.484544 171.65068 200.934747 171.972825 199.546741 172.29497 198.162713 172.621091 196.774707 172.943236 195.386701 171.658635 193.720298 170.127453 194.281068 160.844916 197.677507 151.172624 199.693894 141.253752 199.264368 139.197595 199.172895 139.285091 202.179578 141.245798 202.394341L141.245798 202.394341ZM22.6687455 20.2235275C15.3111219 24.4790186 8.23189485 29.1759672 1.14471365 33.8609845-1.15006949 35.3802346.277707191 38.9397342 3.02190193 38.3113533 4.48149537 37.9772773 5.8177989 38.1363611 7.33704874 38.1840863 9.69546538 38.2596511 12.0499049 38.3352158 14.4083216 38.4068036 19.383666 38.5658873 24.3590103 38.7289482 29.3343547 38.8800778 34.178455 39.0272303 39.0225553 39.1505202 43.8706327 39.2897185 48.4084967 39.4169856 52.9304524 39.3652833 57.4364997 39.9936643 60.5624955 40.4311447 62.0499286 35.8694173 58.7847345 35.1058151 54.1951683 34.0319996 49.3391367 34.3064191 44.6580973 34.1831292 39.5515088 34.047908 34.4449203 33.9007555 29.3383318 33.7774656 24.2317433 33.6541756 19.1251549 33.542817 14.0185664 33.4274812 10.0096558 33.3360081 5.64678386 32.6877417 1.72934644 33.6223589 2.35375017 35.1058151 2.9781539 36.5892714 3.60653473 38.0727276 10.6738305 33.3121455 17.7451033 28.5595176 24.5180941 23.3853176 26.3236947 21.9973116 24.768651 19.0105137 22.6687455 20.2235275L22.6687455 20.2235275ZM39.7980886 17.2486608C39.7861573 17.2963859 39.7782031 17.340134 39.7702489 17.383882 39.7185467 17.7577289 39.6708216 18.1315758 39.6191194 18.5054227 39.6668445 18.8951779 39.7185467 19.2809561 39.774226 19.6667343 39.9730807 20.3786342 40.3349963 20.9950838 40.8559956 21.5200603 41.3809719 22.0410597 41.9974215 22.3989982 42.7093213 22.60183 43.4530378 22.8006847 44.1967544 22.8006847 44.944448 22.60183 45.6563478 22.4029753 46.2727973 22.0410597 46.7977737 21.5200603 47.064239 21.2178011 47.3028647 20.8877023 47.5375132 20.5576034 47.3147959 20.8439542 47.0960558 21.130305 46.8733385 21.4166558 46.8812927 21.4047246 46.893224 21.3927933 46.9011782 21.380862 47.4261546 20.8519084 47.7920472 20.2275046 47.994879 19.5076505 48.1977108 18.7559796 48.1977108 18.0003317 47.994879 17.2486608 47.8517036 16.9106078 47.7085282 16.5725547 47.5653528 16.2345017 47.1875289 15.5941895 46.6784609 15.0890985 46.0421259 14.7112745 45.5529434 14.4010611 45.027967 14.2340232 44.4632197 14.2061835 43.8984723 14.0789165 43.333725 14.1067562 42.7689777 14.2817483 41.3292697 14.6794578 40.1997751 15.8208839 39.7980886 17.2486608L39.7980886 17.2486608ZM84.0074636 262.114392C83.5461207 264.242138 83.7012274 266.461356 83.72509 268.620919 83.7489525 270.89184 83.7927006 273.158784 83.8881508 275.429705 83.979624 277.55745 84.0591658 279.681219 84.1108681 281.808964 84.1665474 284.008297 83.8046318 286.581477 84.4926691 288.681383 85.2801336 291.091503 88.5930528 291.087526 89.3805174 288.681383 90.0327608 286.696813 89.662891 284.2509 89.5992575 282.178834 89.5276699 279.927798 89.4282425 277.676763 89.3168839 275.425727 89.2095024 273.274119 89.0225789 271.13842 88.8197472 268.994766 88.6049841 266.731799 88.5850986 264.285886 87.8891072 262.110415 87.3203828 260.332654 84.448921 260.074143 84.0074636 262.114392L84.0074636 262.114392ZM79.9428737 293.346515C77.1390226 296.229909 74.9993461 299.686004 72.8716009 303.078465 71.5591599 305.170417 74.1243854 307.508949 76.1606575 306.367523 77.7713805 305.464722 79.5889124 304.522151 81.4939403 304.633509 82.7029768 304.705097 84.7631114 305.639714 84.5284629 307.182827 84.0591658 310.24519 88.1913663 311.513883 89.237342 308.47936 89.8537916 306.689667 91.4645146 305.277799 93.3774967 305.063036 95.5131961 304.82441 97.0085834 306.069241 98.3369327 307.544743 100.166396 309.584992 103.435567 306.964087 102.083355 304.653395 100.194236 301.427971 96.1375998 299.757592 92.502536 300.282568 88.6885031 300.831407 85.761362 303.611396 84.5284629 307.17885 86.099415 307.612353 87.670367 308.045857 89.237342 308.475383 89.786181 304.892021 87.8891072 301.718299 84.5165316 300.346202 80.8615824 298.862745 76.9520992 300.358133 73.7346303 302.203505 74.8323082 303.301183 75.929986 304.398861 77.0276639 305.492562 79.024165 302.231344 81.2791773 299.109325 83.0211443 295.704932 83.9955323 293.803881 81.5535967 291.692044 79.9428737 293.346515L79.9428737 293.346515ZM65.8003281 262.058713C64.7225356 265.904563 65.3509165 270.346978 65.4503438 274.30021 65.5537482 278.48809 65.7009007 282.671994 65.8719157 286.855897 66.7468764 285.980936 67.6258141 285.101998 68.5007748 284.227038 59.9380918 284.087839 51.427111 284.907121 43.0433972 286.649088 40.6133928 287.154179 40.6014615 291.075594 43.0433972 291.576708 45.620554 292.105662 50.5203336 292.845401 50.7629363 296.277634 50.878272 297.920174 49.1800529 300.107576 48.503947 301.813749 50.1305784 302.03249 51.7611868 302.255207 53.3878182 302.473947 53.379864 302.581329 52.7276206 304.052854 52.6639871 303.957403 52.6639871 303.957403 53.0259027 303.734686 53.0577194 303.730709 53.3003221 303.690938 53.4713372 303.555717 53.8372298 303.444358 54.7917323 303.150053 55.7740745 302.939267 56.7643709 302.847794 57.9932929 302.732458 60.8130524 302.454062 61.6760818 303.663098 63.5294075 306.260141 67.8684169 303.762526 65.9912286 301.14162 63.6566745 297.88438 59.5204969 297.502579 55.8178225 297.971876 53.1611239 298.309929 48.6113285 299.081486 48.4124738 302.473947 48.2374817 305.484608 52.3418425 305.556195 53.2963451 303.134145 54.5531067 299.948492 56.6052871 297.510533 55.2411439 293.867515 53.507131 289.222268 48.8380229 287.619499 44.3956091 286.645111 44.3956091 288.287651 44.3956091 289.930191 44.3956091 291.572731 52.3378654 290.037573 60.4073888 289.349535 68.4928206 289.480779 69.8728721 289.504642 71.1773589 288.259811 71.1216796 286.85192 70.9506646 282.664039 70.755787 278.480136 70.5211384 274.296233 70.2984212 270.350955 70.5927261 265.793205 69.2126746 262.054736 68.635996 260.483783 66.3014419 260.276974 65.8003281 262.058713L65.8003281 262.058713Z"/></g></svg>