<svg xmlns="http://www.w3.org/2000/svg" width="200" height="363" viewBox="0 0 200 363"><g transform="translate(.97 .184)"><path d="M18.95532,13.1492706 C9.60914948,19.0393476 3.61566908,30.0240826 1.25327534,40.5832685 C0.0362846294,46.031888 -0.337562191,51.6912934 0.322635385,57.2353632 C0.871474334,61.8607241 1.67882438,67.8064804 5.11105636,71.1750794 C6.51894757,72.5591083 9.15973788,71.998338 9.63301204,69.981951 C11.1522619,63.5470121 14.0475862,57.4461492 18.2951224,52.3554682 C20.3512799,49.8896696 22.6739027,47.5392068 25.270945,45.6421327 C27.6174303,43.9240279 30.2423123,42.707037 32.9904841,44.266058 C39.2384985,47.8176034 38.0016223,56.6228906 37.0709824,62.5408072 C35.8858084,70.0774013 33.9529408,77.4668429 32.1075693,84.8602616 C28.5043223,99.2851833 25.6249063,113.761807 27.9793459,128.636141 C30.1150453,142.110537 36.2517011,155.119613 45.8444514,164.887357 C56.1610328,175.394841 70.9120738,182.82803 85.8937863,182.004772 C89.1510261,181.825803 89.0078507,177.423159 85.8937863,177.045335 C72.5784761,175.434612 59.9154094,169.914405 50.4459489,160.285859 C40.7537713,150.430619 35.0347103,136.916451 33.7620403,123.219338 C32.3263094,107.756395 36.8045171,92.8064964 40.2924284,77.9202317 C42.0423497,70.4552253 43.9672631,62.5766011 43.9314692,54.8689919 C43.8996525,47.8176034 40.8969467,40.5156579 33.7779487,38.0538364 C26.1459056,35.4130456 19.0507702,42.4286403 14.6163106,47.7738554 C9.62505786,53.7951764 6.08544435,60.8863359 4.41506494,68.5382657 C5.9223835,68.1405563 7.42970206,67.7428468 8.93702062,67.3451374 C8.69839499,67.118443 8.46772355,66.863909 8.20921245,66.6571 C7.68821316,66.235528 7.97456392,65.9571314 8.20921245,66.8758402 C7.88706785,65.6190784 7.25470993,64.3941333 6.87688602,63.1453256 C6.1769175,60.8545192 5.64796403,58.492125 5.3417278,56.1138225 C4.70936988,51.1941566 4.91220167,46.1352924 5.91442931,41.27926 C6.92858824,36.3516399 8.71828046,31.6944623 11.1801015,27.3117041 C13.7174874,22.7977019 17.0542691,19.0393476 20.6694474,15.3724665 C21.7790566,14.2509258 20.3473028,12.2703327 18.95532,13.1492706 L18.95532,13.1492706 Z"/><path d="M29.4110997,8.72674155 C36.3988535,4.22864767 46.2063669,5.49734081 52.1759848,11.188563 C55.8945675,14.7361313 57.2268939,19.5245531 57.31439,24.5675089 C57.4217715,31.0302875 56.2405747,37.5487454 55.0076756,43.8683486 C52.4464271,57.0206001 48.795455,69.9501343 47.1807549,83.2813551 C46.3972674,89.760042 46.1109167,96.3580418 46.8347477,102.856614 C47.4352889,108.26944 48.7835237,113.845326 52.5935796,117.949688 C56.6024902,122.264835 62.5919935,123.434101 68.1917416,122.229042 C73.9784131,120.984211 78.8423989,117.329261 82.704157,112.982297 C86.6295486,108.559768 89.7674756,103.484995 93.9633096,99.2971146 C97.3478165,95.9205614 101.281162,93.21216 105.568469,91.108277 C122.984163,82.5694551 144.850225,85.3216045 160.512021,96.3182708 C177.840219,108.484203 187.886358,129.324178 190.562942,149.945413 C190.900995,152.554387 191.123712,155.187224 191.314612,157.812106 C191.656643,162.517009 198.819388,162.640299 198.736594,157.812106 C198.342137,135.691506 189.230615,112.373801 173.067706,97.0341478 C157.43375,82.1956083 135.18191,75.8441883 114.095359,80.7439688 C104.120807,83.0626149 94.6473698,88.1692042 87.6954098,95.7495463 C83.4518506,100.378884 80.1985879,105.847389 75.6925406,110.246056 C72.1648584,113.69022 66.9270258,116.688949 61.8124831,115.559454 C56.594536,114.406097 54.7571187,108.897821 53.965677,104.232689 C52.90777,97.9926276 53.245823,91.3707653 53.8940893,85.1068414 C55.2980034,71.5250637 59.2114637,58.3489496 61.7488496,44.9660266 C63.9760222,33.2216666 66.8872548,18.6456152 58.4757014,8.61935999 C52.5458545,1.54808597 41.7758844,-1.74892537 32.9109422,0.923682135 C30.6718384,1.5997882 28.5440932,2.65371824 26.6589507,4.03377003 C23.9028247,6.05015695 26.4083938,10.6596095 29.4110997,8.72674155 L29.4110997,8.72674155 Z"/><path d="M93.386631 126.914059C94.3649961 129.865063 95.3552925 132.450174 97.0057864 135.118805 98.600601 137.691985 100.57324 140.078242 102.689054 142.241781 106.268438 145.896731 112.174422 151.64761 117.841781 150.120405 124.081841 148.438094 123.186995 140.953202 122.133065 136.140918 120.685403 129.519056 117.9253 123.231269 114.198763 117.579818 112.15056 114.46973 107.708146 117.150292 109.259213 120.467189 111.669331 125.621503 115.014067 130.286635 119.026955 134.315432 121.118906 136.415338 123.429598 138.312412 125.871533 139.994723 128.408919 141.744644 131.288335 143.454795 134.489896 143.208215 140.069758 142.778689 142.479877 137.182917 142.631007 132.239388 142.813953 126.229999 140.483376 120.029708 137.305678 115.026523 135.074529 111.514749 130.071345 114.56518 131.797403 118.243993 133.805836 122.523346 136.498328 126.504418 139.71182 129.976422 142.718503 133.229685 146.580261 135.94604 151.149942 136.109101 155.349753 136.260231 159.346732 134.01715 160.929616 130.059941 162.464774 126.21409 161.442661 121.206928 159.159809 117.866169 158.038268 116.227606 155.127036 116.696903 155.198623 118.939984 155.286119 121.704065 156.423568 124.698817 155.576447 127.435058 154.804891 129.924719 152.09649 130.533215 149.801707 129.861086 146.755253 128.96624 144.404791 126.301586 142.499763 123.895444 140.36804 121.206928 138.689707 118.160474 137.305678 115.026523 135.468261 116.100339 133.634821 117.174154 131.797403 118.243993 134.131957 122.042118 135.861993 126.500441 136.204023 130.986604 136.422763 133.854089 135.858016 138.292526 132.004212 136.626124 128.090752 134.935858 124.463642 131.742252 121.580249 128.660003 118.521864 125.394809 116.099814 121.620546 114.20274 117.575841 112.556223 118.538298 110.909706 119.500755 109.26319 120.463212 112.09488 124.742565 114.32603 129.344064 115.865165 134.239867 116.417981 135.997743 119.734878 145.176877 115.725967 145.133129 113.582314 145.109266 111.299462 143.144581 109.70067 141.907705 107.871207 140.491859 106.169011 138.904999 104.594081 137.214734 101.432292 133.818295 98.4773111 129.769613 96.2580928 125.705022 95.4069947 124.173841 92.8179066 125.211862 93.386631 126.914059L93.386631 126.914059ZM127.64134 170.578579C130.313947 175.57381 137.512487 174.464201 141.795817 172.511447 146.182552 170.510969 149.722165 167.102599 153.174283 163.82945 156.308233 160.85856 159.660923 157.613251 163.980047 156.539436 170.399076 154.944621 175.509642 159.756905 181.578687 160.444943 183.833699 160.699477 184.358675 157.816083 183.241112 156.436031 181.097458 153.787286 177.979417 152.419166 174.853421 151.237969 171.814921 150.088588 168.498025 149.412482 165.244762 149.718719 160.289303 150.188016 156.129263 152.697562 152.414658 155.867307 148.926746 158.842173 145.920063 162.365879 142.356587 165.257227 138.502783 168.383223 134.227408 169.890542 129.387284 168.303681 128.047004 167.866201 127.036822 169.449085 127.64134 170.578579L127.64134 170.578579ZM90.2168873 185.365417C89.441354 191.354921 89.695888 197.583051 89.7794069 203.616303 89.866903 209.697281 89.9822387 215.786213 90.1572308 221.86719 90.5072151 234.033122 90.8770848 246.199054 91.2350233 258.368963 91.9389689 282.175851 92.8894943 305.990693 93.3309517 329.801558 93.5019668 339.008531 93.5854857 349.858045 87.3136088 357.287258 84.652933 360.441094 88.6300268 364.326715 91.7957935 361.769443 98.894906 356.034473 99.8374772 344.66396 100.095988 336.248428 100.44995 324.599518 99.6306683 312.859135 99.2886383 301.214202 98.5528759 276.353385 97.8210907 251.48859 97.0853283 226.627772 96.8824965 219.747399 96.6040999 212.874979 96.3376347 205.998583 96.0632152 198.971057 95.971742 191.68502 94.6473698 184.768853 94.1263705 182.032612 90.5151693 183.07461 90.2168873 185.365417L90.2168873 185.365417ZM104.975882 182.382596C103.906044 183.794464 103.74696 184.391029 103.671396 186.212538 103.615716 187.53691 103.571968 188.861283 103.544129 190.189632 103.480495 193.10882 103.488449 196.020053 103.512312 198.93924 103.560037 204.769661 103.571968 210.604058 103.667419 216.434479 103.862296 227.964076 104.053197 239.49765 104.248074 251.027247 104.637829 274.221662 105.01963 297.420054 105.429271 320.614469 105.659943 333.60366 105.890614 346.592851 106.117308 359.582041 106.184919 363.392098 112.106812 363.404029 112.047155 359.582041 111.291507 313.05799 110.496089 266.533938 109.696693 220.009887 109.585334 213.515292 109.406365 207.020696 109.239327 200.526101 109.155808 197.344425 109.092175 194.16275 108.913205 190.981074 108.825709 189.390236 108.726282 187.799399 108.606969 186.208561 108.555267 185.5245 108.634809 184.641586 108.412092 183.985365 108.133695 183.162106 107.521223 182.76042 106.992269 182.120108 106.41559 181.412185 105.425294 181.793986 104.975882 182.382596L104.975882 182.382596ZM118.720719 257.49798C125.445984 251.902208 131.845128 245.988268 138.077234 239.855588 141.143574 236.840951 144.166165 233.786542 147.141031 230.680431 149.547173 228.166908 153.098718 225.478392 154.156625 222.101839 154.458884 221.131428 154.104923 220.105337 153.436771 219.385483 140.240773 205.115668 127.239654 190.63109 113.820939 176.572061 111.259691 173.891499 107.477474 177.836777 109.804074 180.588926 110.205761 181.066178 110.623356 181.45991 111.084699 181.873528 113.288009 183.850144 116.668538 181.376391 115.212922 178.687875 114.918617 178.143013 114.632266 177.645876 114.262397 177.144762 112.774963 178.290166 111.28753 179.439546 109.800097 180.584949 122.801217 195.029756 136.259703 209.088785 149.48354 223.330761 149.244914 222.423983 149.006288 221.517206 148.763686 220.614405 148.731869 220.721787 148.572785 221.028023 148.608579 221.115519 148.803456 221.580839 148.222801 221.330282 148.656304 220.940527 147.916565 221.608679 147.268298 222.431937 146.588215 223.159746 145.11669 224.726721 143.641189 226.289719 142.153756 227.840786 139.266385 230.851447 136.371061 233.85813 133.439943 236.82902 127.581684 242.766822 121.64786 248.633036 115.761761 254.542998 113.836848 256.483821 116.688424 259.188245 118.720719 257.49798L118.720719 257.49798Z"/><path d="M116.191287 283.782597C117.579293 280.763982 119.178085 277.960131 120.987662 275.19605 121.930233 273.756342 122.323966 272.038237 123.147224 270.54285 122.92053 270.956467 122.829057 270.864994 123.226766 270.495124 123.596636 270.153094 123.950597 269.791179 124.308536 269.437217 129.307743 264.53346 134.287064 259.60584 139.238546 254.654357 149.849432 244.043469 160.44441 233.416672 171.047342 222.79783 172.069455 221.775717 172.029684 220.113291 171.047342 219.083224 160.905753 208.428588 150.780072 197.758043 140.682231 187.059659 137.19432 183.364938 133.706408 179.662263 130.238382 175.951634 127.840195 173.386408 123.986391 177.248167 126.388556 179.801461 138.777203 192.969621 151.285163 206.0304 163.785169 219.095155 164.966366 220.332032 166.15154 221.564931 167.332737 222.801807 167.332737 221.564931 167.332737 220.324077 167.332737 219.087201 156.578675 229.924783 145.796774 240.742481 135.070551 251.607903 130.158841 256.583248 125.306786 261.61825 120.383144 266.577686 118.665039 268.303745 117.682697 270.817269 116.883301 273.120007 115.781646 276.293728 114.369778 279.371999 113.32778 282.581515 112.790872 284.232009 115.443593 285.409229 116.191287 283.782597L116.191287 283.782597ZM31.1968148 25.3987217C31.8013331 25.4225843 32.3660804 25.2953172 32.8910568 25.0208977 33.4359186 24.8419285 33.9091928 24.5396693 34.3069022 24.1101431 34.7364283 23.7124336 35.0386874 23.2391594 35.2176567 22.6942974 35.4920761 22.169321 35.6193431 21.6045735 35.5954806 21.0000552 35.5437784 20.6102999 35.4920761 20.2205447 35.4363968 19.8307894 35.2256108 19.0870727 34.851764 18.4388063 34.3069022 17.8899673 34.0086201 17.6592958 33.7143152 17.4326014 33.4160332 17.2019299 32.7279959 16.8042205 31.9882565 16.6053658 31.1968148 16.6013887 30.5922965 16.5775261 30.0275492 16.7047931 29.5025728 16.9792126 28.957711 17.1581819 28.4844368 17.4604411 28.0867274 17.8899673 27.6572013 18.2876767 27.3549422 18.760951 27.1759729 19.3058129 26.9015535 19.8307894 26.7742865 20.3955368 26.798149 21.0000552 26.8498512 21.3898104 26.9015535 21.7795657 26.9572328 22.169321 27.1680187 22.9130376 27.5418656 23.561304 28.0867274 24.1101431 28.3850095 24.3408146 28.6793144 24.5675089 28.9775964 24.7981804 29.6616566 25.1958899 30.401396 25.3987217 31.1968148 25.3987217L31.1968148 25.3987217Z"/></g></svg>