<svg xmlns="http://www.w3.org/2000/svg" width="294" height="496" viewBox="0 0 294 496"><g transform="translate(.033 .981)"><path d="M61.8300832 81.3722885C65.5287804 95.0137226 70.0189194 108.396646 74.4891728 121.803431 78.9594263 135.210217 83.4336569 148.617002 87.9039103 162.027765 92.33837 175.319215 96.832486 188.590779 101.187404 201.910069 105.411077 214.827672 109.328515 227.904358 111.464214 241.350915 113.643662 255.071891 113.949898 269.003653 115.15098 282.824056 116.348085 296.596734 118.686617 310.214306 121.454674 323.752336 127.030559 351.039181 132.956429 378.218645 137.80053 405.652643 140.226557 419.409413 142.489523 433.197999 144.581475 447.010449 145.603588 453.763555 146.860349 460.564387 147.409188 467.373172 147.862577 472.964967 147.608043 479.085716 143.925254 483.655397 142.406004 485.536563 140.485068 486.884798 138.150514 487.513179 134.376252 488.523361 135.971066 494.357759 139.765214 493.375416 145.011001 492.011273 149.178995 488.014293 151.406168 483.142352 154.122523 477.208527 154.130477 470.694046 153.358921 464.326718 151.636839 450.128491 149.238651 435.974011 146.90012 421.867257 142.250898 393.796924 136.857958 365.865789 130.876409 338.04999 127.893589 324.185839 124.89486 310.309756 122.926199 296.258681 120.961514 282.251355 120.579713 268.108807 119.275226 254.037846 117.978694 240.054382 115.218591 226.444765 111.229566 212.986277 107.180884 199.328934 102.456097 185.866469 97.9500494 172.360256 88.7947794 144.91035 80.04915 117.273521 70.2376595 90.0463316 69.0365772 86.7095493 67.6803882 83.4284464 66.3679472 80.131435 65.2702693 77.3832627 61.018756 78.3775363 61.8300832 81.3722885L61.8300832 81.3722885ZM154.210019 289.298766C153.864012 292.556006 154.289561 295.880857 154.556026 299.138098 154.826468 302.419201 155.18043 305.700304 155.518483 308.97743 156.214474 315.674857 157.053641 322.360353 157.82122 329.049826 159.332516 342.17026 160.843811 355.290695 162.355107 368.41113 163.858448 381.448046 165.401561 394.484961 165.966308 407.605396 166.527078 420.646289 166.403788 433.711045 166.336178 446.759892 166.260613 461.717744 166.07369 476.679573 165.787339 491.633449 165.711774 495.523047 171.75298 495.523047 171.828544 491.633449 172.321704 465.217587 172.946108 438.702298 172.130803 412.286436 171.72514 399.166002 170.372928 386.141017 168.865609 373.108079 167.334428 359.864354 165.79927 346.620629 164.264112 333.376904 163.413014 326.031211 162.561916 318.68154 161.710818 311.335847 161.26936 307.52579 160.740407 303.723688 160.231339 299.921586 159.738179 296.214933 159.360355 292.297495 158.123479 288.765835 157.359877 286.574456 154.448644 287.071593 154.210019 289.298766L154.210019 289.298766ZM161.571619 293.900264C169.080373 299.774433 179.285595 301.663553 188.500522 302.9402 193.432118 303.62426 198.3836 304.093558 203.354967 304.39184 205.904284 304.542969 208.457579 304.654328 211.006896 304.741824 213.281793 304.817389 216.368018 305.441793 218.30884 304.025947 219.382655 303.242459 220.070693 301.389133 218.782114 300.36702 216.829361 298.81993 214.550486 299.074464 212.156276 299.002877 209.857516 298.935266 207.562732 298.84777 205.267949 298.728457 200.427826 298.481877 195.59168 298.10803 190.783374 297.491581 186.233578 296.910925 181.667875 296.12346 177.225461 294.978057 172.739299 293.820723 168.790045 291.891832 164.610119 289.962941 162.25568 288.881171 159.153546 292.007167 161.571619 293.900264L161.571619 293.900264Z"/><path d="M214.701616 303.190757C217.81568 317.261718 225.01422 330.199206 230.208305 343.550312 235.462046 357.056525 238.786896 371.23089 240.548749 385.604109 242.338441 400.211978 242.716265 414.955067 242.509456 429.658385 242.362303 440.05451 242.028228 450.514269 240.528863 460.818921 239.741399 466.235723 238.679515 471.747976 236.623357 476.846611 235.199557 480.370317 233.195102 483.766756 229.866275 485.34964 226.501653 486.948431 229.436749 491.903891 232.781484 490.340893 240.699878 486.638218 243.567363 476.126757 245.209903 468.343583 247.468892 457.641222 248.049548 446.592854 248.323967 435.683683 249.055752 406.456016 247.779105 376.401113 238.214195 348.513726 235.529656 340.686804 232.165035 333.118393 228.88791 325.530097 225.519311 317.727038 222.476834 309.840459 219.696846 301.814682 218.611099 298.668801 213.977785 299.909654 214.701616 303.190757L214.701616 303.190757ZM273.224552 285.377351C267.612872 297.805771 264.168709 311.228465 261.249522 324.511961 258.374083 337.592625 255.077072 351.138608 260.291042 364.056211 262.585826 369.743457 265.763524 375.283549 266.407813 381.48384 267.115735 388.252854 265.50899 394.962213 263.997694 401.50851 260.95124 414.708487 259.264952 428.079479 258.72009 441.617508 258.095687 457.092383 258.732022 472.579189 259.380288 488.042132 259.539372 491.89196 265.544783 491.911845 265.381723 488.042132 264.27609 461.224584 263.110802 433.961601 268.798046 407.541763 270.205937 400.999442 271.991653 394.50087 272.456972 387.795488 272.914338 381.197489 271.498493 375.144351 268.925313 369.111099 266.459515 363.320449 263.671572 357.772402 263.365336 351.365303 263.043191 344.620151 264.478922 337.938632 265.819203 331.368472 268.881565 316.370848 273.280231 301.699347 276.422135 286.73354 276.81189 284.908054 274.087581 283.464368 273.224552 285.377351L273.224552 285.377351Z"/><path d="M83.6404658,50.4424246 C85.8397986,56.0024027 88.778871,61.1209233 91.8014623,66.2672836 C95.0229083,71.7477198 97.8983471,77.3872398 100.837419,83.0227827 C106.85874,94.5722651 113.245952,105.930847 119.987126,117.078643 C126.704438,128.186668 133.724008,139.151517 141.236739,149.74252 C144.712719,154.638323 148.379599,159.434699 152.559525,163.749847 C156.826946,168.160445 161.686955,171.847211 166.817406,175.191948 C172.031376,178.592364 177.428292,181.726314 182.379774,185.512508 C187.331256,189.302679 191.928777,193.526353 196.924006,197.260845 C206.63607,204.519043 217.990672,208.913732 229.313459,212.9823 C249.954576,220.395604 273.598398,228.683869 281.536678,251.365239 C283.628629,257.346789 284.905276,263.626621 286.034771,269.854751 C287.231876,276.44082 288.035249,283.130293 287.904005,289.831697 C287.653448,302.562376 282.288348,314.461843 281.803143,327.148774 C281.68383,330.235 281.950295,333.305317 282.534928,336.33984 C283.222965,339.915248 288.691469,338.403952 287.999455,334.832521 C285.605245,322.479666 291.137382,310.27794 292.831624,298.195526 C294.688927,284.927939 292.366304,271.445589 289.192583,258.551849 C286.372824,247.105771 281.496907,236.777256 272.548446,228.878746 C264.30393,221.600663 254.305516,216.736677 244.124156,212.795376 C232.904774,208.448412 221.251889,205.087767 210.529644,199.543697 C199.425598,193.80475 190.902686,184.776746 180.637807,177.832739 C175.39202,174.281193 169.867837,171.155197 164.737386,167.436613 C159.817721,163.86916 155.52246,159.554012 151.656724,154.880926 C143.654812,145.200678 136.913638,134.323325 130.220189,123.720391 C123.200618,112.600435 116.515123,101.269692 110.207453,89.7321411 C107.081457,84.0130792 104.166247,78.1826587 101.080022,72.4437113 C98.2045834,67.0984963 94.8638245,61.9879299 91.6224931,56.8614551 C90.0038159,54.3002062 88.4328638,51.6991864 86.9175911,49.0743041 C85.9312718,47.3641534 82.8768637,48.5055795 83.6404658,50.4424246 L83.6404658,50.4424246 Z"/><path d="M277.690828 289.386262C277.627194 292.528167 277.818095 295.662117 277.52379 298.804022 277.2096 302.164667 276.525539 305.51338 275.797731 308.806415 274.369955 315.269193 272.627988 321.457552 272.735369 328.135094 272.842751 334.717185 273.634192 341.104399 272.194484 347.606949 271.053058 352.76524 272.150736 357.955348 274.588695 362.580709 277.404477 367.91797 281.878708 372.376293 287.005182 375.506266 288.456821 376.393159 290.063567 375.47445 290.600475 374.042696 294.517912 363.634639 293.277059 351.671539 287.418799 342.233894 285.752397 339.549355 281.488953 342.019131 283.167286 344.719578 288.405119 353.139087 289.359621 363.471579 285.875687 372.742186 287.072792 372.253003 288.273875 371.767798 289.47098 371.278615 285.108108 368.617939 281.389525 364.883447 278.943613 360.377399 277.814118 358.293401 276.947111 355.986687 276.664738 353.620315 276.34657 350.959639 277.070401 348.617131 277.480042 346.024065 278.462384 339.81582 277.615263 333.631438 277.575492 327.399331 277.535721 321.083705 279.301551 315.094201 280.494679 308.941636 281.747464 302.494766 282.952523 294.922378 280.22026 288.698225 279.655512 287.397715 277.714691 288.141432 277.690828 289.386262L277.690828 289.386262ZM52.6907216 23.358411C54.5917724 19.4250646 55.6695648 15.2292299 56.7513344 11.0095326 57.244494 9.08461885 58.1910423 6.85744593 58.3103551 4.88082997 58.3739886 4.62629592 58.4415992 4.37176187 58.5052327 4.11325073 58.2308133 4.24449485 57.9563938 4.37971606 57.6819743 4.51096018 57.6819743 4.55073112 59.1654303 4.85299031 59.3483766 4.89673835 60.3466272 5.12740983 61.3488548 5.35808131 62.3471054 5.58875279 61.7942893 4.86492159 61.2454504 4.14109039 60.6926343 3.41725919 61.0068248 9.32722162 60.9590996 15.2451382 60.5255964 21.1471465 60.4738942 21.8670006 60.9789851 22.7896865 61.6431598 23.0959228 62.2715406 23.3862507 62.7050438 23.5015864 63.3811498 23.3226172 64.3992858 23.0561518 64.960056 22.137443 65.0395979 21.1471465 65.4929866 15.2411611 65.552643 9.33119871 65.1986817 3.41725919 65.1430023 2.46275651 64.5424612 1.46848289 63.5442106 1.24576559 61.5556637.800331009 58.8353315-.35700349 56.7831511.108316566 54.2934904.673063985 54.0469106 3.57634297 53.5457967 5.61659245 52.157791 11.2242957 50.4595719 16.8956325 50.2249234 22.6902591 50.1732212 23.9629294 52.11802 24.5475623 52.6907216 23.358411L52.6907216 23.358411Z"/><path d="M50.9527316,18.939859 C49.9624352,22.6067402 44.8359612,23.9589523 41.8650721,25.6054694 C38.2618251,27.5979938 35.1477607,30.5171811 32.4353827,33.5795439 C26.8276804,39.9031241 22.6040067,47.3243825 16.8690374,53.5405812 C13.8384919,56.8256612 10.2471762,59.2874827 6.8228984,62.1151969 C3.5378189,64.8275754 0.793624153,68.1882202 0.145357858,72.511322 C-0.435297841,76.3969433 0.690219713,80.5370987 4.12642878,82.7682487 C8.24669799,85.4448333 14.2680181,84.4386284 18.8257676,83.7744536 C30.6019424,82.0563488 42.0201788,76.9258968 52.5157294,71.4892087 C55.3712828,70.0097295 52.8657137,65.9690015 50.0300458,67.2376946 C40.9622718,71.3022852 32.1689174,75.8043562 22.4131062,78.0434604 C20.074575,78.5803682 17.7121813,78.9979631 15.3219479,79.2206804 C13.122615,79.4235122 10.6170459,79.7257714 8.4375985,79.2127262 C4.58777167,78.3099257 4.31732929,74.0345491 5.70931213,70.9403696 C7.35582897,67.2854198 11.2374726,64.9270027 14.2918806,62.5646086 C17.3940138,60.1703977 20.1342315,57.4699505 22.6199151,54.4394045 C27.6032137,48.3624041 31.5962159,41.4860078 36.9772238,35.731152 C39.9441358,32.5574306 43.2888717,30.1671968 47.0154087,27.9718406 C50.2249234,26.0827208 53.6492012,23.4021591 53.3270566,19.2580266 C53.2316063,17.9495625 51.3305555,17.551853 50.9527316,18.939859 L50.9527316,18.939859 Z"/><path d="M44.6609691 40.527528C44.5814272 40.5513905 44.5018854 40.571276 44.4223435 40.5951386 43.8575962 40.7502453 43.257055 41.2553363 43.1536505 41.8638317 42.4497049 46.0318268 43.8854358 51.6753239 49.0119098 51.933835 54.0866815 52.1883691 56.3854417 47.1295048 57.5030051 43.0370746 58.26263 40.2570856 53.9037352 39.0599801 53.1878583 41.8479234 52.6907216 43.7807913 52.0862033 46.9545127 49.7794889 47.5351685 47.0034774 48.2351371 46.7807601 44.0870276 46.7211037 42.3450602 46.7012182 41.7286105 46.394982 41.0684128 45.8222805 40.7741078 45.4444566 40.5832073 45.0944723 40.4082151 44.6609691 40.527528L44.6609691 40.527528ZM64.6697282 26.8264374C65.6679787 29.2286025 66.2923825 31.5830424 66.1332987 34.1959935 66.0100088 36.2481743 68.941127 37.5128903 70.3092472 35.9260296 76.6368035 28.5843132 83.1473061 21.0357878 91.8253249 16.414404 90.5486777 15.6826186 89.2760077 14.9508332 87.9993606 14.2190479 88.2260549 24.5515394 84.6506476 34.2834896 78.183893 42.297335 76.235117 44.7114314 79.5122424 48.1754807 81.6638501 45.7772927 89.331687 37.2384708 93.316735 25.6412633 93.0820865 14.2190479 93.0423156 12.2424319 90.9662726 11.1169141 89.2561222 12.0236917 80.1366461 16.8598386 73.3755866 24.6668751 66.8491756 32.4659574 68.2411584 33.0426361 69.6331413 33.6193148 71.0251241 34.1959935 71.1563682 30.7717152 70.1501635 27.5184519 67.8195865 24.9929969 66.61055 23.6885099 63.9339658 25.0486762 64.6697282 26.8264374L64.6697282 26.8264374ZM91.1691044 40.1775437C92.7599419 45.0216448 95.2535797 49.6430286 97.5722254 54.1769163 99.9545046 58.8380711 102.400417 63.463432 104.866216 68.0808387 109.789858 77.3156521 114.83679 86.486832 120.058714 95.5546075 130.379272 113.475395 141.181059 131.117787 152.45612 148.453941 158.831402 158.257479 165.242477 168.11272 172.146712 177.554342 173.980152 180.059911 178.172009 177.757174 176.398225 175.068658 164.979989 157.816022 153.279379 140.794057 142.362256 123.207346 131.457065 105.636542 121.045033 87.7595023 111.014803 69.6796307 108.234814 64.6684916 105.494596 59.6374671 102.790173 54.586557 99.9942756 49.364632 97.3892791 43.8285164 93.9331846 39.012255 92.9985675 37.7157222 90.5964029 38.4315992 91.1691044 40.1775437L91.1691044 40.1775437Z"/><path d="M77.5157413 43.7807913C75.2686832 46.1113687 72.1387104 48.358427 71.2836352 51.6355529 70.9058113 53.0911695 70.9137655 54.7893889 71.6375966 56.1455781 71.9676954 56.7660048 72.4131299 57.2989355 72.9778772 57.7165304 73.5744413 58.161965 74.7397298 58.3568426 75.1453933 58.8977275 75.5510569 59.4386123 75.5073089 60.5243591 75.6902552 61.1527401 75.9089953 61.9004338 76.2112545 62.6163108 76.6805515 63.2446918 77.6509624 64.5412246 79.1383955 65.2531245 80.7212789 65.4599334 84.543266 65.9530931 87.5618803 63.3003711 89.6975797 60.4289089 91.0935396 58.5517203 88.0431086 56.2529596 86.4721566 57.9432248 85.1517614 59.3630475 82.7416425 62.5447231 80.4150427 61.108992 79.4764485 60.5323133 79.5559904 59.1761241 79.2815709 58.2295756 78.9673805 57.1478059 78.5060376 56.185349 77.6151686 55.4734491 76.9231543 54.920633 75.6146904 54.8212056 75.1891414 54.0695348 74.7277985 53.2542304 75.3641335 51.8542931 75.8016138 51.1940954 77.1816654 49.1021437 79.3849754 47.7976567 80.0093791 45.2324308 80.3514092 43.8245393 78.5776253 42.6791361 77.5157413 43.7807913L77.5157413 43.7807913ZM77.5077871 88.6583256C76.5214678 86.5385343 75.7300261 84.1403463 75.5868507 81.7938605 75.555034 81.268884 75.511286 80.7120908 75.5709424 80.1871143 75.6902552 79.1769323 75.6703697 79.0536424 76.5930555 78.7633145 77.7026647 78.4133302 79.2696396 78.5763911 80.430951 78.4928721 81.7115752 78.4013989 82.9882224 78.3059486 84.2688466 78.2224297 85.9074092 78.111071 85.9949053 78.4292386 86.6948738 79.9007635 87.7925517 82.2035012 88.7709168 84.593735 89.498725 87.0436253 90.4174336 90.1378048 90.4651588 95.5665388 85.6528752 93.5779915 83.5052446 92.6910994 81.8587277 90.9531092 80.3156153 89.2707982 78.7247778 87.536785 77.2532531 84.8920171 75.0936911 83.8699038 73.0375336 82.8994928 71.2279559 85.9499243 73.3000218 86.9402208 74.2942952 87.4174721 73.2920676 86.5385343 73.3835408 87.0714649 73.435243 87.3617928 74.0676009 87.8987006 74.2585014 88.125395 74.6522337 88.5986692 75.427767 89.4139736 75.6226446 89.7599808 76.1873919 90.7622086 77.7344814 89.8633853 77.1697341 88.8571803 76.9828107 88.5231044 76.6845286 87.409518 76.4856739 86.8328392 76.3862466 86.5425113 76.2629567 85.7391383 76.0362623 85.5323293 75.6226446 85.1545054 75.8652473 86.5663739 75.980583 85.4050623 74.8152945 85.5641461 73.6539831 85.7192528 72.4886946 85.8783366 73.0812816 88.5350357 75.8572931 91.0048114 77.6708479 92.9217709 79.4923569 94.8427076 81.4848809 96.6045604 83.9506791 97.638605 88.7271688 99.6430606 93.7661466 97.2806665 94.4223671 91.955337 95.050748 86.8447705 92.3582554 81.0740064 90.0157472 76.6872712 88.5322912 73.903305 86.4085231 73.7163816 83.5052446 74.0504575 80.7133247 74.3686251 77.3049553 74.2413581 74.664165 75.2237004 71.7608865 76.301493 71.6853217 79.4752144 71.9915579 82.1199823 72.3494964 85.2141618 73.4551284 87.874838 75.4914005 90.2213238 76.5055594 91.3945666 78.0804886 89.895202 77.5077871 88.6583256ZM78.9196554 118.088825C80.3275466 116.955353 81.9859947 112.77145 83.9228394 115.328721 85.5534479 117.480329 86.9653162 120.093281 87.9914064 122.582942 89.0135195 125.064649 89.4032747 127.737256 87.46643 129.861025 85.8636612 131.622878 83.5370613 132.283075 81.743392 133.758577 80.0372187 135.158515 81.9024757 137.699878 83.7756869 137.246489 86.9732704 136.474933 90.687876 133.63131 92.1991717 130.704169 94.2354437 126.762868 92.8195983 122.435789 90.9066162 118.760954 89.3953205 115.857675 87.1562167 110.75904 83.4416111 110.353376 79.7985931 109.955667 76.3703382 113.570846 76.7242996 117.17807 76.8396353 118.339382 78.0248093 118.808679 78.9196554 118.088825L78.9196554 118.088825ZM113.528326 124.666939C111.225589 124.436268 108.576844 124.201619 106.397397 123.410177 104.384987 122.678392 103.454347 121.20289 102.778241 119.262068 102.165769 117.508169 101.756128 115.694614 101.048205 113.976509 100.340283 112.266359 98.741491 110.321559 98.7772849 108.412554 98.7852391 107.963142 99.0079563 106.972846 99.5408869 106.853533 100.101657 106.730243 101.087976 108.384714 101.334556 108.71879 102.798127 110.683475 104.237835 112.660091 105.693451 114.63273 107.220655 116.708773 108.751836 118.780839 110.27904 120.856883 110.708566 121.437538 111.802267 122.582942 111.849992 123.382338 111.885786 123.974925 111.261382 124.499901 111.328993 125.319183 111.571596 128.170759 115.461193 128.146897 115.743567 125.319183 115.747544 125.275435 115.751521 125.235664 115.755498 125.191916 115.540735 125.716892 115.321995 126.237892 115.103255 126.762868 117.330428 124.73455 116.324223 121.66821 114.848721 119.520579 112.665297 116.34288 110.239269 113.300403 107.944486 110.198269 106.186611 107.823944 104.305445 104.109338 101.489663 102.852576 99.0715898 101.774783 96.4347766 102.920187 95.1939233 105.195085 93.7939863 107.764288 94.4303213 110.405078 95.6234495 112.898717 96.3114867 114.346379 97.0512261 115.694614 97.5404087 117.229773 97.934141 118.466649 98.2562856 119.731365 98.7176285 120.948356 99.7317874 123.632895 101.330579 125.860068 104.035003 127.021379 107.216678 128.3895 110.636979 128.433248 113.882287 127.303753 115.357789 126.790708 115.031667 124.818069 113.528326 124.666939ZM105.908214 154.029828C103.796377 151.977647 97.0750887 151.349266 98.3040107 146.942646 98.7335368 145.395556 101.286831 145.133068 102.527684 144.417191 104.170224 143.470642 105.645726 141.708789 107.550754 141.31108 109.49953 140.901439 111.846015 142.201949 113.488555 143.156452 114.140798 143.538253 115.170866 144.103 115.433354 144.866602 115.751521 145.793265 114.948148 146.77163 114.403287 147.443759 113.110731 149.03062 111.400581 150.287382 109.555209 151.158366 107.642227 152.061166 105.637772 152.112868 103.653202 152.693524 100.968664 153.480989 102.102135 157.652961 104.810536 156.893336 104.850307 156.881405 104.890078 156.869473 104.929849 156.861519 106.564435 156.404153 107.168953 153.763363 105.438917 152.963967 105.403123 152.948058 105.367329 152.93215 105.327558 152.912264 104.766788 154.240614 104.209995 155.564986 103.649225 156.893336 109.435896 157.951243 116.91681 153.317928 119.398516 148.155659 120.854133 145.133068 119.744524 142.11843 117.171344 140.169654 114.777133 138.356099 111.245474 136.717536 108.206974 136.753329 104.75088 136.7931 102.857783 139.254922 100.038024 140.746332 97.4012104 142.138315 94.7643972 142.675223 94.0405661 146.023937 93.4479791 148.764155 94.6132676 151.663457 96.7012419 153.465081 98.7653536 155.246819 102.662906 156.845611 105.391192 155.994513 106.218427 155.736001 106.564435 154.666163 105.908214 154.029828ZM111.146047 183.782472C109.984735 181.933123 108.743882 179.936622 107.924601 177.91228 107.503029 176.870282 107.029755 175.609543 107.574616 174.527773 108.059822 173.565316 109.217156 172.781829 109.984735 172.057997 111.718748 170.427389 113.448784 168.788826 115.190751 167.166171 115.95833 166.450294 116.678184 165.539539 117.779839 165.909409 118.670708 166.207691 119.382608 167.194011 119.871791 167.941704 122.357474 171.731876 119.744524 176.548137 117.238954 179.729813 116.288429 180.938849 113.969783 183.404648 112.184068 182.816038 111.412512 182.561504 111.050596 181.742222 110.151773 181.62291 109.352377 181.515528 108.811493 181.750177 108.214929 182.255268 107.435418 182.915465 107.379739 184.211998 107.853013 185.047188 109.475667 187.906719 113.063006 188.081711 115.791292 186.86472 118.642869 185.59205 120.786522 183.181931 122.393268 180.565002 124.08751 177.800922 125.757889 174.420391 125.726073 171.115426 125.698233 168.184307 124.171029 165.205463 122.047261 163.228848 119.843951 161.17269 116.82136 160.313637 114.128867 161.968109 112.573823 162.922611 111.317062 164.461747 110.03246 165.738394 108.78763 166.971293 107.538823 168.204193 106.293992 169.441069 103.863988 171.859143 102.376555 174.233468 103.390714 177.781036 104.289537 180.918964 106.158771 183.659182 108.704111 185.65966 109.992689 186.657911 112.164183 185.401149 111.146047 183.782472L111.146047 183.782472ZM152.865761 172.471615C150.407917 171.779601 147.993821 170.654083 145.607565 169.743328 143.23324 168.836551 140.874823 167.778644 138.735147 166.394615 136.71876 165.094105 134.82964 163.387931 133.640489 161.280071 132.678033 159.573898 131.918408 156.479718 134.769984 156.356428 137.219874 156.253024 139.132856 158.500082 141.017998 159.740936 143.113927 161.120987 145.416664 160.981789 147.719402 161.717552 149.835215 162.393658 152.400441 163.912908 153.724813 165.746348 154.388988 166.669034 154.949758 168.080903 154.456599 169.206421 153.995256 170.256373 152.814059 170.367732 151.875465 170.741579 150.455642 171.302349 150.220994 172.972729 151.465824 173.875529 153.581638 175.406711 156.357649 173.9153 157.69793 172.038112 159.256951 169.858664 159.129684 166.991179 157.984281 164.652647 156.799107 162.230597 154.512278 160.532377 152.225449 159.231868 150.952779 158.508036 149.580681 157.851816 148.148928 157.513763 146.665472 157.163778 145.074634 157.231389 143.682651 156.539375 141.017998 155.211025 139.248192 152.872493 136.126173 152.391265 133.779688 152.029349 131.170714 152.733295 129.754869 154.753659 126.517514 159.382997 130.91618 165.428181 134.479656 168.371231 137.08863 170.526816 140.055542 172.018226 143.209377 173.215332 146.09277 174.309033 149.78749 176.066909 152.869738 174.881734 153.967416 174.460162 154.134454 172.829554 152.865761 172.471615L152.865761 172.471615ZM133.378001 202.435045C131.548538 200.442521 128.903771 199.424385 127.301002 197.161418 125.403928 194.480856 125.952767 191.967332 128.084489 189.708343 129.27364 188.447604 130.514494 187.226636 131.727507 185.989759 132.582582 185.118776 133.437658 184.033029 134.6109 183.591571 137.160217 182.629114 140.970273 183.945533 142.915072 185.651706 145.364962 187.807292 145.428596 190.483876 144.474093 193.395109 144.008773 194.814932 143.54743 196.18703 143.273011 197.658555 143.006545 199.086332 142.911095 200.673192 142.17931 201.953817 141.093563 203.854868 140.381663 203.230464 138.500498 202.944113 136.476157 202.637877 134.435908 202.48277 132.399636 202.423114 131.492859 202.395274 131.16276 203.496929 131.699668 204.109402 133.974565 206.710422 139.733397 208.86203 143.070179 207.139948 145.977434 205.640583 146.920006 202.518564 147.444982 199.527789 147.997798 196.381907 149.652269 193.307613 149.584659 190.08219 149.437506 183.416579 143.141767 179.359943 137.044882 178.978142 133.775711 178.77531 131.393431 180.079797 129.162282 182.338787 126.883407 184.645501 123.856839 187.035735 122.484741 190.042419 119.521806 196.540991 125.97663 204.041791 132.403613 204.789485 133.676283 204.940615 134.105809 203.230464 133.378001 202.435045ZM112.124412 213.125475C112.939716 210.989775 115.731636 209.144404 117.405992 211.606225 118.149709 212.699926 118.149709 214.278833 118.475831 215.531617 118.797975 216.764517 119.295112 217.897989 120.110416 218.888285 121.836475 220.97626 124.453403 222.236999 122.305772 225.219819 121.554101 226.265795 120.472332 227.128825 119.378631 227.804931 117.903129 228.715686 116.892947 228.644098 115.222568 228.687846 113.528326 228.731594 112.593709 230.827523 113.826608 232.060422 117.330428 235.576174 123.367656 231.185461 125.698233 228.20264 127.114078 226.393062 127.909497 224.153958 127.579398 221.843266 127.213506 219.274063 125.523241 218.116729 123.86877 216.366807 122.381337 214.791878 122.580191 212.318125 121.768864 210.389234 120.881972 208.293305 119.116143 206.785986 116.884993 206.268964 112.530075 205.266736 108.537073 208.726809 109.173408 213.125475 109.416011 214.783924 111.659092 214.35042 112.124412 213.125475L112.124412 213.125475ZM173.296092 214.831649C170.997332 209.581884 162.160229 209.426777 161.066528 203.226487 160.784155 201.623718 161.551734 200.096514 162.116481 198.640897 162.701114 197.137555 163.086892 195.618305 163.520395 194.071215 163.890265 192.742866 164.327745 191.156005 165.504965 190.288998 166.900925 189.258931 168.137801 190.27309 169.358769 191.096349 171.884224 192.802522 174.878975 194.429154 177.010698 196.62451 179.337298 199.022698 178.514039 202.88048 178.247574 205.899094 178.092467 207.637085 177.913498 209.375075 177.71862 211.113065 177.635101 211.856782 177.547605 212.600499 177.460109 213.344215 177.400453 213.841352 177.344774 214.334512 177.285117 214.831649 176.994789 215.74638 177.213529 215.786151 177.941338 214.943007 177.929406 214.56916 174.509106 214.262924 174.111396 214.298718 173.626191 214.346443 173.101214 214.47371 172.631917 214.608931 172.051262 214.771992 171.745025 214.541321 172.341589 214.756084 171.391064 214.414054 170.981423 215.92535 171.923995 216.26738 171.279705 216.036708 171.772865 216.307151 172.083078 216.680998 172.421131 217.090638 172.75123 217.524142 173.156894 217.862195 174.218778 218.749087 175.905066 219.246224 177.2533 219.464964 181.274142 220.117207 181.68776 216.338967 182.025813 213.348192 182.459316 209.54609 182.928613 205.716148 183.059857 201.886206 183.171216 198.605103 182.431477 195.558649 179.97761 193.247957 177.59533 191.004876 174.600579 189.294725 171.908086 187.45333 169.318998 185.683523 166.395834 184.502326 163.480624 186.323835 160.788132 188.006146 159.781927 190.969082 159.046165 193.892246 158.222906 197.169372 156.266176 200.335139 156.858763 203.81112 157.399648 206.97291 159.674546 209.490411 162.180115 211.323851 163.659594 212.405621 165.290202 213.272628 166.892971 214.155543 168.523579 215.054366 170.026921 216.148067 171.772865 216.808265 173.005764 217.269608 173.70971 215.778197 173.296092 214.831649ZM137.259645 236.534653C138.556177 233.368886 139.347619 229.948585 140.314053 226.667482 140.75551 225.168117 140.942434 223.545463 142.378165 222.698342 143.738331 221.898946 145.396779 221.457488 146.864326 220.888764 148.17279 220.379695 149.84317 219.441101 151.262992 220.021757 152.682815 220.60639 153.323127 222.272792 153.541867 223.67273 154.086729 227.144733 152.905532 230.875248 152.161815 234.227939 151.660702 236.478974 151.64877 241.175923 148.741515 241.621357 147.389303 241.828166 146.414915 241.104335 145.205878 240.471977 143.448003 239.553268 141.805463 238.479453 140.119175 237.441431 139.371482 236.980088 136.985225 236.494882 136.579562 235.611967 136.209692 234.80064 134.996678 235.094945 134.773961 235.846616 134.404091 237.103378 135.223373 238.582857 135.871639 239.60497 137.064767 241.482159 139.260123 242.659379 141.141288 243.749103 144.94339 245.952413 149.592613 248.123907 153.458348 244.556453 155.936077 242.265647 156.146863 238.197079 156.811038 235.098922 157.578617 231.507606 158.568914 227.753229 158.234838 224.054531 157.94451 220.845016 156.584344 217.599706 153.581638 216.04864 150.292581 214.35042 147.055227 215.937281 143.925254 217.186089 142.231012 217.862195 140.34587 218.415011 138.941955 219.62007 137.589744 220.781382 137.013065 222.360289 136.56763 224.038622 135.979021 226.265795 135.438136 228.508877 134.873388 230.744004 134.388183 232.660963 133.755825 234.55406 134.197283 236.530676 134.579084 238.220941 136.722737 237.843117 137.259645 236.534653ZM144.569543 278.787305C142.298623 278.803214 139.940206 279.002068 137.808484 278.051543 135.696647 277.108971 134.17342 275.323256 133.039948 273.358571 131.878637 271.342184 131.051401 269.146828 130.283822 266.955449 129.711121 265.320863 128.084489 260.635846 130.69744 259.752931 131.715576 259.406924 133.445612 260.39722 134.439885 260.743228 135.784143 261.212525 137.132378 261.673868 138.476635 262.147142 140.970273 263.018126 142.099768 264.414086 143.23324 266.77648 144.334895 269.063309 144.991115 271.644444 144.641131 274.189784 144.338872 276.381163 142.815645 278.314031 142.728149 280.465639 142.696332 281.253104 143.471865 282.104202 144.291147 282.028637 150.042024 281.479798 150.260765 272.56713 149.190926 268.522424 148.471072 265.802092 147.162608 262.958469 145.305306 260.826747 143.340621 258.579688 140.608358 257.927445 137.856209 257.11214 135.366548 256.376378 132.204759 254.805425 129.5759 255.557096 127.114078 256.261042 125.602783 258.734795 125.213028 261.13696 124.731799 264.103872 125.769821 266.915678 126.811819 269.643965 127.746436 272.093855 128.748664 274.579539 130.267914 276.735125 133.401864 281.185493 140.115198 284.824535 145.281443 281.43605 146.422869 280.680402 146.033114 278.779351 144.569543 278.787305ZM194.311056 290.197589C187.92782 289.712384 181.186646 288.328355 175.29657 285.767106 172.441017 284.526253 170.862111 283.054728 169.748524 280.147472 168.897426 277.916322 166.383903 275.414729 168.316771 273.088129 170.229753 270.789368 173.713687 271.795573 175.674394 273.450045 177.658964 275.124401 179.082764 277.355551 180.944043 279.153198 183.024063 281.161631 185.426228 282.17579 188.02327 283.333124 189.128903 283.826284 190.294191 284.327398 191.161197 285.202359 191.535044 285.580183 192.795783 287.10341 192.155471 287.624409 191.45948 288.193134 191.228808 289.366377 191.479365 290.189635 192.42989 293.35938 196.705266 292.981556 196.657541 289.489667 196.224038 290.249292 195.786558 291.008917 195.353054 291.764565 198.244402 290.515757 198.057478 286.395487 196.912075 284.017185 195.599634 281.288898 193.058271 279.753739 190.361802 278.648107 187.359096 277.415208 185.06829 276.301621 182.83714 273.883548 180.948021 271.835344 179.102649 269.632034 176.545378 268.395157 171.319476 265.869702 163.926059 268.045173 163.361312 274.547723 163.1028 277.502704 165.147027 279.892938 166.173117 282.513843 167.266818 285.30974 169.1798 287.306242 171.836499 288.690271 178.657214 292.245793 186.746623 293.263929 194.31901 292.61964 195.862122 292.488396 195.874054 290.316902 194.311056 290.197589ZM178.645283 244.309873C177.169781 245.248467 176.422088 246.612611 175.924951 248.271059 175.415883 249.965301 175.145441 251.544208 173.550626 252.586207 172.055239 253.560595 170.186005 253.441282 168.786068 252.339627 167.032169 250.967529 167.075917 248.784104 167.278749 246.76374 167.489535 244.667812 167.724184 242.67131 167.66055 240.559473 167.600894 238.630582 168.157687 237.163034 170.42463 237.556767 174.111396 238.201056 176.986835 242.241784 176.457882 245.896734 176.147668 248.036411 179.015153 249.730653 180.240098 247.491549 183.326323 241.852029 178.295299 235.317662 173.005764 233.30923 170.201913 232.243368 166.837292 232.47404 164.633982 234.697236 162.128413 237.222691 163.06303 240.738442 162.752816 243.904209 162.422717 247.272809 161.730703 250.724927 163.651639 253.783312 165.234523 256.30479 167.966786 257.94733 170.953584 258.07062 173.90061 258.189933 176.752187 256.64682 178.45836 254.284426 180.323617 251.707269 179.659442 248.688654 180.669624 245.864917 181.079265 244.735422 179.623648 243.685469 178.645283 244.309873L178.645283 244.309873ZM196.27574 195.777389C196.780831 197.869341 197.222288 199.949361 197.130815 202.1129 197.055251 203.938387 196.832533 205.740011 197.13877 207.557543 197.818853 211.622133 201.088024 213.22888 204.794675 213.91294 206.735497 214.270878 208.242815 214.931076 210.016599 215.74638 211.766521 216.549753 213.595984 216.919623 215.457264 216.271357 219.700823 214.795855 220.687142 210.405142 221.180302 206.459865 221.526309 203.671921 216.630506 202.983884 216.236774 205.791713 215.894744 208.233649 215.365791 212.811285 211.865948 211.415324 210.573392 210.898302 209.388219 210.238105 208.016121 209.935845 206.679818 209.64154 205.299766 209.601769 203.963463 209.295533 200.738039 208.559771 200.996551 205.740011 200.972688 202.991838 200.944848 199.853911 200.471574 196.926769 197.98589 194.779138 197.226266 194.11894 196.025183 194.743344 196.27574 195.777389L196.27574 195.777389ZM202.822037 226.874291C199.21879 223.322745 196.98764 216.601456 191.006091 216.581537 188.623812 216.573616 186.388685 218.009347 185.207488 220.037665 183.771757 222.503464 184.471726 225.124369 185.390434 227.621985 186.281303 230.044035 186.078472 232.688803 187.013089 235.055174 188.007362 237.568698 190.409527 238.761826 193.034409 238.443659 197.759196 237.86698 203.16009 232.903566 203.633364 228.075373 203.828241 226.082849 201.095978 225.748773 200.157384 227.132802 199.171064 228.596373 198.654042 230.223004 197.417166 231.547377 196.267786 232.780276 194.748536 233.997267 193.07418 234.410885 190.839053 234.967678 190.477137 233.356955 190.28226 231.547377 190.083405 229.670188 189.713535 228.039579 189.041406 226.27375 188.432911 224.67098 187.633515 222.750044 189.045384 221.326244 190.449298 219.910398 192.286715 220.475146 193.678698 221.596686 196.502434 223.86363 197.691586 227.51858 201.14768 229.03783 202.495915 229.630417 204.023119 228.055488 202.822037 226.874291L202.822037 226.874291ZM214.912402 255.549142C212.60171 255.573005 210.259202 253.469122 209.527417 251.40501 208.576891 248.716494 209.507531 245.70981 210.541576 243.19231 211.555735 240.722534 212.816473 238.336277 213.926083 235.906272 214.661845 234.291572 215.962355 231.181484 218.03442 233.166054 219.843998 234.900068 220.118418 238.041972 221.232004 240.225397 222.425132 242.563929 223.880748 244.417255 223.55065 247.193267 223.284184 249.440325 221.987652 251.5283 220.04683 252.697565 217.982718 253.942396 215.560668 253.874785 213.246 254.212838 211.647208 254.447487 211.842085 256.535462 212.844313 257.279178 217.461719 260.691525 224.747755 256.92124 227.102194 252.411215 228.450429 249.822126 228.895864 246.831351 228.323162 243.967843 227.71069 240.901503 225.586922 238.487407 224.564809 235.576174 223.558604 232.716643 222.377407 229.813364 219.509922 228.365701 216.960605 227.0811 214.017556 227.721412 212.108551 229.805409 210.259202 231.821796 209.427989 234.5819 208.270655 237.011905 206.850833 239.994726 205.379308 242.94573 204.925919 246.254672 204.464576 249.61134 205.025347 253.123115 207.32013 255.728111 209.420035 258.114368 212.323314 258.790474 215.20273 257.676888 216.276545 257.255316 216.212912 255.533234 214.912402 255.549142L214.912402 255.549142ZM243.153745 215.507755C238.786896 216.299197 231.970157 219.870627 233.537132 225.366972 234.256986 227.896404 236.587563 228.652052 238.102836 230.521286 239.649925 232.426315 239.805032 235.166533 241.2169 237.194851 244.215629 241.490113 250.038095 242.35712 254.365173 239.565199 259.201319 236.447157 260.927377 230.740027 261.750636 225.335155 261.965399 223.927264 261.404629 222.86538 260.052417 222.340403 257.407649 221.314313 254.766859 220.288222 252.122092 219.266109 250.320468 218.56614 248.514868 217.866172 246.713244 217.166203 246.049069 216.907692 245.380918 216.649181 244.716743 216.39067 244.549705 216.327036 243.754286 215.996937 244.0645 216.14409 242.927051 215.591274 241.920846 217.29347 243.066249 217.850263 245.667268 219.114979 248.133067 220.845016 250.622727 222.316541 253.140228 223.803974 255.657728 225.295384 258.179206 226.782818 257.805359 225.868086 257.431512 224.949377 257.061642 224.034645 256.162819 227.777091 255.578186 232.096216 252.472076 234.752915 249.584706 237.222691 245.89794 236.486928 244.370736 232.983108 243.698607 231.439995 243.273058 229.789501 242.314578 228.38161 241.332236 226.933947 239.948208 226.154437 238.687469 225.005056 237.013112 223.477852 238.731217 222.065984 240.270352 221.230794 242.095838 220.240497 243.821897 219.651887 244.903666 217.778676 245.619543 216.533845 244.438346 215.277083 243.153745 215.507755ZM201.39426 271.612627C198.518821 269.393408 194.991139 268.363341 192.342394 265.754367 191.260625 264.688505 190.15897 263.240843 190.341916 261.63012 190.572588 259.593847 192.135585 259.112619 193.813919 260.031328 195.368963 260.882426 196.86435 261.864768 198.407462 262.743706 199.890918 263.58685 201.521527 264.481696 202.316946 266.072534 202.965212 267.377021 202.742495 268.73321 201.259039 269.230347 200.069888 269.632034 198.864828 268.840592 197.69954 269.305912 197.023434 269.576354 196.438801 270.133148 196.466641 270.924589 196.570045 273.807983 200.085796 274.293189 202.301037 273.676739 204.567981 273.048358 206.465055 271.274574 207.033779 268.967859 208.700181 262.210775 200.328399 258.591619 195.559863 256.380355 193.062248 255.22302 190.290214 255.187227 188.333484 257.33088 186.675036 259.148413 186.269372 261.904539 187.072745 264.179437 187.987477 266.77648 190.103291 268.685485 192.318532 270.200758 194.776376 271.883069 197.850669 273.601174 200.905077 273.410274 201.92719 273.354594 202.141954 272.189306 201.39426 271.612627L201.39426 271.612627ZM235.867709 288.133477C232.781484 286.805128 229.520267 286.097205 226.28689 285.126794 223.773367 284.371146 219.601395 283.778559 218.300886 281.137768 217.489559 279.491251 218.595191 278.310054 219.338907 276.922048 220.007059 275.67324 220.345112 274.380685 220.651348 273.008587 221.331431 269.958156 222.520582 268.379249 225.642601 267.591784 226.605058 267.349182 228.386796 266.736709 229.393 266.999197 230.35148 267.245777 231.421318 269.345683 232.105378 270.06156 234.030292 272.081924 236.424502 273.585266 238.349416 275.601653 240.349894 277.701559 241.630518 280.398029 240.055589 283.13427 238.464752 285.902327 235.629084 286.76138 232.713874 287.397715 233.063858 288.670385 233.417819 289.947032 233.767804 291.219703 234.670604 290.993008 235.25126 290.372582 235.887595 289.740224 236.30519 289.322629 236.162014 288.706179 235.712603 288.391989 234.90923 287.831218 234.256986 287.397715 233.23885 287.326127 230.669648 287.139204 230.741235 291.036756 233.23885 291.29129 239.113018 291.891832 245.43262 286.208564 245.205926 280.246899 244.947414 273.358571 237.939775 270.880841 234.16949 266.263435 233.366117 265.281092 232.793416 264.056147 231.612219 263.455606 230.208305 262.739729 228.601559 263.073805 227.118103 263.308454 224.457427 263.730026 221.63369 264.489651 219.657075 266.43445 217.354337 268.701394 217.612849 271.628535 216.574827 274.444318 215.536806 277.256124 213.635755 279.236717 215.047623 282.374645 216.523125 285.659725 219.999105 286.876716 223.200665 287.851104 227.106172 289.040255 231.206555 290.257246 235.283076 290.285086 236.352915 290.29304 236.96141 288.602775 235.867709 288.133477ZM252.861831 266.183893C251.430077 264.76407 250.03014 263.316408 248.487028 262.019875 247.250152 260.981853 245.929757 260.003488 244.804239 258.838199 243.980981 257.987101 242.557181 256.475805 243.340669 255.183249 243.953141 254.173067 245.65136 253.819106 246.701313 253.544687 247.691609 253.286175 249.254607 252.840741 250.248881 253.310038 251.438032 253.874785 250.757949 255.59289 250.789765 256.666706 250.829536 258.174025 251.366444 259.450672 252.058458 260.759136 252.368672 261.343769 253.832242 263.312431 252.611274 263.797636 251.791993 264.123758 251.20736 264.740208 251.187475 265.666871 251.17952 266.128214 251.171566 266.593534 251.159635 267.054877 251.147704 267.619624 251.704497 267.985517 252.221519 267.862227 252.50787 267.794616 252.794221 267.727006 253.080571 267.663372 253.625433 267.544059 253.693044 267.83041 253.001029 267.699166 254.214043 267.929837 255.355469 267.559968 256.198613 266.645236 257.841153 264.871452 257.769565 262.270432 256.807108 260.210297 256.123048 258.742749 255.172523 257.708704 255.1765 256.022416 255.180477 254.650319 255.371377 253.353786 254.786745 252.049299 253.816334 249.889737 251.67268 248.967051 249.40176 248.911371 245.18604 248.80399 238.695423 251.086842 239.049384 256.221271 239.224376 258.766612 241.165198 260.834701 243.046364 262.353951 245.687154 264.489651 248.498959 266.323091 251.378375 268.120738 252.559572 268.860477 253.852128 267.162258 252.861831 266.183893ZM272.075171 268.51447C269.883793 268.852523 268.937244 265.535626 268.849748 263.968651 268.726458 261.809089 268.881565 259.597824 268.165688 257.513827 267.65662 256.038325 265.743638 253.910579 265.970332 252.319741 266.149302 251.066957 267.799796 250.780606 268.841794 251.0073 272.234255 251.74704 273.864864 257.430308 274.568809 260.265976 275.054015 262.222707 275.189236 264.386246 274.123375 266.183893 273.260345 267.639509 271.6536 268.315616 270.734891 269.715553 271.570081 269.715553 272.40527 269.715553 273.24046 269.715553 273.141033 269.5684 273.037628 269.425225 272.938201 269.278072 272.814911 269.10308 272.608102 268.928088 272.373454 268.955928 272.246187 268.967859 272.114942 268.983767 271.987675 268.995699 270.603647 269.142851 269.95538 270.884819 271.25589 271.700123 273.908612 273.358571 276.847684 270.74562 278.144217 268.534356 279.906069 265.531649 279.834482 261.956241 278.959521 258.679116 277.555607 253.437305 274.302344 245.976276 267.783887 246.330237 265.13912 246.473413 262.430719 248.040388 261.667117 250.705041 260.780225 253.803198 262.852291 256.006508 263.918152 258.683093 265.222639 261.968173 263.985763 265.698687 266.185096 268.749119 267.767979 270.940498 270.504219 272.077947 272.954109 270.590514 274.119398 269.886568 273.300116 268.327547 272.075171 268.51447ZM267.577078 299.857952C265.501035 299.428426 262.955695 300.12044 261.090438 298.979014 259.046212 297.726229 260.04844 294.795111 260.585347 292.905991 261.249522 290.567459 262.633551 288.59482 265.26241 289.521483 266.240775 289.867491 267.167438 290.348719 268.185574 290.579391 268.921336 290.742451 270.655349 291.394695 270.603647 290.380536 270.623532 290.82597 270.122418 291.625366 269.967312 292.03103 269.5179 293.192342 269.072466 294.353653 268.623054 295.518942 268.165688 296.708093 267.704345 297.897244 267.24698 299.086396 267.087896 299.496036 266.928812 299.9017 266.773705 300.311341 266.72598 300.434631 266.455538 301.082897 266.566897 300.86018 266.145325 301.691393 267.398109 302.431132 267.823658 301.595942 269.183824 298.919358 271.164417 296.421742 272.795025 293.896287 273.491017 292.818495 274.640397 291.56571 274.684145 290.428261 274.823343 286.872738 270.730914 286.964212 268.420222 286.228449 265.401608 285.262015 262.848314 284.216039 260.008669 286.29606 257.224703 288.336309 256.413376 291.808313 255.920216 295.037713 255.470805 297.98474 256.134979 300.677233 258.815541 302.331705 261.504056 303.986176 265.190822 303.986176 267.911154 302.454995 268.937244 301.878316 268.786115 300.108509 267.577078 299.857952ZM236.790395 311.18074C236.162014 309.31946 234.718329 306.209372 236.094404 304.407748 237.188104 302.975994 239.470956 302.972017 240.986229 303.592444 243.054318 304.439565 244.641178 306.213349 246.041115 307.891683 247.655815 309.820574 249.326195 312.107403 249.56482 314.692514 249.74379 316.649245 249.015981 319.031525 246.824603 319.453097 245.532047 319.699676 245.122407 319.250265 244.326988 318.411098 243.173631 317.19013 242.044136 315.949276 240.950435 314.672629 239.777192 313.308486 238.564179 311.025633 236.679036 310.659741 235.887595 310.504634 234.762077 310.878481 234.630833 311.821052 234.296757 314.231172 236.352915 316.10836 237.816485 317.806579 239.037453 319.218448 240.282283 320.630317 241.598701 321.954689 244.724697 325.096594 249.918782 324.213679 252.396511 320.674065 255.773064 315.849849 253.223747 309.947841 249.994347 305.851433 246.908122 301.937972 242.608883 297.913153 237.200036 299.150029 234.73026 299.714777 232.511042 301.436859 231.807096 303.938451 230.900319 307.171829 232.725805 310.094993 234.921161 312.270464 235.680786 313.026112 237.156288 312.270464 236.790395 311.18074ZM237.514226 344.500838C237.693195 342.822504 239.693673 342.210031 241.057817 342.782733 242.302647 343.303732 243.149768 344.612196 243.690653 345.793393 244.903666 348.442138 244.784354 351.49257 245.603635 354.260628 246.017253 355.648634 246.597908 357.000846 247.445029 358.178066 248.069433 359.049049 249.525049 360.083094 249.27847 361.288154 248.56657 364.732317 243.109997 362.608549 241.033954 363.372151 241.757785 363.785769 242.485593 364.19541 243.209424 364.609028 241.197015 357.824104 238.94598 351.067021 237.156288 344.218464 236.81028 342.898069 234.762077 343.454862 235.108084 344.783211 236.806303 351.293715 238.078973 357.93944 239.562429 364.501646 239.908437 366.02885 240.56068 367.027101 242.258899 367.472536 245.726925 368.379313 249.998324 367.742978 252.309015 364.827768 254.575959 361.972214 253.800425 359.013256 251.668703 356.396327 249.218813 353.385667 249.393805 349.547771 248.188746 346.016111 247.106976 342.850344 244.84401 339.553332 241.34019 338.88518 237.915913 338.232937 234.38823 340.861796 234.750146 344.496861 234.933092 346.274622 237.327303 346.270645 237.514226 344.500838ZM261.818246 365.472057C262.164254 368.53442 259.054166 370.264456 257.224703 372.18937 255.343538 374.169963 253.788494 376.818708 254.735042 379.610628 255.625911 382.243465 258.397946 383.281486 260.350699 384.967774 262.748886 387.035863 264.081213 389.438029 265.668073 392.106659 266.853247 394.095206 270.213892 392.806628 269.486083 390.495936 268.650894 387.851168 266.853247 385.393323 264.964128 383.392845 263.993717 382.366755 262.915924 381.436114 261.774498 380.604902 260.847836 379.928796 258.910991 379.200987 258.688274 377.964111 258.278633 375.72103 262.5381 373.036491 263.683503 371.429745 265.242524 369.254274 265.783409 366.74075 263.981786 364.569257 263.309657 363.765884 261.698934 364.398242 261.818246 365.472057L261.818246 365.472057ZM247.281969 409.116692C250.061957 408.361044 251.103956 410.779118 251.306787 413.137535 251.553367 415.997066 251.617001 418.900345 251.636886 421.76783 251.656772 424.583613 251.581207 427.403373 251.406215 430.215178 251.298833 431.977031 251.469848 435.922309 248.797241 434.832585 247.281969 434.212158 245.631475 436.367744 246.605863 437.680185 249.043821 440.965265 253.621456 438.988649 254.933897 435.679706 255.701476 433.738884 255.693522 431.49978 255.804881 429.443622 255.948056 426.759083 256.003735 424.06659 255.971919 421.378074 255.924193 417.210079 256.397468 411.538743 253.883944 407.943449 252.082321 405.366292 247.341625 404.272591 245.973505 407.804251 245.675223 408.591716 246.562115 409.315547 247.281969 409.116692L247.281969 409.116692ZM148.32392 316.295284C145.925732 315.392483 143.396301 314.887392 141.037884 313.853348 138.615834 312.791463 137.844278 311.224488 138.261872 308.651308 138.623788 306.420158 139.439092 304.280481 139.840779 302.057285 140.262351 299.730685 140.44132 296.895017 142.203172 295.133164 146.422869 290.909489 148.268241 300.374974 148.729583 302.900429 149.13127 305.107717 150.924939 316.179948 146.068908 315.14988 143.909346 314.692514 142.716218 317.460572 144.57352 318.693472 146.760922 320.145111 149.425575 319.484913 151.23913 317.711129 153.171997 315.814055 153.613455 313.018158 153.704928 310.429069 153.820263 307.151943 153.482211 303.835046 152.806105 300.625531 152.229426 297.901221 151.485709 294.922378 149.81533 292.639525 146.446732 288.030073 140.445297 289.223201 137.633492 293.76902 135.986975 296.429697 135.851754 299.643189 135.175648 302.614078 134.571129 305.270778 133.568902 307.971225 133.787642 310.739283 134.308641 317.333305 142.692355 320.204767 148.319943 318.494617 149.453414 318.144633 149.35001 316.681062 148.32392 316.295284L148.32392 316.295284ZM150.519276 359.343354C148.558568 354.773673 144.04059 351.651654 141.15322 347.71433 139.840779 345.924638 138.89423 344.071312 140.433366 342.154352 141.061746 341.370864 141.745807 340.662942 142.270783 339.799912 142.736103 339.03631 143.058248 337.83125 143.961048 337.497174 145.810397 336.809137 147.317715 339.445951 147.985867 340.698735 149.15911 342.902046 150.137475 345.212738 150.984596 347.559223 151.998755 350.363075 154.054912 356.849716 148.781286 355.425916 147.456913 355.067978 146.049022 356.63893 146.90012 357.875807 147.194425 358.301356 147.484753 358.730882 147.779058 359.156431 147.98189 359.450736 148.180744 359.745041 148.383576 360.035369 148.467095 360.158659 148.753446 360.739315 148.5705 360.230247 148.936392 361.264291 150.59484 360.818856 150.224971 359.772881 149.96646 359.053027 150.077818 357.847967 150.006231 357.032663 148.916507 357.179815 147.822806 357.326968 146.733082 357.47412 147.866554 362.640366 154.890102 359.737087 156.30197 356.26906 157.32806 353.743605 156.846832 350.971571 156.047436 348.45407 155.120773 345.530905 153.931622 342.667397 152.587364 339.911271 150.626657 335.886451 146.295602 330.783839 141.340143 333.913812 140.397572 334.510376 139.721466 335.413177 139.176604 336.36768 138.508452 337.544899 137.816438 338.515311 136.969317 339.573218 135.390411 341.545857 134.825663 343.920182 135.629036 346.358141 136.583539 349.249489 138.743101 351.476662 140.759487 353.668041 143.141767 356.257129 145.591656 359.438805 148.73356 361.12907 149.970437 361.793245 151.016412 360.496712 150.519276 359.343354ZM139.594199 384.430867C141.491273 383.384891 143.237217 382.283236 144.923505 380.899207 145.746763 380.227078 146.554113 379.53904 147.369417 378.858957 148.021661 378.314095 149.075591 376.949952 149.906803 376.77496 151.680587 376.40509 151.998755 386.47907 152.153861 388.006275 152.523731 391.577705 153.951508 396.557028 151.732289 399.726772 149.453414 402.984012 145.042817 403.278317 141.654333 401.735205 139.128879 400.585824 136.901706 404.292476 139.451023 405.501513 144.334895 407.816182 150.1852 407.760503 154.257744 403.843065 158.87515 399.404627 157.276358 392.878215 156.659908 387.21881 156.321856 384.120653 156.087207 380.99068 155.61791 377.912409 155.24804 375.502289 154.007187 373.036491 151.477755 372.31266 148.598339 371.493378 146.55809 373.83191 144.645108 375.5699 142.155447 377.82889 139.896458 380.036177 137.880071 382.716739 137.08863 383.778623 138.587994 384.983683 139.594199 384.430867L139.594199 384.430867ZM167.759977 404.423721C159.674546 405.954902 161.583551 415.94934 159.956919 421.724082 158.966623 425.24381 156.807061 428.369807 159.471714 431.766245 161.535826 434.395105 166.419697 436.117187 169.605349 434.860425 170.774614 434.399082 171.470606 432.446328 170.007035 431.794085 167.672481 430.756063 163.580052 431.778177 162.263634 428.906714 161.63923 427.550525 162.482374 426.134679 163.003373 424.881895 163.564143 423.537637 163.941967 422.229173 164.144799 420.78151 164.797042 416.156149 163.778906 409.279753 168.634938 406.507718 169.804204 405.835589 168.984922 404.193049 167.759977 404.423721L167.759977 404.423721ZM148.7614 446.656487C153.895828 443.096988 154.886125 453.44141 155.311674 456.304918 155.649727 458.579816 155.928123 461.630248 154.301492 463.515391 152.619181 465.468144 150.984596 464.350581 148.892644 464.692611 147.993821 464.839763 147.385326 466.024937 147.667699 466.848196 148.968209 470.650298 154.269675 469.246342 156.604229 467.32147 159.921125 464.585229 160.151797 460.083158 159.591027 456.129926 159.276836 453.898776 158.803562 451.679557 158.254723 449.492155 157.777472 447.591104 157.224656 445.586649 155.880398 444.099215 153.502096 441.470356 149.19888 441.645348 146.999548 444.369658 146.052999 445.546878 147.289875 447.6786 148.7614 446.656487L148.7614 446.656487Z"/></g></svg>