<svg xmlns="http://www.w3.org/2000/svg" width="435" height="313" viewBox="0 0 435 313"><g transform="translate(.304 .338)"><path d="M81.0649204 38.8927829C77.7321157 47.3361545 71.2613841 55.2068245 63.1123188 59.3231174 55.6433366 63.0934029 45.5693579 64.4137983 42.6461939 73.577024 40.9559291 78.8665597 43.3024144 84.0884848 42.9802698 89.4177914 42.8331174 91.8239336 41.7235082 93.8840686 40.4548152 95.8765929 38.9435196 98.2469412 37.3129111 100.597404 35.570944 102.804692 32.3176813 106.924961 28.6070527 109.553821 23.7152273 111.395216 18.7677226 113.256496 14.2258814 115.225158 10.2766273 118.828405 3.38034655 125.120169-.755831036 134.840188.115152513 144.202268 1.025907 153.954104 6.51827358 162.962223 14.8184684 168.192102 24.2998601 174.161721 35.8135467 172.773715 46.1102427 176.194016 55.8819622 179.443303 63.9435314 186.745248 74.2640899 188.56278 79.6570291 189.509329 85.2488231 189.298543 90.2440529 186.876492 94.7302148 184.701021 97.9556379 180.513141 99.9799786 176.050841 104.171836 166.823982 104.545682 156.252865 103.185516 146.349899 102.90712 144.333512 100.325986 143.231857 98.5522019 143.72104 96.3846858 144.317604 95.6369922 146.330014 95.9233429 148.354355 96.9215935 155.429606 96.607403 164.016153 94.0143379 171.151061 92.8450723 174.36853 90.9082276 177.860419 87.9333614 179.725676 84.6602132 181.77388 80.5439211 182.103979 76.7815903 181.590934 67.2604277 180.286447 59.3022629 173.827645 50.5248168 170.379504 40.8525246 166.577402 29.5814407 168.223919 20.2750411 163.475268 12.8975321 159.70896 7.43300516 151.965557 6.84041818 143.629567 6.25578539 135.464592 10.0777726 127.224052 16.6081606 122.288477 20.5494606 119.309634 25.3657212 118.156276 29.7962038 116.143866 34.5209912 113.996235 38.1242383 110.432759 41.2462569 106.364191 44.2052147 102.506409 47.5380194 98.2867122 48.9896586 93.5818094 50.5407252 88.5507848 48.7828497 83.6510044 48.6873995 78.5881631 48.5959263 73.8434894 51.5469299 71.3975763 55.5399321 69.4965251 59.7039494 67.5119549 64.1503403 66.2631473 68.0995945 63.813257 76.7815903 58.4282711 83.001765 50.0366017 84.4454501 39.8433085 84.7596405 37.6002272 81.9040872 36.7650373 81.0649204 38.8927829L81.0649204 38.8927829ZM106.705244 149.599185C109.688065 151.050825 113.020869 151.540008 116.270155 152.053053 119.610914 152.578029 122.979512 152.999601 126.360042 153.130845 132.413179 153.361517 138.601537 152.458716 144.177422 150.052574 148.846531 148.044141 153.066227 144.977802 156.216085 140.96889 159.186974 137.182696 163.136229 130.425613 160.185225 125.708779 158.98812 123.795796 156.63368 124.058285 155.38885 125.708779 154.024707 127.51438 153.877554 129.753484 153.102021 131.82555 152.453755 133.543655 151.455504 135.202103 150.286238 136.617949 147.657379 139.807579 144.15356 142.337011 140.355435 143.947734 135.503381 145.999915 130.094533 146.445349 124.880563 146.421487 122.156254 146.409556 119.431945 146.222632 116.719567 145.944236 113.80038 145.645953 110.801651 145.009618 107.862579 145.323809 105.842215 145.538572 104.438301 148.49753 106.705244 149.599185L106.705244 149.599185Z"/><path d="M57.8625549 78.2779497C54.6252006 79.0852999 54.346804 82.9788754 55.3172149 85.6315975 56.3313738 88.4076094 58.9721641 90.5671718 61.7998778 91.3108884 67.9564191 92.9295659 73.7749074 87.7911598 74.8884936 81.9567622 75.2305237 80.1670696 74.3873798 78.3177207 72.530077 77.8046755 70.8994685 77.3552638 68.7001356 78.3574916 68.377991 80.1630925 67.9603962 82.4936699 66.1905894 85.5162617 63.3708299 84.9594685 59.9306437 84.2833624 60.8692379 80.7357941 59.1630646 78.623957 58.8687597 78.2540872 58.2920811 78.1705682 57.8625549 78.2779497L57.8625549 78.2779497ZM104.203652 93.4545424C100.365757 98.3304602 103.794012 106.117611 109.353989 107.891395 115.645751 109.899828 122.939741 104.033614 121.667071 97.4037972 121.034713 94.110763 115.995735 94.9817466 115.955965 98.1753535 115.920171 100.879778 113.390739 103.643858 110.483483 102.363234 107.38135 100.995114 107.166587 97.6145832 107.262037 94.7152813 107.309763 93.2795502 105.182017 92.2097118 104.203652 93.4545424L104.203652 93.4545424ZM109.441485 160.667439C110.531209 177.347374 121.225614 191.088235 129.812159 204.717738 134.568764 212.266263 138.812323 220.16875 142.14115 228.457015 145.366573 236.482792 148.122699 245.383529 145.0842 253.890535 143.696194 257.780133 141.325846 261.279976 139.357185 264.887201 137.110127 269.007471 135.392022 273.207283 134.918748 277.904231 134.743756 279.622336 136.219258 280.946708 137.647034 281.49157 147.856234 285.373215 159.739791 286.900419 170.497829 284.577796 174.276068 283.762491 173.520421 277.347438 169.571166 277.729239 164.432761 278.226376 159.393783 278.564429 154.23947 278.019567 149.232309 277.490613 144.308666 276.146355 139.62365 274.316892 140.534404 275.51002 141.445159 276.707126 142.351936 277.904231 143.19508 270.296049 148.985729 263.952584 151.733901 256.992668 155.030911 248.644747 153.766196 239.513338 150.882803 231.237004 147.796578 222.372061 143.362118 213.829262 138.450407 205.847233 134.103444 198.783913 129.219572 192.062623 124.773182 185.062937 119.845562 177.31158 115.72927 169.07104 113.577662 160.098715 113.032801 157.835748 109.286378 158.269251 109.441485 160.667439L109.441485 160.667439Z"/><path d="M166.986055 208.149971C165.780996 212.679881 167.984306 217.0348 170.446127 220.737475 173.090895 224.714569 175.878837 228.580305 178.328727 232.688644 183.133056 240.74226 186.815845 249.587318 186.525517 259.11246 186.23519 268.689303 182.524561 277.8923 178.917337 286.637931 177.044126 291.18375 175.091373 295.693775 173.369291 300.29925 172.518193 302.574148 171.750614 305.043924 173.059078 307.330753 174.347656 309.581789 176.881065 310.218124 179.231527 310.695375 190.979863 313.065724 203.070228 312.827098 214.72709 310.063017 219.089962 309.028973 217.24459 302.303706 212.873764 303.33775 203.475891 305.564923 193.600767 306.058083 184.051765 304.510993 182.810912 304.308162 181.578013 304.081467 180.349091 303.815002 180.301366 303.803071 178.957108 303.389453 178.853703 303.453086 178.770185 303.429224 178.686666 303.401384 178.603147 303.377521 179.004833 304.530879 179.279253 304.76155 179.426405 304.069536 179.931496 303.699666 180.253641 301.790661 180.484312 301.186142 180.945655 299.989037 181.418929 298.799886 181.900157 297.610734 183.622239 293.367175 185.455679 289.17134 187.153898 284.919826 190.478749 276.587813 193.230898 267.826274 193.314417 258.774407 193.401913 249.583341 190.355459 240.949069 185.662488 233.14601 183.133056 228.934267 180.221824 224.965126 177.239003 221.063597 174.132893 216.999006 170.994966 213.013957 169.245045 208.153948 168.875175 207.103995 167.300246 206.960819 166.986055 208.149971L166.986055 208.149971ZM223.178414 277.192331C224.359611 274.503815 224.391428 271.115331 224.912427 268.220006 225.473197 265.101964 226.033968 261.991876 226.714051 258.901674 228.054331 252.804788 229.573581 246.747673 230.981472 240.666695 232.385386 234.601626 233.638171 228.508717 234.481315 222.340244 234.918795 219.14266 235.280711 215.933145 235.467634 212.707721 235.638649 209.744786 236.394297 205.60463 234.123376 203.317801 233.03763 202.2241 231.001358 202.12865 229.93152 203.317801 227.752072 205.739851 228.53556 209.645358 228.376476 212.707721 228.221369 215.698496 227.935018 218.689271 227.533332 221.660161 226.698142 227.796817 225.437404 233.877795 224.200527 239.942864 222.971605 245.960208 221.742683 251.965621 220.835906 258.042621 220.366609 261.184526 219.901289 264.346316 219.674595 267.51606 219.467786 270.375591 218.879176 274.002701 219.777999 276.754851 220.219456 278.111561 222.4864 278.771238 223.178414 277.192331L223.178414 277.192331ZM371.400724 291.529757C371.603556 290.038346 371.758663 288.89692 371.527991 287.389601 371.285388 285.806718 371.305274 284.132361 371.51606 282.5455 371.925701 279.427458 373.047241 276.392935 374.15685 273.465794 376.594809 267.030855 378.881638 260.826587 379.4265 253.902466 380.512246 240.133765 375.823253 226.488353 369.666711 214.378101 366.349815 207.859643 361.473898 201.337208 360.909151 193.820499 360.761998 191.867746 359.306382 189.966695 357.150797 190.062145 353.873672 190.209297 350.572684 191.911494 347.518276 193.040989 343.891166 194.377292 340.283942 195.761321 336.672741 197.137396 329.319094 199.945225 321.965448 202.757031 314.516351 205.306348 300.095409 210.245899 285.117674 214.378101 269.801885 214.942848 265.558326 215.097955 261.306813 214.990573 257.083139 214.580932 252.672542 214.151406 248.492616 212.803171 244.141676 212.206607 242.701968 212.007752 241.306008 212.337851 240.518543 213.682109 239.854369 214.819558 239.929933 216.684815 241.019657 217.56773 242.670151 218.904034 244.209286 219.842628 246.25749 220.463055 248.293762 221.079505 250.405599 221.465283 252.509481 221.775496 256.486575 222.364106 260.495486 222.718068 264.51235 222.801587 272.486424 222.968625 280.492313 222.141389 288.327188 220.669864 303.909442 217.742723 318.867292 212.182744 333.618333 206.511408 337.913594 204.860914 342.200901 203.194511 346.496163 201.547994 348.520503 200.77246 350.544844 199.996927 352.573162 199.237302 353.666863 198.827661 354.91567 198.529379 355.945738 197.988494 356.665592 197.61067 356.31163 197.630556 357.14682 197.582831 355.894035 196.330046 354.641251 195.077261 353.388466 193.824476 354.008893 201.058811 357.373514 207.255124 360.885288 213.467346 364.309566 219.528438 367.371928 225.780431 369.535467 232.410247 371.659235 238.920751 373.00747 245.673857 372.792707 252.546277 372.577944 259.490284 370.143963 265.62694 367.956561 272.117559 366.751502 275.696944 365.717457 279.387687 365.538488 283.181836 365.458946 284.880055 365.633938 286.614068 366.031648 288.264562 366.508899 290.257087 367.455447 291.366696 369.153666 292.448466 369.90136 292.92174 371.26948 292.504145 371.400724 291.529757L371.400724 291.529757Z"/><path d="M315.192457 217.345013C315.275976 220.713612 315.880494 224.229364 315.260068 227.5741 314.758954 230.274547 313.374925 232.640919 311.792042 234.844229 308.339924 239.652536 304.19977 243.872233 302.012368 249.47596 299.944279 254.773449 299.785196 263.475332 307.051346 264.254843 313.705024 264.966743 321.158098 264.84743 327.740188 263.602599 331.458771 262.898654 330.607673 256.85347 326.849319 257.012554 320.645053 257.271065 314.587939 257.835812 308.35981 257.465942 306.681476 257.366515 308.351856 257.53753 307.962101 257.990919 308.061528 257.875583 307.667796 256.618821 307.651887 256.41599 307.556437 255.310357 307.707567 254.236542 307.985963 253.17068 308.654115 250.629317 310.018258 248.354419 311.517622 246.222696 314.464649 242.022885 317.996308 238.35998 319.988832 233.551673 322.251799 228.0951 321.758639 222.209 319.913267 216.704701 319.086032 214.230948 315.124847 214.517299 315.192457 217.345013L315.192457 217.345013ZM84.397725 33.4958657C82.9739254 30.5925867 79.8121358 28.6835813 78.9968316 25.4342951 78.6190076 23.9349305 78.8377478 20.9560867 80.8302718 20.6657588 83.5426498 20.2720265 86.7203478 24.3803651 88.1123306 26.2376682 89.1503521 27.6256742 90.0014502 29.1449243 90.757098 30.6999682 91.1070823 31.4118681 91.3775247 32.0004781 91.9144323 32.6129507 92.157035 32.9748663 92.4712255 33.2612171 92.8609807 33.4720031 93.6285598 33.8657355 93.4297051 33.468026 92.2683937 32.2709206 92.4712255 33.129973 93.2189191 33.8219874 94.0541088 34.056636 96.9295476 34.8520549 98.5402706 31.5669748 97.7408748 29.2244662 96.9653415 26.945591 95.4977939 24.6786472 94.0819485 22.7497563 90.8485712 18.3471127 85.7499369 13.1530273 79.736571 14.2387741 74.9004249 15.1097578 72.2238408 20.1805533 72.701092 24.79796 73.21016 29.721603 77.4179253 34.9077342 82.1466899 36.4230072 83.9204737 36.9957088 85.117579 34.9634135 84.397725 33.4958657L84.397725 33.4958657ZM153.74631 68.7687168C154.672973 68.6732665 155.313285 68.7687168 156.22404 68.442595 157.087069 68.1323817 157.886465 67.6471761 158.705746 67.2415125 160.256813 66.4699562 161.927192 65.7222624 163.645297 65.4359116 165.661683 65.1018357 168.246794 65.535339 169.495602 67.3290086 170.931333 69.3891435 168.509282 72.5390024 167.21275 74.1298402 166.278133 75.2712663 165.180455 76.3291734 163.975395 77.1842488 162.670909 78.1109118 161.139728 78.6398653 159.843195 79.5386887 156.578001 81.8056326 158.665975 86.3196348 162.456146 85.7350019 166.81504 85.062873 171.054622 80.9107863 173.5761 77.5342331 176.455516 73.6804285 178.396338 68.4545263 175.695891 63.9842721 173.508489 60.3651161 168.926877 58.2413476 164.76286 58.5634923 162.285131 58.7543928 159.859103 59.5657201 157.691587 60.7668027 156.597886 61.3752981 155.547934 62.1070835 154.561614 62.8746627 154.040615 63.2803264 153.412234 63.7337152 152.986685 64.2427833 152.537274 64.779691 152.4458 65.3603468 152.135587 65.9608881 151.558909 67.0983371 152.242969 68.9238235 153.74631 68.7687168L153.74631 68.7687168ZM367.523058 292.309267C370.851885 295.86479 376.893091 295.669912 381.307665 295.077325 383.940501 294.723364 386.553452 294.226227 389.174357 293.764884 391.799238 293.303541 395.72463 293.458648 397.084796 290.774109 397.589887 289.779835 397.581933 288.360013 396.671178 287.564594 394.459914 285.63968 391.974231 286.669747 389.381165 287.226541 386.93923 287.751517 384.497294 288.296379 382.047404 288.793516 380.046926 289.199179 378.026563 289.584958 375.982336 289.672454 373.699484 289.771881 371.683098 289.322469 369.455925 289.000325 367.566806 288.725905 366.063464 290.750246 367.523058 292.309267L367.523058 292.309267Z"/><path d="M118.49335,31.3800514 C135.455656,38.2166768 154.812171,38.1729288 172.709094,35.8582598 C190.967931,33.4958657 208.872808,28.9739092 226.39986,23.4139311 C244.360416,17.7187318 262.193705,11.8525174 280.901954,9.12820766 C298.961937,6.4993482 317.670187,6.50730238 335.571086,10.2417941 C351.264698,13.5149429 366.337884,19.6038746 379.605469,28.6477875 C392.407734,37.3735328 402.998735,48.9468778 410.594984,62.4411594 C425.552834,89.0041736 428.670875,120.82093 425.572719,150.704818 C423.715416,168.617651 418.926995,186.009486 415.168642,203.576312 C411.108029,222.555007 408.892788,241.82403 409.489352,261.248159 C409.636504,266.044535 409.946718,270.82898 410.396129,275.60547 C410.58703,277.629812 411.990944,279.371779 414.162437,279.371779 C416.059511,279.371779 418.111691,277.641743 417.928745,275.60547 C416.174847,256.077936 416.878792,236.299846 420.27523,216.983098 C423.580195,198.191326 429.052676,179.833058 431.85255,160.945836 C436.442117,129.968247 434.791623,97.2964156 421.953564,68.3710073 C415.574305,53.9977878 406.184387,40.9330324 394.30083,30.604518 C381.880366,19.8106835 367.196936,11.8843341 351.578889,6.80558447 C315.645846,-4.87911917 277.306661,-0.178193471 241.866778,10.8025644 C207.174589,21.5526509 171.162004,34.3390097 134.254573,29.0812908 C129.418427,28.3932534 124.582281,27.5978345 119.76602,26.774576 C116.703658,26.2575537 115.649728,30.2346482 118.49335,31.3800514 L118.49335,31.3800514 Z"/></g></svg>