<svg xmlns="http://www.w3.org/2000/svg" width="256" height="323" viewBox="0 0 256 323"><g transform="translate(.08 .524)"><path d="M127.206486,315.583222 C148.635067,326.337285 173.818026,322.232924 195.894873,315.797985 C206.879607,312.596424 218.321706,308.893749 226.617923,300.613438 C234.078951,293.168317 238.469663,283.098314 239.750287,272.71412 C240.466164,266.907562 239.937211,261.144752 238.883281,255.413759 C237.729923,249.149835 236.24249,242.885912 234.468706,236.765163 C231.199535,225.470215 225.758871,215.225219 218.715438,205.839276 C211.946424,196.819226 204.254725,188.594595 196.582911,180.350078 C188.465662,171.620355 180.622833,162.667915 173.444179,153.142774 C166.122349,143.426732 159.385152,133.27321 153.28429,122.753795 C150.261699,117.543801 147.406145,112.238357 144.709676,106.853371 C142.26774,101.977453 140.227491,96.7396199 136.966274,92.3290221 C135.351574,90.1455973 133.518134,88.3081796 131.286984,86.7610898 C128.58256,84.8839012 126.021312,89.3104074 128.709827,91.1716876 C132.961341,94.1147376 135.268055,99.0105409 137.447502,103.532497 C139.881484,108.587384 142.398984,113.594546 145.083523,118.522167 C150.623614,128.683643 156.704591,138.546837 163.346338,148.024254 C169.98013,157.485761 177.146853,166.585354 184.802759,175.239511 C191.993344,183.364715 199.613456,191.096187 206.684729,199.328773 C213.64862,207.434091 220.019925,216.120066 224.514041,225.85997 C227.043472,231.336429 228.773508,237.142987 230.22117,242.989316 C231.664855,248.803828 233.120472,254.717768 233.856234,260.671478 C235.097087,270.733527 233.466479,280.994431 228.161036,289.736085 C222.501631,299.058394 213.374201,304.276342 203.296245,307.7563 C180.201261,315.72242 152.922375,321.954527 129.616605,311.474883 C126.864456,310.226076 124.42252,314.187262 127.206486,315.583222 L127.206486,315.583222 Z"/><path d="M238.970777 273.628852C242.737085 272.908998 247.294834 273.008425 249.160091 277.005405 249.824266 278.429205 249.868014 280.067768 248.937374 281.384186 247.867536 282.899459 246.586911 283.002864 244.908578 283.376711 242.255856 283.969298 242.375169 287.962301 244.908578 288.626475 248.102184 289.461665 251.514531 287.485049 253.343994 284.927778 255.252999 282.25517 255.618891 278.8468 254.437695 275.796369 251.836675 269.075079 243.568297 266.63712 237.411756 269.930154 235.284011 271.067603 236.819169 274.038493 238.970777 273.628852L238.970777 273.628852ZM44.9045061 133.95727C34.5123599 130.023924 24.8042739 124.479854 17.3750626 116.096139 9.79074469 107.537432 5.31253704 96.1032848 5.82160505 84.621413 6.09602452 78.3972601 8.01696084 72.3878703 10.0134619 66.5335872 12.1292759 60.337274 14.2331585 54.1847088 15.6410497 47.7736324 17.0370097 41.4142583 17.9517412 34.9554569 18.6556868 28.4887012 19.2283884 23.2230281 19.2681593 17.7545232 20.8908136 12.6678193 22.3543841 8.07427514 25.9974021 4.39546273 31.0960363 6.5868418 37.0577 9.14809066 38.8672777 16.1994792 40.4382298 21.8628618 41.4722742 25.5814451 47.2668999 23.9985615 46.2249013 20.2680469 44.5465677 14.2507029 42.5739291 7.71633664 37.52302 3.62788349 32.8777744-.126493719 26.2439819-1.51847679 21.1015995 2.13249596 16.7148651 5.24656095 14.8973332 10.6713179 14.0740747 15.769953 13.0002594 22.4276092 12.7815193 29.2045782 11.8031542 35.8821199 10.7571785 43.0289587 9.26179121 50.1042098 7.04654995 56.9845833 4.85119415 63.8132546 2.1149536 70.5067046.79853554 77.5859328-1.63146879 90.6506883 1.57406884 104.192695 9.19418062 115.050163 17.3034749 126.603623 29.9943814 135.046994 43.7789886 138.053678 46.4794353 138.646265 47.4379149 134.91575 44.9045061 133.95727L44.9045061 133.95727ZM54.5330503 20.7015502C61.6083002 21.0555116 68.719344 20.7413211 75.7428917 21.8389992 82.7465539 22.9327002 89.6229492 24.8218201 96.1175434 27.681351 97.4816866 28.2818923 99.2037682 28.1347398 99.999187 26.6632148 102.079207 22.8173645 104.489326 18.7647052 108.370969 16.4937842 111.131073 14.8790838 115.1718 14.2666113 117.90804 16.2829982 121.189143 18.6970946 120.970403 23.557104 120.214755 27.0887639 119.109123 32.2510326 117.474537 37.1229734 117.021149 42.4284174 115.263273 62.906477 125.213962 82.4260568 123.328819 102.876277 122.517492 111.681564 118.957993 121.071484 111.759453 126.611577 110.498715 127.581988 109.858403 129.117146 110.709501 130.616511 111.425378 131.873273 113.449718 132.609035 114.714434 131.666464 122.509538 125.855929 127.051379 117.090412 128.717782 107.612996 130.686443 96.3896356 128.753575 85.082756 126.55822 74.0423416 124.315139 62.7633016 121.598784 51.0308728 123.452109 39.4893446 124.331047 34.0208397 126.72128 28.7631207 126.669578 23.1554175 126.62583 18.3630186 124.728756 13.4274443 120.429518 10.9218748 116.030852 8.36062595 110.295883 8.83787729 105.933011 11.2201569 100.957667 13.9365124 97.66861 18.9078806 95.1073616 23.7957297 96.3999171 23.4576767 97.6964496 23.1156465 98.9890051 22.7775935 91.8779614 19.7589788 84.4924981 17.6073707 76.8206841 16.6011658 69.2880684 15.6148463 61.4452394 15.2569078 54.1075013 17.5119204 52.3297403 18.0567823 52.7035871 20.610077 54.5330503 20.7015502L54.5330503 20.7015502Z"/><path d="M36.8667995,94.4448364 C34.2021466,91.9750607 33.0646978,88.1212562 33.6533077,84.5538024 C34.3811159,80.1312733 37.86505,78.433054 41.3171675,76.205881 C45.8550316,73.2827166 47.9668684,69.0550651 50.917872,64.7359405 C52.8905105,61.8445928 56.6488642,59.0089244 59.5362343,62.484905 C62.5111005,66.0682672 60.5623245,71.4970011 58.7288843,75.151951 C56.7721541,79.0495036 54.2109057,82.5930948 51.7769243,86.1963424 C46.9686178,93.3113645 42.569952,101.396798 44.6420179,110.265718 C46.8174883,119.592005 55.1534769,125.967287 64.0303504,128.369453 C73.4759482,130.926724 85.800962,130.326183 93.4051654,123.537283 C97.1317023,120.212432 99.8918054,115.14959 100.114523,110.118566 C100.349171,104.852893 98.9691197,99.2412124 96.9646644,94.4130197 C94.9403236,89.545056 91.8143279,85.1105956 90.2314445,80.0676398 C89.0701331,76.3689419 88.4894774,71.1191772 91.7308089,68.2397607 C94.3517137,65.9091834 98.3964182,65.7978247 99.7685155,69.4328891 C101.33549,73.5849758 100.587797,78.2143138 102.421237,82.3425378 C103.475167,84.7168633 105.233042,86.4270139 107.265337,87.9820578 C108.840267,89.1831404 110.896424,90.3166123 111.827064,92.1341445 C114.058214,96.4930401 109.52035,100.203669 105.380195,98.9667929 C102.361581,98.0639924 100.178156,102.836506 103.180862,104.180764 C108.044848,106.356234 113.700275,105.071633 116.838202,100.617287 C119.884656,96.2902083 119.009695,90.2490017 115.466105,86.5304184 C113.911061,84.8958325 111.910583,83.7902002 110.20441,82.3385608 C108.625503,80.9943028 107.838039,79.4909611 107.396581,77.4944597 C106.457987,73.2707853 106.871605,68.6533786 104.377967,64.8910472 C101.697406,60.8463421 96.7101304,59.4344735 92.1802205,60.9895175 C87.5588375,62.5763782 84.3652311,66.4938163 83.4743621,71.2703068 C82.4204322,76.9336893 84.190239,82.434011 86.6361517,87.484921 C89.2411482,92.8619528 92.1444267,97.8134355 93.2858526,103.767146 C93.7750351,106.320441 94.2443322,109.283376 93.5682262,111.836671 C92.9438225,114.187134 91.5558168,116.47794 89.869529,118.219907 C85.9600457,122.260635 80.1375804,123.235024 74.736687,123.342405 C65.1956389,123.533306 53.6541126,119.301677 50.9536658,109.124292 C48.5316157,100.000837 55.9846895,91.6648474 60.5981184,84.6134588 C65.8001571,76.667224 72.0163548,63.5109954 62.149185,56.3919962 C57.0147568,52.6853442 50.7548112,55.035807 47.0362284,59.5259467 C45.2226736,61.7133487 44.00966,64.2388037 42.5341582,66.6449459 C40.8955955,69.3135763 38.7837587,70.8725973 36.2145561,72.5708167 C31.6130585,75.617271 28.3717271,79.5903885 28.2205975,85.3213816 C28.0933305,90.1853682 30.4676555,94.8147062 34.6555353,97.3162986 C36.4094337,98.3622745 38.4099119,95.8726133 36.8667995,94.4448364 L36.8667995,94.4448364 Z"/><path d="M52.146794 80.0994565C52.1786107 80.0835482 52.993915 79.4551672 53.0217546 79.4273276 53.0297088 79.4193734 53.037663 79.4114192 53.0456172 79.403465 53.0575485 79.3915337 53.0694798 79.3756253 53.081411 79.359717 53.208678 79.2085874 53.6461584 78.6478171 53.7535399 78.4887333 53.757517 78.4807791 53.7614941 78.476802 53.7694483 78.4688478 53.7734254 78.4608936 53.7813796 78.4529394 53.7853567 78.4410081 53.8171734 78.3853288 54.2029515 77.46662 54.2188599 77.4069636 54.2705621 77.0291396 54.3182872 76.6552927 54.3699894 76.2774687 54.393852 75.6928358 54.2705621 75.1479739 54.0040968 74.6389058 53.9046695 74.2809673 53.7217232 73.9667768 53.459235 73.7003115 53.1609529 73.2389685 52.7632435 72.8730758 52.2661068 72.6066105 51.9280538 72.4634351 51.5900009 72.3202597 51.2519479 72.1770843 50.874124 72.1253821 50.5002771 72.0776569 50.1224532 72.0259547 49.5378204 72.0020921 48.9929586 72.1253821 48.4838906 72.3918474 47.9589142 72.5628625 47.5015484 72.8571675 47.1157703 73.2707853 47.0879306 73.2946479 47.0640681 73.3264646 47.0362284 73.3503272 47.3225792 73.1276099 47.612907 72.9048926 47.8992578 72.6821753 47.5890445 72.9168239 47.2390602 73.0997702 46.976572 73.3940752 46.5589772 73.7798534 46.2646722 74.2372193 46.0936572 74.7661728 45.8271919 75.2752409 45.703902 75.82408 45.7277646 76.4087129 45.7794668 76.7865368 45.831169 77.1643608 45.8788941 77.5421848 46.0101382 78.098978 46.2646722 78.5802064 46.6424961 78.9938243 46.8333966 79.3159689 47.0879306 79.570503 47.4060981 79.7574264 47.8197159 80.1352504 48.3009443 80.3897844 48.8577374 80.5210286 49.2355613 80.5727308 49.6133852 80.624433 49.9912091 80.6721582 50.7667424 80.6801123 51.4826193 80.4852347 52.146794 80.0994565L52.146794 80.0994565ZM95.6005212 83.7345209C96.2129936 83.7583835 96.7817181 83.6311165 97.3106715 83.3527199 97.8595105 83.1737506 98.3367617 82.8675143 98.7384482 82.434011 99.1719515 82.0323245 99.4781877 81.5550731 99.6571569 81.0062341 99.9355535 80.4772805 100.06282 79.908556 100.038958 79.2960835 99.9872557 78.9023511 99.9315764 78.5086187 99.8798742 78.1148864 99.6690882 77.3632155 99.2872872 76.710972 98.7384482 76.1581559 98.4401662 75.9274844 98.1379071 75.6968129 97.839625 75.4661415 97.1476107 75.0644549 96.3999171 74.8616231 95.6005212 74.8616231 94.9880487 74.8377605 94.4193243 74.9650275 93.8903708 75.2434242 93.3415319 75.4223934 92.8642806 75.7286297 92.4625942 76.162133 92.0290909 76.5638195 91.7228547 77.0410709 91.5438855 77.5899099 91.2654889 78.1188635 91.1382219 78.687588 91.1620845 79.3000606 91.2137867 79.6937929 91.269466 80.0875253 91.3211682 80.4812576 91.5319542 81.2329285 91.9137552 81.885172 92.4625942 82.4379881 92.7608762 82.6686596 93.0631353 82.8993311 93.3614174 83.1300026 94.0534317 83.527712 94.8011253 83.7305438 95.6005212 83.7345209L95.6005212 83.7345209ZM70.2306396 115.344468C71.9169274 115.471735 73.4799253 115.622865 75.1423505 115.91717 76.8763634 116.219429 78.6581015 115.45185 79.1552382 113.638294 79.6324895 111.896327 78.5706054 110.138451 76.8763634 109.625406 74.5616948 108.925437 71.769775 108.845896 69.4193125 109.374849 67.9597191 109.704948 67.0290791 111.291809 67.2398651 112.711631 67.4784907 114.266675 68.6795731 115.225155 70.2306396 115.344468L70.2306396 115.344468ZM17.6574363 131.097739C16.034782 134.239644 15.8478586 137.970159 15.442195 141.450116 15.0126689 145.156768 14.7342723 148.887283 14.5155322 152.609843 14.0899831 159.92372 14.2053188 167.289299 14.4200819 174.61113 14.8575622 189.481487 16.07853 204.312072 16.965422 219.158566 17.7767491 232.748298 18.6994349 246.552793 17.5938028 260.150479 17.1404141 265.730342 16.4921478 271.294298 15.8478586 276.854276 15.6132101 278.870663 15.2791342 280.4615 13.616709 281.773942 12.1014362 282.971047 10.2759501 283.754535 8.68113551 284.836304-1.29341582 291.585434-1.68317101 307.927315 5.75797155 316.728625 8.16411332 319.572248 12.2326803 315.467886 9.84642401 312.644149 6.78406176 309.02897 6.1079558 303.500809 6.66872603 298.951013 6.94314551 296.719863 7.5914118 294.389285 8.84021927 292.500165 9.98959938 290.758198 11.755429 289.664497 13.5172816 288.626475 17.6932301 286.168631 20.7874091 283.567611 21.4237441 278.496816 22.0879188 273.171486 22.6645974 267.830248 23.1498029 262.485033 24.3270226 249.511751 23.6946647 236.407225 22.9151543 223.425988 22.0441708 208.953341 20.7595695 194.508534 20.0834635 180.027933 19.7056396 171.922614 19.5346246 163.809342 19.7135938 155.696069 19.805067 151.58773 19.8846088 147.479392 20.1311887 143.37503 20.3658372 139.469523 21.1692101 135.305505 20.3817456 131.455678 20.1311887 130.214824 18.2301378 129.98813 17.6574363 131.097739L17.6574363 131.097739ZM62.403719 190.177478C62.2406581 192.408628 62.8133596 194.619893 63.1633439 196.815249 63.5690075 199.368544 64.0303504 201.913884 64.4519223 204.467179 65.2592724 209.339119 66.0029889 214.219014 66.6273926 219.118795 67.8364292 228.564394 68.846611 238.045788 69.2204578 247.566952 69.6022588 257.302879 69.3477248 267.058692 68.2858408 276.746894 67.828475 280.942729 67.2398651 285.353327 65.2950662 289.159406 63.5729846 292.528005 60.4310804 294.552346 57.91358 297.260748 52.7552894 302.808794 50.2735828 313.682171 55.8176516 319.830759 57.9294884 322.173268 61.5725064 319.178515 60.0930275 316.533748 58.4783274 313.6424 58.2158392 310.365274 58.9635328 307.155759 59.7708829 303.695686 61.7793153 301.416811 64.3564721 299.070326 67.4426969 296.262497 69.8488386 293.434783 71.3959281 289.501436 72.9112009 285.647632 73.4719711 281.523385 73.9213827 277.430954 76.0014028 258.611343 75.1383734 239.382091 72.2191866 220.697701 71.3839969 215.348509 70.4175631 210.02318 69.3397706 204.717736 68.8267255 202.192281 68.3176575 199.662849 67.7290476 197.153302 67.1165752 194.540351 66.6631865 191.744453 65.3865394 189.366151 64.5911206 187.87474 62.5150776 188.686068 62.403719 190.177478L62.403719 190.177478ZM137.952593 176.392869C136.437321 185.496438 136.143016 194.743183 135.606108 203.954133 135.061246 213.264512 134.353323 222.566936 133.486317 231.853451 131.748327 250.434437 129.421727 268.955766 126.422998 287.373691 124.716825 297.857312 122.795889 308.301162 120.680075 318.709218 119.964198 322.220993 125.357137 323.724334 126.073014 320.196652 133.553928 283.396596 138.501432 246.095427 140.724628 208.607334 141.353009 198.03224 142.072863 187.309993 140.808147 176.778647 140.633155 175.319053 138.246898 174.619084 137.952593 176.392869L137.952593 176.392869Z"/><path d="M135.31578,261.371447 C135.486795,261.916309 135.546452,261.948125 135.498727,261.466897 C135.649856,261.256111 135.793031,261.037371 135.93223,260.818631 C136.214603,260.297631 136.604359,259.840265 136.970251,259.378922 C137.594655,258.587481 138.246898,257.83581 138.986638,257.147772 C140.617246,255.628522 142.550114,254.423463 144.459119,253.289991 C148.444167,250.919642 152.632047,248.899278 156.219385,245.91248 C160.451013,242.392752 163.302589,237.560582 165.585441,232.625008 C168.26998,226.822427 170.604534,220.844854 173.074309,214.946823 C173.647011,213.578702 172.457859,211.967979 171.173258,211.598109 C169.614237,211.148697 168.385315,212.146948 167.824545,213.49916 C165.23148,219.763084 162.87704,226.202 159.826609,232.263092 C157.169911,237.548651 153.77745,241.835959 148.770289,245.03752 C144.574455,247.718081 139.925232,249.889575 136.389596,253.476914 C134.731147,255.159225 133.275531,257.12391 132.651127,259.434602 C132.261372,260.870333 132.472158,264.139505 134.842506,263.177048 C135.625994,262.85888 135.868596,262.039599 135.31578,261.371447 L135.31578,261.371447 Z"/></g></svg>