<svg xmlns="http://www.w3.org/2000/svg" width="187" height="279" viewBox="0 0 187 279"><g transform="translate(.423 .091)"><path d="M116.210625,6.94781627 C111.100059,1.16512086 102.199323,0.210618184 94.9808978,1.46340295 C87.6749764,2.728119 81.0332297,7.01144978 76.3561674,12.6947178 C71.2416247,18.9148936 68.4298194,26.3162665 67.2724851,34.2426158 C65.9878838,43.0319947 66.377639,52.0242053 64.6038551,60.7459736 C61.3028672,76.9804733 51.2209344,90.8008767 40.9202614,103.356564 C29.8798489,116.815052 18.143445,129.927532 11.0880805,146.042719 C7.07916994,155.197991 4.30315845,164.79472 2.44187854,174.606212 C0.445377434,185.12165 -0.735819434,195.895599 0.512988029,206.578075 C0.815247161,209.183072 4.02476188,211.227298 6.14455289,208.912629 C15.176533,199.053412 24.2085131,189.194195 33.2404932,179.334977 C36.0880923,176.22489 31.4627322,171.575666 28.5992247,174.693708 C19.5592904,184.544971 10.5193561,194.396234 1.47942183,204.247497 C3.35661012,205.027008 5.23379841,205.802541 7.1109867,206.582052 C6.07296521,197.601772 6.68543766,188.561837 8.18082494,179.67303 C9.61257872,171.166025 11.6647591,162.734585 14.6356482,154.629266 C20.4143656,138.860087 30.6116341,125.914644 41.2225205,113.136239 C51.5271706,100.723728 61.9511335,88.0169106 67.6980341,72.7448677 C70.617221,64.9855563 71.6512654,56.9518254 72.1324937,48.7192398 C72.6057679,40.6735776 72.8165539,32.2898624 75.9902748,24.7492913 C78.9134387,17.8013072 84.3859198,11.5572688 91.429353,8.61421886 C95.0962335,7.08303748 99.1170754,6.53817553 103.062352,6.88020566 C107.015584,7.22621288 110.706327,8.68580657 114.349345,10.1652857 C116.270281,10.9408191 117.348074,8.23241779 116.210625,6.94781627 L116.210625,6.94781627 Z"/><path d="M102.2033 24.3515818C102.839635 24.3754444 103.432222 24.2442003 103.985038 23.9538724 104.55774 23.7669489 105.054876 23.4487814 105.472471 22.9993697 105.921883 22.5817748 106.244028 22.0846379 106.426974 21.5119363 106.717302 20.9591202 106.848546 20.3665331 106.824683 19.730198 106.769004 19.3205573 106.713325 18.9109165 106.657645 18.5012758 106.438905 17.7177882 106.041196 17.037705 105.468494 16.4610263 105.158281 16.2184235 104.844091 15.9797979 104.533877 15.7371951 103.814023 15.3196002 103.034513 15.1088142 102.199323 15.1048371 101.562988 15.0809745 100.970401 15.2122186 100.417585 15.5025465 99.8448836 15.68947 99.3477468 16.0076375 98.930152 16.4570492 98.4807404 16.8746441 98.1585958 17.371781 97.9756495 17.9444826 97.6853216 18.4972987 97.5540775 19.0898858 97.5779401 19.7262209 97.6336194 20.1358616 97.6892987 20.5455024 97.744978 20.9551431 97.9637182 21.7386307 98.3614276 22.4187139 98.9341291 22.9953926 99.2443424 23.2379953 99.5585328 23.476621 99.8687461 23.7192238 100.5886 24.1407958 101.36811 24.3515818 102.2033 24.3515818L102.2033 24.3515818ZM44.9291719 163.625454C44.6269128 164.337354 43.8633108 164.587911 43.5610517 165.331628 43.2309529 166.142955 43.2309529 167.24461 43.1434568 168.099685 42.9446021 170.139935 42.9326708 172.204047 42.8928999 174.252251 42.813358 178.090147 42.9764189 181.943951 43.1792507 185.773893 43.5928684 193.473548 44.6507754 201.212974 46.2734297 208.749568 47.7608627 215.665736 49.8448599 222.438728 52.6248485 228.945254 53.9850146 232.12693 55.5002873 235.240995 57.2064606 238.247678 58.1172151 239.850447 59.0796718 241.4214 60.0978078 242.960535 61.1040125 244.483762 62.0346525 246.158119 63.6692381 247.064897 65.6219911 248.154621 67.7139425 246.364928 67.2844164 244.284908 66.9145466 242.487261 65.5663118 241.047553 64.5879467 239.536257 63.7129861 238.184045 62.8777964 236.800016 62.0823776 235.396101 60.3881357 232.401349 58.8569545 229.299216 57.5325823 226.121517 54.9514484 219.929181 53.0066495 213.474357 51.5828499 206.924082 50.0118979 199.689747 49.168754 192.367916 48.5244648 185.002337 48.1903889 181.164441 48.0034655 177.31859 47.7370002 173.476717 47.6176874 171.746681 47.5739393 169.99676 47.3711075 168.278655 47.263726 167.371877 47.2557718 166.186703 46.9057876 165.327651 46.6035284 164.583934 45.8399264 164.3294 45.5376673 163.621477 45.442217 163.394783 45.0285993 163.394783 44.9291719 163.625454L44.9291719 163.625454ZM88.0090523 246.138234C85.9011926 240.868584 84.5131868 235.201224 83.0854102 229.704879 81.6417251 224.144901 80.4326886 218.513335 79.5020486 212.841999 77.6725854 201.729997 76.8692125 190.474819 76.1931065 179.243504 74.8011237 156.160448 73.1029046 132.484804 78.3645998 109.743778 79.5537508 104.601395 80.9536879 99.3317444 83.1609749 94.5194601 85.113728 90.2560148 87.5675949 85.3681656 91.7793373 82.9461151 95.6132557 80.7428047 100.381791 80.1541947 104.450358 82.0472917 109.270596 84.2943501 112.348867 88.8481233 114.647627 93.4615529 119.599109 103.408266 121.726854 114.667421 122.764875 125.648179 123.902324 137.659004 124.121064 149.805051 123.969935 161.859624 123.627905 189.249874 119.85762 216.254346 112.313073 242.602597 111.084151 246.901836 117.773623 248.735276 118.998567 244.447969 126.149382 219.428067 130.03898 193.680357 130.754857 167.670159 131.104841 155.003113 130.925872 142.260502 129.987278 129.625273 129.088454 117.562746 127.211266 105.440562 122.494433 94.2291322 118.254851 84.1551518 110.248961 72.8761118 97.8245199 74.1010569 92.4633974 74.6300105 87.0306872 76.797527 83.4672112 80.9774533 79.8878267 85.173288 77.3385096 90.2480606 75.4334816 95.3944209 66.8787528 118.493386 67.3878208 143.946791 68.712193 168.167296 69.3803448 180.396862 70.0524737 192.65029 71.6274028 204.804291 73.162561 216.644101 75.1670163 228.873667 79.9713457 239.882264 81.1565196 242.594643 82.5564567 245.227479 83.8490122 247.892132 84.9625984 250.174985 88.971509 248.544376 88.0090523 246.138234L88.0090523 246.138234ZM151.217005 163.756698C150.234662 165.148681 150.242617 167.073595 150.031831 168.720112 149.793205 170.593324 149.586396 172.462558 149.379587 174.339747 149.001763 177.807773 148.468833 181.251937 147.939879 184.700078 146.818339 191.990092 145.175799 199.208519 143.159412 206.307632 139.150502 220.422341 133.125205 233.697882 125.612474 246.281409 123.413142 249.968176 129.056638 253.225416 131.343467 249.630123 143.950854 229.804307 152.07208 206.47467 154.374817 183.093332 154.696962 179.840068 154.820252 176.554988 154.891839 173.289794 154.927633 171.647254 154.879908 170.012668 154.760595 168.370128 154.649237 166.819061 154.661168 165.077094 153.758368 163.756698 153.106124 162.798218 151.873225 162.826058 151.217005 163.756698L151.217005 163.756698ZM67.5111107 251.98854C60.4477921 254.645239 54.1520525 260.750079 49.932356 266.886736 48.238114 269.348557 51.0260568 272.279676 53.6071907 271.663226 55.9576531 271.102456 59.5688543 269.957053 61.6767141 271.806402 62.6590562 272.669431 63.0567656 274.093231 63.8004822 275.151138 64.7470305 276.499373 65.9679983 277.684547 67.5469046 278.245318 70.5257478 279.299248 73.1864236 277.958967 74.8647572 275.457374 75.3181459 274.781268 75.6999469 273.540415 76.3561674 273.059186 76.4953657 272.959759 75.5090464 273.063163 76.6146785 273.02737 76.2885568 273.039301 77.3782805 273.285881 77.3424867 273.27395 79.3389878 274.037552 81.045161 275.377832 83.1768833 275.827244 85.8653987 276.391992 88.633456 275.485214 90.1606601 273.106912 91.7157038 270.684861 91.4015134 267.690109 90.709499 265.037387 89.8544239 261.760261 88.6135706 258.499043 87.018756 255.512245 85.6426815 252.931111 81.1883364 254.700918 82.2144266 257.536587 83.2564252 260.412026 84.1989964 263.299396 84.7478354 266.318011 84.9148733 267.240697 84.9546443 268.09975 84.8949878 269.03039 84.8910108 269.121863 84.5330723 269.869557 84.8432856 269.511618 84.9307817 269.412191 85.5631396 269.881488 84.6245455 269.527526 81.5820687 268.378146 77.99473 265.59418 74.2483077 266.89469 72.0449977 267.658292 70.8638008 269.499687 69.7303291 271.400738 69.6269246 271.571753 69.3127342 272.052981 69.2411465 272.208088 69.3962532 272.335355 69.5911308 272.323424 69.8297564 272.172294 69.6905581 272.128546 69.5831766 272.037073 69.5076118 271.905829 69.4519325 271.571753 68.83946 270.907578 68.6565137 270.581457 68.3144837 269.968984 67.9963162 269.348557 67.5946297 268.775856 63.8720699 263.502228 57.4490633 263.991411 51.885109 265.395325 53.1100539 266.99014 54.3349988 268.580978 55.5599437 270.171816 57.5047426 267.260583 59.9466782 264.810692 62.4562244 262.388642 64.9737248 259.958637 67.7417822 257.803052 69.8178251 254.975338 70.828007 253.579378 69.1178566 251.384021 67.5111107 251.98854L67.5111107 251.98854ZM108.872887 253.332798C103.249276 256.005405 99.7454562 262.229558 97.8364512 267.92078 96.9654676 270.517823 95.7126831 274.339811 98.4051756 276.320404 101.384019 278.507806 104.561717 275.361924 106.983767 273.779041 108.137124 273.02737 109.421726 272.208088 110.849502 272.220019 112.217622 272.227974 112.794301 273.3694 113.629491 274.30004 115.852686 276.77777 119.444002 278.05044 122.255807 275.711908 123.102928 275.007963 123.715401 274.109139 124.272194 273.166568 124.475026 272.824538 124.817056 272.391035 124.940346 272.021165 124.984094 271.889921 125.163063 271.830264 125.226696 271.714928 124.614224 271.862081 124.514797 271.961508 124.924437 272.013211 125.107384 272.052981 125.29033 272.108661 125.465322 272.176271 128.460074 273.106912 131.924122 275.159092 135.073981 273.667682 138.573823 272.017188 138.97551 267.427621 137.953397 264.110724 136.83981 260.491568 134.262654 257.580335 131.673565 254.919658 129.116294 252.294776 125.353963 256.184374 127.692495 258.90073 129.20379 260.658606 130.806559 262.543749 131.701405 264.711265 132.115023 265.71747 132.14684 266.616293 132.238313 267.662269 132.329786 268.676428 132.011618 267.881009 132.58432 268.036116 132.246267 267.944643 131.920145 267.881009 131.578115 267.777605 129.247538 267.053774 126.869236 265.697584 124.375598 265.81292 122.164334 265.916325 120.60929 267.324216 119.475819 269.105954 119.17356 269.579229 118.608812 270.279197 118.465637 270.820082 118.370187 270.915532 118.278713 271.007006 118.183263 271.102456 119.058224 271.054731 119.284918 270.939395 118.855392 270.756449 118.83153 270.629182 118.143492 270.088297 118.000317 269.925236 116.441296 268.147475 114.953863 266.628225 112.519882 266.190744 110.145557 265.761218 107.775209 266.33392 105.639509 267.38785 104.605465 267.900895 103.658917 268.56507 102.712368 269.22129 101.881156 269.797969 100.660188 270.903601 99.7812501 271.026891 100.330089 271.026891 100.878928 271.026891 101.427767 271.026891 101.316408 270.98712 101.209027 270.947349 101.097668 270.911555 101.551057 271.178021 102.008423 271.440509 102.461811 271.706974 102.386247 271.623455 102.306705 271.543913 102.23114 271.460394 102.497605 271.913783 102.760093 272.371149 103.026559 272.824538 102.664643 271.957531 103.471993 270.175793 103.766298 269.237199 104.291274 267.562842 104.987266 265.987912 105.790639 264.428891 107.361591 261.374483 109.513199 258.697898 111.286983 255.762802 112.273302 254.136171 110.388159 252.608966 108.872887 253.332798L108.872887 253.332798Z"/><path d="M123.568248,10.1493773 C135.817697,9.82723269 147.681368,6.55010682 159.895023,5.92968008 C159.397887,4.09226242 158.90075,2.25086766 158.399636,0.413450004 C150.660211,4.9035897 142.940672,9.42554614 135.233064,13.9673881 C132.174679,15.7690119 129.100386,17.5467731 126.077794,19.4040762 C122.876234,21.3687609 121.158129,24.2720399 120.346802,27.8872188 C118.549156,35.9090184 119.937162,44.435909 121.59561,52.3662355 C123.206333,60.0738446 125.624406,67.5746448 128.702676,74.820911 C131.880374,82.2978487 135.825651,89.3770769 140.399309,96.0904124 C144.96899,102.795794 150.007968,109.163122 154.760595,115.741236 C163.736896,128.16568 170.931459,141.592351 175.190926,156.367257 C179.832195,172.470512 181.017369,189.579973 177.640816,206.045144 C179.442439,205.567893 181.240086,205.094618 183.041709,204.617367 C176.797672,197.613704 170.744535,190.41914 164.70333,183.240484 C162.706829,180.866159 158.562697,184.016018 160.368297,186.585221 C165.952137,194.507593 172.025159,201.952714 178.472029,209.191026 C180.039004,210.948902 183.391694,210.093826 183.872922,207.763249 C189.922082,178.388429 182.727519,147.494359 167.033907,122.227877 C158.642239,108.717687 147.756933,96.913671 139.97376,83.0017944 C132.48887,69.6228485 127.183427,54.1241112 126.089726,38.7605952 C125.827238,35.049966 125.528956,30.0785979 127.422052,26.7099988 C128.249288,25.2384739 129.828194,24.5385052 131.220177,23.6953612 C132.946236,22.6493854 134.668317,21.6073866 136.398353,20.5693649 C144.730365,15.5582259 153.074307,10.5709494 161.386434,5.52401644 C163.760759,4.08033113 162.941477,-0.206976738 159.891046,0.00778636483 C147.375132,0.886724249 135.408057,4.59735342 123.063157,6.44670236 C120.951321,6.76884702 121.476297,10.2050567 123.568248,10.1493773 L123.568248,10.1493773 Z"/></g></svg>