<svg xmlns="http://www.w3.org/2000/svg" width="447" height="328" viewBox="0 0 447 328"><g transform="translate(.774 .179)"><path d="M127.22174 48.509995C120.508406 50.9042059 114.435384 56.4761153 114.200735 64.040549 113.96211 71.6487308 120.321483 76.4610151 127.595587 75.2559555 129.325623 74.9696047 130.980094 74.3690634 132.555023 73.5975071 134.261197 72.7583402 135.84408 71.3424945 137.701383 70.8692203 139.674021 70.3681064 140.584776 72.0941654 141.889262 73.2634312 143.146024 74.3889489 144.538007 75.2400471 146.112936 75.8485426 152.034829 78.1353719 159.416315 76.0036493 162.820707 70.5550298 166.678488 64.3825792 164.614377 55.6926277 158.612942 51.751327 155.650007 49.8065278 153.148415 54.3960949 155.884656 56.420436 159.189621 58.8663491 160.27139 64.0206636 158.19137 67.5602777 155.984083 71.318632 150.499671 72.328814 146.836767 70.2010684 144.50619 68.8448792 143.217612 66.3273784 140.461486 65.5677533 137.311627 64.7007467 134.364601 66.2876074 131.739719 67.8625368 127.774556 70.2408393 120.890207 71.9350816 119.58572 65.7268371 118.229531 59.2561043 124.744011 55.0364071 128.832463 51.2780528 130.021614 50.192306 128.788715 47.9492247 127.22174 48.509995L127.22174 48.509995ZM129.580157 39.1996168C134.810035 39.1996168 134.81799 31.0704356 129.580157 31.0704356 124.350279 31.0704356 124.338347 39.1996168 129.580157 39.1996168L129.580157 39.1996168ZM166.328504 42.5165136C172.015748 42.5165136 172.023702 33.6794096 166.328504 33.6794096 160.64126 33.6794096 160.633306 42.5165136 166.328504 42.5165136L166.328504 42.5165136Z"/><path d="M142.203453 53.0717224C141.356332 52.2922119 140.389898 51.6757622 139.447327 51.0195416 139.029732 50.7292137 138.540549 50.2479853 138.107046 50.0014054 137.613887 49.2974597 137.36333 49.5161999 137.351398 50.6536489 136.734949 51.584289 136.762789 51.8984795 137.438894 51.5962203 138.480893 51.9263192 140.00412 51.7234874 141.109752 51.8825711 141.59098 51.9541588 142.314812 52.2723264 142.756269 52.1927845 143.50794 52.4473186 143.396581 51.9302963 142.422193 50.6456947 142.108003 50.7610305 141.785858 50.8445495 141.451782 50.9002288 138.043413 51.6558767 139.483121 56.9454124 142.899444 56.1460164 145.953852 55.4301394 148.944627 52.506975 147.182774 49.1701927 146.383379 47.6509426 144.808449 47.1140348 143.229543 46.8435924 141.40008 46.5254248 139.44335 46.2470282 137.58207 46.3424785 134.730494 46.4856539 131.56075 48.5855598 133.008412 51.8109834 134.181655 54.4239345 138.011596 56.4840695 140.791585 56.4800981 142.465941 56.4761153 143.499985 54.2648507 142.203453 53.0717224L142.203453 53.0717224ZM123.053746 84.1407846C125.833735 90.7785554 124.716171 98.211745 123.519066 105.072233 122.095266 113.245162 120.528292 121.394229 118.917569 129.535341 115.751802 145.551101 112.506493 161.554929 110.350908 177.745681 108.179415 194.067677 107.304455 210.46126 108.50156 226.898592 109.102101 235.1272 110.060581 243.323992 110.911679 251.532715 111.337228 255.637077 111.734937 259.741438 112.053105 263.857731 112.295707 267.047361 113.071241 271.10002 110.995198 273.860124 107.825454 278.071867 100.805883 278.095729 96.0890499 278.23095 87.6615881 278.473553 79.2341263 278.779789 70.8106415 279.169545 53.9636721 279.953032 37.1365881 281.05071 20.3293895 282.462579 16.197189 282.808586 12.001355 283.007441 7.91290259 283.715364 4.87838 284.24034 1.12002633 285.159049.197340557 288.539579-.649780429 291.649667 1.33478939 294.202962 4.15454892 295.197236 7.92085678 296.525585 11.9536299 297.146012 15.8790215 297.802232 32.4436173 300.578244 49.1792282 302.216807 65.9347245 303.262783 74.2587819 303.779806 82.5947706 304.15763 90.9307592 304.459889 98.5031459 304.734308 106.139166 305.147926 113.683713 304.189446 120.683398 303.298577 127.551839 301.226511 133.155564 296.803982 137.983756 292.993925 141.980736 287.497581 143.213635 281.384786 143.842016 278.262767 143.786336 275.140748 143.018757 272.046569 142.104026 268.371733 136.384965 269.930754 137.339467 273.613544 138.779175 279.173522 136.675292 284.932355 132.968641 289.156029 128.605769 294.12342 122.727624 296.776142 116.324503 298.052789 109.277093 299.456704 101.983103 299.166376 94.8402425 298.931727 86.7627649 298.665262 78.6892644 298.343117 70.619741 297.893706 54.4886484 297.002836 38.361533 295.638693 22.385547 293.200734 18.4800409 292.60417 14.5546493 292.007606 10.6928912 291.160485 9.8417931 290.973561 8.99069502 290.770729 8.14755113 290.548012 7.57087252 290.392905 6.13116455 289.684983 5.53857757 289.792364 5.47096698 289.804295 5.57834851 290.011104 5.55846304 290.007127 5.85674508 290.118486 4.90224256 290.110532 5.54255467 290.150303 5.9084473 290.174165 6.61239291 289.752593 7.02203357 289.637257 10.6690286 288.599236 14.6063515 288.547534 18.3647052 288.225389 22.4332722 287.875405 26.5058163 287.545306 30.5783603 287.235092 46.8685367 285.986285 63.1785985 285.035759 79.5005916 284.379539 86.8343526 284.085234 94.3232203 284.315905 101.61721 283.472761 107.01015 282.848357 112.780913 281.269451 115.942702 276.477052 117.883524 273.534002 118.034654 269.942686 117.819891 266.538293 117.569334 262.557221 117.195487 258.584104 116.801755 254.61894 116.010313 246.664751 115.059787 238.726471 114.379704 230.76035 113.027493 214.943446 113.377477 199.190174 115.202963 183.424972 117.008563 167.838738 120.015246 152.411589 123.006021 137.016256 124.517317 129.237059 126.036566 121.461839 127.424572 113.662757 128.661448 106.706819 130.570453 99.1145454 129.830714 92.0074776 129.476753 88.6030847 128.506342 85.5128822 126.601314 82.6533513 125.463865 80.9432007 122.1589 81.9971307 123.053746 84.1407846L123.053746 84.1407846ZM147.377652 267.830848C148.622482 270.316532 151.064418 272.324965 153.120575 274.130566 155.323885 276.063434 157.634577 277.853126 160.020833 279.551346 164.757552 282.915968 169.764713 285.827201 175.022431 288.300954 185.665134 293.312093 196.968035 296.593196 208.632851 298.076652 215.175171 298.907865 221.987932 299.281712 228.554114 298.49027 230.172791 298.295392 231.572728 297.241462 231.572728 295.471655 231.572728 293.849001 230.1887 292.429178 228.554114 292.45304 217.33871 292.596216 206.481243 292.023514 195.576052 289.163983 184.893578 286.360132 174.807668 281.850106 165.453543 275.9998 162.81673 274.353283 160.279344 272.563591 157.761844 270.746059 155.256275 268.940458 152.834225 266.466705 149.986626 265.233806 148.25659 264.482135 146.474852 266.029225 147.377652 267.830848L147.377652 267.830848Z"/><path d="M242.947217,263.412296 C241.038212,269.461457 239.793381,275.689587 239.276359,282.013167 C238.807062,287.772 238.72752,293.833092 240.381991,299.428864 C243.480147,309.924417 252.961539,315.289517 262.979838,317.85872 C275.463936,321.060281 288.715613,321.414243 301.501969,322.492035 C315.095676,323.637438 328.685406,324.778864 342.283089,325.88052 C348.904951,326.417427 355.558629,326.958312 362.208329,326.931503 C366.555293,326.910587 370.242059,323.418698 368.770534,318.852994 C367.597292,315.225883 362.729329,313.921397 359.643104,312.378284 C355.892704,310.501095 352.170145,308.568227 348.475424,306.583657 C329.56832,296.422181 311.142445,284.944286 294.669322,271.131837 C287.232157,264.895753 280.236448,258.472745 275.646882,249.794725 C271.498773,241.947917 269.339211,233.198309 268.08245,224.460633 C265.334278,205.366602 266.742169,185.930541 265.556995,166.729129 C264.964408,157.168194 263.830936,147.547602 261.22594,138.308812 C257.905067,126.520704 252.293387,115.496198 247.023738,104.495554 C241.51944,92.993797 236.92192,81.1738721 232.21304,69.3340618 C227.73881,58.0828615 222.986183,46.8634779 216.57113,36.5548489 C204.997787,17.9619321 187.590048,2.33592784 164.980269,0.212159381 C154.22223,-0.798022622 143.321016,1.7910659 134.531639,8.1544171 C125.988841,14.338799 119.46243,23.0367047 115.938725,32.9834181 C114.236529,37.7837711 113.401339,42.8187728 113.325411,47.9054766 C113.274072,51.4331595 118.754508,51.4331595 118.80621,47.9054766 C119.104492,28.2307901 134.185632,9.20039295 153.864292,6.02667154 C174.98266,2.61830155 194.386901,15.4364771 206.556808,31.674954 C220.603904,50.4229775 227.269513,73.1918435 236.381035,94.465322 C241.145593,105.585278 246.960104,116.227983 251.545694,127.423504 C255.216551,136.383898 257.757914,145.60678 258.978882,155.219418 C261.32139,173.617457 260.271437,192.226282 261.337299,210.703863 C262.323618,227.781507 265.095652,245.813653 275.646882,259.840865 C281.652294,267.826871 289.785451,274.229993 297.632257,280.314948 C306.07165,286.853291 314.892844,292.878589 323.964595,298.502201 C332.010256,303.485501 340.250794,308.158587 348.630531,312.565207 C351.99913,314.335014 355.387614,316.061073 358.79996,317.739407 C360.215805,318.435399 361.874254,319.000146 363.190672,319.867153 C363.982113,320.388152 364.308235,321.36254 363.186695,321.776158 C362.327642,322.090349 360.780553,321.788089 359.865821,321.772181 C358.302823,321.748318 356.739825,321.696616 355.176828,321.629006 C351.788344,321.481853 348.39986,321.251182 345.015353,320.992671 C338.699728,320.511442 332.384103,319.986466 326.072455,319.481375 C313.170763,318.44733 300.261116,317.480896 287.359424,316.458783 C281.047776,315.957669 274.724196,315.40883 268.49209,314.247518 C263.636059,313.340741 258.720371,312.155567 254.341591,309.805104 C249.748047,307.339305 246.17264,303.644584 244.526123,298.629468 C242.81995,293.435383 242.835858,287.795863 243.158003,282.394968 C243.523895,276.27422 244.605665,270.233013 246.29593,264.338959 C246.908402,262.179397 243.615368,261.288528 242.947217,263.412296 L242.947217,263.412296 Z"/><path d="M268.897754,142.019441 C276.768423,148.76857 286.476509,151.107102 296.486854,152.709871 C307.901113,154.535357 319.379006,155.903478 330.825082,157.514201 C352.516152,160.560655 374.553229,164.736605 394.259729,174.723089 C411.408957,183.41304 426.426464,196.63688 434.567575,214.323019 C436.528282,218.582487 437.944127,223.120352 438.866813,227.713896 C439.857109,232.64947 440.405948,238.169678 437.852654,242.739359 C435.752749,246.501691 432.244952,249.186229 428.641705,251.409425 C424.199291,254.149643 419.450641,256.444427 414.749716,258.699439 C403.558174,264.072494 391.984831,268.626267 380.145023,272.360759 C374.334489,274.1942 368.464298,275.828785 362.542405,277.260539 C359.464135,278.004256 356.373933,278.704225 353.267823,279.328629 C352.022992,279.579185 349.175393,280.374604 348.391905,279.050232 C348.391905,280.072345 348.391905,281.094458 348.391905,282.116572 C350.599193,277.348035 354.970019,274.50839 359.281188,271.799989 C364.519021,268.506954 369.856281,265.373004 375.285014,262.402114 C380.70977,259.427248 386.225999,256.619419 391.817793,253.974651 C396.284069,251.862814 401.677009,248.327177 399.024287,242.564367 C396.391451,236.845305 389.777544,237.171427 384.595391,238.384441 C379.289947,239.625294 374.107794,241.359307 369.033022,243.335923 C358.760189,247.33688 348.912905,252.308248 338.823018,256.722823 C327.850216,261.523176 316.340506,265.623561 304.293889,266.375232 C300.551444,266.60988 300.523604,272.460186 304.293889,272.229515 C320.130677,271.255127 334.742519,265.102562 348.996424,258.576149 C356.155193,255.299024 363.270213,251.910539 370.611929,249.062939 C374.270855,247.643117 377.981484,246.354538 381.759723,245.280723 C383.545438,244.771654 385.347061,244.306334 387.164593,243.912602 C388.886675,243.542732 391.372359,242.977985 392.907517,244.194976 C395.731253,246.43408 389.507102,248.458421 388.123073,249.114642 C384.098254,251.023647 380.113206,253.016171 376.171906,255.096192 C368.539863,259.121011 360.979407,263.400365 353.768936,268.149016 C349.497538,270.964799 337.120822,280.458123 346.089168,284.88463 C349.402087,286.519215 353.263845,285.532896 356.672215,284.805088 C360.963499,283.890356 365.226944,282.87222 369.466526,281.746702 C386.317472,277.276448 402.730938,271.143768 418.416597,263.531609 C425.364579,260.159033 432.857424,256.758617 438.508875,251.365677 C441.149665,248.844199 443.265479,245.801722 444.45463,242.333695 C445.878429,238.181609 445.667643,233.711355 445.0154,229.435978 C442.74448,214.585507 434.838017,200.8526 424.577115,190.074674 C413.449206,178.385993 399.286775,170.157384 384.313017,164.410483 C367.975116,158.142582 350.686689,154.92909 333.418147,152.495108 C324.187312,151.194598 314.924661,150.144645 305.677918,148.963448 C297.544761,147.925426 289.455352,146.807863 281.584683,144.449446 C277.766673,143.30802 274.067976,141.836495 270.647675,139.77636 C269.275578,138.945147 267.637015,140.937671 268.897754,142.019441 L268.897754,142.019441 Z"/></g></svg>