<svg xmlns="http://www.w3.org/2000/svg" width="226" height="218" viewBox="0 0 226 218"><g transform="translate(.875 .513)"><path d="M44.956632 122.404651C45.1833263 123.796634 46.0861266 124.84261 46.2929355 126.250501 46.5116756 127.733958 46.2611187 129.324796 45.8196613 130.744618 44.7657315 134.133103 41.9380177 136.722191 39.5438073 139.199921 34.4173333 144.497411 30.6430713 150.474984 30.2334306 158.027487 29.9152631 163.869838 33.0850069 175.387504 40.9914694 173.991544 48.305345 172.698988 49.7808468 162.95113 52.1074467 157.343426 53.4556815 154.098117 55.6788769 151.465281 58.7412392 149.723313 62.1058606 147.810331 65.5738864 147.64727 69.3441713 147.631362 72.4423274 147.61943 72.8440139 143.352008 70.052094 142.393528 63.7563545 140.233966 56.0726092 143.355985 51.4750887 147.762606 48.9734967 150.156817 47.3587966 153.099866 46.1258975 156.301428 44.9685632 159.308111 44.2606405 162.533535 42.5982153 165.325455 42.1766434 166.037355 40.9397672 168.161123 39.9375395 168.101467 38.7483885 168.029879 37.6825273 165.564081 37.3007263 164.669234 36.099644 161.873337 35.9326061 158.576326 36.5291701 155.617367 37.161528 152.47944 38.4699919 149.50855 40.4306992 146.971164 42.7175281 144.008228 45.6287608 141.586178 47.883773 138.587449 50.0910601 135.652353 51.7733708 132.025243 51.6421267 128.266888 51.5307681 125.069304 50.0831059 120.770065 46.4798589 120.400195 45.3583184 120.280883 44.8094795 121.497874 44.956632 122.404651L44.956632 122.404651ZM40.9238588 117.898603C37.7580921 119.600799 33.4429453 120.515531 29.8914005 120.945057 26.22452 121.390492 22.4224183 121.227431 18.7953087 120.563256 12.1853788 119.358197 6.47029495 114.673179 6.33507376 107.669516 6.19587548 100.677784 10.2326257 95.0501951 15.0608176 90.3890404 20.7281763 84.9205354 27.0994807 80.2872203 32.5600305 74.5761126 38.9591745 67.8906168 44.5310829 60.3937936 49.1325805 52.3680169 47.3906134 52.5907342 45.6526234 52.8174286 43.9106563 53.0401459 47.6928725 57.8603844 50.6955784 63.2254849 53.519315 68.6462647 55.0186794 71.5256811 59.8389171 69.5450881 58.8008956 66.4190918 56.5816772 59.7455272 52.9545677 53.8276106 48.6155583 48.3352431 47.2713006 46.6330467 44.3560908 47.3171069 43.3936341 49.0073721 38.9154264 56.8899734 33.5224872 64.1720334 27.2187935 70.6904913 21.1736108 76.9424839 13.8438269 81.8780581 8.0531783 88.3607222 2.91477307 94.1116008-.700405223 101.349913.114899012 109.2524.981905467 117.671909 7.2140115 123.764817 15.2079701 126.095395 19.8373073 127.44363 24.9637813 127.356134 29.6965229 126.684005 32.0549396 126.349929 34.3457456 125.809044 36.5729182 124.957946 38.9989454 124.031283 40.7767063 122.675094 42.8527493 121.175729 44.7935711 119.771815 43.1192146 116.717406 40.9238588 117.898603L40.9238588 117.898603ZM61.7956472 74.9857534C59.7792607 77.3322391 62.4359593 80.1838159 64.2574683 81.6990889 66.5204347 83.5802546 69.1532708 84.8966729 71.9730304 85.7358398 78.4755788 87.6687077 85.4116304 86.921014 92.0613313 87.9073334 103.567064 89.617484 114.555774 94.4496538 123.412762 102.03795 125.862652 104.137856 128.153458 106.420708 130.253363 108.870599 131.36695 110.167131 132.424857 111.511389 133.494695 112.843716 134.564533 114.172065 135.578692 115.814606 137.400201 116.089025 138.736504 116.28788 139.949518 115.770857 140.383021 114.394783 141.317638 111.431847 138.362658 108.071203 136.640576 105.887778 134.830998 103.592994 132.850406 101.433432 130.734592 99.421022 126.375697 95.2729124 121.424215 91.6338709 116.106841 88.8061567 110.697993 85.9307174 104.875528 83.7274071 98.8820472 82.4268972 92.3198424 81.0030973 85.8530878 81.2457001 79.1994098 80.9275325 75.7671779 80.7644717 72.295175 80.2235868 69.2526982 78.5333217 67.8965092 77.7816508 66.8386022 76.8311252 65.7250159 75.7652639 64.8301698 74.9101886 62.9132106 73.6892205 61.7956472 74.9857534L61.7956472 74.9857534Z"/><path d="M27.4494649 90.2856359C26.8330154 90.8503833 26.2165658 91.3793369 25.6279559 91.9759011 25.1427505 92.4690608 24.8921936 93.2525484 25.1109337 93.9326316 25.5404599 95.2490498 25.9580547 96.7762541 27.369923 97.3012306 28.3681736 97.6711004 29.4698286 97.6512149 30.4720562 97.3091848 32.4924199 96.6171703 34.0991658 94.6524857 34.0434865 92.4611066 33.9281508 88.18573 27.9943268 86.1613889 25.2461549 89.4146522 22.1639072 93.065625 25.8705587 99.1426254 30.5635294 97.3211161 32.7867248 96.4580866 34.3934707 94.0996695 33.7770212 91.6696648 33.2440906 89.5618047 31.267475 88.141982 29.147684 87.9908524 26.5546188 87.807906 24.4388049 89.8879265 24.3513088 92.437244 24.315515 93.4673115 24.6018657 94.5490812 25.1745672 95.4121107 26.0733904 96.772277 27.4176482 97.3410015 29.0164399 96.9910172 30.6351171 96.6370558 31.0368035 94.5132874 29.9629882 93.4076551 29.784019 93.2207316 29.7959503 93.23664 29.9987821 93.4593573 29.8993547 93.3241361 29.7999274 93.192892 29.6965229 93.0616479 29.6090269 92.9105183 29.4936911 92.7832512 29.3505158 92.6838239 29.1874549 92.5088317 29.1675694 92.4929233 29.2908594 92.6360988 29.402218 92.7832512 29.3982409 92.7593887 29.2669968 92.5565569 29.3783554 92.8429077 29.3902867 92.8548389 29.3027906 92.5843965 29.0721192 92.1071452 29.5374392 92.9383579 29.3067677 92.437244 29.2948365 92.5247401 29.2789281 92.6082591 29.2669968 92.6957552 29.3465387 92.4292898 29.3306303 92.437244 29.2113175 92.7235948 29.3346074 92.520763 29.3465387 92.4969004 29.2431342 92.6440529 29.1874549 92.7434803 29.107913 92.815068 29.0005315 92.8627931 29.4539202 92.4451982 28.8374707 93.0815333 28.7340662 92.8787015 28.8732645 92.8667702 29.0124628 92.8707473 29.1516611 92.8826786 29.0721192 92.8787015 28.9925773 92.8707473 28.9170125 92.8667702 29.1834778 92.9542663 29.1874549 92.9463121 28.9289438 92.8429077 29.1357527 92.9741518 29.1715465 92.9860831 29.0403024 92.8787015 28.7857684 92.560534 29.4976682 93.3161819 29.1954091 93.0298311 29.1118901 92.9582434 29.0681421 92.8667702 29.0562108 92.7514345 29.1238214 93.0178998 29.1317756 93.0218769 29.0800734 92.7633658 29.1357527 92.3378167 28.9011042 93.0457395 29.0920047 92.6758697 29.2272259 92.4173586 28.9488293 92.8389306 28.8494019 92.9224496 29.147684 92.6639384 28.4477155 93.0338082 28.8454248 92.8787015 28.4119216 93.0457395 28.7340662 92.8787015 28.9289438 92.9224496 28.638616 92.8389306 28.6187305 92.8309764 28.8653103 92.9025641 29.020417 93.0377853 29.0403024 93.0497166 28.9170125 92.9343808 28.89315 92.9383579 28.8494019 92.8747244 28.853379 92.8826786 28.9329209 93.2048233 28.7380433 92.099191 28.7778143 92.7196177 28.7698601 92.6122362 28.8056539 91.9759011 28.7698601 92.4650837 28.7937226 92.142939 28.8812187 92.3457709 28.6704327 92.520763 28.8414478 92.3577021 28.8653103 92.3258854 28.7340662 92.4253127 28.6028221 92.5167859 28.6306618 92.5008775 28.8255394 92.3775876 28.5749825 92.4690608 28.5749825 92.477015 28.8295165 92.393496 28.89315 92.3775876 28.9607606 92.3656563 29.0243941 92.3497479 28.5153261 92.4412211 29.0880276 92.3855418 29.2192717 92.3974731 28.5749825 92.3378167 29.6209581 92.5804194 29.3226761 92.4531524 28.9687148 92.3020228 29.867538 92.6997323 29.5135766 92.5684881 29.3902867 92.4730379 29.4101722 92.5008775 29.5811872 92.6559842 29.4380118 92.4531524 29.4340347 92.4571295 29.573233 92.6798468 29.5493705 92.6241675 29.5255079 92.564511 29.5056224 92.5088317 29.5692559 92.7514345 29.5772101 92.7752971 29.5334621 92.5764423 29.784019 92.2145267 29.3982409 92.9025641 29.573233 92.5565569 29.4499431 92.8031367 29.3544929 92.9542663 29.0800734 93.0974417 29.3505158 92.9582434 28.8215623 93.1809607 28.7340662 93.1968691 29.1516611 93.1173272 28.8334936 93.1650523 28.5431657 93.0576708 28.980646 93.3957238 29.4221035 93.7337768 29.8595838 94.0678528 29.529485 93.4951512 29.1755236 92.9224496 28.7897455 92.3855418 28.7897455 93.0616479 28.7897455 93.7377539 28.7897455 94.41386 29.1755236 93.6542349 29.485737 92.8906328 29.827767 92.1190765 30.4959188 90.5958493 28.7817913 89.068645 27.4494649 90.2856359L27.4494649 90.2856359ZM120.469713 78.7838786C116.357398 66.9719079 115.466528 54.1736178 119.193065 42.142907 122.855969 30.319005 130.62721 20.3126353 141.361386 14.1004136 151.570586 8.19045122 164.030821 5.62124817 175.695637 7.78081048 187.308751 9.92844151 197.756577 16.3156553 205.372712 25.2879805 213.132022 34.4313207 217.622161 46.5296422 216.699475 58.5643302 216.246086 64.45043 214.2297 70.4399343 210.371919 74.9579137 207.174335 78.7043367 203.193264 81.5559135 199.001407 84.0853456 190.204076 89.3947667 180.289181 93.35993 172.844061 100.645967 169.002189 104.404321 166.063116 109.105247 164.726813 114.335126 162.881441 121.565484 164.094455 129.066284 165.868239 136.181306 167.518733 142.803169 169.817493 149.373329 170.402126 156.205977 170.895285 161.968787 170.441897 167.759437 169.057868 173.375094 166.214246 184.924577 159.834987 194.84345 151.009816 202.730029 148.874117 204.639034 146.702623 206.512246 144.376024 208.190579 141.349455 210.374004 143.894795 214.7329 147.291233 213.181833 158.987866 207.832641 167.634068 197.066646 172.665092 185.421713 177.954627 173.176239 179.239228 159.932515 176.268339 146.923439 173.432671 134.502973 166.703428 119.47751 175.898469 108.234263 182.532262 100.124968 193.087469 96.2154838 201.920594 91.0611693 206.669244 88.2891345 211.354261 85.1074589 215.088752 81.030937 219.745929 75.9442331 222.760566 69.5609965 223.862221 62.7601649 226.057577 49.2102039 222.008895 35.0875413 213.995051 24.0670125 206.390848 13.611231 195.557244 5.47807277 183.037353 1.97027542 170.235088-1.61706382 156.430595-.161447234 144.332276 5.1638823 132.202139 10.5011431 122.03271 20.1098034 116.436939 32.1643769 110.773558 44.3661028 109.40146 58.5086508 113.064364 71.4898873 113.935347 74.5721355 115.32733 77.5072313 116.894305 80.2911974 117.956189 82.1842944 121.213429 80.9195784 120.469713 78.7838786L120.469713 78.7838786ZM107.150425 136.940931C102.433592 134.089355 96.2372798 134.375706 91.0988746 135.859162 85.7854772 137.390343 80.8459267 140.544179 77.0716646 144.568999 68.6680654 153.521438 66.743152 166.395293 70.3225364 177.92489 72.3866481 184.574592 76.0654599 190.635684 80.945354 195.591144 81.7527041 193.638391 82.5640312 191.685637 83.3713813 189.732884 76.9801915 189.935716 70.3106051 190.245929 64.2097432 192.337881 59.4770015 193.960535 53.6147652 196.183731 51.443272 201.079535 49.3314352 205.844094 50.8665934 211.650652 55.5158161 214.243717 57.8185534 215.528319 60.6144504 215.902166 63.1876301 216.248173 70.7878564 217.274263 78.5193268 217.302103 86.1752324 217.270286 95.1555103 217.234492 104.135788 216.940187 113.112089 216.598157 120.684476 216.307829 128.229023 215.969776 135.781524 215.397075 139.380794 215.126632 139.428519 209.964364 135.781524 209.765509 130.002806 209.451318 124.275791 209.737669 118.497074 209.968341 110.399711 210.294462 102.302348 210.596722 94.1970307 210.755805 86.4615832 210.906935 78.7022731 210.974546 70.9747798 210.545019 69.3799652 210.457523 67.7891276 210.346165 66.1982901 210.187081 64.496094 210.020043 64.1659952 209.988226 62.7262872 209.737669 61.7121283 209.562677 60.7019464 209.355868 59.7196043 209.049632 59.5207496 208.985998 59.3298491 208.918388 59.1309944 208.854754 58.5304532 208.651922 59.36962 209.001907 59.0514525 208.822937 58.395232 208.449091 58.0651332 208.301938 57.5958362 207.629809 56.5856543 206.182147 56.9833637 204.054401 58.1446751 202.809571 59.667902 201.174985 62.1217689 200.38752 64.1540639 199.592101 70.3026509 197.189936 76.8409932 196.78825 83.3713813 196.593372 86.3303391 196.505876 87.9132224 192.894674 85.7974085 190.735112 78.7897692 183.580319 74.6177978 173.526224 75.6399109 163.444289 76.5625966 154.34072 82.6038022 146.517775 91.0233098 143.013955 95.9549062 140.961774 100.727419 141.116881 105.941389 141.415163 108.399233 141.562315 109.099201 138.118151 107.150425 136.940931L107.150425 136.940931Z"/></g></svg>